<svg xmlns="http://www.w3.org/2000/svg" viewBox="0 0 400 300" width="400" height="300">
<defs>
<linearGradient id="c2a-sky" x1="0" y1="0" x2="0" y2="1">
  <stop offset="0" stop-color="#240a08"/><stop offset="0.3" stop-color="#5a1a0e"/>
  <stop offset="0.55" stop-color="#a8401a"/><stop offset="0.72" stop-color="#e2792e"/>
  <stop offset="0.85" stop-color="#f4a24a"/><stop offset="1" stop-color="#7a2a12"/>
</linearGradient>
<radialGradient id="c2a-glowL" cx="45" cy="215" r="120" gradientUnits="userSpaceOnUse">
  <stop offset="0" stop-color="#ffd27a" stop-opacity="0.9"/><stop offset="0.35" stop-color="#ff7a22" stop-opacity="0.45"/><stop offset="1" stop-color="#ff5a10" stop-opacity="0"/>
</radialGradient>
<radialGradient id="c2a-glowR" cx="355" cy="220" r="110" gradientUnits="userSpaceOnUse">
  <stop offset="0" stop-color="#ffd27a" stop-opacity="0.85"/><stop offset="0.35" stop-color="#ff7a22" stop-opacity="0.4"/><stop offset="1" stop-color="#ff5a10" stop-opacity="0"/>
</radialGradient>
<linearGradient id="c2a-mesa" x1="0" y1="0" x2="0" y2="1">
  <stop offset="0" stop-color="#b8624a"/><stop offset="1" stop-color="#8a3e2a"/>
</linearGradient>
<linearGradient id="c2a-mesa2" x1="0" y1="0" x2="0" y2="1">
  <stop offset="0" stop-color="#7a3222"/><stop offset="1" stop-color="#4a1c12"/>
</linearGradient>
<linearGradient id="c2a-flame" x1="0" y1="1" x2="0" y2="0">
  <stop offset="0" stop-color="#fff2b0"/><stop offset="0.3" stop-color="#ffc040"/><stop offset="0.65" stop-color="#ff6a14"/><stop offset="1" stop-color="#c02a08" stop-opacity="0"/>
</linearGradient>
<linearGradient id="c2a-banner" x1="0" y1="0" x2="1" y2="0.2">
  <stop offset="0" stop-color="#5e0e08"/><stop offset="0.35" stop-color="#b3200f"/><stop offset="0.6" stop-color="#8a150a"/><stop offset="0.85" stop-color="#c83218"/><stop offset="1" stop-color="#5a0c06"/>
</linearGradient>
<radialGradient id="c2a-skin" cx="0.38" cy="0.3" r="0.8">
  <stop offset="0" stop-color="#b0b46a"/><stop offset="0.3" stop-color="#6e8236"/><stop offset="0.7" stop-color="#394c1a"/><stop offset="1" stop-color="#1a260a"/>
</radialGradient>
<radialGradient id="c2a-skinBody" cx="0.35" cy="0.25" r="0.85">
  <stop offset="0" stop-color="#94a052"/><stop offset="0.35" stop-color="#5a702a"/><stop offset="0.75" stop-color="#2c3c14"/><stop offset="1" stop-color="#141e08"/>
</radialGradient>
<linearGradient id="c2a-skinArm" x1="0" y1="0" x2="1" y2="0">
  <stop offset="0" stop-color="#2e4012"/><stop offset="0.45" stop-color="#6e8438"/><stop offset="1" stop-color="#1c2a0a"/>
</linearGradient>
<linearGradient id="c2a-iron" x1="0" y1="0" x2="0.9" y2="1">
  <stop offset="0" stop-color="#a39d94"/><stop offset="0.25" stop-color="#6e6862"/><stop offset="0.6" stop-color="#3c3632"/><stop offset="1" stop-color="#1c1816"/>
</linearGradient>
<linearGradient id="c2a-ironR" x1="1" y1="0" x2="0.1" y2="1">
  <stop offset="0" stop-color="#7a6a5a"/><stop offset="0.3" stop-color="#4e4640"/><stop offset="0.7" stop-color="#2c2622"/><stop offset="1" stop-color="#161210"/>
</linearGradient>
<linearGradient id="c2a-blade" x1="0" y1="0" x2="1" y2="1">
  <stop offset="0" stop-color="#d8d2c6"/><stop offset="0.3" stop-color="#8e8880"/><stop offset="0.7" stop-color="#4a4440"/><stop offset="1" stop-color="#26201c"/>
</linearGradient>
<linearGradient id="c2a-bladeR" x1="1" y1="0" x2="0" y2="1">
  <stop offset="0" stop-color="#f0b070"/><stop offset="0.3" stop-color="#8a7466"/><stop offset="0.7" stop-color="#443c38"/><stop offset="1" stop-color="#201a18"/>
</linearGradient>
<linearGradient id="c2a-wood" x1="0" y1="0" x2="1" y2="0">
  <stop offset="0" stop-color="#2a170c"/><stop offset="0.4" stop-color="#6e4424"/><stop offset="0.7" stop-color="#4a2c16"/><stop offset="1" stop-color="#1e0f06"/>
</linearGradient>
<linearGradient id="c2a-leather" x1="0" y1="0" x2="1" y2="1">
  <stop offset="0" stop-color="#8a5a32"/><stop offset="0.5" stop-color="#5a3519"/><stop offset="1" stop-color="#2e1a0b"/>
</linearGradient>
<linearGradient id="c2a-bone" x1="0" y1="0" x2="1" y2="1">
  <stop offset="0" stop-color="#fbf1d4"/><stop offset="0.5" stop-color="#d9c79a"/><stop offset="1" stop-color="#8a7650"/>
</linearGradient>
<radialGradient id="c2a-boneR" cx="0.35" cy="0.3" r="0.8">
  <stop offset="0" stop-color="#f6ead0"/><stop offset="0.55" stop-color="#cdb888"/><stop offset="1" stop-color="#6e5a38"/>
</radialGradient>
<radialGradient id="c2a-eye" cx="0.5" cy="0.5" r="0.5">
  <stop offset="0" stop-color="#fff3a0"/><stop offset="0.45" stop-color="#ffb020"/><stop offset="1" stop-color="#c42a08"/>
</radialGradient>
<radialGradient id="c2a-boss" cx="0.35" cy="0.3" r="0.75">
  <stop offset="0" stop-color="#c8b8a0"/><stop offset="0.4" stop-color="#7a6a5a"/><stop offset="1" stop-color="#2a221c"/>
</radialGradient>
<linearGradient id="c2a-hair" x1="0" y1="0" x2="1" y2="0">
  <stop offset="0" stop-color="#3a2a22"/><stop offset="0.5" stop-color="#140c08"/><stop offset="1" stop-color="#050302"/>
</linearGradient>
<radialGradient id="c2a-vig" cx="200" cy="130" r="260" gradientUnits="userSpaceOnUse"><stop offset="0.45" stop-color="#000" stop-opacity="0"/><stop offset="0.8" stop-color="#0a0503" stop-opacity="0.36"/><stop offset="1" stop-color="#050201" stop-opacity="0.80"/></radialGradient>
<filter id="c2a-b1" x="-20%" y="-20%" width="140%" height="140%"><feGaussianBlur stdDeviation="1.2"/></filter>
<filter id="c2a-b3" x="-30%" y="-30%" width="160%" height="160%"><feGaussianBlur stdDeviation="3"/></filter>
<filter id="c2a-b8" x="-50%" y="-50%" width="200%" height="200%"><feGaussianBlur stdDeviation="8"/></filter>
<filter id="c2a-glow" x="-100%" y="-100%" width="300%" height="300%"><feGaussianBlur stdDeviation="1.6" result="g"/><feMerge><feMergeNode in="g"/><feMergeNode in="SourceGraphic"/></feMerge></filter>
<filter id="c2a-grain" x="0" y="0" width="100%" height="100%"><feTurbulence type="fractalNoise" baseFrequency="0.85" numOctaves="2" seed="4"/><feColorMatrix values="0 0 0 0 0.1  0 0 0 0 0.06  0 0 0 0 0.03  0 0 0 -1.4 1.1"/></filter>
</defs>

<rect id="c2a-bg" width="400" height="300" fill="url(#c2a-sky)"/>
<circle cx="290" cy="150" r="40" fill="#ffd690" opacity="0.35" filter="url(#c2a-b8)"/>
<circle cx="290" cy="150" r="17" fill="#ffe7b0" opacity="0.55" filter="url(#c2a-b3)"/>
<g opacity="0.55" filter="url(#c2a-b3)">
<path d="M-10,70 C60,58 120,66 190,60 C250,55 320,62 410,52 L410,70 C330,78 250,72 190,78 C120,84 60,78 -10,88 Z" fill="#3a120a"/>
<path d="M-10,118 C80,108 160,120 240,112 C300,106 360,112 410,106 L410,118 C350,124 290,120 240,126 C160,134 80,124 -10,132 Z" fill="#7a2a14"/>
<path d="M20,150 C90,142 150,150 210,146 C270,142 330,150 400,144 L400,152 C330,158 270,152 210,156 C150,160 90,156 20,160 Z" fill="#f0a060" opacity="0.6"/>
</g>
<path d="M-5,185 L10,160 L40,158 L52,170 L90,168 L102,152 L150,150 L162,166 L200,168 L240,164 L252,148 L300,146 L312,160 L350,158 L362,170 L405,166 L405,210 L-5,210 Z" fill="url(#c2a-mesa)" opacity="0.55"/>
<path d="M-5,196 L20,180 L60,182 L75,192 L130,190 L145,178 L190,180 L230,192 L280,188 L300,176 L345,178 L370,190 L405,186 L405,220 L-5,220 Z" fill="url(#c2a-mesa2)" opacity="0.8"/>
<g filter="url(#c2a-b8)">
<path d="M30,210 C20,170 50,140 40,110 C30,80 60,55 90,40 C120,25 110,0 140,-10 L190,-10 C160,10 170,30 130,55 C100,75 90,100 95,130 C100,160 70,180 70,210 Z" fill="#1e0c08" opacity="0.6"/>
<path d="M350,210 C340,170 370,150 360,120 C352,95 380,70 372,45 C366,20 390,5 400,-10 L420,-10 L420,210 Z" fill="#1a0a06" opacity="0.55"/>
<path d="M250,190 C255,160 240,140 262,118 C280,100 270,80 300,70 C330,60 340,40 360,30 L400,40 C370,60 350,80 320,90 C300,98 305,120 290,140 C278,156 285,175 280,190 Z" fill="#2a1008" opacity="0.4"/>
</g>
<rect width="400" height="300" fill="url(#c2a-glowL)"/><rect width="400" height="300" fill="url(#c2a-glowR)"/>
<g>
<path d="M-6,240 L36,150 L40,146 L44,150 L92,240 Z" fill="#3a2012"/>
<path d="M40,150 L44,150 L92,240 L56,240 Z" fill="#1c0e06" opacity="0.8"/>
<path d="M-6,240 L36,150 L30,240 Z" fill="#c86a2a" opacity="0.35"/>
<path d="M36,150 L30,132 M40,146 L40,128 M44,150 L52,134" stroke="#241208" stroke-width="2" stroke-linecap="round"/>
<path d="M20,190 L60,188 M10,212 L72,210" stroke="#1a0c06" stroke-width="0.8" opacity="0.7"/>
<path d="M318,245 L362,166 L366,162 L370,166 L412,245 Z" fill="#3a1e10"/>
<path d="M366,166 L370,166 L412,245 L380,245 Z" fill="#1a0c06" opacity="0.8"/>
<path d="M318,245 L362,166 L360,245 Z" fill="#d07030" opacity="0.3"/>
<path d="M362,166 L356,150 M366,162 L367,146 M370,166 L378,152" stroke="#241208" stroke-width="2" stroke-linecap="round"/>
</g>
<path d="M-4.0,237.5 L-4.0,196.9 L-0.6,188.9 L2.7,196.9 L2.7,237.5 Z M3.8,236.1 L3.8,201.3 L7.8,193.3 L11.7,201.3 L11.7,236.1 Z M13.0,240.0 L13.0,203.2 L16.4,195.2 L19.8,203.2 L19.8,240.0 Z M20.8,238.6 L20.8,198.8 L25.0,190.8 L29.3,198.8 L29.3,238.6 Z M29.9,238.1 L29.9,193.7 L33.9,185.7 L37.8,193.7 L37.8,238.1 Z M39.1,239.0 L39.1,204.3 L43.1,196.3 L47.1,204.3 L47.1,239.0 Z M48.2,239.5 L48.2,205.1 L51.6,197.1 L55.1,205.1 L55.1,239.5 Z M56.1,238.9 L56.1,194.3 L60.1,186.3 L64.2,194.3 L64.2,238.9 Z M65.6,237.8 L65.6,194.2 L69.2,186.2 L72.8,194.2 L72.8,237.8 Z M74.3,236.5 L74.3,201.4 L78.6,193.4 L82.9,201.4 L82.9,236.5 Z M83.6,238.5 L83.6,199.3 L88.1,191.3 L92.5,199.3 L92.5,238.5 Z M93.3,237.4 L93.3,198.8 L97.1,190.8 L100.8,198.8 L100.8,237.4 Z M101.9,238.7 L101.9,193.9 L105.8,185.9 L109.7,193.9 L109.7,238.7 Z M111.1,238.7 L111.1,192.8 L115.4,184.8 L119.7,192.8 L119.7,238.7 Z M120.3,239.6 L120.3,194.0 L124.6,186.0 L128.9,194.0 L128.9,239.6 Z M130.0,239.3 L130.0,202.8 L134.1,194.8 L138.1,202.8 L138.1,239.3 Z M139.2,239.4 L139.2,204.7 L142.6,196.7 L146.1,204.7 L146.1,239.4 Z M147.5,237.6 L147.5,194.0 L150.7,186.0 L153.8,194.0 L153.8,237.6 Z M154.5,239.5 L154.5,196.3 L157.9,188.3 L161.3,196.3 L161.3,239.5 Z M161.9,238.9 L161.9,204.3 L165.8,196.3 L169.7,204.3 L169.7,238.9 Z M170.6,238.0 L170.6,192.3 L174.9,184.3 L179.2,192.3 L179.2,238.0 Z M180.7,238.4 L180.7,203.5 L184.2,195.5 L187.6,203.5 L187.6,238.4 Z M188.2,238.4 L188.2,199.5 L191.5,191.5 L194.8,199.5 L194.8,238.4 Z M195.4,237.3 L195.4,192.8 L198.5,184.8 L201.5,192.8 L201.5,237.3 Z M203.0,237.8 L203.0,199.3 L207.3,191.3 L211.7,199.3 L211.7,237.8 Z M212.7,238.2 L212.7,197.1 L216.7,189.1 L220.6,197.1 L220.6,238.2 Z M221.8,237.7 L221.8,197.6 L226.2,189.6 L230.6,197.6 L230.6,237.7 Z M231.8,239.9 L231.8,202.3 L235.2,194.3 L238.5,202.3 L238.5,239.9 Z M239.5,237.7 L239.5,203.5 L243.4,195.5 L247.2,203.5 L247.2,237.7 Z M248.3,238.5 L248.3,197.1 L251.3,189.1 L254.3,197.1 L254.3,238.5 Z M254.9,238.7 L254.9,199.1 L258.8,191.1 L262.8,199.1 L262.8,238.7 Z M263.6,236.1 L263.6,193.2 L267.7,185.2 L271.7,193.2 L271.7,236.1 Z M272.3,237.0 L272.3,191.4 L276.3,183.4 L280.3,191.4 L280.3,237.0 Z M281.3,237.5 L281.3,199.6 L285.2,191.6 L289.1,199.6 L289.1,237.5 Z M289.9,237.2 L289.9,196.1 L293.4,188.1 L297.0,196.1 L297.0,237.2 Z M297.9,238.3 L297.9,204.0 L302.0,196.0 L306.2,204.0 L306.2,238.3 Z M307.4,239.2 L307.4,202.5 L310.9,194.5 L314.3,202.5 L314.3,239.2 Z M315.1,238.8 L315.1,199.6 L318.4,191.6 L321.6,199.6 L321.6,238.8 Z M322.2,239.3 L322.2,201.3 L325.7,193.3 L329.2,201.3 L329.2,239.3 Z M330.2,237.3 L330.2,201.3 L334.4,193.3 L338.7,201.3 L338.7,237.3 Z M339.9,236.9 L339.9,197.5 L344.2,189.5 L348.5,197.5 L348.5,236.9 Z M349.1,239.2 L349.1,202.9 L352.9,194.9 L356.7,202.9 L356.7,239.2 Z M358.1,239.2 L358.1,201.9 L361.3,193.9 L364.6,201.9 L364.6,239.2 Z M365.8,236.5 L365.8,198.4 L370.0,190.4 L374.2,198.4 L374.2,236.5 Z M375.0,237.4 L375.0,200.1 L379.2,192.1 L383.4,200.1 L383.4,237.4 Z M384.3,239.7 L384.3,200.8 L387.9,192.8 L391.5,200.8 L391.5,239.7 Z M392.2,239.5 L392.2,194.2 L395.2,186.2 L398.2,194.2 L398.2,239.5 Z M399.7,239.7 L399.7,194.3 L403.3,186.3 L407.0,194.3 L407.0,239.7 Z" fill="#1e0e07"/>
<path d="M-5,214 L405,210 M-5,224 L405,221" stroke="#140804" stroke-width="2.2"/>
<ellipse cx="46" cy="228.0" rx="36.0" ry="34.0" fill="#ff8a2a" opacity="0.55" filter="url(#c2a-b8)"/><path d="M31.4,246.0 C31.4,221.5 41.0,209.2 46.1,184.7 C49.6,209.2 56.4,221.5 56.4,246.0 Z" fill="url(#c2a-flame)" opacity="0.88"/><path d="M39.8,246.0 C39.8,227.2 49.2,217.8 55.7,199.0 C55.6,217.8 59.9,227.2 59.9,246.0 Z" fill="url(#c2a-flame)" opacity="0.95"/><path d="M20.6,246.0 C20.6,225.4 29.8,215.1 38.0,194.5 C34.1,215.1 35.7,225.4 35.7,246.0 Z" fill="url(#c2a-flame)" opacity="0.92"/><path d="M13.1,246.0 C13.1,215.1 24.6,199.6 32.2,168.7 C32.9,199.6 38.6,215.1 38.6,246.0 Z" fill="url(#c2a-flame)" opacity="0.90"/><path d="M20.8,246.0 C20.8,229.8 25.2,221.7 24.2,205.4 C33.0,221.7 41.1,229.8 41.1,246.0 Z" fill="url(#c2a-flame)" opacity="0.80"/><path d="M24.9,246.0 C24.9,229.5 32.4,221.3 36.3,204.9 C39.1,221.3 44.4,229.5 44.4,246.0 Z" fill="url(#c2a-flame)" opacity="0.96"/><path d="M36.8,246.0 C36.8,220.3 46.5,207.4 53.4,181.7 C52.8,207.4 56.8,220.3 56.8,246.0 Z" fill="url(#c2a-flame)" opacity="0.86"/><path d="M23.3,246.0 C23.3,214.8 36.5,199.3 46.7,168.1 C44.6,199.3 49.2,214.8 49.2,246.0 Z" fill="url(#c2a-flame)" opacity="0.93"/><path d="M29.1,246.0 C29.1,226.5 32.7,216.8 31.4,197.3 C39.4,216.8 46.6,226.5 46.6,246.0 Z" fill="url(#c2a-flame)" opacity="0.94"/><ellipse cx="46" cy="242.0" rx="24.0" ry="7.0" fill="#fff4c0" opacity="0.8" filter="url(#c2a-b3)"/>
<ellipse cx="356" cy="233.8" rx="32.4" ry="30.6" fill="#ff8a2a" opacity="0.55" filter="url(#c2a-b8)"/><path d="M345.1,250.0 C345.1,226.6 350.3,214.9 350.6,191.5 C357.6,214.9 364.9,226.6 364.9,250.0 Z" fill="url(#c2a-flame)" opacity="0.75"/><path d="M340.4,250.0 C340.4,231.9 350.4,222.8 357.5,204.6 C357.3,222.8 361.7,231.9 361.7,250.0 Z" fill="url(#c2a-flame)" opacity="0.90"/><path d="M351.2,250.0 C351.2,226.6 356.8,214.8 359.8,191.4 C361.6,214.8 365.4,226.6 365.4,250.0 Z" fill="url(#c2a-flame)" opacity="0.79"/><path d="M361.4,250.0 C361.4,234.8 366.6,227.2 366.4,212.0 C374.6,227.2 382.8,234.8 382.8,250.0 Z" fill="url(#c2a-flame)" opacity="0.92"/><path d="M338.7,250.0 C338.7,230.1 343.6,220.1 342.7,200.2 C351.8,220.1 360.4,230.1 360.4,250.0 Z" fill="url(#c2a-flame)" opacity="0.77"/><path d="M365.6,250.0 C365.6,228.6 375.3,218.0 384.8,196.6 C378.9,218.0 379.2,228.6 379.2,250.0 Z" fill="url(#c2a-flame)" opacity="0.99"/><path d="M333.6,250.0 C333.6,229.8 338.1,219.7 339.6,199.5 C343.2,219.7 347.7,229.8 347.7,250.0 Z" fill="url(#c2a-flame)" opacity="0.91"/><path d="M336.1,250.0 C336.1,226.1 339.2,214.1 338.9,190.2 C344.2,214.1 349.3,226.1 349.3,250.0 Z" fill="url(#c2a-flame)" opacity="0.95"/><path d="M342.5,250.0 C342.5,229.9 350.1,219.8 354.3,199.7 C356.5,219.8 361.6,229.9 361.6,250.0 Z" fill="url(#c2a-flame)" opacity="0.85"/><ellipse cx="356" cy="246.4" rx="21.6" ry="6.3" fill="#fff4c0" opacity="0.8" filter="url(#c2a-b3)"/>
<g>
<path d="M350,262 L350,24" stroke="#2a150a" stroke-width="4"/>
<path d="M349,262 L349,24" stroke="#7a4a26" stroke-width="1" opacity="0.6"/>
<path d="M322,36 L384,32" stroke="#2a150a" stroke-width="3.2" stroke-linecap="round"/>
<path d="M350,24 L346,14 L354,14 Z" fill="#6a625a"/>
<path d="M324,38 C340,36 366,35 382,34 C386,62 378,92 384,124 C386,136 384,146 386,156 L376,146 L370,164 L360,146 L350,168 L342,150 L332,162 L328,148 C330,120 320,96 326,70 C328,58 324,48 324,38 Z" fill="url(#c2a-banner)"/>
<path d="M336,40 C338,70 332,100 338,150 M360,38 C364,70 356,110 362,150 M372,36 C376,66 370,96 376,140" stroke="#3a0604" stroke-width="2" fill="none" opacity="0.45" filter="url(#c2a-b1)"/>
<path d="M346,40 C348,70 344,100 348,140" stroke="#e85a30" stroke-width="1.5" fill="none" opacity="0.35" filter="url(#c2a-b1)"/>
<g fill="#1a0806" opacity="0.9">
<path d="M354,70 C342,72 336,84 340,96 C344,108 364,110 370,98 C374,88 368,74 354,70 Z M354,78 C362,80 366,88 362,96 C358,102 346,102 344,94 C342,86 346,80 354,78 Z"/>
<path d="M346,108 L340,130 L344,130 L350,112 Z M354,110 L354,134 L358,134 L358,110 Z M362,108 L368,130 L364,130 L358,112 Z"/>
<path d="M352,84 L356,84 L358,92 L350,92 Z"/>
</g>
</g>
<g opacity="0.8">
<path d="M16,236 L16,120" stroke="#1e0e06" stroke-width="2.2"/>
<path d="M17,124 C28,122 38,126 48,122 C46,138 50,150 46,164 L40,156 L34,168 L28,158 L18,166 Z" fill="#8a1a0c"/>
<path d="M17,124 C28,122 38,126 48,122 C46,130 40,134 30,134 C24,134 20,132 17,130 Z" fill="#c43016" opacity="0.6"/>
</g>
<g><circle cx="66.0" cy="164.9" r="1.07" fill="#ff9a3c" opacity="0.73"/><path d="M189.9,222.3 l-0.0,-6.1" stroke="#ff6a1e" stroke-width="0.60" stroke-linecap="round" opacity="0.46"/><path d="M27.7,186.7 l5.0,-5.1" stroke="#ffd27a" stroke-width="0.64" stroke-linecap="round" opacity="0.66"/><path d="M162.7,112.8 l4.6,-7.2" stroke="#ff6a1e" stroke-width="1.22" stroke-linecap="round" opacity="0.57"/><circle cx="61.9" cy="191.7" r="0.61" fill="#ffd27a" opacity="0.55"/><circle cx="137.2" cy="121.8" r="0.67" fill="#ffd27a" opacity="0.56"/><circle cx="29.8" cy="61.4" r="1.11" fill="#ff6a1e" opacity="0.69"/><path d="M232.3,173.2 l-0.3,-8.3" stroke="#ff9a3c" stroke-width="0.55" stroke-linecap="round" opacity="0.60"/><circle cx="214.3" cy="81.3" r="1.36" fill="#ff6a1e" opacity="0.52"/><circle cx="154.6" cy="25.6" r="0.58" fill="#ff6a1e" opacity="0.67"/><circle cx="1.1" cy="34.7" r="1.04" fill="#ff6a1e" opacity="0.45"/><circle cx="222.6" cy="150.8" r="0.66" fill="#ffd27a" opacity="0.63"/><path d="M133.0,180.0 l3.5,-5.1" stroke="#ffd27a" stroke-width="1.20" stroke-linecap="round" opacity="0.40"/><path d="M150.0,163.5 l4.9,-4.2" stroke="#ff6a1e" stroke-width="1.00" stroke-linecap="round" opacity="0.78"/><circle cx="236.2" cy="205.5" r="0.94" fill="#ff9a3c" opacity="0.65"/><circle cx="98.3" cy="138.0" r="0.90" fill="#ff9a3c" opacity="0.70"/><path d="M334.8,31.0 l0.2,-4.6" stroke="#ff9a3c" stroke-width="0.66" stroke-linecap="round" opacity="0.37"/><path d="M258.2,50.7 l4.7,-6.4" stroke="#ff6a1e" stroke-width="0.57" stroke-linecap="round" opacity="0.57"/><circle cx="291.4" cy="25.9" r="0.69" fill="#ff9a3c" opacity="0.71"/><circle cx="240.5" cy="109.5" r="1.02" fill="#ff9a3c" opacity="0.49"/><circle cx="110.4" cy="181.3" r="0.51" fill="#ff6a1e" opacity="0.41"/><circle cx="105.8" cy="88.5" r="0.72" fill="#ff6a1e" opacity="0.54"/><path d="M300.7,190.6 l-2.8,-6.8" stroke="#ffd27a" stroke-width="0.56" stroke-linecap="round" opacity="0.39"/><circle cx="56.3" cy="202.1" r="1.09" fill="#ffd27a" opacity="0.49"/><path d="M158.5,206.5 l2.7,-6.2" stroke="#ffd27a" stroke-width="0.95" stroke-linecap="round" opacity="0.43"/><path d="M18.5,169.3 l0.7,-8.7" stroke="#ffd27a" stroke-width="1.16" stroke-linecap="round" opacity="0.71"/><circle cx="305.6" cy="56.8" r="1.14" fill="#ff9a3c" opacity="0.78"/><path d="M298.3,71.4 l1.0,-6.3" stroke="#ff6a1e" stroke-width="0.58" stroke-linecap="round" opacity="0.76"/><path d="M379.3,40.7 l1.1,-7.5" stroke="#ff6a1e" stroke-width="0.94" stroke-linecap="round" opacity="0.62"/><circle cx="249.9" cy="179.1" r="0.67" fill="#ff6a1e" opacity="0.72"/><circle cx="142.1" cy="86.8" r="1.39" fill="#ffd27a" opacity="0.74"/><path d="M250.6,189.6 l2.2,-6.8" stroke="#ff6a1e" stroke-width="1.24" stroke-linecap="round" opacity="0.63"/><circle cx="207.0" cy="101.8" r="0.86" fill="#ffd27a" opacity="0.36"/><circle cx="16.8" cy="77.9" r="1.03" fill="#ff9a3c" opacity="0.68"/><circle cx="94.6" cy="100.9" r="0.94" fill="#ff6a1e" opacity="0.76"/><circle cx="15.0" cy="56.3" r="0.84" fill="#ff6a1e" opacity="0.75"/><circle cx="250.7" cy="179.3" r="1.10" fill="#ff6a1e" opacity="0.66"/><circle cx="98.1" cy="212.5" r="0.85" fill="#ff6a1e" opacity="0.52"/><path d="M284.6,210.9 l-1.8,-6.2" stroke="#ffd27a" stroke-width="0.58" stroke-linecap="round" opacity="0.49"/><circle cx="31.8" cy="83.5" r="1.35" fill="#ff6a1e" opacity="0.68"/><circle cx="396.3" cy="55.0" r="0.89" fill="#ff6a1e" opacity="0.50"/><circle cx="272.7" cy="74.8" r="1.36" fill="#ff9a3c" opacity="0.58"/><path d="M386.9,208.9 l0.0,-4.3" stroke="#ffd27a" stroke-width="0.86" stroke-linecap="round" opacity="0.62"/><circle cx="186.8" cy="111.7" r="1.06" fill="#ff9a3c" opacity="0.65"/><circle cx="248.7" cy="40.8" r="1.38" fill="#ffd27a" opacity="0.37"/></g>
<path d="M158,122 C150,132 130,140 106,146 C90,152 84,166 86,184 L88,300 L316,300 L316,184 C318,166 310,152 294,146 C270,140 250,132 242,122 Z" fill="url(#c2a-skinBody)"/>
<path d="M162,126 C168,146 184,156 200,158 C216,156 232,146 238,126 C236,142 230,162 200,168 C170,162 164,142 162,126 Z" fill="#1c2a0a" opacity="0.55" filter="url(#c2a-b3)"/>
<path d="M150,132 C136,140 120,146 108,150 C124,152 140,150 156,146 Z" fill="#b6cc78" opacity="0.35" filter="url(#c2a-b1)"/>
<path d="M136,228 C156,246 186,244 200,230 C214,244 246,246 268,228 C262,250 236,258 200,250 C164,258 140,250 136,228 Z" fill="#16220a" opacity="0.7" filter="url(#c2a-b3)"/>
<path d="M150,176 C170,168 190,172 198,184 C194,208 180,222 156,222 C146,210 144,190 150,176 Z" fill="#a8c470" opacity="0.32" filter="url(#c2a-b3)"/>
<path d="M246,180 C230,172 214,176 204,188 C208,210 222,222 246,222 C254,210 254,194 246,180 Z" fill="#1a2a0a" opacity="0.35" filter="url(#c2a-b3)"/>
<path d="M200,172 L200,232" stroke="#1a2608" stroke-width="2" opacity="0.6" filter="url(#c2a-b1)"/>
<path d="M197,254 C197,244 176,242 176,252 C176,262 197,262 197,254 Z M203,254 C203,244 224,242 224,252 C224,262 203,262 203,254 Z M197,272 C197,262 176,260 176,270 C176,280 197,280 197,272 Z M203,272 C203,262 224,260 224,270 C224,280 203,280 203,272 Z M197,290 C197,280 176,278 176,288 C176,298 197,298 197,290 Z M203,290 C203,280 224,278 224,288 C224,298 203,298 203,290 Z" fill="#8aa84e" opacity="0.28" filter="url(#c2a-b1)"/>
<path d="M200,250 L200,300 M176,262 C188,266 196,264 200,262 C204,264 212,266 224,262 M176,281 C188,284 196,282 200,281 C204,282 212,284 224,281" stroke="#1a2608" stroke-width="1.6" fill="none" opacity="0.5" filter="url(#c2a-b1)"/>
<path d="M160,196 L186,212 M166,190 L176,220 M226,240 L252,232" stroke="#c7b38a" stroke-width="1.4" opacity="0.55" stroke-linecap="round"/>
<path d="M160,196 L186,212 M226,240 L252,232" stroke="#3a2010" stroke-width="0.5" opacity="0.6" transform="translate(0.8,0.8)"/>
<g fill="#a41a0c" opacity="0.75">
<path d="M214,176 C222,190 228,206 230,222 L226,222 C222,206 216,192 210,178 Z"/>
<path d="M224,174 C234,188 240,204 242,220 L238,220 C234,204 228,190 220,176 Z"/>
<path d="M234,172 C244,186 250,200 252,214 L248,214 C244,200 238,188 230,174 Z"/>
</g>
<path d="M142,154 L158,146 L276,290 L262,300 Z" fill="#000" opacity="0.4" filter="url(#c2a-b3)" transform="translate(3,4)"/>
<path d="M242,146 L258,154 L140,300 L126,292 Z" fill="#000" opacity="0.4" filter="url(#c2a-b3)" transform="translate(3,4)"/>
<path d="M242,146 L258,154 L140,300 L126,292 Z" fill="url(#c2a-leather)" stroke="#1e1008" stroke-width="0.8"/>
<path d="M142,154 L158,146 L276,290 L262,300 Z" fill="url(#c2a-leather)" stroke="#1e1008" stroke-width="0.8"/>
<path d="M147.9,159.5 l1.4,1.7 M152.4,164.9 l1.4,1.7 M156.9,170.3 l1.4,1.7 M161.4,175.7 l1.4,1.7 M165.9,181.1 l1.4,1.7 M170.5,186.5 l1.4,1.7 M175.0,191.9 l1.4,1.7 M179.5,197.3 l1.4,1.7 M184.0,202.6 l1.4,1.7 M188.5,208.0 l1.4,1.7 M193.1,213.4 l1.4,1.7 M197.6,218.7 l1.4,1.7 M202.1,224.0 l1.4,1.7 M206.7,229.3 l1.4,1.7 M211.2,234.6 l1.4,1.7 M215.8,239.9 l1.4,1.7 M220.3,245.1 l1.4,1.7 M224.9,250.3 l1.4,1.7 M229.4,255.5 l1.5,1.7 M234.0,260.7 l1.5,1.6 M238.6,265.9 l1.5,1.6 M243.2,271.0 l1.5,1.6 M247.8,276.1 l1.5,1.6 M252.4,281.2 l1.5,1.6 M257.0,286.2 l1.5,1.6 M261.6,291.2 l1.5,1.6" stroke="#d9c49a" stroke-width="0.6" stroke-linecap="round" fill="none" opacity="0.8"/>
<path d="M158.9,152.5 l1.4,1.7 M163.4,157.9 l1.4,1.7 M167.9,163.3 l1.4,1.7 M172.4,168.7 l1.4,1.7 M176.9,174.1 l1.4,1.7 M181.4,179.5 l1.4,1.7 M185.9,184.9 l1.4,1.7 M190.4,190.3 l1.4,1.7 M194.9,195.8 l1.4,1.7 M199.4,201.2 l1.4,1.7 M203.9,206.6 l1.4,1.7 M208.4,211.9 l1.4,1.7 M212.8,217.3 l1.4,1.7 M217.3,222.7 l1.4,1.7 M221.7,228.1 l1.4,1.7 M226.2,233.5 l1.4,1.7 M230.6,238.8 l1.4,1.7 M235.0,244.2 l1.4,1.7 M239.4,249.6 l1.4,1.7 M243.8,254.9 l1.4,1.7 M248.2,260.3 l1.4,1.7 M252.6,265.6 l1.4,1.7 M256.9,271.0 l1.4,1.7 M261.2,276.3 l1.4,1.7 M265.6,281.6 l1.4,1.7 M269.9,286.9 l1.4,1.7" stroke="#d9c49a" stroke-width="0.6" stroke-linecap="round" fill="none" opacity="0.8"/>
<path d="M242.1,152.6 l-1.4,1.7 M237.6,158.3 l-1.4,1.7 M233.1,163.9 l-1.4,1.7 M228.6,169.5 l-1.4,1.7 M224.1,175.2 l-1.4,1.7 M219.6,180.8 l-1.4,1.7 M215.1,186.4 l-1.4,1.7 M210.6,192.0 l-1.4,1.7 M206.1,197.6 l-1.4,1.7 M201.7,203.2 l-1.4,1.7 M197.2,208.7 l-1.4,1.7 M192.8,214.2 l-1.4,1.7 M188.4,219.8 l-1.4,1.7 M184.0,225.3 l-1.4,1.7 M179.6,230.7 l-1.4,1.7 M175.2,236.2 l-1.4,1.7 M170.9,241.6 l-1.4,1.7 M166.6,247.0 l-1.4,1.7 M162.3,252.4 l-1.4,1.7 M158.0,257.7 l-1.4,1.7 M153.8,263.0 l-1.4,1.7 M149.5,268.3 l-1.4,1.7 M145.3,273.6 l-1.4,1.7 M141.2,278.8 l-1.4,1.7 M137.0,283.9 l-1.4,1.7 M132.9,289.1 l-1.4,1.7" stroke="#d9c49a" stroke-width="0.6" stroke-linecap="round" fill="none" opacity="0.8"/>
<path d="M252.1,158.6 l-1.4,1.7 M247.6,164.1 l-1.4,1.7 M243.1,169.6 l-1.4,1.7 M238.6,175.1 l-1.4,1.7 M234.1,180.6 l-1.4,1.7 M229.6,186.2 l-1.4,1.7 M225.1,191.7 l-1.4,1.7 M220.6,197.1 l-1.4,1.7 M216.1,202.6 l-1.4,1.7 M211.6,208.1 l-1.4,1.7 M207.2,213.6 l-1.4,1.7 M202.7,219.0 l-1.4,1.7 M198.3,224.4 l-1.4,1.7 M193.9,229.9 l-1.4,1.7 M189.4,235.3 l-1.4,1.7 M185.0,240.6 l-1.4,1.7 M180.7,246.0 l-1.4,1.7 M176.3,251.3 l-1.4,1.7 M171.9,256.6 l-1.4,1.7 M167.6,261.9 l-1.4,1.7 M163.3,267.2 l-1.4,1.7 M159.0,272.4 l-1.4,1.7 M154.7,277.6 l-1.4,1.7 M150.5,282.8 l-1.4,1.7 M146.2,288.0 l-1.4,1.7 M142.0,293.1 l-1.4,1.7" stroke="#d9c49a" stroke-width="0.6" stroke-linecap="round" fill="none" opacity="0.8"/>
<path d="M142,154 L158,146" stroke="#b07a48" stroke-width="1" opacity="0.6"/>
<g>
<circle cx="200" cy="218" r="21" fill="#000" opacity="0.45" filter="url(#c2a-b3)" transform="translate(2,3)"/>
<circle cx="200" cy="217" r="20" fill="url(#c2a-boss)" stroke="#120e0c" stroke-width="1"/>
<circle cx="200" cy="217" r="15" fill="none" stroke="#1a1412" stroke-width="1.2" opacity="0.8"/>
<circle cx="200" cy="217" r="14" fill="none" stroke="#c9b9a2" stroke-width="0.5" opacity="0.5"/>
<path d="M190,208 C192,214 192,222 188,228 M200,205 L200,229 M210,208 C208,214 208,222 212,228" stroke="#8a1a0c" stroke-width="2.6" stroke-linecap="round" fill="none"/>
<path d="M190,208 C192,214 192,222 188,228 M200,205 L200,229 M210,208 C208,214 208,222 212,228" stroke="#e05030" stroke-width="0.8" stroke-linecap="round" fill="none" opacity="0.6" transform="translate(-0.5,-0.5)"/>
<path d="M186,206 C190,202 196,200 200,200" stroke="#f0e0c8" stroke-width="1.2" fill="none" opacity="0.7" stroke-linecap="round"/>

<path d="M216.4,227.0 L224.0,226.9 L218.7,221.5 Z M204.5,235.7 L209.9,241.0 L210.0,233.4 Z M190.0,233.4 L190.1,241.0 L195.5,235.7 Z M181.3,221.5 L176.0,226.9 L183.6,227.0 Z M183.6,207.0 L176.0,207.1 L181.3,212.5 Z M195.5,198.3 L190.1,193.0 L190.0,200.6 Z M210.0,200.6 L209.9,193.0 L204.5,198.3 Z M218.7,212.5 L224.0,207.1 L216.4,207.0 Z" fill="url(#c2a-iron)" stroke="#120e0c" stroke-width="0.5"/></g>
<path d="M140,146 C150,132 170,128 200,134 C230,128 252,132 262,146 C258,160 240,168 200,166 C160,168 142,160 140,146 Z" fill="#2a1a10"/>
<path d="M135.9,143.7 C138.0,150.0 138.7,154.2 137.4,156.3 C141.6,150.0 144.1,146.9 142.5,142.7 Z M140.2,145.7 C142.0,151.1 140.9,154.8 138.1,156.6 C145.1,151.1 147.1,148.4 145.8,144.8 Z M144.4,147.1 C145.9,152.3 144.9,155.8 142.5,157.5 C148.6,152.3 150.4,149.7 149.2,146.2 Z M146.1,146.7 C148.6,153.4 149.8,157.8 148.6,160.0 C153.1,153.4 156.1,150.1 154.1,145.6 Z M151.0,148.3 C152.9,154.5 153.7,158.6 152.5,160.6 C156.3,154.5 158.6,151.4 157.1,147.3 Z M155.3,149.5 C156.9,155.5 157.8,159.5 157.1,161.5 C159.7,155.5 161.6,152.5 160.4,148.5 Z M159.0,149.5 C160.6,156.5 160.0,161.2 157.9,163.5 C163.5,156.5 165.4,153.0 164.1,148.3 Z M161.0,152.3 C163.4,157.4 163.9,160.8 162.0,162.6 C167.8,157.4 170.8,154.8 168.8,151.4 Z M164.6,151.2 C167.1,158.3 167.6,163.0 165.7,165.3 C171.6,158.3 174.5,154.8 172.5,150.1 Z M169.3,152.9 C171.3,159.1 173.2,163.2 173.1,165.3 C174.9,159.1 177.2,156.0 175.6,151.8 Z M173.5,154.3 C175.2,159.8 175.7,163.4 174.4,165.3 C178.4,159.8 180.5,157.0 179.1,153.4 Z M176.3,155.4 C178.5,160.4 180.6,163.7 180.6,165.4 C182.4,160.4 185.0,157.9 183.3,154.6 Z M181.3,154.5 C182.8,160.9 184.2,165.2 184.1,167.3 C185.6,160.9 187.4,157.7 186.2,153.5 Z M183.8,153.9 C185.9,161.3 187.3,166.3 186.5,168.8 C189.8,161.3 192.4,157.6 190.6,152.6 Z M187.5,153.9 C189.6,161.7 191.6,166.9 191.5,169.5 C193.5,161.7 196.0,157.8 194.3,152.6 Z M192.0,155.1 C193.7,161.9 195.2,166.4 194.9,168.6 C196.8,161.9 198.9,158.5 197.5,154.0 Z M194.8,154.3 C197.0,162.0 198.8,167.1 198.4,169.6 C200.9,162.0 203.5,158.2 201.8,153.1 Z M198.2,154.2 C200.5,162.0 202.0,167.2 201.1,169.7 C204.7,162.0 207.5,158.1 205.7,152.9 Z M203.1,156.5 C204.8,161.9 205.8,165.5 205.0,167.2 C207.9,161.9 210.0,159.2 208.6,155.6 Z M205.9,154.1 C208.1,161.7 210.6,166.7 211.0,169.2 C212.0,161.7 214.5,157.9 212.8,152.9 Z M210.2,153.0 C212.1,161.3 213.8,166.9 213.6,169.7 C215.4,161.3 217.7,157.1 216.2,151.6 Z M214.0,155.7 C215.8,160.9 218.9,164.4 220.1,166.1 C219.1,160.9 221.3,158.3 219.8,154.8 Z M218.2,153.4 C219.8,160.4 221.9,165.0 222.4,167.4 C222.6,160.4 224.5,156.9 223.2,152.2 Z M220.8,154.8 C222.9,159.8 225.1,163.1 225.1,164.7 C226.7,159.8 229.3,157.3 227.6,154.0 Z M224.4,153.6 C226.6,159.1 230.3,162.7 231.9,164.5 C230.4,159.1 233.0,156.3 231.3,152.7 Z M228.8,151.3 C230.6,158.3 233.7,163.0 235.1,165.3 C233.9,158.3 236.0,154.8 234.6,150.1 Z M233.1,151.6 C234.6,157.4 236.8,161.3 237.5,163.2 C237.3,157.4 239.1,154.5 237.9,150.7 Z M235.6,149.2 C237.7,156.5 240.5,161.3 241.1,163.8 C241.5,156.5 244.1,152.8 242.4,148.0 Z M238.9,147.7 C241.2,155.5 244.5,160.7 245.4,163.3 C245.4,155.5 248.2,151.6 246.3,146.4 Z M243.7,146.2 C245.4,154.5 247.9,160.0 248.5,162.7 C248.6,154.5 250.7,150.3 249.3,144.8 Z M246.2,146.7 C248.5,153.4 252.7,157.8 254.6,160.0 C252.8,153.4 255.6,150.1 253.7,145.6 Z M250.6,145.5 C252.6,152.3 255.9,156.8 257.3,159.0 C256.2,152.3 258.6,148.9 257.0,144.4 Z M254.5,145.3 C256.4,151.1 260.3,155.1 262.2,157.0 C259.8,151.1 262.1,148.2 260.6,144.3 Z M258.9,141.8 C260.4,150.0 263.5,155.5 265.0,158.2 C263.3,150.0 265.1,145.9 263.9,140.4 Z" fill="#4a3220"/>
<path d="M173.5,150.6 Q173.3,151.2 176.5,155.7 M174.9,139.5 Q174.4,143.7 177.5,146.9 M157.7,159.9 Q159.0,163.3 157.5,165.1 M150.7,148.2 Q149.4,151.6 150.7,157.0 M231.9,164.9 Q234.1,166.2 234.3,168.9 M186.9,162.3 Q188.2,166.9 186.6,169.7 M236.0,155.3 Q237.8,159.2 236.4,159.8 M182.8,154.8 Q185.1,156.7 186.5,160.3 M190.1,161.1 Q189.9,163.4 193.1,166.8 M244.4,154.4 Q247.3,158.0 249.0,161.4 M175.5,145.0 Q175.2,150.1 178.6,151.5 M153.9,154.7 Q153.4,157.4 154.6,160.7 M180.2,165.1 Q181.0,168.5 180.5,171.9 M159.2,136.7 Q156.7,141.2 157.3,144.8 M233.1,162.8 Q233.9,165.3 235.6,166.9 M151.6,156.9 Q152.8,159.6 151.3,163.3 M238.7,147.5 Q240.3,151.9 240.2,153.3 M150.4,153.7 Q148.9,156.9 149.5,161.2 M244.8,142.5 Q244.2,146.3 243.5,148.4 M221.0,153.7 Q222.1,158.0 219.9,161.0 M210.2,137.7 Q208.6,138.5 209.2,142.9 M214.1,147.1 Q216.0,152.4 214.4,155.3 M239.3,147.4 Q243.4,150.6 243.5,154.2 M246.3,153.0 Q245.7,156.4 248.6,160.9 M222.7,138.5 Q222.0,141.1 223.5,144.5 M228.2,156.1 Q228.3,160.4 229.0,164.1 M153.5,155.8 Q154.8,161.4 153.7,163.1 M225.9,165.2 Q227.5,168.7 226.1,170.8 M214.7,140.4 Q215.4,145.0 215.4,146.2 M186.3,136.6 Q189.3,137.8 189.6,142.6 M189.8,146.2 Q190.6,148.8 191.4,153.3 M242.8,160.3 Q242.6,161.6 242.0,165.0 M153.2,163.8 Q154.4,168.4 153.4,170.2 M196.0,139.2 Q195.1,141.3 194.9,145.8 M202.3,162.0 Q200.3,166.4 201.4,166.8 M202.7,155.0 Q202.3,159.6 202.7,161.2 M214.3,136.7 Q217.0,141.1 218.9,143.6 M200.0,157.3 Q200.2,159.3 201.8,163.0 M252.0,162.3 Q254.0,165.7 252.6,166.7 M216.0,164.9 Q215.2,169.0 215.7,172.1 M191.0,141.2 Q192.8,142.8 193.1,145.4 M256.6,163.5 Q258.8,167.1 258.3,167.9 M184.8,158.9 Q183.9,162.5 183.5,165.1 M240.0,157.1 Q237.8,158.0 238.8,161.8 M251.1,144.9 Q250.4,147.2 253.6,149.1 M215.7,144.5 Q217.7,144.3 218.2,148.2 M169.7,149.5 Q172.5,153.7 171.9,157.9 M213.2,146.7 Q212.1,150.2 213.5,151.2 M195.2,150.8 Q193.4,154.4 194.3,158.2 M241.2,146.5 Q240.2,147.8 240.0,151.5 M174.8,142.6 Q176.4,145.1 175.1,150.5 M257.5,156.6 Q259.3,159.5 260.2,163.6 M173.8,138.6 Q175.0,143.0 177.2,146.2 M194.0,143.1 Q194.3,144.4 195.2,148.2 M157.1,159.8 Q160.1,165.1 159.6,167.0 M238.8,150.9 Q239.9,153.0 239.5,155.1 M181.6,161.6 Q180.8,165.7 181.2,169.7 M232.2,163.2 Q233.2,165.9 233.6,170.8 M243.2,152.2 Q246.2,154.0 246.3,158.5 M161.2,155.0 Q163.5,158.5 164.9,162.1" stroke="#8a6a4a" stroke-width="0.6" fill="none" stroke-linecap="round" opacity="0.55"/>
<path d="M245.0,151.2 Q243.4,154.8 243.9,158.3 M209.7,166.5 Q209.6,169.7 210.9,170.2 M239.8,143.8 Q240.4,148.1 237.3,149.0 M152.8,167.3 Q152.5,167.7 152.5,171.5 M228.9,155.2 Q229.5,158.6 230.0,159.6 M173.9,143.0 Q173.3,146.4 174.1,146.9 M163.3,148.4 Q161.1,149.6 161.9,152.7 M212.8,159.9 Q211.5,160.3 211.9,163.7 M207.0,150.2 Q206.4,151.8 205.2,156.0 M204.9,141.8 Q204.6,143.3 206.8,148.8 M225.0,145.2 Q227.1,146.3 225.6,151.2 M217.3,141.0 Q214.9,143.0 215.7,145.8 M217.5,143.8 Q218.8,148.2 217.6,150.7 M196.6,159.7 Q196.4,160.8 197.8,164.8 M146.8,141.5 Q144.8,144.4 144.3,146.0 M226.1,165.1 Q224.2,166.4 224.4,168.6 M177.5,155.6 Q177.4,160.8 178.6,162.9 M249.4,158.5 Q251.6,162.1 249.8,162.3 M198.8,141.7 Q197.8,145.9 197.3,146.3 M248.5,163.7 Q249.8,167.7 250.2,169.8 M143.9,165.6 Q144.8,168.3 144.6,169.1 M225.3,142.5 Q226.1,146.3 226.1,148.3 M143.7,158.3 Q142.7,160.8 144.5,163.3 M171.6,157.5 Q171.1,158.8 172.0,161.6 M176.3,167.8 Q176.2,173.3 175.1,175.0 M198.9,153.3 Q200.8,155.5 199.4,157.9 M217.9,166.1 Q218.5,169.4 217.4,170.4 M250.5,152.1 Q252.4,153.4 252.1,158.4 M236.1,163.4 Q235.4,166.5 237.9,169.4 M157.1,156.1 Q157.9,160.0 157.7,161.7 M195.7,144.2 Q195.2,145.7 196.0,149.5 M256.0,149.8 Q257.9,152.9 257.6,154.1 M196.8,141.3 Q195.6,143.4 197.2,148.8 M194.4,140.6 Q191.5,145.3 191.4,147.0 M255.5,161.4 Q253.8,163.3 254.2,165.3" stroke="#150c06" stroke-width="0.6" fill="none" stroke-linecap="round" opacity="0.6"/>
<path d="M160,146 C176,178 224,178 240,146" stroke="#3a2412" stroke-width="1.6" fill="none"/>
<path d="M162.2,153.1 C162.4,159.7 163.9,163.0 165.0,164.1 C165.8,159.7 166.6,156.4 166.6,153.1 Z" fill="url(#c2a-bone)" stroke="#4a3a22" stroke-width="0.4"/><circle cx="164.4" cy="153.1" r="1.4" fill="#8a2a12"/><path d="M168.0,159.2 C168.2,163.4 169.7,165.5 170.8,166.2 C171.6,163.4 172.4,161.3 172.4,159.2 Z" fill="url(#c2a-bone)" stroke="#4a3a22" stroke-width="0.4"/><circle cx="170.2" cy="159.2" r="1.4" fill="#8a2a12"/><path d="M174.6,163.9 C174.8,170.5 176.3,173.8 177.4,174.9 C178.2,170.5 179.0,167.2 179.0,163.9 Z" fill="url(#c2a-bone)" stroke="#4a3a22" stroke-width="0.4"/><circle cx="176.8" cy="163.9" r="1.4" fill="#8a2a12"/><path d="M182.0,167.3 C182.2,171.5 183.7,173.6 184.8,174.3 C185.6,171.5 186.4,169.4 186.4,167.3 Z" fill="url(#c2a-bone)" stroke="#4a3a22" stroke-width="0.4"/><circle cx="184.2" cy="167.3" r="1.4" fill="#8a2a12"/><path d="M189.8,169.3 C190.0,175.9 191.5,179.2 192.6,180.3 C193.4,175.9 194.2,172.6 194.2,169.3 Z" fill="url(#c2a-bone)" stroke="#4a3a22" stroke-width="0.4"/><circle cx="192.0" cy="169.3" r="1.4" fill="#8a2a12"/><path d="M197.8,170.0 C198.0,179.0 199.5,183.5 200.6,185.0 C201.4,179.0 202.2,174.5 202.2,170.0 Z" fill="url(#c2a-bone)" stroke="#4a3a22" stroke-width="0.4"/><circle cx="200.0" cy="170.0" r="1.4" fill="#8a2a12"/><path d="M205.8,169.3 C206.0,175.9 207.5,179.2 208.6,180.3 C209.4,175.9 210.2,172.6 210.2,169.3 Z" fill="url(#c2a-bone)" stroke="#4a3a22" stroke-width="0.4"/><circle cx="208.0" cy="169.3" r="1.4" fill="#8a2a12"/><path d="M213.6,167.3 C213.8,171.5 215.3,173.6 216.4,174.3 C217.2,171.5 218.0,169.4 218.0,167.3 Z" fill="url(#c2a-bone)" stroke="#4a3a22" stroke-width="0.4"/><circle cx="215.8" cy="167.3" r="1.4" fill="#8a2a12"/><path d="M221.0,163.9 C221.2,170.5 222.7,173.8 223.8,174.9 C224.6,170.5 225.4,167.2 225.4,163.9 Z" fill="url(#c2a-bone)" stroke="#4a3a22" stroke-width="0.4"/><circle cx="223.2" cy="163.9" r="1.4" fill="#8a2a12"/><path d="M227.6,159.2 C227.8,163.4 229.3,165.5 230.4,166.2 C231.2,163.4 232.0,161.3 232.0,159.2 Z" fill="url(#c2a-bone)" stroke="#4a3a22" stroke-width="0.4"/><circle cx="229.8" cy="159.2" r="1.4" fill="#8a2a12"/><path d="M233.4,153.1 C233.6,159.7 235.1,163.0 236.2,164.1 C237.0,159.7 237.8,156.4 237.8,153.1 Z" fill="url(#c2a-bone)" stroke="#4a3a22" stroke-width="0.4"/><circle cx="235.6" cy="153.1" r="1.4" fill="#8a2a12"/>
<path d="M72,196 C64,218 58,240 60,258 C66,270 84,270 94,258 C100,240 108,222 114,204 Z" fill="url(#c2a-skinArm)"/>
<path d="M70,210 C66,226 64,240 66,252" stroke="#b8d080" stroke-width="3" opacity="0.35" fill="none" filter="url(#c2a-b1)"/>
<path d="M60,254 C66,268 88,270 98,258 C106,246 114,236 122,226 L100,208 C88,222 72,238 60,254 Z" fill="url(#c2a-skinArm)"/>
<path d="M68,246 C74,256 86,260 96,254 L116,228 C110,220 104,214 98,212 Z" fill="url(#c2a-leather)" stroke="#1a0e06" stroke-width="0.8"/>
<path d="M74,244 L100,214 M84,252 L108,222" stroke="#2a1608" stroke-width="1" opacity="0.8"/>
<circle cx="78.0" cy="244.0" r="1.5" fill="#6d6560" stroke="#1a1512" stroke-width="0.5"/><circle cx="77.5" cy="243.5" r="0.60" fill="#d8d0c0" opacity="0.85"/><circle cx="88.0" cy="232.0" r="1.5" fill="#6d6560" stroke="#1a1512" stroke-width="0.5"/><circle cx="87.5" cy="231.5" r="0.60" fill="#d8d0c0" opacity="0.85"/><circle cx="98.0" cy="220.0" r="1.5" fill="#6d6560" stroke="#1a1512" stroke-width="0.5"/><circle cx="97.5" cy="219.5" r="0.60" fill="#d8d0c0" opacity="0.85"/><circle cx="88.0" cy="250.0" r="1.5" fill="#6d6560" stroke="#1a1512" stroke-width="0.5"/><circle cx="87.5" cy="249.5" r="0.60" fill="#d8d0c0" opacity="0.85"/><circle cx="98.0" cy="238.0" r="1.5" fill="#6d6560" stroke="#1a1512" stroke-width="0.5"/><circle cx="97.5" cy="237.5" r="0.60" fill="#d8d0c0" opacity="0.85"/><circle cx="108.0" cy="226.0" r="1.5" fill="#6d6560" stroke="#1a1512" stroke-width="0.5"/><circle cx="107.5" cy="225.5" r="0.60" fill="#d8d0c0" opacity="0.85"/>
<path d="M68,246 C74,256 86,260 96,254" stroke="#c08a50" stroke-width="0.8" fill="none" opacity="0.6"/>
<path d="M292,190 C304,210 314,238 318,262 L324,300 L272,300 C272,272 268,238 264,206 Z" fill="url(#c2a-skinArm)"/>
<path d="M318,262 L324,300 L306,300 C308,280 306,262 300,244 Z" fill="#18240a" opacity="0.6" filter="url(#c2a-b3)"/>
<path d="M318,230 C324,250 326,270 326,290" stroke="#ffa050" stroke-width="1.6" fill="none" opacity="0.5" filter="url(#c2a-b1)"/>
<path d="M270,206 C284,200 298,206 306,222 C300,232 286,234 274,228 Z" fill="#a8b068" opacity="0.25" filter="url(#c2a-b3)"/>
<path d="M266,210 C268,240 272,270 272,300 L284,300 C282,270 278,240 276,212 Z" fill="#0a1204" opacity="0.5" filter="url(#c2a-b3)"/>
<path d="M280,262 C290,270 300,272 312,268 M284,280 C292,286 302,286 312,284" stroke="#101a06" stroke-width="1.4" fill="none" opacity="0.5" filter="url(#c2a-b1)"/>
<path d="M268,238 C282,244 300,244 316,236 L319,252 C302,260 284,260 270,254 Z" fill="url(#c2a-ironR)" stroke="#100c0a" stroke-width="0.8"/>
<path d="M270,240 C284,246 300,246 316,238" stroke="#c0a890" stroke-width="0.7" fill="none" opacity="0.6"/>
<path d="M280,246 L276,236 L284,244 Z M294,248 L294,236 L298,247 Z M308,245 L312,233 L313,244 Z" fill="#5a524c" stroke="#100c0a" stroke-width="0.4"/>
<circle cx="276.0" cy="251.0" r="1.3" fill="#6d6560" stroke="#1a1512" stroke-width="0.5"/><circle cx="275.5" cy="250.5" r="0.52" fill="#d8d0c0" opacity="0.85"/><circle cx="290.0" cy="254.0" r="1.3" fill="#6d6560" stroke="#1a1512" stroke-width="0.5"/><circle cx="289.5" cy="253.5" r="0.52" fill="#d8d0c0" opacity="0.85"/><circle cx="304.0" cy="252.0" r="1.3" fill="#6d6560" stroke="#1a1512" stroke-width="0.5"/><circle cx="303.5" cy="251.5" r="0.52" fill="#d8d0c0" opacity="0.85"/>
<path d="M86,230 L316,230 L316,300 L86,300 Z" fill="#0c0804" opacity="0.35" filter="url(#c2a-b8)"/>
<path d="M68,206 C62,222 64,236 72,244 C80,238 84,224 82,208 Z" fill="#c8c080" opacity="0.2" filter="url(#c2a-b3)"/>
<g transform="translate(0,0)"><path d="M60,180 C56,146 82,114 124,110 C152,108 174,122 182,142 C184,152 178,158 170,160 C140,166 100,174 60,180 Z" fill="#000" opacity="0.5" filter="url(#c2a-b3)" transform="translate(4,6)"/><path d="M66,198 C100,192 138,186 170,180 L166,196 C136,200 106,206 70,212 Z" fill="url(#c2a-iron)" stroke="#0e0a08" stroke-width="1"/><path d="M66,198 C100,192 138,186 170,180 L166,196 C136,200 106,206 70,212 Z" fill="none" stroke="#b0a090" stroke-width="0.6" opacity="0.35" transform="translate(0,-0.8)"/><path d="M62,182 C100,176 140,168 174,162 L172,178 C140,184 102,192 66,198 Z" fill="url(#c2a-iron)" stroke="#0e0a08" stroke-width="1"/><path d="M62,182 C100,176 140,168 174,162 L172,178 C140,184 102,192 66,198 Z" fill="none" stroke="#b0a090" stroke-width="0.6" opacity="0.35" transform="translate(0,-0.8)"/><path d="M80,140 L58,94 L100,128 Z" fill="url(#c2a-iron)" stroke="#0e0a08" stroke-width="0.8"/><path d="M108,120 L100,70 L128,114 Z" fill="url(#c2a-iron)" stroke="#0e0a08" stroke-width="0.8"/><path d="M140,114 L150,72 L160,120 Z" fill="url(#c2a-iron)" stroke="#0e0a08" stroke-width="0.8"/><path d="M80,140 L58,94 L86,132 Z" fill="#e8c8a0" opacity="0.35"/><path d="M108,120 L100,70 L114,118 Z" fill="#e8c8a0" opacity="0.35"/><path d="M140,114 L150,72 L147,116 Z" fill="#e8c8a0" opacity="0.35"/><path d="M60,180 C56,146 82,114 124,110 C152,108 174,122 182,142 C184,152 178,158 170,160 C140,166 100,174 60,180 Z" fill="url(#c2a-iron)" stroke="#0e0a08" stroke-width="1.1"/><path d="M60,180 C100,174 140,166 170,160 C178,158 184,152 182,142" stroke="#5a2a14" stroke-width="3.2" fill="none"/><path d="M62,176 C100,170 140,162 168,156" stroke="#d0b8a0" stroke-width="0.6" fill="none" opacity="0.5"/><path d="M76,150 C84,128 104,118 126,116 C110,124 94,136 86,156 Z" fill="#fff0d8" opacity="0.45" filter="url(#c2a-b1)"/><clipPath id="c2a-pcl"><path d="M60,180 C56,146 82,114 124,110 C152,108 174,122 182,142 C184,152 178,158 170,160 C140,166 100,174 60,180 Z"/></clipPath><g clip-path="url(#c2a-pcl)"><ellipse cx="88.8" cy="175.5" rx="2.4" ry="1.7" fill="#0e0a08" opacity="0.25"/><ellipse cx="88.0" cy="174.8" rx="1.4" ry="1.0" fill="#e8dccb" opacity="0.12"/><ellipse cx="145.2" cy="117.6" rx="2.7" ry="1.9" fill="#0e0a08" opacity="0.25"/><ellipse cx="144.3" cy="116.8" rx="1.6" ry="1.1" fill="#e8dccb" opacity="0.12"/><ellipse cx="179.9" cy="125.8" rx="3.9" ry="2.7" fill="#0e0a08" opacity="0.25"/><ellipse cx="178.7" cy="124.6" rx="2.4" ry="1.6" fill="#e8dccb" opacity="0.12"/><ellipse cx="116.2" cy="141.9" rx="3.5" ry="2.4" fill="#0e0a08" opacity="0.25"/><ellipse cx="115.1" cy="140.9" rx="2.1" ry="1.4" fill="#e8dccb" opacity="0.12"/><ellipse cx="84.7" cy="166.8" rx="2.3" ry="1.6" fill="#0e0a08" opacity="0.25"/><ellipse cx="84.0" cy="166.1" rx="1.4" ry="0.9" fill="#e8dccb" opacity="0.12"/><ellipse cx="89.6" cy="113.3" rx="2.8" ry="2.0" fill="#0e0a08" opacity="0.25"/><ellipse cx="88.8" cy="112.5" rx="1.7" ry="1.1" fill="#e8dccb" opacity="0.12"/><ellipse cx="110.1" cy="171.5" rx="3.1" ry="2.2" fill="#0e0a08" opacity="0.25"/><ellipse cx="109.2" cy="170.6" rx="1.9" ry="1.3" fill="#e8dccb" opacity="0.12"/><ellipse cx="75.4" cy="129.1" rx="5.0" ry="3.5" fill="#0e0a08" opacity="0.25"/><ellipse cx="73.9" cy="127.6" rx="3.0" ry="2.0" fill="#e8dccb" opacity="0.12"/><ellipse cx="69.4" cy="152.9" rx="3.1" ry="2.2" fill="#0e0a08" opacity="0.25"/><ellipse cx="68.5" cy="152.0" rx="1.9" ry="1.3" fill="#e8dccb" opacity="0.12"/><ellipse cx="140.0" cy="134.3" rx="4.1" ry="2.9" fill="#0e0a08" opacity="0.25"/><ellipse cx="138.8" cy="133.1" rx="2.4" ry="1.6" fill="#e8dccb" opacity="0.12"/><ellipse cx="120.7" cy="154.9" rx="4.7" ry="3.3" fill="#0e0a08" opacity="0.25"/><ellipse cx="119.3" cy="153.5" rx="2.8" ry="1.9" fill="#e8dccb" opacity="0.12"/><ellipse cx="130.6" cy="121.4" rx="2.2" ry="1.5" fill="#0e0a08" opacity="0.25"/><ellipse cx="130.0" cy="120.7" rx="1.3" ry="0.9" fill="#e8dccb" opacity="0.12"/><ellipse cx="173.6" cy="144.3" rx="2.6" ry="1.8" fill="#0e0a08" opacity="0.25"/><ellipse cx="172.9" cy="143.5" rx="1.5" ry="1.0" fill="#e8dccb" opacity="0.12"/><ellipse cx="173.6" cy="150.2" rx="4.2" ry="2.9" fill="#0e0a08" opacity="0.25"/><ellipse cx="172.4" cy="149.0" rx="2.5" ry="1.7" fill="#e8dccb" opacity="0.12"/><ellipse cx="166.0" cy="130.9" rx="3.1" ry="2.1" fill="#0e0a08" opacity="0.25"/><ellipse cx="165.0" cy="129.9" rx="1.8" ry="1.2" fill="#e8dccb" opacity="0.12"/><ellipse cx="165.6" cy="120.9" rx="4.3" ry="3.0" fill="#0e0a08" opacity="0.25"/><ellipse cx="164.3" cy="119.6" rx="2.6" ry="1.7" fill="#e8dccb" opacity="0.12"/><ellipse cx="73.5" cy="157.6" rx="4.1" ry="2.9" fill="#0e0a08" opacity="0.25"/><ellipse cx="72.3" cy="156.3" rx="2.5" ry="1.6" fill="#e8dccb" opacity="0.12"/><ellipse cx="174.1" cy="167.7" rx="3.5" ry="2.5" fill="#0e0a08" opacity="0.25"/><ellipse cx="173.0" cy="166.6" rx="2.1" ry="1.4" fill="#e8dccb" opacity="0.12"/><ellipse cx="85.3" cy="121.9" rx="3.6" ry="2.5" fill="#0e0a08" opacity="0.25"/><ellipse cx="84.2" cy="120.8" rx="2.2" ry="1.4" fill="#e8dccb" opacity="0.12"/><ellipse cx="122.2" cy="116.7" rx="4.7" ry="3.3" fill="#0e0a08" opacity="0.25"/><ellipse cx="120.7" cy="115.3" rx="2.8" ry="1.9" fill="#e8dccb" opacity="0.12"/><ellipse cx="121.9" cy="158.3" rx="2.7" ry="1.9" fill="#0e0a08" opacity="0.25"/><ellipse cx="121.1" cy="157.5" rx="1.6" ry="1.1" fill="#e8dccb" opacity="0.12"/><ellipse cx="90.8" cy="112.8" rx="3.0" ry="2.1" fill="#0e0a08" opacity="0.25"/><ellipse cx="89.9" cy="111.9" rx="1.8" ry="1.2" fill="#e8dccb" opacity="0.12"/><ellipse cx="93.5" cy="139.9" rx="3.1" ry="2.2" fill="#0e0a08" opacity="0.25"/><ellipse cx="92.5" cy="139.0" rx="1.9" ry="1.3" fill="#e8dccb" opacity="0.12"/><ellipse cx="160.4" cy="170.8" rx="2.5" ry="1.8" fill="#0e0a08" opacity="0.25"/><ellipse cx="159.7" cy="170.1" rx="1.5" ry="1.0" fill="#e8dccb" opacity="0.12"/><path d="M56,184 C60,160 70,146 84,138 C78,156 80,170 96,178 Z" fill="#ff8a3a" opacity="0.55" filter="url(#c2a-b3)"/><path d="M100,114 C130,106 160,114 176,132 C150,122 126,120 100,124 Z" fill="#ffd0a0" opacity="0.25" filter="url(#c2a-b1)"/><path d="M66,170 C74,140 100,120 140,116" stroke="#0e0a08" stroke-width="2.4" fill="none" opacity="0.7"/><path d="M65,168 C73,139 99,119 139,115" stroke="#d8c8b0" stroke-width="0.8" fill="none" opacity="0.5"/><path d="M150,140 C152,150 150,158 152,166 M162,136 C164,146 162,154 165,162 M96,150 C96,160 94,168 96,176" stroke="#8a3a14" stroke-width="2.2" fill="none" opacity="0.45" filter="url(#c2a-b1)"/></g><path d="M140,150 C150,146 160,150 164,156 C156,160 146,160 140,150 Z M92,168 C98,164 108,166 110,170 C102,172 96,172 92,168 Z" fill="#7a3414" opacity="0.6" filter="url(#c2a-b1)"/><path d="M96,132 L112,142 M150,128 L160,140 M84,160 L100,164" stroke="#d8ccb8" stroke-width="0.5" opacity="0.5"/><circle cx="74.0" cy="190.0" r="1.4" fill="#6d6560" stroke="#1a1512" stroke-width="0.5"/><circle cx="73.5" cy="189.5" r="0.56" fill="#d8d0c0" opacity="0.85"/><circle cx="90.0" cy="187.6" r="1.4" fill="#6d6560" stroke="#1a1512" stroke-width="0.5"/><circle cx="89.5" cy="187.1" r="0.56" fill="#d8d0c0" opacity="0.85"/><circle cx="106.0" cy="185.2" r="1.4" fill="#6d6560" stroke="#1a1512" stroke-width="0.5"/><circle cx="105.5" cy="184.7" r="0.56" fill="#d8d0c0" opacity="0.85"/><circle cx="122.0" cy="182.8" r="1.4" fill="#6d6560" stroke="#1a1512" stroke-width="0.5"/><circle cx="121.5" cy="182.3" r="0.56" fill="#d8d0c0" opacity="0.85"/><circle cx="138.0" cy="180.4" r="1.4" fill="#6d6560" stroke="#1a1512" stroke-width="0.5"/><circle cx="137.5" cy="179.9" r="0.56" fill="#d8d0c0" opacity="0.85"/><circle cx="154.0" cy="178.0" r="1.4" fill="#6d6560" stroke="#1a1512" stroke-width="0.5"/><circle cx="153.5" cy="177.5" r="0.56" fill="#d8d0c0" opacity="0.85"/><circle cx="78.0" cy="206.0" r="1.4" fill="#6d6560" stroke="#1a1512" stroke-width="0.5"/><circle cx="77.5" cy="205.5" r="0.56" fill="#d8d0c0" opacity="0.85"/><circle cx="94.0" cy="203.7" r="1.4" fill="#6d6560" stroke="#1a1512" stroke-width="0.5"/><circle cx="93.5" cy="203.2" r="0.56" fill="#d8d0c0" opacity="0.85"/><circle cx="110.0" cy="201.4" r="1.4" fill="#6d6560" stroke="#1a1512" stroke-width="0.5"/><circle cx="109.5" cy="200.9" r="0.56" fill="#d8d0c0" opacity="0.85"/><circle cx="126.0" cy="199.1" r="1.4" fill="#6d6560" stroke="#1a1512" stroke-width="0.5"/><circle cx="125.5" cy="198.6" r="0.56" fill="#d8d0c0" opacity="0.85"/><circle cx="142.0" cy="196.8" r="1.4" fill="#6d6560" stroke="#1a1512" stroke-width="0.5"/><circle cx="141.5" cy="196.3" r="0.56" fill="#d8d0c0" opacity="0.85"/><circle cx="158.0" cy="194.5" r="1.4" fill="#6d6560" stroke="#1a1512" stroke-width="0.5"/><circle cx="157.5" cy="194.0" r="0.56" fill="#d8d0c0" opacity="0.85"/><path d="M110,146 C108,132 114,126 123,126 C132,126 138,132 136,146 C136,150 133,152 132,156 L114,156 C113,152 110,150 110,146 Z" fill="url(#c2a-boneR)" stroke="#3a2c1a" stroke-width="0.7"/><path d="M114,156 L132,156 L131,163 C126,165 120,165 115,163 Z" fill="url(#c2a-bone)" stroke="#3a2c1a" stroke-width="0.6"/><path d="M113,142 C113,138 117,137 119,139 C121,141 120,146 116,146 C114,146 113,144 113,142 Z M127,139 C129,137 133,138 133,142 C133,144 132,146 130,146 C126,146 125,141 127,139 Z M121,148 L123,144 L125,148 Z" fill="#1a0f08"/><path d="M117,156 L117,162 M120,156 L120,163 M123,156 L123,163 M126,156 L126,163 M129,156 L129,162 M114,159 L132,159" stroke="#3a2c1a" stroke-width="0.5"/><path d="M124,127 L126,134 L123,138" stroke="#3a2c1a" stroke-width="0.5" fill="none"/><path d="M114,134 C116,129 120,127 124,127" stroke="#fff" stroke-width="0.8" fill="none" opacity="0.6"/><path d="M108,150 L138,138 M108,153 L139,142" stroke="#7a5a32" stroke-width="1.1" opacity="0.9"/></g>
<g transform="translate(2,3)"><path d="M340,180 C344,146 318,114 276,110 C248,108 226,122 218,142 C216,152 222,158 230,160 C260,166 300,174 340,180 Z" fill="#000" opacity="0.5" filter="url(#c2a-b3)" transform="translate(-4,6)"/><path d="M334,198 C300,192 262,186 230,180 L234,196 C264,200 294,206 330,212 Z" fill="url(#c2a-ironR)" stroke="#0e0a08" stroke-width="1"/><path d="M334,198 C300,192 262,186 230,180 L234,196 C264,200 294,206 330,212 Z" fill="none" stroke="#b0a090" stroke-width="0.6" opacity="0.35" transform="translate(0,-0.8)"/><path d="M338,182 C300,176 260,168 226,162 L228,178 C260,184 298,192 334,198 Z" fill="url(#c2a-ironR)" stroke="#0e0a08" stroke-width="1"/><path d="M338,182 C300,176 260,168 226,162 L228,178 C260,184 298,192 334,198 Z" fill="none" stroke="#b0a090" stroke-width="0.6" opacity="0.35" transform="translate(0,-0.8)"/><path d="M320,140 L342,94 L300,128 Z" fill="url(#c2a-ironR)" stroke="#0e0a08" stroke-width="0.8"/><path d="M292,120 L300,70 L272,114 Z" fill="url(#c2a-ironR)" stroke="#0e0a08" stroke-width="0.8"/><path d="M260,114 L250,72 L240,120 Z" fill="url(#c2a-ironR)" stroke="#0e0a08" stroke-width="0.8"/><path d="M320,140 L342,94 L314,132 Z" fill="#e8c8a0" opacity="0.15"/><path d="M292,120 L300,70 L286,118 Z" fill="#e8c8a0" opacity="0.15"/><path d="M260,114 L250,72 L253,116 Z" fill="#e8c8a0" opacity="0.15"/><path d="M340,180 C344,146 318,114 276,110 C248,108 226,122 218,142 C216,152 222,158 230,160 C260,166 300,174 340,180 Z" fill="url(#c2a-ironR)" stroke="#0e0a08" stroke-width="1.1"/><path d="M340,180 C300,174 260,166 230,160 C222,158 216,152 218,142" stroke="#5a2a14" stroke-width="3.2" fill="none"/><path d="M338,176 C300,170 260,162 232,156" stroke="#d0b8a0" stroke-width="0.6" fill="none" opacity="0.5"/><path d="M324,150 C316,128 296,118 274,116 C290,124 306,136 314,156 Z" fill="#fff0d8" opacity="0.18" filter="url(#c2a-b1)"/><clipPath id="c2a-pcr"><path d="M340,180 C344,146 318,114 276,110 C248,108 226,122 218,142 C216,152 222,158 230,160 C260,166 300,174 340,180 Z"/></clipPath><g clip-path="url(#c2a-pcr)"><ellipse cx="299.8" cy="122.0" rx="4.0" ry="2.8" fill="#0e0a08" opacity="0.25"/><ellipse cx="298.6" cy="120.8" rx="2.4" ry="1.6" fill="#e8dccb" opacity="0.12"/><ellipse cx="329.5" cy="147.4" rx="3.1" ry="2.2" fill="#0e0a08" opacity="0.25"/><ellipse cx="328.5" cy="146.4" rx="1.9" ry="1.2" fill="#e8dccb" opacity="0.12"/><ellipse cx="331.2" cy="145.5" rx="2.1" ry="1.5" fill="#0e0a08" opacity="0.25"/><ellipse cx="330.5" cy="144.9" rx="1.3" ry="0.8" fill="#e8dccb" opacity="0.12"/><ellipse cx="286.8" cy="116.6" rx="2.3" ry="1.6" fill="#0e0a08" opacity="0.25"/><ellipse cx="286.1" cy="115.9" rx="1.4" ry="0.9" fill="#e8dccb" opacity="0.12"/><ellipse cx="287.9" cy="166.6" rx="2.4" ry="1.7" fill="#0e0a08" opacity="0.25"/><ellipse cx="287.2" cy="165.9" rx="1.4" ry="0.9" fill="#e8dccb" opacity="0.12"/><ellipse cx="311.7" cy="153.4" rx="4.8" ry="3.4" fill="#0e0a08" opacity="0.25"/><ellipse cx="310.2" cy="152.0" rx="2.9" ry="1.9" fill="#e8dccb" opacity="0.12"/><ellipse cx="269.9" cy="138.2" rx="4.9" ry="3.5" fill="#0e0a08" opacity="0.25"/><ellipse cx="268.4" cy="136.7" rx="3.0" ry="2.0" fill="#e8dccb" opacity="0.12"/><ellipse cx="332.5" cy="168.7" rx="2.9" ry="2.0" fill="#0e0a08" opacity="0.25"/><ellipse cx="331.6" cy="167.8" rx="1.7" ry="1.1" fill="#e8dccb" opacity="0.12"/><ellipse cx="321.0" cy="119.8" rx="2.9" ry="2.0" fill="#0e0a08" opacity="0.25"/><ellipse cx="320.1" cy="118.9" rx="1.8" ry="1.2" fill="#e8dccb" opacity="0.12"/><ellipse cx="241.7" cy="123.9" rx="3.7" ry="2.6" fill="#0e0a08" opacity="0.25"/><ellipse cx="240.6" cy="122.8" rx="2.2" ry="1.5" fill="#e8dccb" opacity="0.12"/><ellipse cx="262.6" cy="136.6" rx="3.6" ry="2.6" fill="#0e0a08" opacity="0.25"/><ellipse cx="261.5" cy="135.5" rx="2.2" ry="1.5" fill="#e8dccb" opacity="0.12"/><ellipse cx="330.6" cy="115.9" rx="2.6" ry="1.8" fill="#0e0a08" opacity="0.25"/><ellipse cx="329.8" cy="115.1" rx="1.6" ry="1.0" fill="#e8dccb" opacity="0.12"/><ellipse cx="257.7" cy="140.2" rx="2.9" ry="2.1" fill="#0e0a08" opacity="0.25"/><ellipse cx="256.8" cy="139.3" rx="1.8" ry="1.2" fill="#e8dccb" opacity="0.12"/><ellipse cx="268.9" cy="141.9" rx="2.9" ry="2.0" fill="#0e0a08" opacity="0.25"/><ellipse cx="268.0" cy="141.0" rx="1.7" ry="1.2" fill="#e8dccb" opacity="0.12"/><ellipse cx="244.3" cy="158.1" rx="2.7" ry="1.9" fill="#0e0a08" opacity="0.25"/><ellipse cx="243.4" cy="157.3" rx="1.6" ry="1.1" fill="#e8dccb" opacity="0.12"/><ellipse cx="270.2" cy="146.7" rx="4.6" ry="3.2" fill="#0e0a08" opacity="0.25"/><ellipse cx="268.8" cy="145.3" rx="2.8" ry="1.9" fill="#e8dccb" opacity="0.12"/><ellipse cx="251.9" cy="131.0" rx="4.9" ry="3.5" fill="#0e0a08" opacity="0.25"/><ellipse cx="250.4" cy="129.5" rx="3.0" ry="2.0" fill="#e8dccb" opacity="0.12"/><ellipse cx="324.1" cy="139.6" rx="4.3" ry="3.0" fill="#0e0a08" opacity="0.25"/><ellipse cx="322.8" cy="138.3" rx="2.6" ry="1.7" fill="#e8dccb" opacity="0.12"/><ellipse cx="320.1" cy="144.3" rx="2.1" ry="1.5" fill="#0e0a08" opacity="0.25"/><ellipse cx="319.4" cy="143.6" rx="1.3" ry="0.8" fill="#e8dccb" opacity="0.12"/><ellipse cx="259.2" cy="162.5" rx="3.7" ry="2.6" fill="#0e0a08" opacity="0.25"/><ellipse cx="258.0" cy="161.3" rx="2.2" ry="1.5" fill="#e8dccb" opacity="0.12"/><ellipse cx="234.7" cy="132.7" rx="4.1" ry="2.9" fill="#0e0a08" opacity="0.25"/><ellipse cx="233.5" cy="131.5" rx="2.5" ry="1.6" fill="#e8dccb" opacity="0.12"/><ellipse cx="267.9" cy="150.3" rx="3.4" ry="2.4" fill="#0e0a08" opacity="0.25"/><ellipse cx="266.9" cy="149.3" rx="2.0" ry="1.3" fill="#e8dccb" opacity="0.12"/><ellipse cx="238.9" cy="174.3" rx="3.4" ry="2.4" fill="#0e0a08" opacity="0.25"/><ellipse cx="237.9" cy="173.3" rx="2.1" ry="1.4" fill="#e8dccb" opacity="0.12"/><ellipse cx="259.6" cy="116.0" rx="4.1" ry="2.9" fill="#0e0a08" opacity="0.25"/><ellipse cx="258.4" cy="114.8" rx="2.5" ry="1.6" fill="#e8dccb" opacity="0.12"/><path d="M344,184 C340,160 330,146 316,138 C322,156 320,170 304,178 Z" fill="#ff8a3a" opacity="0.55" filter="url(#c2a-b3)"/><path d="M300,114 C270,106 240,114 224,132 C250,122 274,120 300,124 Z" fill="#ffd0a0" opacity="0.25" filter="url(#c2a-b1)"/><path d="M334,170 C326,140 300,120 260,116" stroke="#0e0a08" stroke-width="2.4" fill="none" opacity="0.7"/><path d="M335,168 C327,139 301,119 261,115" stroke="#d8c8b0" stroke-width="0.8" fill="none" opacity="0.5"/><path d="M250,140 C248,150 250,158 248,166 M238,136 C236,146 238,154 235,162 M304,150 C304,160 306,168 304,176" stroke="#8a3a14" stroke-width="2.2" fill="none" opacity="0.45" filter="url(#c2a-b1)"/></g><path d="M260,150 C250,146 240,150 236,156 C244,160 254,160 260,150 Z M308,168 C302,164 292,166 290,170 C298,172 304,172 308,168 Z" fill="#7a3414" opacity="0.6" filter="url(#c2a-b1)"/><path d="M304,132 L288,142 M250,128 L240,140 M316,160 L300,164" stroke="#d8ccb8" stroke-width="0.5" opacity="0.5"/><circle cx="326.0" cy="190.0" r="1.4" fill="#6d6560" stroke="#1a1512" stroke-width="0.5"/><circle cx="325.5" cy="189.5" r="0.56" fill="#d8d0c0" opacity="0.85"/><circle cx="310.0" cy="187.6" r="1.4" fill="#6d6560" stroke="#1a1512" stroke-width="0.5"/><circle cx="309.5" cy="187.1" r="0.56" fill="#d8d0c0" opacity="0.85"/><circle cx="294.0" cy="185.2" r="1.4" fill="#6d6560" stroke="#1a1512" stroke-width="0.5"/><circle cx="293.5" cy="184.7" r="0.56" fill="#d8d0c0" opacity="0.85"/><circle cx="278.0" cy="182.8" r="1.4" fill="#6d6560" stroke="#1a1512" stroke-width="0.5"/><circle cx="277.5" cy="182.3" r="0.56" fill="#d8d0c0" opacity="0.85"/><circle cx="262.0" cy="180.4" r="1.4" fill="#6d6560" stroke="#1a1512" stroke-width="0.5"/><circle cx="261.5" cy="179.9" r="0.56" fill="#d8d0c0" opacity="0.85"/><circle cx="246.0" cy="178.0" r="1.4" fill="#6d6560" stroke="#1a1512" stroke-width="0.5"/><circle cx="245.5" cy="177.5" r="0.56" fill="#d8d0c0" opacity="0.85"/><circle cx="322.0" cy="206.0" r="1.4" fill="#6d6560" stroke="#1a1512" stroke-width="0.5"/><circle cx="321.5" cy="205.5" r="0.56" fill="#d8d0c0" opacity="0.85"/><circle cx="306.0" cy="203.7" r="1.4" fill="#6d6560" stroke="#1a1512" stroke-width="0.5"/><circle cx="305.5" cy="203.2" r="0.56" fill="#d8d0c0" opacity="0.85"/><circle cx="290.0" cy="201.4" r="1.4" fill="#6d6560" stroke="#1a1512" stroke-width="0.5"/><circle cx="289.5" cy="200.9" r="0.56" fill="#d8d0c0" opacity="0.85"/><circle cx="274.0" cy="199.1" r="1.4" fill="#6d6560" stroke="#1a1512" stroke-width="0.5"/><circle cx="273.5" cy="198.6" r="0.56" fill="#d8d0c0" opacity="0.85"/><circle cx="258.0" cy="196.8" r="1.4" fill="#6d6560" stroke="#1a1512" stroke-width="0.5"/><circle cx="257.5" cy="196.3" r="0.56" fill="#d8d0c0" opacity="0.85"/><circle cx="242.0" cy="194.5" r="1.4" fill="#6d6560" stroke="#1a1512" stroke-width="0.5"/><circle cx="241.5" cy="194.0" r="0.56" fill="#d8d0c0" opacity="0.85"/><path d="M290,146 C292,132 286,126 277,126 C268,126 262,132 264,146 C264,150 267,152 268,156 L286,156 C287,152 290,150 290,146 Z" fill="url(#c2a-boneR)" stroke="#3a2c1a" stroke-width="0.7"/><path d="M286,156 L268,156 L269,163 C274,165 280,165 285,163 Z" fill="url(#c2a-bone)" stroke="#3a2c1a" stroke-width="0.6"/><path d="M287,142 C287,138 283,137 281,139 C279,141 280,146 284,146 C286,146 287,144 287,142 Z M273,139 C271,137 267,138 267,142 C267,144 268,146 270,146 C274,146 275,141 273,139 Z M279,148 L277,144 L275,148 Z" fill="#1a0f08"/><path d="M283,156 L283,162 M280,156 L280,163 M277,156 L277,163 M274,156 L274,163 M271,156 L271,162 M286,159 L268,159" stroke="#3a2c1a" stroke-width="0.5"/><path d="M276,127 L274,134 L277,138" stroke="#3a2c1a" stroke-width="0.5" fill="none"/><path d="M286,134 C284,129 280,127 276,127" stroke="#fff" stroke-width="0.8" fill="none" opacity="0.6"/><path d="M292,150 L262,138 M292,153 L261,142" stroke="#7a5a32" stroke-width="1.1" opacity="0.9"/></g>
<path d="M340,182 C344,150 318,118 280,112" stroke="#ff9a4a" stroke-width="1.6" fill="none" opacity="0.7" filter="url(#c2a-b1)"/>
<g transform="rotate(-6,88,26)"><path d="M83.5,30 L92.5,30 L93,292 L83,292 Z" fill="url(#c2a-wood)" stroke="#120804" stroke-width="0.6"/><path d="M86,40 L86.5,290" stroke="#a07040" stroke-width="0.8" opacity="0.6"/><path d="M89,60 C88,90 90,120 89,160 M85,120 L85,170" stroke="#1a0c04" stroke-width="0.5" opacity="0.6"/><path d="M83,94 L93,94 L93,134 L83,134 Z" fill="#4a2a14"/><path d="M83,96 L93,99 M83,100 L93,103 M83,104 L93,107 M83,108 L93,111 M83,112 L93,115 M83,116 L93,119 M83,120 L93,123 M83,124 L93,127 M83,128 L93,131" stroke="#1e0f06" stroke-width="1.2"/><path d="M83,96 L93,99 M83,100 L93,103 M83,104 L93,107 M83,108 L93,111 M83,112 L93,115 M83,116 L93,119 M83,120 L93,123 M83,124 L93,127 M83,128 L93,131" stroke="#a07048" stroke-width="0.5" opacity="0.6" transform="translate(0,-1)"/><path d="M84,132 C80,146 76,158 78,172 M90,134 C92,150 90,160 94,174" stroke="#5a3418" stroke-width="1.4" fill="none"/><circle cx="78" cy="160" r="2" fill="#b3200f"/><circle cx="92" cy="162" r="2" fill="url(#c2a-bone)"/><path d="M76,172 L80,172 L78,182 Z M92,174 L96,174 L94,184 Z" fill="url(#c2a-bone)"/><path d="M83,44 C72,40 60,30 48,16 C34,34 28,56 30,70 C32,86 40,100 50,116 C62,100 74,90 83,86 Z" fill="#000" opacity="0.4" filter="url(#c2a-b3)" transform="translate(3,4)"/><path d="M83,44 C72,40 60,30 48,16 C34,34 28,56 30,70 C32,86 40,100 50,116 C62,100 74,90 83,86 Z" fill="url(#c2a-blade)" stroke="#0e0a08" stroke-width="1"/><path d="M93,44 C104,40 116,30 128,16 C142,34 148,56 146,70 C144,86 136,100 126,116 C114,100 102,90 93,86 Z" fill="url(#c2a-bladeR)" stroke="#0e0a08" stroke-width="1"/><path d="M48,16 C34,34 28,56 30,70 C32,86 40,100 50,116 C44,100 38,86 37,70 C36,56 42,36 50,22 Z" fill="#f4eee4" opacity="0.8"/><path d="M128,16 C142,34 148,56 146,70 C144,86 136,100 126,116 C132,100 138,86 139,70 C140,56 134,36 126,22 Z" fill="#ffc890" opacity="0.7"/><path d="M31,58 L36,60 L31,63 Z M37,96 L41,94 L42,99 Z M145,52 L140,55 L145,58 Z" fill="#2a2420"/><path d="M78,52 C66,52 54,60 48,70 C54,80 66,86 78,84" stroke="#1e1a18" stroke-width="1.4" fill="none" opacity="0.8"/><path d="M98,52 C110,52 122,60 128,70 C122,80 110,86 98,84" stroke="#1e1a18" stroke-width="1.4" fill="none" opacity="0.8"/><path d="M60,66 L66,72 L60,78 M70,64 L70,80 M116,66 L110,72 L116,78 M106,64 L106,80" stroke="#8a1a0c" stroke-width="1.3" fill="none" opacity="0.85"/><path d="M34,78 C38,84 40,92 46,98 C42,96 40,102 44,108 C38,100 34,90 34,78 Z" fill="#5a0c06" opacity="0.7"/><path d="M80,36 L96,36 L97,92 L79,92 Z" fill="url(#c2a-iron)" stroke="#0e0a08" stroke-width="0.9"/><path d="M79,48 L97,48 M79,80 L97,80" stroke="#0e0a08" stroke-width="1.2"/><circle cx="84.0" cy="42.0" r="1.4" fill="#6d6560" stroke="#1a1512" stroke-width="0.5"/><circle cx="83.5" cy="41.5" r="0.56" fill="#d8d0c0" opacity="0.85"/><circle cx="92.0" cy="42.0" r="1.4" fill="#6d6560" stroke="#1a1512" stroke-width="0.5"/><circle cx="91.5" cy="41.5" r="0.56" fill="#d8d0c0" opacity="0.85"/><circle cx="84.0" cy="86.0" r="1.4" fill="#6d6560" stroke="#1a1512" stroke-width="0.5"/><circle cx="83.5" cy="85.5" r="0.56" fill="#d8d0c0" opacity="0.85"/><circle cx="92.0" cy="86.0" r="1.4" fill="#6d6560" stroke="#1a1512" stroke-width="0.5"/><circle cx="91.5" cy="85.5" r="0.56" fill="#d8d0c0" opacity="0.85"/><circle cx="88.0" cy="64.0" r="1.4" fill="#6d6560" stroke="#1a1512" stroke-width="0.5"/><circle cx="87.5" cy="63.5" r="0.56" fill="#d8d0c0" opacity="0.85"/><path d="M82,36 L88,10 L94,36 Z" fill="url(#c2a-iron)" stroke="#0e0a08" stroke-width="0.8"/><path d="M84,36 L88,12 L88,36 Z" fill="#e0d8cc" opacity="0.5"/><path d="M81,286 L95,286 L96,298 L80,298 Z" fill="url(#c2a-iron)"/></g>
<path d="M132,20 C144,36 150,56 148,72 C146,86 140,98 132,112" stroke="#ffb060" stroke-width="1.4" fill="none" opacity="0.6" filter="url(#c2a-b1)" transform="rotate(-6,88,26)"/>
<path d="M90,200 C88,188 96,182 106,182 C116,182 124,188 126,200 C127,212 122,224 110,227 C98,229 90,218 90,200 Z" fill="#000" opacity="0.45" filter="url(#c2a-b3)" transform="translate(3,4)"/><path d="M90,202 C88,192 94,186 102,186 L110,186 L112,226 C102,228 92,220 90,202 Z" fill="url(#c2a-leather)" stroke="#1a0e06" stroke-width="0.7"/><path d="M93,196 L108,194 M92,206 L109,205 M93,216 L109,217" stroke="#2a1608" stroke-width="0.8"/><circle cx="97.0" cy="200.0" r="1.1" fill="#6d6560" stroke="#1a1512" stroke-width="0.5"/><circle cx="96.6" cy="199.6" r="0.44" fill="#d8d0c0" opacity="0.85"/><circle cx="103.0" cy="199.0" r="1.1" fill="#6d6560" stroke="#1a1512" stroke-width="0.5"/><circle cx="102.6" cy="198.6" r="0.44" fill="#d8d0c0" opacity="0.85"/><circle cx="97.0" cy="211.0" r="1.1" fill="#6d6560" stroke="#1a1512" stroke-width="0.5"/><circle cx="96.6" cy="210.6" r="0.44" fill="#d8d0c0" opacity="0.85"/><circle cx="103.0" cy="211.0" r="1.1" fill="#6d6560" stroke="#1a1512" stroke-width="0.5"/><circle cx="102.6" cy="210.6" r="0.44" fill="#d8d0c0" opacity="0.85"/><path d="M106,186.5 C112,185.3 120.0,185.5 124.0,187.9 C127.0,190.0 126.4,194.4 122.5,195.9 C116.0,196.5 112,196.3 106,195.5 Z" fill="url(#c2a-skin)" stroke="#121c06" stroke-width="0.7"/><path d="M110,187.7 C114,186.5 119.0,186.7 123.0,188.5" stroke="#d8d890" stroke-width="0.8" fill="none" opacity="0.5"/><path d="M118.0,194.9 C121.0,193.9 124.0,192.9 124.8,190.9" stroke="#121c06" stroke-width="0.6" fill="none" opacity="0.6"/><path d="M124.2,189.0 C126.4,190.0 126.4,192.0 124.8,193.0 C123.6,191.5 123.6,190.0 124.2,189.0 Z" fill="#3a2e1c" stroke="#1a1208" stroke-width="0.3"/><path d="M106,195.9 C112,194.7 118.8,194.9 122.8,197.3 C125.8,199.4 125.2,203.4 121.3,204.9 C114.8,205.5 112,205.3 106,204.5 Z" fill="url(#c2a-skin)" stroke="#121c06" stroke-width="0.7"/><path d="M110,197.1 C114,195.9 117.8,196.1 121.8,197.9" stroke="#d8d890" stroke-width="0.8" fill="none" opacity="0.5"/><path d="M116.8,203.9 C119.8,202.9 122.8,201.9 123.6,199.9" stroke="#121c06" stroke-width="0.6" fill="none" opacity="0.6"/><path d="M123.0,198.4 C125.2,199.4 125.2,201.4 123.6,202.4 C122.4,200.9 122.4,199.4 123.0,198.4 Z" fill="#3a2e1c" stroke="#1a1208" stroke-width="0.3"/><path d="M106,204.9 C112,203.7 117.6,203.9 121.6,206.3 C124.6,208.4 124.0,211.8 120.1,213.3 C113.6,213.9 112,213.7 106,212.9 Z" fill="url(#c2a-skin)" stroke="#121c06" stroke-width="0.7"/><path d="M110,206.1 C114,204.9 116.6,205.1 120.6,206.9" stroke="#d8d890" stroke-width="0.8" fill="none" opacity="0.5"/><path d="M115.6,212.3 C118.6,211.3 121.6,210.3 122.4,208.3" stroke="#121c06" stroke-width="0.6" fill="none" opacity="0.6"/><path d="M121.8,207.4 C124.0,208.4 124.0,210.4 122.4,211.4 C121.2,209.9 121.2,208.4 121.8,207.4 Z" fill="#3a2e1c" stroke="#1a1208" stroke-width="0.3"/><path d="M106,213.3 C112,212.1 116.4,212.3 120.4,214.7 C123.4,216.8 122.8,219.2 118.9,220.7 C112.4,221.3 112,221.1 106,220.3 Z" fill="url(#c2a-skin)" stroke="#121c06" stroke-width="0.7"/><path d="M110,214.5 C114,213.3 115.4,213.5 119.4,215.3" stroke="#d8d890" stroke-width="0.8" fill="none" opacity="0.5"/><path d="M114.4,219.7 C117.4,218.7 120.4,217.7 121.2,215.7" stroke="#121c06" stroke-width="0.6" fill="none" opacity="0.6"/><path d="M120.6,215.8 C122.8,216.8 122.8,218.8 121.2,219.8 C120.0,218.3 120.0,216.8 120.6,215.8 Z" fill="#3a2e1c" stroke="#1a1208" stroke-width="0.3"/><path d="M92,194 C90,184 98,178 108,179 C116,180 120,184 119,189 C113,188 106,190 101,197 C98,200 93,199 92,194 Z" fill="url(#c2a-skin)" stroke="#121c06" stroke-width="0.7"/><path d="M111,180 C116,181 119,184 118.4,187.5 C115,187.5 112,186 111,184 Z" fill="#3a2e1c" stroke="#1a1208" stroke-width="0.3"/><path d="M95,188 C97,183 101,181 106,181" stroke="#e0e0a0" stroke-width="1" fill="none" opacity="0.5"/><path d="M122,196 C124,204 124,212 120,222" stroke="#ffa054" stroke-width="1" fill="none" opacity="0.5"/>
<g transform="translate(200,146) scale(1.08) translate(-200,-146)">
<path d="M160,84 C152,82 144,78 132,72 C136,82 142,92 150,98 C154,102 157,104 160,102 Z" fill="url(#c2a-skin)" stroke="#1a2608" stroke-width="0.6"/>
<path d="M157,88 C151,86 146,83 140,80 C143,86 147,92 152,96 Z" fill="#2a3a10" opacity="0.6"/>
<path d="M240,84 C248,82 256,78 268,72 C264,82 258,92 250,98 C246,102 243,104 240,102 Z" fill="#3e5a1c" stroke="#1a2608" stroke-width="0.6"/>
<path d="M243,88 C249,86 254,83 260,80 C257,86 253,92 248,96 Z" fill="#1a2808" opacity="0.7"/>
<path d="M268,72 C264,82 258,92 250,98" stroke="#ffa050" stroke-width="1.2" fill="none" opacity="0.7"/>
<g fill="none" stroke-width="1.4">
<circle cx="146" cy="86" r="2.8" stroke="#b89a5a"/><circle cx="150" cy="93" r="2.6" stroke="#b89a5a"/>
<circle cx="254" cy="86" r="2.8" stroke="#8a7040"/><circle cx="250" cy="93" r="2.6" stroke="#8a7040"/>
</g>
<path d="M200,50 C224,50 239,60 241,78 C243,86 246,94 248,104 C251,116 250,126 242,134 C234,142 220,146 200,146 C180,146 166,142 158,134 C150,126 149,116 152,104 C154,94 157,86 159,78 C161,60 176,50 200,50 Z" fill="#000" opacity="0.5" filter="url(#c2a-b3)" transform="translate(2,6)"/>
<path d="M200,50 C224,50 239,60 241,78 C243,86 246,94 248,104 C251,116 250,126 242,134 C234,142 220,146 200,146 C180,146 166,142 158,134 C150,126 149,116 152,104 C154,94 157,86 159,78 C161,60 176,50 200,50 Z" fill="url(#c2a-skin)"/>
<path d="M214,52 C232,56 240,66 241,80 C244,92 248,104 249,114 C250,126 242,138 226,144 C232,130 234,118 230,104 C226,90 224,74 214,52 Z" fill="#16220a" opacity="0.6" filter="url(#c2a-b3)"/>
<path d="M162,132 C176,140 224,140 240,132 C232,144 216,148 200,148 C184,148 168,144 162,132 Z" fill="#101a06" opacity="0.6" filter="url(#c2a-b1)"/>
<path d="M174,58 C184,52 200,52 208,56 C200,62 186,66 174,70 Z" fill="#cfe090" opacity="0.4" filter="url(#c2a-b3)"/>
<path d="M160,100 C166,112 172,120 178,126 C170,126 162,120 158,112 Z" fill="#101a06" opacity="0.5" filter="url(#c2a-b3)"/>
<path d="M240,100 C234,112 228,120 222,126 C232,128 242,120 246,110 Z" fill="#0a1204" opacity="0.65" filter="url(#c2a-b3)"/>
<path d="M162,64 C158,72 158,80 160,84 M236,62 C240,70 242,78 240,84" stroke="#101a06" stroke-width="3" fill="none" opacity="0.5" filter="url(#c2a-b3)"/>
<path d="M166,58 C160,66 158,76 156,86 C153,96 150,108 152,120" stroke="#ffb070" stroke-width="1.2" fill="none" opacity="0.55" filter="url(#c2a-b1)"/>
<path d="M232,112 C236,120 236,128 230,136 C222,142 212,144 204,145" stroke="#0a1204" stroke-width="3" fill="none" opacity="0.4" filter="url(#c2a-b3)"/>
<path d="M180.3,71.3 Q178.4,69.6 179.7,69.8 M235.9,57.8 Q235.9,57.1 236.1,56.4 M177.8,68.9 Q175.7,67.5 177.4,67.9 M193.4,70.2 Q192.3,71.7 193.2,69.2 M168.5,65.2 Q167.8,65.1 168.3,63.6 M199.8,65.7 Q198.7,63.3 200.4,64.3 M232.1,62.8 Q232.1,62.8 231.5,61.0 M227.4,59.1 Q225.8,59.3 227.2,57.3 M171.0,66.4 Q172.6,65.5 171.4,64.6 M178.2,56.7 Q176.5,57.6 178.3,55.3 M200.5,66.6 Q198.4,65.4 200.2,65.5 M183.2,61.6 Q184.7,59.4 183.0,59.9 M192.5,57.0 Q191.5,57.1 192.9,55.1 M185.6,54.2 Q184.5,53.4 185.9,53.0 M180.7,61.4 Q181.0,59.9 180.6,60.0 M170.8,55.5 Q170.0,56.1 170.3,54.2 M200.4,66.7 Q198.7,64.9 200.8,65.9 M191.8,64.3 Q193.8,61.7 192.1,63.1 M224.2,57.8 Q226.2,58.4 224.5,56.9 M235.3,64.4 Q234.8,61.9 234.7,62.6 M207.6,62.9 Q206.1,62.7 207.6,61.9 M196.6,56.3 Q197.4,55.3 196.5,54.6 M192.4,60.5 Q192.0,58.4 192.0,59.4 M216.2,66.7 Q215.7,66.0 216.3,65.8 M170.7,71.4 Q171.7,69.5 171.1,70.0 M180.5,63.5 Q178.7,63.2 180.9,61.9 M229.4,67.4 Q228.7,65.7 230.3,65.6 M203.4,71.6 Q204.7,70.7 203.2,69.7 M209.0,71.2 Q210.6,69.4 209.4,70.1 M190.6,71.3 Q190.0,71.1 191.1,70.1 M224.7,66.3 Q226.3,66.0 225.4,64.8 M190.1,61.7 Q191.4,60.0 190.1,60.2 M168.9,67.2 Q167.3,67.9 168.6,65.9 M183.7,59.2 Q183.1,60.1 184.2,57.9 M193.6,60.5 Q195.0,58.7 194.5,59.0 M222.6,64.7 Q223.9,65.3 223.0,63.5 M191.9,65.8 Q193.9,66.0 192.5,63.9 M173.8,65.0 Q173.8,66.0 174.0,64.0 M229.2,70.7 Q230.3,70.6 228.6,69.3 M187.0,54.7 Q188.0,53.3 187.8,53.1" stroke="#1a2608" stroke-width="0.5" fill="none" stroke-linecap="round" opacity="0.4"/>
<path d="M180,70 C188,68 194,72 198,76 M202,76 C206,72 212,68 220,70 M184,64 C190,63 196,66 200,70 C204,66 210,63 216,64" stroke="#243410" stroke-width="0.9" fill="none" opacity="0.7"/>
<path d="M154,90 C170,84 190,86 200,98 C210,86 230,84 246,90 C248,98 246,104 240,108 C228,102 214,104 206,110 L194,110 C186,104 172,102 160,108 C154,104 152,98 154,90 Z" fill="#4a0a06" opacity="0.8"/>
<path d="M162,108 L160,118 L164,110 M238,108 L240,120 L236,110 M170,106 L169,114 L172,107" stroke="#4a0a06" stroke-width="1.6" fill="none" opacity="0.8" stroke-linecap="round"/>
<ellipse cx="182" cy="95" rx="13" ry="6.5" fill="#0c0804" opacity="0.8" filter="url(#c2a-b1)"/>
<ellipse cx="218" cy="95" rx="13" ry="6.5" fill="#0c0804" opacity="0.85" filter="url(#c2a-b1)"/>
<ellipse cx="183" cy="95" rx="7" ry="4" fill="#ff5a14" opacity="0.6" filter="url(#c2a-b3)"/><ellipse cx="217" cy="95" rx="7" ry="4" fill="#ff5a14" opacity="0.6" filter="url(#c2a-b3)"/>
<path d="M172,96 C176,91.5 186,91 192,95.5 C186,98.5 176,98.5 172,96 Z" fill="#d8b860"/>
<circle cx="184" cy="95.3" r="3" fill="url(#c2a-eye)" filter="url(#c2a-glow)"/>
<circle cx="184" cy="95.3" r="1.1" fill="#2a0600"/>
<circle cx="183" cy="94.4" r="0.7" fill="#fff"/>
<path d="M172,96 C176,91.5 186,91 192,95.5 C186,98.5 176,98.5 172,96 Z" fill="none" stroke="#1a0c04" stroke-width="0.8"/>
<path d="M172,96 C176,91.5 186,91 192,95.5" stroke="#0a0602" stroke-width="1.4" fill="none"/>
<path d="M208,95.5 C214,91 224,91.5 228,96 C224,98.5 214,98.5 208,95.5 Z" fill="#d8b860"/>
<circle cx="216" cy="95.3" r="3" fill="url(#c2a-eye)" filter="url(#c2a-glow)"/>
<circle cx="216" cy="95.3" r="1.1" fill="#2a0600"/>
<circle cx="215" cy="94.4" r="0.7" fill="#fff"/>
<path d="M208,95.5 C214,91 224,91.5 228,96 C224,98.5 214,98.5 208,95.5 Z" fill="none" stroke="#1a0c04" stroke-width="0.8"/>
<path d="M208,95.5 C214,91 224,91.5 228,96" stroke="#0a0602" stroke-width="1.4" fill="none"/>
<path d="M156,82 C166,72 184,74 198,87 L202,87 C216,74 234,72 244,82 C242,90 234,93 222,91 C212,90 206,94 200,97 C194,94 188,90 178,91 C166,93 158,90 156,82 Z" fill="url(#c2a-skin)" stroke="#1a2608" stroke-width="0.5"/>
<path d="M160,80 C170,74 184,76 196,85" stroke="#d6e89a" stroke-width="1.6" fill="none" opacity="0.55" stroke-linecap="round"/>
<path d="M204,85 C214,77 226,75 238,79" stroke="#9ab860" stroke-width="1" fill="none" opacity="0.4" stroke-linecap="round"/>
<path d="M160,88 C170,92 186,90 198,96 M202,96 C214,90 230,92 240,88" stroke="#0e1604" stroke-width="1.2" fill="none" opacity="0.7"/>
<path d="M179.0,80.2 Q179.4,80.6 183.7,81.0 M191.2,78.5 Q191.2,78.8 195.0,80.0 M185.7,80.7 Q185.9,79.8 188.2,82.0 M180.2,83.5 Q181.8,85.4 184.4,85.3 M168.8,79.7 Q170.5,79.0 172.9,81.6 M173.5,79.3 Q174.5,81.3 178.0,80.3 M190.6,78.3 Q190.5,78.6 194.2,79.4 M191.4,78.7 Q193.0,80.8 193.9,79.7 M171.7,78.0 Q171.7,76.6 175.6,78.6 M179.9,83.5 Q182.1,82.4 183.3,84.6 M182.2,79.0 Q182.8,80.3 186.9,81.0 M183.0,78.9 Q187.5,78.0 188.0,80.1 M185.8,83.7 Q185.9,83.6 189.8,84.6 M184.9,81.5 Q185.4,83.6 187.2,82.8 M182.4,80.7 Q185.1,79.5 187.3,82.2 M188.4,80.0 Q189.6,79.7 191.2,80.9 M168.5,81.8 Q168.9,83.2 173.0,82.4 M188.6,81.0 Q190.9,81.4 191.4,82.4" stroke="#140c06" stroke-width="0.6" fill="none" stroke-linecap="round" opacity="0.8"/>
<path d="M222.0,80.6 Q221.8,82.3 219.2,81.5 M224.3,79.0 Q221.7,81.3 221.2,80.1 M233.9,78.3 Q231.4,77.7 229.9,78.9 M224.9,80.7 Q221.4,82.3 220.8,81.8 M233.5,83.8 Q230.3,82.7 231.1,84.5 M232.3,79.8 Q229.4,81.0 227.9,81.8 M218.2,78.4 Q214.6,78.0 213.7,79.8 M217.6,78.2 Q216.0,79.2 213.2,79.8 M229.9,78.9 Q228.7,77.9 226.7,80.0 M227.7,78.6 Q227.5,79.5 223.7,80.9 M217.6,79.5 Q214.5,78.9 213.9,81.3 M218.8,79.0 Q217.6,79.5 214.2,80.2 M215.7,80.6 Q213.3,81.1 212.1,83.1 M208.2,80.7 Q208.1,81.9 204.9,81.7 M212.8,81.2 Q211.3,79.7 208.9,81.7 M219.7,80.8 Q218.4,81.6 216.4,82.2 M219.7,79.0 Q217.0,78.1 215.0,80.9 M206.1,81.2 Q203.4,81.8 203.9,82.7" stroke="#140c06" stroke-width="0.6" fill="none" stroke-linecap="round" opacity="0.8"/>
<path d="M168,76 C172,84 176,90 178,92 M180,100 C184,106 188,112 190,116" stroke="#c8a888" stroke-width="1.6" fill="none" stroke-linecap="round" opacity="0.8"/>
<path d="M168,82 L173,80 M172,88 L177,86 M182,106 L187,104 M185,111 L190,109" stroke="#3a1a0c" stroke-width="0.7" opacity="0.8"/>
<path d="M194,96 C194,102 190,106 185,110 C182,114 187,118 193,117 C196,119 204,119 207,117 C213,118 218,114 215,110 C210,106 206,102 206,96 Z" fill="url(#c2a-skin)" stroke="#1a2608" stroke-width="0.5"/>
<path d="M196,98 C196,104 194,108 192,110" stroke="#d6e89a" stroke-width="1.4" fill="none" opacity="0.5"/>
<path d="M205,100 C208,106 212,109 214,112 C210,114 206,112 204,108 Z" fill="#101a06" opacity="0.5"/>
<ellipse cx="192" cy="114.5" rx="3" ry="1.6" fill="#0a0c02" transform="rotate(20,192,114.5)"/><ellipse cx="208" cy="114.5" rx="3" ry="1.6" fill="#0a0c02" transform="rotate(-20,208,114.5)"/>
<ellipse cx="199" cy="111" rx="3" ry="1.5" fill="#e0f0a8" opacity="0.4"/>
<path d="M198,117 C196,122 204,122 202,117" stroke="#c8a860" stroke-width="1.1" fill="none"/>
<path d="M184,110 C180,114 177,120 176,126 M216,110 C220,114 223,120 224,126" stroke="#16220a" stroke-width="1.4" fill="none" opacity="0.7"/>
<path d="M160,104 C166,100 174,102 178,106 C172,110 164,112 160,104 Z" fill="#d6e89a" opacity="0.35" filter="url(#c2a-b1)"/>
<path d="M180,123 C190,119 210,119 220,123 C218,129 212,132 200,132 C188,132 182,129 180,123 Z" fill="#240a06"/>
<path d="M184,125 C194,127 206,127 216,125" stroke="#5a1a10" stroke-width="1" fill="none"/>
<path d="M186,130 L186.5,126.5 L189.2,127.0 L189.5,130 Z" fill="url(#c2a-bone)" stroke="#3a2a18" stroke-width="0.3"/><path d="M190,130 L190.5,127.3 L193.2,126.4 L193.5,130 Z" fill="url(#c2a-bone)" stroke="#3a2a18" stroke-width="0.3"/><path d="M194,130 L194.5,126.5 L197.2,127.0 L197.5,130 Z" fill="url(#c2a-bone)" stroke="#3a2a18" stroke-width="0.3"/><path d="M198,130 L198.5,127.3 L201.2,126.4 L201.5,130 Z" fill="url(#c2a-bone)" stroke="#3a2a18" stroke-width="0.3"/><path d="M202,130 L202.5,126.5 L205.2,127.0 L205.5,130 Z" fill="url(#c2a-bone)" stroke="#3a2a18" stroke-width="0.3"/><path d="M206,130 L206.5,127.3 L209.2,126.4 L209.5,130 Z" fill="url(#c2a-bone)" stroke="#3a2a18" stroke-width="0.3"/><path d="M210,130 L210.5,126.5 L213.2,127.0 L213.5,130 Z" fill="url(#c2a-bone)" stroke="#3a2a18" stroke-width="0.3"/><path d="M214,130 L214.5,127.3 L217.2,126.4 L217.5,130 Z" fill="url(#c2a-bone)" stroke="#3a2a18" stroke-width="0.3"/>
<path d="M190,122.5 L191,124.5 L193,122 M206,122 L208,124.5 L209,122.5" stroke="#cdbb90" stroke-width="0.9" fill="none"/>
<path d="M178,122 C188,117 198,119 200,120 C202,119 212,117 222,122 C212,121 206,122 200,122.5 C194,122 188,121 178,122 Z" fill="#3e5a1c"/>
<path d="M178,128 C186,134 214,134 222,128 C222,136 212,140 200,140 C188,140 178,136 178,128 Z" fill="url(#c2a-skin)" stroke="#1a2608" stroke-width="0.5"/>
<path d="M186,133 C194,135 206,135 214,133" stroke="#d6e89a" stroke-width="0.9" fill="none" opacity="0.4"/>
<path d="M193,138 L192,146 M200,139 L200,147 M207,138 L208,146" stroke="#9a1a0c" stroke-width="2.2" stroke-linecap="round" opacity="0.85"/>
<path d="M181,131 C179,121 175,111 172,101 C171,97 174,95 177,98 C181,107 186,118 190,129 Z" fill="url(#c2a-bone)" stroke="#3a2a18" stroke-width="0.6"/>
<path d="M219,131 C221,121 225,111 228,101 C229,97 226,95 223,98 C219,107 214,118 210,129 Z" fill="url(#c2a-boneR)" stroke="#3a2a18" stroke-width="0.6"/>
<path d="M180,126 C178,118 176,110 174,102" stroke="#fffaf0" stroke-width="1" fill="none" opacity="0.8"/>
<path d="M224,112 C222,118 220,124 218,128" stroke="#5a4a30" stroke-width="1" fill="none" opacity="0.6"/>
<path d="M176,110 L179,109 M177,116 L180,115" stroke="#6a5438" stroke-width="0.5"/>
<path d="M220.5,114 L227,116 L226,120.5 L219.4,118.5 Z" fill="url(#c2a-iron)" stroke="#0e0a08" stroke-width="0.5"/><path d="M221,115 L226.4,116.6" stroke="#e0d0b8" stroke-width="0.5"/>
<path d="M196,144 C194,152 196,160 194,170 L200,172 C201,162 200,152 202,144 Z" fill="url(#c2a-hair)"/>
<path d="M195,150 L201,152 M195,156 L201,158 M195,162 L200,164" stroke="#5a4032" stroke-width="0.6"/>
<rect x="193" y="166" width="8" height="5" rx="1.5" fill="url(#c2a-bone)"/>
<path d="M194,171 L196,178 L198,172 L200,178 L200,171 Z" fill="url(#c2a-hair)"/>
<path d="M216,22 C240,13 262,19 280,25 C292,29 302,27 312,20 C306,33 291,38 276,36 C258,34 238,30 218,32 Z" fill="url(#c2a-hair)" stroke="#050302" stroke-width="0.4"/>
<path d="M218,28 C240,26 258,34 274,42 C286,48 296,50 306,45 C300,56 285,59 270,53 C254,45 236,37 218,35 Z" fill="url(#c2a-hair)" stroke="#050302" stroke-width="0.4"/>
<path d="M217,32 C234,37 248,47 258,57 C264,63 272,65 281,62 C275,71 262,71 254,65 C244,57 232,45 215,37 Z" fill="url(#c2a-hair)" stroke="#050302" stroke-width="0.4"/>
<path d="M222,25 C242,18 262,22 280,28 C292,31 300,29 308,24 M222,31 C242,30 258,37 272,44 C284,50 294,51 302,48 M220,35 C234,40 246,50 256,59" stroke="#b07a52" stroke-width="0.9" fill="none" opacity="0.65"/>
<path d="M259.0,45.7 Q261.2,46.1 267.2,47.5 M243.4,51.2 Q249.6,53.2 255.3,54.0 M233.3,37.8 Q239.0,38.9 248.1,37.5 M227.8,46.7 Q234.5,45.1 238.4,47.4 M226.7,54.9 Q232.6,57.3 234.6,56.1 M230.8,37.2 Q236.2,35.7 240.6,36.9 M276.4,23.8 Q283.0,23.4 290.4,23.6 M268.5,39.2 Q273.1,41.3 275.9,39.8 M298.2,45.9 Q304.0,46.9 308.4,46.6 M230.9,30.5 Q237.9,30.9 242.3,31.3 M224.2,51.6 Q228.8,51.9 235.7,52.8 M252.3,49.8 Q256.9,50.3 264.1,49.1 M224.9,32.0 Q229.3,32.2 237.4,32.8 M238.3,32.1 Q245.8,34.9 253.4,34.1 M235.1,55.3 Q240.4,57.2 243.8,55.9 M222.5,31.7 Q226.3,31.0 232.2,34.4 M225.1,44.3 Q232.4,45.2 239.6,50.0 M247.2,50.3 Q252.1,52.3 259.2,54.1 M259.2,44.6 Q268.4,43.4 274.4,44.9 M244.7,53.4 Q252.3,54.5 259.8,53.9 M277.0,29.7 Q282.4,30.6 286.3,30.0 M232.3,53.9 Q236.6,56.3 241.5,54.8 M265.7,44.5 Q273.9,46.7 280.1,49.7 M267.9,54.4 Q273.1,55.6 279.5,57.8 M279.4,42.3 Q287.6,42.8 292.5,41.0 M292.0,54.8 Q298.4,54.3 305.7,56.9 M249.5,33.2 Q255.8,36.0 261.7,37.7 M231.7,41.2 Q235.8,42.1 241.9,43.7 M247.2,46.7 Q250.5,47.3 255.2,46.4 M281.3,45.7 Q284.2,47.5 290.9,49.3 M256.6,28.5 Q260.5,28.9 266.4,30.7 M295.6,22.3 Q299.2,22.3 305.1,23.0 M239.2,55.1 Q244.3,55.8 252.1,56.9 M269.3,52.3 Q276.3,53.8 280.4,52.5 M239.7,41.4 Q245.5,43.4 249.9,44.1 M297.8,41.9 Q303.7,42.4 307.7,44.2 M261.0,35.0 Q264.1,35.4 269.3,35.4 M241.6,23.7 Q248.0,25.4 250.8,26.4 M252.3,53.4 Q255.5,55.6 261.7,56.7 M287.7,43.9 Q293.3,44.4 298.0,46.8 M253.7,35.7 Q260.2,34.8 264.3,36.5 M238.0,31.2 Q241.6,34.6 248.8,35.4 M290.1,51.6 Q296.0,50.6 303.5,52.5 M289.5,52.0 Q294.9,51.2 304.1,52.0 M223.0,28.2 Q228.8,26.8 236.2,27.8" stroke="#7a5a44" stroke-width="0.5" fill="none" stroke-linecap="round" opacity="0.5"/>
<path d="M194,60 C189,48 193,37 204,30 C203,40 203,50 205,58 Z" fill="url(#c2a-hair)" stroke="#050302" stroke-width="0.4"/>
<path d="M203,58 C203,46 207,36 214,29 C215,41 213,50 212,58 Z" fill="url(#c2a-hair)" stroke="#050302" stroke-width="0.4"/>
<path d="M195,56 C193,48 196,40 202,34 M205,56 C206,46 209,38 213,32" stroke="#a07a5a" stroke-width="0.8" fill="none" opacity="0.6"/>
<ellipse cx="211" cy="28" rx="7" ry="6" fill="url(#c2a-hair)"/><path d="M206,25 C209,22 214,22 217,25" stroke="#a07a5a" stroke-width="0.8" fill="none" opacity="0.7"/>
<g transform="rotate(-20,216,28)"><rect x="212" y="21" width="8" height="14" rx="2" fill="url(#c2a-bone)" stroke="#3a2a18" stroke-width="0.5"/><path d="M212,25 L220,25 M212,31 L220,31" stroke="#6a5438" stroke-width="0.6"/><circle cx="216" cy="28" r="1" fill="#8a1a0c"/></g>
<path d="M232,58 C240,66 242,78 244,88 C248,100 251,114 248,126 C246,132 242,136 238,138" stroke="#ffa054" stroke-width="1.6" fill="none" opacity="0.8" filter="url(#c2a-b1)"/>
<path d="M246,146 C266,142 284,146 296,150" stroke="#ffa054" stroke-width="1.2" fill="none" opacity="0.5" filter="url(#c2a-b1)"/>
</g>
<path d="M-5,300 L-5,262 C40,256 80,270 120,266 C200,258 300,272 405,260 L405,300 Z" fill="#1a0a04" opacity="0.55" filter="url(#c2a-b8)"/>
<g filter="url(#c2a-glow)"><circle cx="12.7" cy="47.0" r="1.07" fill="#ff6a1e" opacity="0.62"/><path d="M213.5,190.8 l-1.2,-5.3" stroke="#ff6a1e" stroke-width="0.69" stroke-linecap="round" opacity="0.61"/><circle cx="210.0" cy="69.2" r="1.31" fill="#ffd27a" opacity="0.61"/><path d="M162.7,67.6 l2.8,-6.9" stroke="#ff9a3c" stroke-width="0.90" stroke-linecap="round" opacity="0.84"/><path d="M262.5,34.4 l3.7,-4.1" stroke="#ffd27a" stroke-width="0.60" stroke-linecap="round" opacity="0.74"/><path d="M19.7,196.4 l0.5,-7.2" stroke="#ff6a1e" stroke-width="1.48" stroke-linecap="round" opacity="0.92"/><path d="M135.0,216.5 l0.2,-5.8" stroke="#ff9a3c" stroke-width="1.06" stroke-linecap="round" opacity="0.73"/><path d="M329.1,250.7 l-1.6,-5.9" stroke="#ffd27a" stroke-width="1.59" stroke-linecap="round" opacity="0.92"/><circle cx="217.6" cy="181.9" r="0.71" fill="#ffd27a" opacity="0.61"/><circle cx="151.9" cy="249.7" r="1.40" fill="#ff9a3c" opacity="0.96"/><circle cx="388.8" cy="67.3" r="1.15" fill="#ff9a3c" opacity="0.78"/><path d="M223.7,48.3 l-0.3,-5.4" stroke="#ff6a1e" stroke-width="0.65" stroke-linecap="round" opacity="0.65"/><path d="M336.0,134.2 l1.9,-5.8" stroke="#ff6a1e" stroke-width="1.08" stroke-linecap="round" opacity="0.71"/><circle cx="22.6" cy="46.9" r="0.77" fill="#ff6a1e" opacity="0.84"/><path d="M326.4,25.9 l0.0,-7.6" stroke="#ff9a3c" stroke-width="1.07" stroke-linecap="round" opacity="0.74"/><circle cx="75.6" cy="30.8" r="0.75" fill="#ff6a1e" opacity="0.62"/><circle cx="87.3" cy="66.4" r="1.58" fill="#ff9a3c" opacity="0.88"/><circle cx="222.5" cy="143.2" r="1.45" fill="#ff6a1e" opacity="0.76"/><path d="M283.4,130.8 l1.2,-7.3" stroke="#ff9a3c" stroke-width="1.31" stroke-linecap="round" opacity="0.73"/><circle cx="81.6" cy="90.2" r="1.06" fill="#ffd27a" opacity="0.62"/><circle cx="289.3" cy="69.8" r="0.89" fill="#ff9a3c" opacity="0.68"/><circle cx="125.9" cy="161.0" r="1.70" fill="#ff9a3c" opacity="0.89"/><path d="M20.7,167.5 l2.6,-7.9" stroke="#ff9a3c" stroke-width="1.51" stroke-linecap="round" opacity="0.81"/><path d="M20.8,126.5 l2.6,-7.2" stroke="#ffd27a" stroke-width="1.30" stroke-linecap="round" opacity="0.69"/><circle cx="304.1" cy="35.8" r="0.90" fill="#ff6a1e" opacity="0.88"/><circle cx="181.5" cy="176.5" r="1.39" fill="#ff9a3c" opacity="0.61"/><path d="M122.1,133.7 l-0.7,-4.6" stroke="#ffd27a" stroke-width="0.55" stroke-linecap="round" opacity="0.71"/><path d="M102.5,93.8 l2.1,-5.2" stroke="#ffd27a" stroke-width="1.51" stroke-linecap="round" opacity="0.70"/><circle cx="334.3" cy="180.9" r="1.45" fill="#ffd27a" opacity="0.75"/><path d="M369.4,181.6 l2.4,-6.2" stroke="#ff9a3c" stroke-width="1.10" stroke-linecap="round" opacity="0.72"/><path d="M93.1,118.6 l3.8,-6.9" stroke="#ffd27a" stroke-width="1.43" stroke-linecap="round" opacity="0.98"/><path d="M358.4,85.5 l0.9,-4.0" stroke="#ff6a1e" stroke-width="0.66" stroke-linecap="round" opacity="0.62"/><path d="M62.0,31.4 l3.9,-6.3" stroke="#ffd27a" stroke-width="0.88" stroke-linecap="round" opacity="0.97"/><circle cx="37.4" cy="138.4" r="1.17" fill="#ff9a3c" opacity="0.79"/><path d="M271.3,236.2 l4.9,-6.7" stroke="#ff6a1e" stroke-width="1.43" stroke-linecap="round" opacity="0.86"/><path d="M145.8,244.7 l-1.2,-8.7" stroke="#ff9a3c" stroke-width="0.96" stroke-linecap="round" opacity="0.85"/><path d="M341.9,127.1 l3.5,-5.3" stroke="#ff9a3c" stroke-width="1.49" stroke-linecap="round" opacity="0.78"/><path d="M357.6,197.2 l-2.3,-8.7" stroke="#ff9a3c" stroke-width="1.52" stroke-linecap="round" opacity="0.70"/><path d="M342.5,93.6 l-1.2,-7.3" stroke="#ffd27a" stroke-width="1.31" stroke-linecap="round" opacity="0.65"/><circle cx="376.4" cy="121.1" r="0.98" fill="#ff9a3c" opacity="0.84"/></g>
<g filter="url(#c2a-b1)"><circle cx="39.4" cy="100.6" r="2.36" fill="#ffb050" opacity="0.37"/><circle cx="283.7" cy="79.0" r="2.61" fill="#ffb050" opacity="0.38"/><circle cx="369.0" cy="227.5" r="2.45" fill="#ffb050" opacity="0.39"/><circle cx="307.0" cy="159.7" r="2.58" fill="#ffb050" opacity="0.46"/><circle cx="372.3" cy="98.3" r="2.10" fill="#ffb050" opacity="0.26"/><circle cx="209.7" cy="198.3" r="2.53" fill="#ff7a2a" opacity="0.26"/><circle cx="24.5" cy="127.1" r="2.20" fill="#ff7a2a" opacity="0.43"/><circle cx="197.1" cy="161.6" r="2.98" fill="#ff7a2a" opacity="0.39"/></g>
<rect width="400" height="300" fill="#ff7a2a" opacity="0.06"/>
<rect width="400" height="300" filter="url(#c2a-grain)" opacity="0.12"/>
<rect width="400" height="300" fill="url(#c2a-vig)"/>
</svg>