<svg xmlns="http://www.w3.org/2000/svg" viewBox="0 0 400 300" width="400" height="300">
<defs>
 <linearGradient id="c3c-sky" x1="0" y1="0" x2="0" y2="1">
  <stop offset="0" stop-color="#061420"/>
  <stop offset="0.4" stop-color="#0e2a3a"/>
  <stop offset="0.75" stop-color="#1a4a4e"/>
  <stop offset="1" stop-color="#10302e"/>
 </linearGradient>
 <radialGradient id="c3c-opening" cx="0.5" cy="0.1" r="0.55">
  <stop offset="0" stop-color="#9ae8e0" stop-opacity="0.55"/>
  <stop offset="0.4" stop-color="#3a9a9a" stop-opacity="0.25"/>
  <stop offset="1" stop-color="#0e2a3a" stop-opacity="0"/>
 </radialGradient>
 <linearGradient id="c3c-beam" x1="0" y1="0" x2="0" y2="1">
  <stop offset="0" stop-color="#d8fff4" stop-opacity="0.35"/>
  <stop offset="1" stop-color="#d8fff4" stop-opacity="0"/>
 </linearGradient>
 <linearGradient id="c3c-far" data-tx="moss-far" x1="0" y1="0" x2="0" y2="1">
  <stop offset="0" stop-color="#2a6a66"/>
  <stop offset="1" stop-color="#1a4a4a"/>
 </linearGradient>
 <linearGradient id="c3c-mid" data-tx="moss-soft" x1="0" y1="0" x2="0" y2="1">
  <stop offset="0" stop-color="#143a3e"/>
  <stop offset="1" stop-color="#0c2428"/>
 </linearGradient>
 <linearGradient id="c3c-trunk" data-tx="bark" x1="0" y1="0" x2="1" y2="0">
  <stop offset="0" stop-color="#050c12"/>
  <stop offset="0.7" stop-color="#12242a"/>
  <stop offset="1" stop-color="#3a7a78"/>
 </linearGradient>
 <linearGradient id="c3c-ground" data-tx="grass-soft" x1="0" y1="0" x2="0" y2="1">
  <stop offset="0" stop-color="#1e4a3e"/>
  <stop offset="1" stop-color="#06120e"/>
 </linearGradient>
 <linearGradient id="c3c-stone" data-tx="stone" x1="0" y1="0" x2="1" y2="0">
  <stop offset="0" stop-color="#1a2a34"/>
  <stop offset="0.6" stop-color="#34505a"/>
  <stop offset="1" stop-color="#7aa8aa"/>
 </linearGradient>
 <linearGradient id="c3c-skin" data-tx="skin" x1="0" y1="0" x2="1" y2="0">
  <stop offset="0" stop-color="#4a4288"/>
  <stop offset="0.45" stop-color="#8a80c4"/>
  <stop offset="1" stop-color="#b8b0e8"/>
 </linearGradient>
 <linearGradient id="c3c-skinV" data-tx="skin" x1="0" y1="0" x2="0" y2="1">
  <stop offset="0" stop-color="#9a90d4"/>
  <stop offset="1" stop-color="#4a4288"/>
 </linearGradient>
 <linearGradient id="c3c-fur" data-tx="hair-fine" x1="0" y1="0" x2="0" y2="1">
  <stop offset="0" stop-color="#6a4a3e"/>
  <stop offset="0.5" stop-color="#3e2a26"/>
  <stop offset="1" stop-color="#1e1416"/>
 </linearGradient>
 <linearGradient id="c3c-furL" data-tx="hair-fine" x1="0" y1="0" x2="1" y2="1">
  <stop offset="0" stop-color="#9a7a62"/>
  <stop offset="1" stop-color="#4a3430"/>
 </linearGradient>
 <linearGradient id="c3c-antler" data-tx="marble-fine" x1="0" y1="1" x2="0" y2="0">
  <stop offset="0" stop-color="#4a3a30"/>
  <stop offset="0.5" stop-color="#9a8a70"/>
  <stop offset="1" stop-color="#e8e0c8"/>
 </linearGradient>
 <linearGradient id="c3c-hair" data-tx="hair" x1="0" y1="0" x2="0" y2="1">
  <stop offset="0" stop-color="#2a6a5a"/>
  <stop offset="1" stop-color="#0e2a26"/>
 </linearGradient>
 <linearGradient id="c3c-leather" data-tx="leather" x1="0" y1="0" x2="0" y2="1">
  <stop offset="0" stop-color="#5a3e2e"/>
  <stop offset="1" stop-color="#241812"/>
 </linearGradient>
 <radialGradient id="c3c-glowG" cx="0.5" cy="0.5" r="0.5">
  <stop offset="0" stop-color="#c8ffd8" stop-opacity="0.9"/>
  <stop offset="0.4" stop-color="#4af0b0" stop-opacity="0.35"/>
  <stop offset="1" stop-color="#1a8a7a" stop-opacity="0"/>
 </radialGradient>
 <radialGradient id="c3c-orb" cx="0.4" cy="0.35" r="0.6">
  <stop offset="0" stop-color="#ffffff"/>
  <stop offset="0.35" stop-color="#b8ffd8"/>
  <stop offset="0.75" stop-color="#3ae0a8"/>
  <stop offset="1" stop-color="#128a7a"/>
 </radialGradient>
 <linearGradient id="c3c-mag" x1="0" y1="0" x2="1" y2="0">
  <stop offset="0" stop-color="#3ae0c0" stop-opacity="0"/>
  <stop offset="0.3" stop-color="#6affc8"/>
  <stop offset="0.7" stop-color="#b8fff0"/>
  <stop offset="1" stop-color="#3ae0c0" stop-opacity="0"/>
 </linearGradient>
 <radialGradient id="c3c-vig" cx="0.5" cy="0.42" r="0.72">
  <stop offset="0.5" stop-color="#000806" stop-opacity="0"/>
  <stop offset="0.85" stop-color="#000806" stop-opacity="0.4"/>
  <stop offset="1" stop-color="#000806" stop-opacity="0.75"/>
 </radialGradient>
 <path id="c3c-leaf" d="M0,0 C2,-2.2 6,-2.4 10,0 C6,2.4 2,2.2 0,0Z"/>
 <filter id="c3c-blur8" x="-50%" y="-50%" width="200%" height="200%"><feGaussianBlur stdDeviation="7"/></filter>
 <filter id="c3c-blur3" x="-50%" y="-50%" width="200%" height="200%"><feGaussianBlur stdDeviation="2.5"/></filter>
 <filter id="c3c-blur1" x="-50%" y="-50%" width="200%" height="200%"><feGaussianBlur stdDeviation="0.8"/></filter>
 <filter id="c3c-glow" x="-50%" y="-50%" width="200%" height="200%">
  <feGaussianBlur stdDeviation="1.6" result="b"/>
  <feMerge><feMergeNode in="b"/><feMergeNode in="SourceGraphic"/></feMerge>
 </filter>
</defs>

<rect width="400" height="300" fill="url(#c3c-sky)"/>
<rect width="400" height="300" fill="url(#c3c-opening)"/>
<g fill="#e8fff8"><circle cx="273" cy="47.6" r="0.4" opacity="0.4"/><circle cx="177.8" cy="11.8" r="0.7" opacity="0.8"/><circle cx="160.3" cy="13.8" r="0.4" opacity="0.7"/><circle cx="145.3" cy="23.8" r="0.5" opacity="0.8"/><circle cx="257.6" cy="27.4" r="0.5" opacity="0.7"/><circle cx="191.2" cy="16.3" r="0.4" opacity="0.8"/><circle cx="178.2" cy="46.9" r="0.5" opacity="0.6"/><circle cx="261.5" cy="11.6" r="0.4" opacity="0.5"/><circle cx="123.8" cy="19" r="0.4" opacity="0.7"/><circle cx="177.6" cy="27.6" r="0.7" opacity="0.5"/><circle cx="263" cy="40.7" r="0.7" opacity="0.7"/><circle cx="265.4" cy="20.8" r="0.7" opacity="0.6"/><circle cx="277" cy="48.2" r="0.4" opacity="0.9"/><circle cx="184" cy="38" r="0.7" opacity="0.7"/><circle cx="198.4" cy="46.5" r="0.7" opacity="0.7"/><circle cx="247.4" cy="34.4" r="0.5" opacity="0.8"/><circle cx="193.8" cy="30.1" r="0.7" opacity="0.8"/><circle cx="197.9" cy="14.2" r="0.5" opacity="0.8"/><circle cx="253.6" cy="44.3" r="0.7" opacity="0.5"/><circle cx="265.8" cy="18.2" r="0.7" opacity="0.8"/><circle cx="210" cy="27.3" r="0.7" opacity="0.7"/><circle cx="169.9" cy="13.6" r="0.7" opacity="0.6"/><circle cx="229.5" cy="44.6" r="0.5" opacity="0.8"/><circle cx="265.2" cy="12.8" r="0.7" opacity="0.5"/><circle cx="211.9" cy="6.2" r="0.7" opacity="0.5"/><circle cx="260.1" cy="8.9" r="0.7" opacity="0.5"/></g>
<g fill="#2c6a64" opacity="0.6" filter="url(#tx-moss-far)"><circle cx="-10" cy="121.2" r="18.5"/><circle cx="3" cy="114" r="10.5"/><circle cx="-9.7" cy="106.4" r="11.1"/><circle cx="8.4" cy="122.6" r="19.1"/><circle cx="18.7" cy="111.3" r="9.1"/><circle cx="1.1" cy="109.1" r="9"/><circle cx="33.3" cy="110.8" r="20.9"/><circle cx="49" cy="105" r="14.5"/><circle cx="39.6" cy="95.3" r="12.6"/><circle cx="53.8" cy="120.6" r="14.2"/><circle cx="43.7" cy="115.5" r="7"/><circle cx="47" cy="111.5" r="6.5"/><circle cx="69.8" cy="126.8" r="18.4"/><circle cx="70.5" cy="112.1" r="11.2"/><circle cx="69.8" cy="112.1" r="11.3"/><circle cx="90.6" cy="130" r="16.8"/><circle cx="103.3" cy="125.7" r="11.1"/><circle cx="97.3" cy="118.3" r="8.9"/><circle cx="107.6" cy="111.4" r="16.9"/><circle cx="116" cy="100.8" r="9.3"/><circle cx="118" cy="102.7" r="9.2"/><circle cx="130.9" cy="110" r="22.5"/><circle cx="118.9" cy="96.6" r="15.2"/><circle cx="129.6" cy="92.1" r="15.6"/><circle cx="155.6" cy="122.6" r="14.7"/><circle cx="163.2" cy="113.6" r="7.6"/><circle cx="145.5" cy="116.6" r="7.9"/><circle cx="176" cy="112.4" r="21.6"/><circle cx="165.7" cy="98.5" r="10.3"/><circle cx="160.5" cy="104.6" r="14"/><circle cx="197.3" cy="118.9" r="19.6"/><circle cx="186.3" cy="107.8" r="12.4"/><circle cx="184.8" cy="109.5" r="12"/><circle cx="216.1" cy="114.3" r="18.2"/><circle cx="208.1" cy="102.1" r="12.6"/><circle cx="226.2" cy="103.7" r="9.6"/><circle cx="240.5" cy="117.9" r="16.1"/><circle cx="250.6" cy="109.8" r="9.8"/><circle cx="229.7" cy="111" r="11.2"/><circle cx="256.8" cy="125.5" r="16.6"/><circle cx="251.2" cy="113.4" r="8.7"/><circle cx="245.1" cy="119.1" r="7.8"/><circle cx="276.5" cy="122" r="16.4"/><circle cx="272.3" cy="109.6" r="9.3"/><circle cx="288.5" cy="116.7" r="9.4"/><circle cx="296" cy="113.7" r="22.7"/><circle cx="282.2" cy="102" r="15.3"/><circle cx="309" cy="101" r="11.6"/><circle cx="318.6" cy="128.8" r="21.4"/><circle cx="306.7" cy="116.4" r="14.7"/><circle cx="332.6" cy="119" r="12.9"/><circle cx="342.3" cy="110.8" r="15"/><circle cx="353.4" cy="106" r="7.7"/><circle cx="348.2" cy="100.3" r="7.7"/><circle cx="362.1" cy="115.9" r="20"/><circle cx="350.4" cy="104.9" r="12.6"/><circle cx="347.9" cy="108.4" r="10.1"/><circle cx="385.6" cy="122.3" r="22.5"/><circle cx="376.2" cy="106.9" r="15.3"/><circle cx="373.4" cy="109" r="10.2"/><circle cx="408.9" cy="111.2" r="18.5"/><circle cx="398.2" cy="101.1" r="10"/><circle cx="411.6" cy="96.7" r="8.9"/><rect x="-10" y="120" width="420" height="180"/></g>
<path d="M30,230 C32,190 28,150 31,110 L36,110 C38,150 35,190 39,230Z" fill="#2a5e5a" opacity="0.75" filter="url(#tx-bark-far)"/>
<path d="M84,230 C86,190 82,150 85,110 L89,110 C91,150 88,190 92,230Z" fill="#2a5e5a" opacity="0.75" filter="url(#tx-bark-far)"/>
<path d="M130,230 C132,190 128,150 131,110 L134,110 C136,150 133,190 137,230Z" fill="#2a5e5a" opacity="0.75" filter="url(#tx-bark-far)"/>
<path d="M262,230 C264,190 260,150 263,110 L266,110 C268,150 265,190 269,230Z" fill="#2a5e5a" opacity="0.75" filter="url(#tx-bark-far)"/>
<path d="M316,230 C318,190 314,150 317,110 L321,110 C323,150 320,190 324,230Z" fill="#2a5e5a" opacity="0.75" filter="url(#tx-bark-far)"/>
<path d="M366,230 C368,190 364,150 367,110 L372,110 C374,150 371,190 375,230Z" fill="#2a5e5a" opacity="0.75" filter="url(#tx-bark-far)"/>
<g fill="url(#c3c-far)" opacity="0.9" ><circle cx="-10" cy="153.1" r="21.7"/><circle cx="-3" cy="137.3" r="10.5"/><circle cx="-26.4" cy="147.3" r="11.8"/><circle cx="12.5" cy="153.8" r="25.7"/><circle cx="17.7" cy="133.9" r="15.2"/><circle cx="20.6" cy="134.9" r="12.5"/><circle cx="41.3" cy="158.1" r="17.9"/><circle cx="28.5" cy="151.7" r="11.8"/><circle cx="28.7" cy="151.2" r="11.2"/><circle cx="60.5" cy="156.8" r="20.9"/><circle cx="44.9" cy="151" r="9.7"/><circle cx="74.9" cy="148.4" r="12"/><circle cx="80.2" cy="158.9" r="27.8"/><circle cx="61.8" cy="146.4" r="15.5"/><circle cx="62.5" cy="145.4" r="14.7"/><circle cx="113.9" cy="153.9" r="18"/><circle cx="100.9" cy="147.8" r="8.9"/><circle cx="124.2" cy="143.9" r="9.9"/><circle cx="133.8" cy="149.5" r="23.2"/><circle cx="128.5" cy="131.8" r="10.6"/><circle cx="143.8" cy="133.9" r="16"/><circle cx="166" cy="147.1" r="24"/><circle cx="159.5" cy="129.1" r="14.9"/><circle cx="174.1" cy="129.8" r="11.5"/><circle cx="190.4" cy="150.2" r="20.4"/><circle cx="201.8" cy="138.6" r="11.7"/><circle cx="175.3" cy="144.1" r="13.3"/><circle cx="213.1" cy="144.4" r="22.2"/><circle cx="209.8" cy="127" r="12.2"/><circle cx="224.3" cy="130.7" r="10.6"/><circle cx="239.2" cy="153.9" r="18.1"/><circle cx="225.9" cy="148.2" r="9.4"/><circle cx="233.6" cy="140.5" r="11"/><circle cx="256" cy="144.2" r="21.5"/><circle cx="247" cy="129.5" r="12.2"/><circle cx="271.7" cy="137.2" r="12.3"/><circle cx="285.6" cy="158.5" r="18"/><circle cx="280.8" cy="144.9" r="9"/><circle cx="294" cy="146.8" r="12.2"/><circle cx="301.9" cy="155.4" r="19.2"/><circle cx="295.9" cy="141.2" r="9.8"/><circle cx="287.4" cy="150.3" r="8.8"/><circle cx="325.1" cy="160" r="27.8"/><circle cx="325.3" cy="137.7" r="12.7"/><circle cx="315.5" cy="139.9" r="18"/><circle cx="361.7" cy="144.6" r="23.7"/><circle cx="363" cy="125.7" r="13.5"/><circle cx="367.7" cy="126.6" r="12.2"/><circle cx="394.2" cy="143.2" r="26.7"/><circle cx="383.5" cy="124.7" r="17.9"/><circle cx="382.9" cy="125.1" r="18.3"/><rect x="-10" y="150" width="420" height="150"/></g>
<path d="M168,0 L232,0 L290,300 L110,300Z" fill="url(#c3c-beam)" filter="url(#c3c-blur3)"/>
<g fill="url(#c3c-mid)" opacity="0.95" ><circle cx="-10" cy="193.7" r="19.6"/><circle cx="-3" cy="179.7" r="13"/><circle cx="-21.2" cy="182.7" r="10"/><circle cx="9.1" cy="194.7" r="19.2"/><circle cx="-3.2" cy="185.5" r="11.2"/><circle cx="-1" cy="183.2" r="10"/><circle cx="30.5" cy="192.2" r="27.7"/><circle cx="9.6" cy="184.6" r="14.4"/><circle cx="13.3" cy="178.2" r="18.5"/><circle cx="66.7" cy="196.5" r="27.3"/><circle cx="79.3" cy="178.7" r="18.8"/><circle cx="81.3" cy="180.4" r="14"/><circle cx="102.8" cy="195.1" r="22.8"/><circle cx="105.7" cy="177.1" r="12.7"/><circle cx="96.7" cy="177.9" r="12.7"/><circle cx="126.9" cy="196.4" r="17.6"/><circle cx="136.5" cy="186.1" r="12.3"/><circle cx="133.4" cy="183.9" r="10.4"/><circle cx="149.4" cy="193.5" r="17.9"/><circle cx="147.4" cy="179.4" r="8.8"/><circle cx="139.7" cy="183" r="10.4"/><circle cx="167.8" cy="192.1" r="22.4"/><circle cx="163.1" cy="174.8" r="10.8"/><circle cx="167.4" cy="174.2" r="11.4"/><circle cx="190.6" cy="187.3" r="18.7"/><circle cx="177.4" cy="180.2" r="11.5"/><circle cx="204.2" cy="181.1" r="10.2"/><circle cx="214.2" cy="180.9" r="29.1"/><circle cx="196" cy="166.4" r="18.9"/><circle cx="231.6" cy="165.5" r="17.7"/><circle cx="242.7" cy="197.4" r="21.8"/><circle cx="257" cy="187.5" r="14.2"/><circle cx="230.8" cy="184.6" r="14.5"/><circle cx="266.3" cy="182.7" r="26"/><circle cx="285.6" cy="174.9" r="15.6"/><circle cx="277.4" cy="165.1" r="13.1"/><circle cx="297.8" cy="191.8" r="24.1"/><circle cx="291.1" cy="173.7" r="15.2"/><circle cx="290.3" cy="174" r="12.6"/><circle cx="321.5" cy="182.2" r="25.6"/><circle cx="308.5" cy="166.5" r="12"/><circle cx="328.7" cy="163.1" r="15.1"/><circle cx="351.5" cy="188.8" r="16.5"/><circle cx="346.4" cy="176.6" r="7.8"/><circle cx="338.9" cy="184.6" r="11.6"/><circle cx="367.4" cy="185.4" r="20.2"/><circle cx="371.3" cy="169.7" r="9.5"/><circle cx="366.2" cy="169.2" r="11"/><circle cx="394" cy="186.7" r="16.1"/><circle cx="393.9" cy="173.8" r="11.1"/><circle cx="394.6" cy="173.8" r="9.1"/><rect x="-10" y="190" width="420" height="110"/></g>
<path d="M56,236 C55,205.0 52,180.2 58.4,174 C65.0,170 73.8,175 76,180 C79,205.0 80,223.6 78,236Z" fill="url(#c3c-stone)"/><path d="M76,180 C79,205.0 80,223.6 78,236" stroke="#aaf0e0" stroke-width="0.8" fill="none" opacity="0.5"/><path d="M66.2,189.5 L66.2,217.4 M62.2,195.7 L66.2,201.9 L70.2,195.7 M63.2,211.2 C61.2,217.4 71.2,217.4 69.2,211.2" stroke="#6affc8" stroke-width="1.1" fill="none" filter="url(#c3c-glow)" stroke-linecap="round"/><ellipse cx="59" cy="215" rx="4.3" ry="1.3" fill="#2a6a4a" opacity="0.8" filter="url(#tx-moss-fine)"/><ellipse cx="66.9" cy="224.9" rx="4" ry="1.8" fill="#2a6a4a" opacity="0.8" filter="url(#tx-moss-fine)"/><ellipse cx="58.1" cy="235.3" rx="4.5" ry="1.4" fill="#2a6a4a" opacity="0.8" filter="url(#tx-moss-fine)"/><ellipse cx="72.8" cy="235.9" rx="3.3" ry="1.7" fill="#2a6a4a" opacity="0.8" filter="url(#tx-moss-fine)"/><ellipse cx="61" cy="212.6" rx="4.7" ry="1" fill="#2a6a4a" opacity="0.8" filter="url(#tx-moss-fine)"/><ellipse cx="56.6" cy="222.6" rx="4.8" ry="1.4" fill="#2a6a4a" opacity="0.8" filter="url(#tx-moss-fine)"/>
<path d="M92,232 C91,213.0 91,197.8 95.8,194 C100.0,190 105.6,195 107,200 C107,213.0 108,224.4 106,232Z" fill="url(#c3c-stone)"/><path d="M107,200 C107,213.0 108,224.4 106,232" stroke="#aaf0e0" stroke-width="0.8" fill="none" opacity="0.5"/><path d="M99.4,203.5 L99.4,220.6 M95.4,207.3 L99.4,211.1 L103.4,207.3 M96.4,216.8 C94.4,220.6 104.4,220.6 102.4,216.8" stroke="#6affc8" stroke-width="1.1" fill="none" filter="url(#c3c-glow)" stroke-linecap="round"/><ellipse cx="105.4" cy="217.6" rx="2.2" ry="1.1" fill="#2a6a4a" opacity="0.8" filter="url(#tx-moss-fine)"/><ellipse cx="103.7" cy="220.8" rx="4" ry="1.3" fill="#2a6a4a" opacity="0.8" filter="url(#tx-moss-fine)"/><ellipse cx="100.5" cy="222.8" rx="3.7" ry="1.2" fill="#2a6a4a" opacity="0.8" filter="url(#tx-moss-fine)"/><ellipse cx="98" cy="226" rx="4.2" ry="2" fill="#2a6a4a" opacity="0.8" filter="url(#tx-moss-fine)"/><ellipse cx="105.3" cy="223.7" rx="3.3" ry="1.3" fill="#2a6a4a" opacity="0.8" filter="url(#tx-moss-fine)"/><ellipse cx="92.5" cy="231.6" rx="3.4" ry="1.3" fill="#2a6a4a" opacity="0.8" filter="url(#tx-moss-fine)"/>
<path d="M318,236 C317,207.0 318,183.8 324.4,178 C331.0,174 339.8,179 342,184 C341,207.0 342,224.4 340,236Z" fill="url(#c3c-stone)"/><path d="M342,184 C341,207.0 342,224.4 340,236" stroke="#aaf0e0" stroke-width="0.8" fill="none" opacity="0.5"/><path d="M329.8,192.5 L329.8,218.6 M325.8,198.3 L329.8,204.1 L333.8,198.3 M326.8,212.8 C324.8,218.6 334.8,218.6 332.8,212.8" stroke="#6affc8" stroke-width="1.1" fill="none" filter="url(#c3c-glow)" stroke-linecap="round"/><ellipse cx="323.2" cy="223.4" rx="3.1" ry="1.6" fill="#2a6a4a" opacity="0.8" filter="url(#tx-moss-fine)"/><ellipse cx="331.8" cy="234.5" rx="2" ry="1.8" fill="#2a6a4a" opacity="0.8" filter="url(#tx-moss-fine)"/><ellipse cx="323.7" cy="230.6" rx="5" ry="1.5" fill="#2a6a4a" opacity="0.8" filter="url(#tx-moss-fine)"/><ellipse cx="336.4" cy="224.9" rx="3.9" ry="1.2" fill="#2a6a4a" opacity="0.8" filter="url(#tx-moss-fine)"/><ellipse cx="332" cy="215.9" rx="3.6" ry="1.7" fill="#2a6a4a" opacity="0.8" filter="url(#tx-moss-fine)"/><ellipse cx="332.8" cy="234.5" rx="4.3" ry="1.6" fill="#2a6a4a" opacity="0.8" filter="url(#tx-moss-fine)"/>
<path d="M296,232 C295,215.0 293,201.4 297.6,198 C301.5,194 306.7,199 308,204 C310,215.0 311,225.2 309,232Z" fill="url(#c3c-stone)"/><path d="M308,204 C310,215.0 311,225.2 309,232" stroke="#aaf0e0" stroke-width="0.8" fill="none" opacity="0.5"/><path d="M302.1,206.5 L302.1,221.8 M298.1,209.9 L302.1,213.3 L306.1,209.9 M299.1,218.4 C297.1,221.8 307.1,221.8 305.1,218.4" stroke="#6affc8" stroke-width="1.1" fill="none" filter="url(#c3c-glow)" stroke-linecap="round"/><ellipse cx="299.1" cy="230.6" rx="3.2" ry="1.2" fill="#2a6a4a" opacity="0.8" filter="url(#tx-moss-fine)"/><ellipse cx="296.9" cy="226.5" rx="4.8" ry="1.8" fill="#2a6a4a" opacity="0.8" filter="url(#tx-moss-fine)"/><ellipse cx="305.9" cy="229" rx="3.6" ry="1.3" fill="#2a6a4a" opacity="0.8" filter="url(#tx-moss-fine)"/><ellipse cx="298.2" cy="230.6" rx="2.6" ry="1.9" fill="#2a6a4a" opacity="0.8" filter="url(#tx-moss-fine)"/><ellipse cx="306.8" cy="221" rx="4.4" ry="1.2" fill="#2a6a4a" opacity="0.8" filter="url(#tx-moss-fine)"/><ellipse cx="300" cy="223.5" rx="4.2" ry="1.9" fill="#2a6a4a" opacity="0.8" filter="url(#tx-moss-fine)"/>
<path d="M0,224 C70,214 140,226 200,222 C260,218 330,226 400,218 L400,300 L0,300Z" fill="url(#c3c-ground)"/>
<ellipse cx="200" cy="250" rx="120" ry="20" fill="#8affd8" opacity="0.12" filter="url(#c3c-blur8)"/>
<g><path d="M248.2,279.9 Q250,272.8 251.2,268.1 Q249.8,274 250.2,279.9Z" fill="#1e5a44"/><path d="M309.4,241.4 Q309.5,239.2 308.1,237.8 Q311,239.6 311.4,241.4Z" fill="#2a6a50"/><path d="M186.6,241.2 Q186.5,237.5 184.7,235.1 Q188.2,238.2 188.6,241.2Z" fill="#2a6a50"/><path d="M85.7,243.8 Q85.9,238.8 84.6,235.4 Q87.3,239.6 87.7,243.8Z" fill="#3a8a66"/><path d="M317.9,232.8 Q318,229.4 316.7,227.1 Q319.5,230 319.9,232.8Z" fill="#2a6a50"/><path d="M387.9,222.4 Q389.8,219.3 391.2,217.2 Q389.5,219.8 389.9,222.4Z" fill="#2a6a50"/><path d="M114.7,297 Q115,290.2 113.8,285.7 Q116.3,291.3 116.7,297Z" fill="#2a6a50"/><path d="M386.4,237.4 Q386.9,232.7 386.2,229.6 Q388,233.5 388.4,237.4Z" fill="#3a8a66"/><path d="M143.5,234.9 Q144.1,232.7 143.5,231.2 Q145.1,233.1 145.5,234.9Z" fill="#1e5a44"/><path d="M326,267.7 Q325.9,262.3 324.4,258.7 Q327.6,263.2 328,267.7Z" fill="#123a2e"/><path d="M141.1,245.9 Q142.1,241.4 142,238.5 Q142.7,242.2 143.1,245.9Z" fill="#2a6a50"/><path d="M280.9,226.4 Q282.9,222.6 284.6,220 Q282.5,223.2 282.9,226.4Z" fill="#1e5a44"/><path d="M142.1,253.5 Q142.7,249.1 142.3,246.2 Q143.7,249.9 144.1,253.5Z" fill="#3a8a66"/><path d="M230.4,222.7 Q231.7,221.1 232.1,220.1 Q232,221.4 232.4,222.7Z" fill="#2a6a50"/><path d="M380.8,231.3 Q381.4,228.9 380.8,227.3 Q382.4,229.3 382.8,231.3Z" fill="#3a8a66"/><path d="M140.9,262.9 Q142.1,257.1 142.5,253.2 Q142.5,258.1 142.9,262.9Z" fill="#1e5a44"/><path d="M311.4,250.6 Q313.5,247.3 315.1,245.1 Q313,247.9 313.4,250.6Z" fill="#3a8a66"/><path d="M35.5,248.6 Q36.1,244.3 35.5,241.4 Q37.1,245 37.5,248.6Z" fill="#2a6a50"/><path d="M368.7,264.5 Q369.2,260.5 368.5,257.8 Q370.3,261.2 370.7,264.5Z" fill="#123a2e"/><path d="M318.5,270.9 Q320.7,264.8 322.5,260.7 Q320.1,265.8 320.5,270.9Z" fill="#123a2e"/><path d="M63.6,225.8 Q63.5,221.9 61.8,219.4 Q65.2,222.6 65.6,225.8Z" fill="#3a8a66"/><path d="M295.2,248.8 Q295.4,245.7 294.1,243.6 Q296.8,246.2 297.2,248.8Z" fill="#3a8a66"/><path d="M390.6,271.8 Q392.4,265.2 393.7,260.9 Q392.2,266.3 392.6,271.8Z" fill="#123a2e"/><path d="M51.2,279.1 Q51.3,271.3 49.9,266.2 Q52.8,272.6 53.2,279.1Z" fill="#3a8a66"/><path d="M172.8,233.6 Q173,229.6 171.7,226.8 Q174.4,230.2 174.8,233.6Z" fill="#123a2e"/><path d="M367.8,270.4 Q369.9,266.7 371.6,264.3 Q369.4,267.3 369.8,270.4Z" fill="#3a8a66"/><path d="M274.5,246.8 Q275.3,243.7 275,241.6 Q276.1,244.2 276.5,246.8Z" fill="#3a8a66"/><path d="M57.6,251.4 Q58.9,245.6 59.4,241.7 Q59.2,246.6 59.6,251.4Z" fill="#2a6a50"/><path d="M198.7,248.4 Q199.8,245.8 199.8,244.1 Q200.3,246.3 200.7,248.4Z" fill="#123a2e"/><path d="M218.2,261.2 Q219.7,258.3 220.4,256.4 Q219.8,258.8 220.2,261.2Z" fill="#123a2e"/><path d="M264.6,281.3 Q266.4,276.2 267.6,272.8 Q266.2,277.1 266.6,281.3Z" fill="#123a2e"/><path d="M104.9,298.5 Q106.3,290.6 106.8,285.4 Q106.5,292 106.9,298.5Z" fill="#123a2e"/><path d="M231.3,222.9 Q231.8,220.2 231.2,218.4 Q232.9,220.7 233.3,222.9Z" fill="#123a2e"/><path d="M108.5,244.5 Q109.1,240.8 108.6,238.3 Q110.1,241.4 110.5,244.5Z" fill="#123a2e"/></g>
<circle cx="40" cy="262" r="6" fill="url(#c3c-glowG)"/><g transform="translate(40,262)"><ellipse cx="0" cy="-1.8" rx="0.9" ry="1.8" transform="rotate(0)" fill="#c8fff0"/><ellipse cx="0" cy="-1.8" rx="0.9" ry="1.8" transform="rotate(72)" fill="#c8fff0"/><ellipse cx="0" cy="-1.8" rx="0.9" ry="1.8" transform="rotate(144)" fill="#c8fff0"/><ellipse cx="0" cy="-1.8" rx="0.9" ry="1.8" transform="rotate(216)" fill="#c8fff0"/><ellipse cx="0" cy="-1.8" rx="0.9" ry="1.8" transform="rotate(288)" fill="#c8fff0"/><circle r="0.7" fill="#ffffff"/></g>
<circle cx="118" cy="248" r="6" fill="url(#c3c-glowG)"/><g transform="translate(118,248)"><ellipse cx="0" cy="-1.8" rx="0.9" ry="1.8" transform="rotate(0)" fill="#c8fff0"/><ellipse cx="0" cy="-1.8" rx="0.9" ry="1.8" transform="rotate(72)" fill="#c8fff0"/><ellipse cx="0" cy="-1.8" rx="0.9" ry="1.8" transform="rotate(144)" fill="#c8fff0"/><ellipse cx="0" cy="-1.8" rx="0.9" ry="1.8" transform="rotate(216)" fill="#c8fff0"/><ellipse cx="0" cy="-1.8" rx="0.9" ry="1.8" transform="rotate(288)" fill="#c8fff0"/><circle r="0.7" fill="#ffffff"/></g>
<circle cx="150" cy="270" r="6" fill="url(#c3c-glowG)"/><g transform="translate(150,270)"><ellipse cx="0" cy="-1.8" rx="0.9" ry="1.8" transform="rotate(0)" fill="#c8fff0"/><ellipse cx="0" cy="-1.8" rx="0.9" ry="1.8" transform="rotate(72)" fill="#c8fff0"/><ellipse cx="0" cy="-1.8" rx="0.9" ry="1.8" transform="rotate(144)" fill="#c8fff0"/><ellipse cx="0" cy="-1.8" rx="0.9" ry="1.8" transform="rotate(216)" fill="#c8fff0"/><ellipse cx="0" cy="-1.8" rx="0.9" ry="1.8" transform="rotate(288)" fill="#c8fff0"/><circle r="0.7" fill="#ffffff"/></g>
<circle cx="262" cy="252" r="6" fill="url(#c3c-glowG)"/><g transform="translate(262,252)"><ellipse cx="0" cy="-1.8" rx="0.9" ry="1.8" transform="rotate(0)" fill="#c8fff0"/><ellipse cx="0" cy="-1.8" rx="0.9" ry="1.8" transform="rotate(72)" fill="#c8fff0"/><ellipse cx="0" cy="-1.8" rx="0.9" ry="1.8" transform="rotate(144)" fill="#c8fff0"/><ellipse cx="0" cy="-1.8" rx="0.9" ry="1.8" transform="rotate(216)" fill="#c8fff0"/><ellipse cx="0" cy="-1.8" rx="0.9" ry="1.8" transform="rotate(288)" fill="#c8fff0"/><circle r="0.7" fill="#ffffff"/></g>
<circle cx="300" cy="268" r="6" fill="url(#c3c-glowG)"/><g transform="translate(300,268)"><ellipse cx="0" cy="-1.8" rx="0.9" ry="1.8" transform="rotate(0)" fill="#c8fff0"/><ellipse cx="0" cy="-1.8" rx="0.9" ry="1.8" transform="rotate(72)" fill="#c8fff0"/><ellipse cx="0" cy="-1.8" rx="0.9" ry="1.8" transform="rotate(144)" fill="#c8fff0"/><ellipse cx="0" cy="-1.8" rx="0.9" ry="1.8" transform="rotate(216)" fill="#c8fff0"/><ellipse cx="0" cy="-1.8" rx="0.9" ry="1.8" transform="rotate(288)" fill="#c8fff0"/><circle r="0.7" fill="#ffffff"/></g>
<circle cx="360" cy="256" r="6" fill="url(#c3c-glowG)"/><g transform="translate(360,256)"><ellipse cx="0" cy="-1.8" rx="0.9" ry="1.8" transform="rotate(0)" fill="#c8fff0"/><ellipse cx="0" cy="-1.8" rx="0.9" ry="1.8" transform="rotate(72)" fill="#c8fff0"/><ellipse cx="0" cy="-1.8" rx="0.9" ry="1.8" transform="rotate(144)" fill="#c8fff0"/><ellipse cx="0" cy="-1.8" rx="0.9" ry="1.8" transform="rotate(216)" fill="#c8fff0"/><ellipse cx="0" cy="-1.8" rx="0.9" ry="1.8" transform="rotate(288)" fill="#c8fff0"/><circle r="0.7" fill="#ffffff"/></g>
<circle cx="84" cy="280" r="6" fill="url(#c3c-glowG)"/><g transform="translate(84,280)"><ellipse cx="0" cy="-1.8" rx="0.9" ry="1.8" transform="rotate(0)" fill="#c8fff0"/><ellipse cx="0" cy="-1.8" rx="0.9" ry="1.8" transform="rotate(72)" fill="#c8fff0"/><ellipse cx="0" cy="-1.8" rx="0.9" ry="1.8" transform="rotate(144)" fill="#c8fff0"/><ellipse cx="0" cy="-1.8" rx="0.9" ry="1.8" transform="rotate(216)" fill="#c8fff0"/><ellipse cx="0" cy="-1.8" rx="0.9" ry="1.8" transform="rotate(288)" fill="#c8fff0"/><circle r="0.7" fill="#ffffff"/></g>
<circle cx="330" cy="284" r="6" fill="url(#c3c-glowG)"/><g transform="translate(330,284)"><ellipse cx="0" cy="-1.8" rx="0.9" ry="1.8" transform="rotate(0)" fill="#c8fff0"/><ellipse cx="0" cy="-1.8" rx="0.9" ry="1.8" transform="rotate(72)" fill="#c8fff0"/><ellipse cx="0" cy="-1.8" rx="0.9" ry="1.8" transform="rotate(144)" fill="#c8fff0"/><ellipse cx="0" cy="-1.8" rx="0.9" ry="1.8" transform="rotate(216)" fill="#c8fff0"/><ellipse cx="0" cy="-1.8" rx="0.9" ry="1.8" transform="rotate(288)" fill="#c8fff0"/><circle r="0.7" fill="#ffffff"/></g>
<path d="M0,0 L28,0 C24,40 32,90 26,140 C22,180 30,220 40,250 C48,272 60,288 76,300 L0,300Z" fill="url(#c3c-trunk)"/>
<path d="M28,0 C24,40 32,90 26,140 C22,180 30,220 40,250 C48,272 60,288 76,300" stroke="#8ae8d0" stroke-width="0.9" fill="none" opacity="0.45"/>
<path d="M400,0 L374,0 C378,40 370,90 375,140 C379,184 370,222 360,250 C352,272 340,288 326,300 L400,300Z" fill="url(#c3c-trunk)"/>
<path d="M374,0 C378,40 370,90 375,140 C379,184 370,222 360,250 C352,272 340,288 326,300" stroke="#8ae8d0" stroke-width="0.9" fill="none" opacity="0.45"/>
<path d="M18.1,116.4 Q17.7,120.8 17.4,124 Q17.2,127.2 16.9,130.8 Q16.6,134.4 16.4,138.8 Q16.1,143.2 15.8,148 Q15.5,152.8 15.3,156.3 L15.1,159.7" stroke="#000" stroke-width="1" fill="none" opacity="0.6"/>
<path d="M393.6,182.3 Q393.3,187 393.1,190.4 Q392.9,193.7 392.9,197 Q392.9,200.3 393.2,203.6 Q393.5,206.8 394,210.1 Q394.5,213.3 394.9,215.5 L395.2,217.8" stroke="#000" stroke-width="1.2" fill="none" opacity="0.6"/>
<path d="M16.9,129.2 Q17.3,133.7 17.6,136.9 Q17.9,140.2 17.9,143.7 Q18,147.2 17.6,151.3 Q17.2,155.4 16.6,159.7 Q15.9,164.1 15.5,167.2 L15,170.3" stroke="#000" stroke-width="1.2" fill="none" opacity="0.6"/>
<path d="M385.9,63.7 Q386.4,68 386.8,71.1 Q387.2,74.3 387.4,78 Q387.7,81.7 387.6,86.7 Q387.6,91.6 387.4,97.2 Q387.3,102.7 387.1,106.7 L387,110.6" stroke="#000" stroke-width="0.9" fill="none" opacity="0.6"/>
<path d="M4.8,193.1 Q4.8,197.9 4.7,201.3 Q4.7,204.6 4.6,207.9 Q4.4,211.1 4.1,214.2 Q3.8,217.2 3.4,220.1 Q2.9,223 2.6,225.1 L2.3,227.1" stroke="#000" stroke-width="1.1" fill="none" opacity="0.6"/>
<path d="M393.2,69.9 Q394.1,74.6 394.7,78 Q395.3,81.4 395.6,84.6 Q395.9,87.9 395.7,90.9 Q395.5,94 395,96.9 Q394.5,99.8 394.1,101.9 L393.7,103.9" stroke="#000" stroke-width="1.1" fill="none" opacity="0.6"/>
<path d="M9.8,218.3 Q9.8,222.7 9.8,225.8 Q9.9,229 9.9,232.7 Q9.9,236.3 10.1,240.8 Q10.2,245.3 10.3,250.3 Q10.5,255.2 10.6,258.7 L10.7,262.2" stroke="#000" stroke-width="1.2" fill="none" opacity="0.6"/>
<path d="M395.7,234.3 Q394.8,238.8 394.2,242 Q393.6,245.2 393.2,248.8 Q392.9,252.3 393.1,256.6 Q393.3,260.8 393.7,265.3 Q394.2,269.9 394.5,273.1 L394.9,276.4" stroke="#000" stroke-width="0.8" fill="none" opacity="0.6"/>
<path d="M14.2,211.2 Q14.3,215.6 14.4,218.8 Q14.5,222 14.4,225.6 Q14.3,229.2 14,233.6 Q13.6,238 13.1,242.8 Q12.6,247.7 12.3,251.1 L11.9,254.5" stroke="#000" stroke-width="0.8" fill="none" opacity="0.6"/>
<path d="M379.7,47.1 Q379.8,51.8 379.8,55.2 Q379.8,58.6 379.7,61.8 Q379.6,65.1 379.3,68.2 Q379,71.2 378.6,74.2 Q378.1,77.2 377.8,79.2 L377.5,81.3" stroke="#000" stroke-width="1.3" fill="none" opacity="0.6"/>
<path d="M16.3,186.7 Q15.3,191 14.7,194.1 Q14.1,197.2 13.7,201 Q13.4,204.7 13.5,209.9 Q13.7,215 14.2,220.8 Q14.6,226.6 14.9,230.7 L15.3,234.8" stroke="#000" stroke-width="1.1" fill="none" opacity="0.6"/>
<path d="M378.2,73.5 Q378,78.3 377.9,81.7 Q377.7,85.1 377.6,88.3 Q377.5,91.5 377.5,94.3 Q377.5,97.1 377.5,99.7 Q377.5,102.4 377.5,104.2 L377.6,106" stroke="#000" stroke-width="1.4" fill="none" opacity="0.6"/>
<path d="M4,179.1 Q3.7,183.8 3.5,187.2 Q3.3,190.5 3.4,193.8 Q3.4,197.1 3.9,200.3 Q4.4,203.5 5.1,206.6 Q5.8,209.7 6.4,211.9 L6.9,214" stroke="#000" stroke-width="1.4" fill="none" opacity="0.6"/>
<path d="M386,214.1 Q386.3,218.7 386.5,222 Q386.7,225.3 386.9,228.7 Q387.1,232.1 387.3,235.9 Q387.5,239.7 387.8,243.6 Q388,247.5 388.2,250.3 L388.4,253.1" stroke="#000" stroke-width="1.3" fill="none" opacity="0.6"/>
<path d="M18.1,113 Q18.6,117.8 18.8,121.3 Q19.1,124.7 19.2,127.8 Q19.4,131 19.1,133.7 Q18.9,136.4 18.5,138.9 Q18.2,141.3 17.9,143 L17.6,144.7" stroke="#000" stroke-width="1.2" fill="none" opacity="0.6"/>
<path d="M387.8,63.8 Q387.7,68.6 387.7,71.9 Q387.6,75.3 387.7,78.6 Q387.7,81.8 388,84.8 Q388.3,87.7 388.6,90.5 Q389,93.3 389.3,95.3 L389.5,97.2" stroke="#000" stroke-width="0.6" fill="none" opacity="0.6"/>
<path d="M5.3,86.7 Q4.9,90.9 4.6,94 Q4.2,97.1 4.1,100.9 Q3.9,104.7 4,109.8 Q4.1,115 4.4,120.9 Q4.7,126.8 4.9,131 L5.1,135.2" stroke="#000" stroke-width="0.8" fill="none" opacity="0.6"/>
<path d="M389.2,98.5 Q389.9,103.2 390.4,106.6 Q390.9,109.9 391.2,113.2 Q391.5,116.5 391.3,119.8 Q391.2,123 390.8,126.2 Q390.4,129.4 390.2,131.7 L389.9,133.9" stroke="#000" stroke-width="1" fill="none" opacity="0.6"/>
<path d="M12.1,90.6 Q11.6,95.2 11.3,98.6 Q11,101.9 11,105.2 Q10.9,108.6 11.3,112 Q11.7,115.4 12.4,118.8 Q13,122.3 13.5,124.7 L13.9,127.1" stroke="#000" stroke-width="1.1" fill="none" opacity="0.6"/>
<path d="M380.7,233 Q381.6,237.4 382.2,240.6 Q382.7,243.9 383,247.4 Q383.2,251 382.8,255.2 Q382.5,259.4 381.7,264 Q381,268.6 380.5,271.8 L380,275" stroke="#000" stroke-width="0.9" fill="none" opacity="0.6"/>
<g><use href="#c3c-leaf" transform="translate(159.3,3.9) rotate(119.3) scale(1.7)" fill="#1a4a3a"/><use href="#c3c-leaf" transform="translate(223.9,5) rotate(136.5) scale(1.1)" fill="#0c2a24"/><use href="#c3c-leaf" transform="translate(272.8,3) rotate(138.3) scale(1.3)" fill="#0c2a24"/><use href="#c3c-leaf" transform="translate(367.7,4.6) rotate(66.9) scale(0.9)" fill="#08201a"/><use href="#c3c-leaf" transform="translate(30.3,7) rotate(77.1) scale(1.8)" fill="#12382e"/><use href="#c3c-leaf" transform="translate(242.6,1.2) rotate(102.8) scale(1)" fill="#0c2a24"/><use href="#c3c-leaf" transform="translate(18.1,14.3) rotate(112.4) scale(1)" fill="#0c2a24"/><use href="#c3c-leaf" transform="translate(280.5,1) rotate(123.3) scale(1)" fill="#1a4a3a"/><use href="#c3c-leaf" transform="translate(363.1,26.8) rotate(85.2) scale(1.5)" fill="#12382e"/><use href="#c3c-leaf" transform="translate(327.3,5.7) rotate(133.4) scale(1.3)" fill="#08201a"/><use href="#c3c-leaf" transform="translate(178.8,2.2) rotate(111.2) scale(1)" fill="#1a4a3a"/><use href="#c3c-leaf" transform="translate(391.2,8.6) rotate(134) scale(1)" fill="#1a4a3a"/><use href="#c3c-leaf" transform="translate(111.9,7.7) rotate(83.1) scale(1.7)" fill="#0c2a24"/><use href="#c3c-leaf" transform="translate(285.5,2) rotate(100.5) scale(1.1)" fill="#0c2a24"/><use href="#c3c-leaf" transform="translate(295.6,10.1) rotate(43.2) scale(1.8)" fill="#12382e"/><use href="#c3c-leaf" transform="translate(280.3,2.7) rotate(47.8) scale(1.6)" fill="#0c2a24"/><use href="#c3c-leaf" transform="translate(159.9,1.1) rotate(114.3) scale(1.5)" fill="#12382e"/><use href="#c3c-leaf" transform="translate(29.6,15.6) rotate(43) scale(1.4)" fill="#12382e"/><use href="#c3c-leaf" transform="translate(73.5,22.2) rotate(90.7) scale(1.7)" fill="#12382e"/><use href="#c3c-leaf" transform="translate(378,20.9) rotate(111.5) scale(1)" fill="#12382e"/><use href="#c3c-leaf" transform="translate(302.9,29.8) rotate(96.1) scale(0.9)" fill="#08201a"/><use href="#c3c-leaf" transform="translate(75.3,9.8) rotate(78.1) scale(1.3)" fill="#08201a"/><use href="#c3c-leaf" transform="translate(337.9,15.9) rotate(125) scale(1)" fill="#12382e"/><use href="#c3c-leaf" transform="translate(258.1,6.4) rotate(77.2) scale(1.5)" fill="#12382e"/><use href="#c3c-leaf" transform="translate(65.7,18.8) rotate(78.5) scale(1)" fill="#0c2a24"/><use href="#c3c-leaf" transform="translate(188.9,0.5) rotate(105.1) scale(1.4)" fill="#1a4a3a"/><use href="#c3c-leaf" transform="translate(238.2,0.5) rotate(62.5) scale(1.3)" fill="#1a4a3a"/><use href="#c3c-leaf" transform="translate(37.1,2.3) rotate(97.3) scale(1)" fill="#08201a"/><use href="#c3c-leaf" transform="translate(48,3.4) rotate(138.3) scale(0.9)" fill="#0c2a24"/><use href="#c3c-leaf" transform="translate(300,20.3) rotate(112.9) scale(1.5)" fill="#1a4a3a"/><use href="#c3c-leaf" transform="translate(102.3,7) rotate(121.6) scale(1.5)" fill="#12382e"/><use href="#c3c-leaf" transform="translate(111.1,0.1) rotate(92.7) scale(1.6)" fill="#1a4a3a"/><use href="#c3c-leaf" transform="translate(310.8,2.8) rotate(99.5) scale(0.9)" fill="#1a4a3a"/><use href="#c3c-leaf" transform="translate(276.5,1.8) rotate(116.3) scale(1.2)" fill="#1a4a3a"/><use href="#c3c-leaf" transform="translate(174.3,6.7) rotate(45.2) scale(1)" fill="#0c2a24"/><use href="#c3c-leaf" transform="translate(134.5,3.9) rotate(86.4) scale(1.1)" fill="#1a4a3a"/><use href="#c3c-leaf" transform="translate(92.1,3.8) rotate(94.6) scale(1.1)" fill="#08201a"/><use href="#c3c-leaf" transform="translate(392.8,12.9) rotate(91.8) scale(1.6)" fill="#1a4a3a"/><use href="#c3c-leaf" transform="translate(101.3,9) rotate(43.3) scale(1.6)" fill="#0c2a24"/><use href="#c3c-leaf" transform="translate(323.3,17.3) rotate(134.8) scale(1.6)" fill="#12382e"/></g>
<ellipse cx="200" cy="140" rx="110" ry="120" fill="url(#c3c-glowG)" opacity="0.35"/>
<g filter="url(#c3c-glow)" fill="none" stroke-linecap="round">
 <path d="M70,210 C110,250 290,250 330,200 C350,172 330,150 300,146" stroke="#3ae0b0" stroke-width="2.2" opacity="0.55"/>
 <path d="M80,160 C120,120 280,110 320,140" stroke="#8affd8" stroke-width="1" opacity="0.45"/>
</g>
<path d="M184,68 C170,80 164,100 160,118 C170,118 180,112 188,106 L212,106 C220,112 230,118 240,118 C236,100 230,80 216,68Z" fill="url(#c3c-hair)"/>
<path d="M246,132 C262,126 282,134 300,152 C312,164 322,176 318,190 C314,200 302,202 292,196 C288,180 280,166 262,160 C254,158 248,150 246,132Z" fill="url(#c3c-fur)"/>
<path d="M290,196 C284,176 290,150 300,128 C304,118 307,110 309,102 L330,106 C328,118 326,130 326,146 C326,166 324,184 320,192 C312,202 298,202 290,196Z" fill="url(#c3c-fur)"/>
<path d="M261.4,130.4 Q264.3,134.3 267.4,136.7 Q268.2,128.9 265.2,126.4Z" fill="#36241f" filter="url(#tx-hair-fine)"/><path d="M267,132.7 Q271.5,138.3 276.7,141.4 Q276.2,131.3 271.7,127.6Z" fill="#4a3430" filter="url(#tx-hair-fine)"/><path d="M274.6,135.5 Q277.3,139.1 284.5,135.7 Q282.2,131.6 279.2,129.7Z" fill="#4a3430" filter="url(#tx-hair-fine)"/><path d="M275.9,133.8 Q278.8,136.5 283.3,135.3" stroke="#a8866a" stroke-width="0.5" fill="none" opacity="0.8"/><path d="M284.4,139.8 Q288.6,143.8 293.4,145.2 Q291.8,137.4 287.8,135Z" fill="url(#c3c-fur)"/><path d="M291,144.5 Q295.7,148.8 304.2,145.8 Q298.2,143.3 293.9,140.5Z" fill="url(#c3c-fur)"/><path d="M296.8,150.6 Q300.3,154.2 308,150.5 Q303.6,148.1 300.2,146Z" fill="#6e5040" filter="url(#tx-hair-fine)"/><path d="M305.8,159.8 Q309.4,163.5 314,164.2 Q312.5,157.7 309,155.4Z" fill="url(#c3c-fur)"/><path d="M309.1,163.2 Q313.1,167.1 320.6,164.6 Q315.9,161.7 312.1,159.2Z" fill="url(#c3c-fur)"/><path d="M313.9,171 Q318.8,176.4 323.3,180.3 Q323,169.3 318.2,165.8Z" fill="#36241f" filter="url(#tx-hair-fine)"/><path d="M315.2,169.4 Q320,173.9 322.4,178.3" stroke="#a8866a" stroke-width="0.5" fill="none" opacity="0.8"/><path d="M316.5,178.4 Q320.5,184.4 326.5,186.8 Q326.1,177.4 321.9,173.4Z" fill="#4a3430" filter="url(#tx-hair-fine)"/><path d="M317.4,184.2 Q321.8,190.9 327,195 Q326.7,184.9 322.3,180.1Z" fill="url(#c3c-fur)"/><path d="M316.8,190.2 Q318.4,194.1 326.1,192.1 Q325.5,187.3 323.1,184.9Z" fill="url(#c3c-fur)"/>
<path d="M290.5,190.6 Q287,190.7 285.8,196.6 Q289.5,197.2 292.1,196.2Z" fill="#4a3430" filter="url(#tx-hair-fine)"/><path d="M290.1,188.9 Q286.3,189.1 284.2,192.9 Q288.8,195.5 291.6,194.4Z" fill="#6e5040" filter="url(#tx-hair-fine)"/><path d="M290.5,190.6 Q287.2,191.2 285.2,192.8" stroke="#a8866a" stroke-width="0.5" fill="none" opacity="0.8"/><path d="M287.9,178.3 Q281.1,178.7 275.5,179.4 Q283.3,184.3 288.8,183.1Z" fill="#36241f" filter="url(#tx-hair-fine)"/><path d="M288.2,179.7 Q282,180.5 277.4,179.7" stroke="#a8866a" stroke-width="0.5" fill="none" opacity="0.8"/><path d="M287.8,173.4 Q281.1,173.1 276,178.2 Q282.8,179.3 288.2,178.6Z" fill="url(#c3c-fur)"/><path d="M288.9,162.6 Q285.4,161.6 282.4,167.9 Q285.9,169.4 288.8,169.1Z" fill="#4a3430" filter="url(#tx-hair-fine)"/><path d="M291.7,148.5 Q285.8,146.9 280.5,150.9 Q286.2,156.4 291.1,156.4Z" fill="#4a3430" filter="url(#tx-hair-fine)"/><path d="M293.8,141.5 Q286.4,139.3 280.2,139 Q286.5,148.8 292.8,149.3Z" fill="url(#c3c-fur)"/><path d="M296.2,135.8 Q292.4,134.2 288.6,136.5 Q291.8,141.6 295.1,141.9Z" fill="#4a3430" filter="url(#tx-hair-fine)"/><path d="M297.8,131.9 Q291.6,129.9 285.5,133.7 Q291.5,136.6 296.8,137.3Z" fill="#5e4238"/><path d="M302.6,120.1 Q296.1,118.1 289.1,125.8 Q296.1,125 301.5,125.7Z" fill="url(#c3c-fur)"/><path d="M302.2,121.8 Q296.3,120.4 291.1,125.1" stroke="#a8866a" stroke-width="0.5" fill="none" opacity="0.8"/><path d="M305.1,113.5 Q298,110.9 290.6,117.1 Q297.5,120.5 303.6,121.3Z" fill="#6e5040" filter="url(#tx-hair-fine)"/><path d="M309.1,104.7 Q305.4,103.1 301.9,104.4 Q304.9,109.6 308.1,109.9Z" fill="url(#c3c-fur)"/>
<path d="M332.2,104 Q326.9,107.6 325.6,114 Q332.1,111.7 335.8,108Z" fill="#4a3430" filter="url(#tx-hair-fine)"/><path d="M330.5,110.8 Q327.4,112.4 328.6,117.8 Q333,117.7 334.8,115.6Z" fill="#6e5040" filter="url(#tx-hair-fine)"/><path d="M329.5,118.7 Q326.2,120.6 327.6,126.9 Q331,125 333.1,122.7Z" fill="url(#c3c-fur)"/><path d="M327.2,124.9 Q322.7,127.3 324.5,135.5 Q330,134.1 332.8,131.1Z" fill="url(#c3c-fur)"/><path d="M328.9,126.8 Q325.2,129.5 325.2,134.3" stroke="#bfeee0" stroke-width="0.5" fill="none" opacity="0.8"/><path d="M326.3,137.1 Q322.7,139.3 323.9,145.7 Q327.4,143.3 329.7,140.9Z" fill="url(#c3c-fur)"/><path d="M327.3,138.2 Q324.4,140.5 324.5,144.6" stroke="#bfeee0" stroke-width="0.5" fill="none" opacity="0.8"/><path d="M324.2,142.7 Q317.7,147 315.2,153.4 Q325,152.9 329.4,148.5Z" fill="#4a3430" filter="url(#tx-hair-fine)"/><path d="M325.8,144.4 Q320.3,148.8 317,152.3" stroke="#bfeee0" stroke-width="0.5" fill="none" opacity="0.8"/><path d="M323,149.2 Q317.1,152.6 317.5,161.6 Q324.3,159.2 328.2,155.3Z" fill="url(#c3c-fur)"/><path d="M321.8,156 Q315.7,159.6 317.9,171.1 Q322.6,165.8 326.8,161.8Z" fill="#36241f" filter="url(#tx-hair-fine)"/><path d="M319.7,164.7 Q316.3,166.4 317.3,171.6 Q323.8,173.1 325.6,170.7Z" fill="url(#c3c-fur)"/><path d="M318.9,174.4 Q315.1,177.7 316.1,183.5 Q321.7,181.8 323.9,178.5Z" fill="url(#c3c-fur)"/><path d="M317.8,178.7 Q313.1,182.9 312.4,188.6 Q321.4,187.7 324.1,183.5Z" fill="#36241f" filter="url(#tx-hair-fine)"/><path d="M319.7,180.1 Q316,184.4 313.8,187.6" stroke="#bfeee0" stroke-width="0.5" fill="none" opacity="0.8"/><path d="M318.2,187.8 Q314.5,191.6 318,199.5 Q319.9,194.4 322.3,190.8Z" fill="#4a3430" filter="url(#tx-hair-fine)"/><path d="M319.4,188.7 Q316.4,192.4 318.2,197.9" stroke="#bfeee0" stroke-width="0.5" fill="none" opacity="0.8"/>
<path d="M297.1,118.2 Q295.8,124.4 305.1,129.5 Q306.7,123.2 306.2,118.1Z" fill="url(#c3c-fur)"/><path d="M299.8,118.2 Q299.4,123.8 304.4,127.8" stroke="#8a6a52" stroke-width="0.5" fill="none" opacity="0.8"/><path d="M304.9,118.7 Q304,122.4 308,125.3 Q311.5,121.6 311.1,118.6Z" fill="#6e5040" filter="url(#tx-hair-fine)"/><path d="M318.9,119.9 Q317.9,126.8 324.3,132.3 Q326.3,125.4 325.9,119.8Z" fill="url(#c3c-fur)"/><path d="M321,119.9 Q320.7,126.1 323.9,130.5" stroke="#8a6a52" stroke-width="0.5" fill="none" opacity="0.8"/>
<path d="M298.7,134.2 Q297.8,140.2 303.3,145 Q304.9,139 304.6,134.1Z" fill="url(#c3c-fur)"/><path d="M300.4,134.1 Q300.2,139.6 303,143.4" stroke="#8a6a52" stroke-width="0.5" fill="none" opacity="0.8"/><path d="M306,134.8 Q305,139 307.8,142.4 Q313.2,138.2 312.8,134.7Z" fill="url(#c3c-fur)"/><path d="M313.1,135.5 Q311.9,143 321.1,149 Q322.1,141.5 321.6,135.4Z" fill="#6e5040" filter="url(#tx-hair-fine)"/><path d="M315.7,135.5 Q315.3,142.3 320.3,147" stroke="#8a6a52" stroke-width="0.5" fill="none" opacity="0.8"/>
<path d="M301.3,150.5 Q300.1,156.1 302.1,160.6 Q309.7,154.9 309.2,150.4Z" fill="url(#c3c-fur)"/><path d="M309.1,151 Q308.4,159.3 317.9,165.9 Q315.2,157.7 314.9,151Z" fill="url(#c3c-fur)"/><path d="M317.7,151.9 Q316.4,156.2 322.3,159.7 Q327.5,155.3 327,151.8Z" fill="#4a3430" filter="url(#tx-hair-fine)"/>
<path d="M297.9,166.2 Q296.9,171.9 303.2,176.5 Q305.8,170.8 305.3,166.1Z" fill="url(#c3c-fur)"/><path d="M305.2,166.7 Q304.4,172.4 311.8,176.9 Q311.2,171.3 310.9,166.6Z" fill="url(#c3c-fur)"/><path d="M315.4,167.7 Q314.1,174 316.1,179.1 Q325.2,172.8 324.7,167.6Z" fill="#5e4238"/><path d="M318.2,167.7 Q317.8,173.4 316.9,177.4" stroke="#8a6a52" stroke-width="0.5" fill="none" opacity="0.8"/>
<path d="M298.5,182.3 Q297.3,186.6 304.2,190 Q307.4,185.7 306.9,182.2Z" fill="#5e4238"/><path d="M306.3,182.9 Q305.1,187.3 309.7,190.9 Q315.6,186.4 315.2,182.8Z" fill="url(#c3c-fur)"/><path d="M309,182.9 Q308.6,186.9 309.9,189.7" stroke="#8a6a52" stroke-width="0.5" fill="none" opacity="0.8"/><path d="M318.6,183.9 Q317.5,190.2 322.8,195.4 Q326.6,189 326.2,183.8Z" fill="url(#c3c-fur)"/>
<path d="M334,106 C332,120 328,136 324,152 C320,170 318,186 318,190" stroke="#bfeee0" stroke-width="0.9" fill="none" opacity="0.5"/>
<path d="M300,104 C294,92 296,76 308,70 C320,64 336,70 338,84 C340,96 334,106 322,110 C312,112 304,110 300,104Z" fill="url(#c3c-furL)"/>
<path d="M309,94 C306,88 310,83 317,83 C324,83 327,89 324,94 C320,99 313,99 309,94Z" fill="#241816"/>
<path d="M311,92 C311,89 314,87 317,87" stroke="#5a4038" stroke-width="0.6" fill="none"/>
<ellipse cx="303" cy="81" rx="2.8" ry="3.6" fill="#241816" transform="rotate(-25 303 81)"/>
<ellipse cx="310" cy="75" rx="2.8" ry="3.6" fill="#241816" transform="rotate(-8 310 75)"/>
<ellipse cx="319" cy="74" rx="2.8" ry="3.6" fill="#241816" transform="rotate(10 319 74)"/>
<ellipse cx="327" cy="77" rx="2.6" ry="3.4" fill="#241816" transform="rotate(28 327 77)"/>
<ellipse cx="333" cy="84" rx="2.3" ry="3" fill="#241816" transform="rotate(50 333 84)"/>
<path d="M299.4,102.6 Q296.9,103.2 295.3,104.8 Q298.7,106.3 300.6,105.4Z" fill="#6a4a3e" filter="url(#tx-hair-fine)"/><path d="M297.3,96.7 Q295.5,96.8 295.7,100.9 Q297.9,101.4 299.1,100.6Z" fill="#6a4a3e" filter="url(#tx-hair-fine)"/><path d="M296.3,84.2 Q293.6,83.3 291.2,85.6 Q293.7,88.8 296,88.7Z" fill="#6a4a3e" filter="url(#tx-hair-fine)"/><path d="M297.8,80.4 Q295.8,79.3 293.5,81 Q295.2,83 297,83.4Z" fill="#6a4a3e" filter="url(#tx-hair-fine)"/><path d="M303.1,72.6 Q301.8,70.8 299.9,70.1 Q299.3,74.3 300.9,75.4Z" fill="#6a4a3e" filter="url(#tx-hair-fine)"/><path d="M308.3,69.5 Q307.2,66.4 302,66.5 Q302.8,69.7 304.3,71.8Z" fill="#6a4a3e" filter="url(#tx-hair-fine)"/><path d="M310.6,68.7 Q310.3,66.4 306.6,66 Q306,68.6 306.9,70.2Z" fill="#6a4a3e" filter="url(#tx-hair-fine)"/><path d="M317.2,67.7 Q317.5,65.4 315.4,63.8 Q313.2,66.2 313.5,68Z" fill="#6a4a3e" filter="url(#tx-hair-fine)"/><path d="M324.9,68.7 Q326.2,66.4 324.8,64 Q320.6,65.5 320.3,67.5Z" fill="#6a4a3e" filter="url(#tx-hair-fine)"/><path d="M329.3,71 Q330.8,69.7 329.1,66.3 Q327.6,67.7 326.7,69Z" fill="#6a4a3e" filter="url(#tx-hair-fine)"/><path d="M335.9,78.4 Q337.8,78.1 337.6,74.7 Q335.1,73.9 333.9,74.8Z" fill="#6a4a3e" filter="url(#tx-hair-fine)"/><path d="M337.9,82.1 Q340.3,81.8 341.2,78.2 Q338.8,78.5 337,79.3Z" fill="#6a4a3e" filter="url(#tx-hair-fine)"/><path d="M338.4,89.9 Q340.3,90.8 342,90.2 Q340.7,86.4 339,86.3Z" fill="#6a4a3e" filter="url(#tx-hair-fine)"/><path d="M338.6,88.9 Q340.4,89.3 341.6,89.8" stroke="#c8a888" stroke-width="0.5" fill="none" opacity="0.8"/><path d="M337.9,94.8 Q341.2,96.2 344,96.7 Q341.6,91.2 338.8,90.8Z" fill="#6a4a3e" filter="url(#tx-hair-fine)"/>
<g transform="translate(301,77) rotate(-34)"><path d="M-1.8,0 C-2.2,-6 -1.2,-12 2.2,-16 C1.6,-11 1.8,-5 2,0Z" fill="#f0ead8" stroke="#3a2a20" stroke-width="0.4"/><path d="M-0.9,-1 C-1.1,-6 0,-11 1.8,-14" stroke="#ffffff" stroke-width="0.4" fill="none"/></g>
<g transform="translate(309,70) rotate(-12)"><path d="M-1.8,0 C-2.2,-6 -1.2,-12 2.2,-16 C1.6,-11 1.8,-5 2,0Z" fill="#f0ead8" stroke="#3a2a20" stroke-width="0.4"/><path d="M-0.9,-1 C-1.1,-6 0,-11 1.8,-14" stroke="#ffffff" stroke-width="0.4" fill="none"/></g>
<g transform="translate(319,69) rotate(8)"><path d="M-1.8,0 C-2.2,-6 -1.2,-12 2.2,-16 C1.6,-11 1.8,-5 2,0Z" fill="#f0ead8" stroke="#3a2a20" stroke-width="0.4"/><path d="M-0.9,-1 C-1.1,-6 0,-11 1.8,-14" stroke="#ffffff" stroke-width="0.4" fill="none"/></g>
<g transform="translate(328,72) rotate(30)"><path d="M-1.8,0 C-2.2,-6 -1.2,-12 2.2,-16 C1.6,-11 1.8,-5 2,0Z" fill="#f0ead8" stroke="#3a2a20" stroke-width="0.4"/><path d="M-0.9,-1 C-1.1,-6 0,-11 1.8,-14" stroke="#ffffff" stroke-width="0.4" fill="none"/></g>
<g transform="translate(335,80) rotate(55)"><path d="M-1.8,0 C-2.2,-6 -1.2,-12 2.2,-16 C1.6,-11 1.8,-5 2,0Z" fill="#f0ead8" stroke="#3a2a20" stroke-width="0.4"/><path d="M-0.9,-1 C-1.1,-6 0,-11 1.8,-14" stroke="#ffffff" stroke-width="0.4" fill="none"/></g>
<g filter="url(#c3c-glow)" opacity="0.85"><path d="M301,77 l-8.4,-12.4" stroke="#8affd8" stroke-width="0.5"/><path d="M309,70 l-3.1,-14.7" stroke="#8affd8" stroke-width="0.5"/><path d="M319,69 l2.1,-14.9" stroke="#8affd8" stroke-width="0.5"/><path d="M328,72 l7.5,-13" stroke="#8affd8" stroke-width="0.5"/><path d="M335,80 l12.3,-8.6" stroke="#8affd8" stroke-width="0.5"/></g>
<path d="M186,122 C170,128 160,142 162,160 C164,176 172,188 176,204 C178,214 176,222 174,230 L228,230 C226,222 224,214 226,204 C230,188 238,176 240,160 C242,142 232,128 216,122Z" fill="url(#c3c-skin)"/>
<path d="M186,122 C170,128 160,142 162,160 C164,176 172,188 176,204 C178,214 176,222 174,230 L186,230 C182,212 180,196 180,176 C180,156 186,138 196,126Z" fill="#1a1440" opacity="0.4"/>
<ellipse cx="206" cy="170" rx="22" ry="40" fill="#e8e4ff" opacity="0.12" filter="url(#c3c-blur8)"/>
<path d="M240,160 C238,176 230,188 226,204 C224,214 226,222 228,230" stroke="#bfffe8" stroke-width="0.9" fill="none" opacity="0.55"/>
<path d="M170,176 C176,184 180,190 184,200 M232,176 C226,184 222,190 218,200" stroke="#2a2266" stroke-width="0.8" fill="none" opacity="0.45"/>
<g fill="none" stroke-linecap="round">
 <path d="M178,158 C186,168 196,168 200,158 M222,158 C214,168 204,168 200,158" stroke="#2a2266" stroke-width="1" opacity="0.65"/>
 <path d="M200,140 L200,224" stroke="#2a2266" stroke-width="0.7" opacity="0.5"/>
 <path d="M188,178 C192,180 196,180 199,178 M201,178 C204,180 208,180 212,178 M189,190 C192,192 196,192 199,190 M201,190 C204,192 208,192 211,190 M190,202 C193,204 196,204 199,202 M201,202 C204,204 207,204 210,202" stroke="#2a2266" stroke-width="0.7" opacity="0.55"/>
 <path d="M204,150 C212,148 220,150 224,156" stroke="#e0dcff" stroke-width="0.7" opacity="0.5"/>
 
 <path d="M176,196 C178,204 180,212 182,220 M224,196 C222,204 220,212 218,220" stroke="#2a2266" stroke-width="0.7" opacity="0.4"/>
</g>
<g stroke="#4af0b0" stroke-width="0.9" fill="none" stroke-linecap="round" filter="url(#c3c-glow)" opacity="0.9"><path d="M184,150 C186,156 186,162 184,168"/><path d="M189,148 C191,154 191,161 189,168"/><path d="M194,149 C196,155 196,161 194,167"/></g>
<path d="M170,222 C190,230 212,230 232,222 L234,232 C212,240 190,240 168,232Z" fill="url(#c3c-leather)"/>
<path d="M170,222 C190,230 212,230 232,222" stroke="#c8a888" stroke-width="0.6" fill="none"/>
<circle cx="201" cy="231" r="4" fill="none" stroke="#b8c8c0" stroke-width="1.2"/>
<!-- Beine unter dem Blätterrock ergänzt: vorher endete der Körper am Rock und schwebte über dem Boden -->
<path d="M172,232 C170,252 168,276 166,300 L197,300 C198,278 199,256 200,236Z" fill="url(#c3c-leather)"/>
<path d="M200,236 C201,256 202,278 203,300 L234,300 C232,276 230,252 228,232Z" fill="url(#c3c-leather)"/>
<path d="M172,232 C170,252 168,276 166,300 L174,300 C175,278 176,256 178,236Z" fill="#0a0820" opacity="0.35"/>
<path d="M200,238 L200,300" stroke="#0a0820" stroke-width="1.2" opacity="0.6"/>
<path d="M228,232 C230,252 232,276 234,300" stroke="#bfffe8" stroke-width="0.7" fill="none" opacity="0.4"/>
<g transform="translate(168,232) rotate(-16)"><path d="M0,0 C6,6 7,18 0,30 C-7,18 -6,6 0,0Z" fill="#2f8a62" stroke="#0a2a1e" stroke-width="0.4" filter="url(#tx-grass-fine)"/><path d="M0,1 L0,28 M0,8 L3.4,5 M0,8 L-3.4,5 M0,15 L4,11.6 M0,15 L-4,11.6 M0,22 L3,19 M0,22 L-3,19" stroke="#8affc8" stroke-width="0.35" fill="none" opacity="0.7"/></g>
<g transform="translate(175.2,233.4) rotate(-12.4)"><path d="M0,0 C6,6 7,18 0,30 C-7,18 -6,6 0,0Z" fill="#2a7a5a" stroke="#0a2a1e" stroke-width="0.4" filter="url(#tx-grass-fine)"/><path d="M0,1 L0,28 M0,8 L3.4,5 M0,8 L-3.4,5 M0,15 L4,11.6 M0,15 L-4,11.6 M0,22 L3,19 M0,22 L-3,19" stroke="#8affc8" stroke-width="0.35" fill="none" opacity="0.7"/></g>
<g transform="translate(182.4,234.6) rotate(-8.8)"><path d="M0,0 C6,6 7,18 0,30 C-7,18 -6,6 0,0Z" fill="#2a7a5a" stroke="#0a2a1e" stroke-width="0.4" filter="url(#tx-grass-fine)"/><path d="M0,1 L0,28 M0,8 L3.4,5 M0,8 L-3.4,5 M0,15 L4,11.6 M0,15 L-4,11.6 M0,22 L3,19 M0,22 L-3,19" stroke="#8affc8" stroke-width="0.35" fill="none" opacity="0.7"/></g>
<g transform="translate(189.6,235.5) rotate(-5.2)"><path d="M0,0 C6,6 7,18 0,30 C-7,18 -6,6 0,0Z" fill="#164a3a" stroke="#0a2a1e" stroke-width="0.4" filter="url(#tx-grass-fine)"/><path d="M0,1 L0,28 M0,8 L3.4,5 M0,8 L-3.4,5 M0,15 L4,11.6 M0,15 L-4,11.6 M0,22 L3,19 M0,22 L-3,19" stroke="#8affc8" stroke-width="0.35" fill="none" opacity="0.7"/></g>
<g transform="translate(196.8,235.9) rotate(-1.6)"><path d="M0,0 C6,6 7,18 0,30 C-7,18 -6,6 0,0Z" fill="#164a3a" stroke="#0a2a1e" stroke-width="0.4" filter="url(#tx-grass-fine)"/><path d="M0,1 L0,28 M0,8 L3.4,5 M0,8 L-3.4,5 M0,15 L4,11.6 M0,15 L-4,11.6 M0,22 L3,19 M0,22 L-3,19" stroke="#8affc8" stroke-width="0.35" fill="none" opacity="0.7"/></g>
<g transform="translate(204,235.9) rotate(2)"><path d="M0,0 C6,6 7,18 0,30 C-7,18 -6,6 0,0Z" fill="#164a3a" stroke="#0a2a1e" stroke-width="0.4" filter="url(#tx-grass-fine)"/><path d="M0,1 L0,28 M0,8 L3.4,5 M0,8 L-3.4,5 M0,15 L4,11.6 M0,15 L-4,11.6 M0,22 L3,19 M0,22 L-3,19" stroke="#8affc8" stroke-width="0.35" fill="none" opacity="0.7"/></g>
<g transform="translate(211.2,235.5) rotate(5.6)"><path d="M0,0 C6,6 7,18 0,30 C-7,18 -6,6 0,0Z" fill="#1e5a44" stroke="#0a2a1e" stroke-width="0.4" filter="url(#tx-grass-fine)"/><path d="M0,1 L0,28 M0,8 L3.4,5 M0,8 L-3.4,5 M0,15 L4,11.6 M0,15 L-4,11.6 M0,22 L3,19 M0,22 L-3,19" stroke="#8affc8" stroke-width="0.35" fill="none" opacity="0.7"/></g>
<g transform="translate(218.4,234.6) rotate(9.2)"><path d="M0,0 C6,6 7,18 0,30 C-7,18 -6,6 0,0Z" fill="#2f8a62" stroke="#0a2a1e" stroke-width="0.4" filter="url(#tx-grass-fine)"/><path d="M0,1 L0,28 M0,8 L3.4,5 M0,8 L-3.4,5 M0,15 L4,11.6 M0,15 L-4,11.6 M0,22 L3,19 M0,22 L-3,19" stroke="#8affc8" stroke-width="0.35" fill="none" opacity="0.7"/></g>
<g transform="translate(225.6,233.4) rotate(12.8)"><path d="M0,0 C6,6 7,18 0,30 C-7,18 -6,6 0,0Z" fill="#164a3a" stroke="#0a2a1e" stroke-width="0.4" filter="url(#tx-grass-fine)"/><path d="M0,1 L0,28 M0,8 L3.4,5 M0,8 L-3.4,5 M0,15 L4,11.6 M0,15 L-4,11.6 M0,22 L3,19 M0,22 L-3,19" stroke="#8affc8" stroke-width="0.35" fill="none" opacity="0.7"/></g>
<g transform="translate(232.8,232) rotate(16.4)"><path d="M0,0 C6,6 7,18 0,30 C-7,18 -6,6 0,0Z" fill="#164a3a" stroke="#0a2a1e" stroke-width="0.4" filter="url(#tx-grass-fine)"/><path d="M0,1 L0,28 M0,8 L3.4,5 M0,8 L-3.4,5 M0,15 L4,11.6 M0,15 L-4,11.6 M0,22 L3,19 M0,22 L-3,19" stroke="#8affc8" stroke-width="0.35" fill="none" opacity="0.7"/></g>
<path d="M152,146 C140,158 130,172 124,188 C130,198 140,200 148,194 C154,184 162,176 172,166Z" fill="url(#c3c-skinV)"/>
<path d="M126,186 C120,192 114,196 108,197 C106,204 110,209 118,208 C128,206 140,202 148,194Z" fill="url(#c3c-skin)"/>
<path d="M146,160 C142,168 138,176 136,184" stroke="#2a2266" stroke-width="0.8" fill="none" opacity="0.5"/>
<path d="M156,150 C146,164 136,178 128,192" stroke="#1a1440" stroke-width="0.9" fill="none" opacity="0.6"/>
<path d="M168,166 C160,174 152,184 146,194" stroke="#d8fff0" stroke-width="0.7" fill="none" opacity="0.5"/>
<path d="M134,194 C128,197 122,199 116,200 M130,197.6 L132,193.6 M124,199.4 L126,195.6" stroke="#4af0b0" stroke-width="0.6" fill="none" opacity="0.9"/>
<path d="M118,196 C116,200 116,204 118,208 L124,206 C122,202 122,199 124,195Z" fill="url(#c3c-leather)"/>
<path d="M118,196 L124,195" stroke="#c8a888" stroke-width="0.5"/>
<path d="M110,198 C104,197 98,196 94,198 C92,200 94,203 98,204 C104,206 110,208 116,207Z" fill="#a49ad8"/>
<path d="M96,196.6 C92,194.6 88,194 86,195.4 C85.4,196.8 87,197.8 90,198.4Z" fill="#a096d6"/>
<path d="M95,199.4 C91,198.6 87,198.6 85.6,200 C85.6,201.4 88,202 91.4,201.6Z" fill="#9a90d0"/>
<path d="M96,202 C92.4,202 89,202.6 88,204 C88.6,205.4 91,205.4 94.6,204.4Z" fill="#9088c6"/>
<path d="M99,204.4 C96,205.2 93.6,206.4 93.4,207.8 C94.6,208.8 97,208 100,206.4Z" fill="#8880bc"/>
<path d="M104,197 C102,193 103,189.6 105.4,189 C107,190 107,193.6 106.4,196.6Z" fill="#a49ad8"/>
<path d="M90,198.4 L96,199 M91.4,201.6 L96.4,202 M94.6,204.4 L99,204.6" stroke="#2a2260" stroke-width="0.4" opacity="0.8"/>
<circle cx="98" cy="184" r="24" fill="url(#c3c-glowG)"/>
<circle cx="98" cy="184" r="7" fill="url(#c3c-orb)" filter="url(#c3c-glow)"/>
<g fill="none" stroke="#b8fff0" stroke-linecap="round" filter="url(#c3c-glow)">
 <path d="M86,190 C82,176 96,166 108,172 C116,178 110,192 100,190" stroke-width="0.9"/>
 <path d="M92,168 C100,158 116,162 118,174" stroke-width="0.6" opacity="0.7"/>
</g>
<path d="M150,150 C166,136 180,130 200,132 C220,130 240,140 262,154 L262,166 C240,156 220,146 200,146 C180,146 164,154 150,166Z" fill="#0a0820" opacity="0.45" filter="url(#c3c-blur3)"/>
<ellipse cx="160" cy="196" rx="26" ry="34" fill="#4af0b0" opacity="0.14" filter="url(#c3c-blur8)"/>
<path d="M192,100 C176,102 158,112 146,126 C136,138 130,152 128,166 C140,164 152,158 162,148 C174,136 184,130 192,128Z" fill="url(#c3c-fur)"/><path d="M208,100 C224,102 242,110 256,124 C264,132 268,140 270,150 C258,150 246,146 236,140 C226,134 216,130 208,128Z" fill="url(#c3c-fur)"/>
<path d="M187.7,103.6 Q185.8,109.8 188.8,115.3 Q196.3,109.6 196.3,104.4Z" fill="#6e5040" filter="url(#tx-hair-fine)"/><path d="M181.8,104.7 Q180.2,109.1 187.1,113.5 Q190.5,109.2 190.4,105.4Z" fill="#5e4238"/><path d="M172.7,106.8 Q170.5,114.6 177.7,122.4 Q178.3,114.4 179,107.8Z" fill="url(#c3c-fur)"/><path d="M163.5,110.6 Q160.6,119.2 156.5,125.9 Q168.5,119.3 169.8,112Z" fill="#6e5040" filter="url(#tx-hair-fine)"/><path d="M165.3,111 Q163.3,119 158.3,123.8" stroke="#8a6a52" stroke-width="0.5" fill="none" opacity="0.8"/><path d="M156.6,114.8 Q154.6,119 158,123.8 Q161.4,120 162.1,116.2Z" fill="#5e4238"/><path d="M158.3,115.2 Q156.9,119.2 158.1,122.6" stroke="#8a6a52" stroke-width="0.5" fill="none" opacity="0.8"/><path d="M148.3,121.3 Q144.7,129.4 147.3,137.7 Q152.6,130.2 154.5,123.3Z" fill="#6e5040" filter="url(#tx-hair-fine)"/><path d="M150.1,121.9 Q147.4,129.4 147.9,135.4" stroke="#8a6a52" stroke-width="0.5" fill="none" opacity="0.8"/><path d="M143.3,125.9 Q139.3,134.2 138.9,141.8 Q149,135.6 150.9,128.4Z" fill="#36241f" filter="url(#tx-hair-fine)"/><path d="M139.5,131.1 Q136,137.8 133.6,143.6 Q145.3,139.5 146.9,133.5Z" fill="#6e5040" filter="url(#tx-hair-fine)"/><path d="M132.3,142.6 Q128.2,150.4 134.2,160 Q138,152.2 140,145.4Z" fill="#6e5040" filter="url(#tx-hair-fine)"/><path d="M129.6,148.2 Q126.3,154 132.9,162 Q135.6,156 137,150.8Z" fill="#36241f" filter="url(#tx-hair-fine)"/><path d="M131.8,149 Q129.5,154.5 132.8,160.1" stroke="#8a6a52" stroke-width="0.5" fill="none" opacity="0.8"/>
<path d="M185.1,112 Q183.2,116.9 185.6,121.2 Q194.6,117 194.5,112.9Z" fill="url(#c3c-fur)"/><path d="M181.6,113 Q180.1,118 182.4,122.5 Q188.3,117.9 188.4,113.7Z" fill="url(#c3c-fur)"/><path d="M174.7,114.8 Q173,119.6 173.9,123.9 Q180.2,119.9 180.6,115.9Z" fill="url(#c3c-fur)"/><path d="M165.9,118.5 Q163.1,125.4 169.7,133.1 Q171.9,126.1 172.9,120.2Z" fill="url(#c3c-fur)"/><path d="M158.9,122.5 Q155.5,130.2 156.8,137.6 Q165.5,131.4 167,124.8Z" fill="#6e5040" filter="url(#tx-hair-fine)"/><path d="M152,128.5 Q149.4,132.3 154.2,137.5 Q159.5,134.6 160.1,131.1Z" fill="#5e4238"/><path d="M146.2,135.5 Q143.7,139 150.9,144.9 Q153.5,141.5 154.2,138.2Z" fill="#5e4238"/><path d="M140.5,144.3 Q137.4,149 142.1,155.3 Q147.6,151.4 148.6,147.1Z" fill="#36241f" filter="url(#tx-hair-fine)"/><path d="M135.1,154 Q132.2,158.1 136.3,163.8 Q142.7,160.9 143.6,157Z" fill="#5e4238"/>
<path d="M188.9,119.6 Q187.1,126.7 187.9,132.7 Q194.7,126.3 195.1,120.4Z" fill="#6e5040" filter="url(#tx-hair-fine)"/><path d="M190.8,119.8 Q189.7,126.3 188.7,130.8" stroke="#6a4e40" stroke-width="0.5" fill="none" opacity="0.8"/><path d="M181.7,120.9 Q179.6,127.7 183.9,134 Q189.8,127.6 190.1,121.9Z" fill="#5e4238"/><path d="M176.5,122.7 Q174.6,127.6 175.1,132 Q181.9,128.1 182.5,123.9Z" fill="#6e5040" filter="url(#tx-hair-fine)"/><path d="M168.6,126.4 Q165.5,133.6 168.8,141 Q174.8,134.6 176,128.4Z" fill="url(#c3c-fur)"/><path d="M166.6,127.2 Q163.4,133.8 168.9,141.4 Q174.1,135.3 175.2,129.5Z" fill="url(#c3c-fur)"/><path d="M161.1,133.1 Q157.7,140.9 155.5,147.4 Q165.2,141.6 166.9,134.9Z" fill="url(#c3c-fur)"/><path d="M162.8,133.6 Q160.3,140.9 157,145.4" stroke="#6a4e40" stroke-width="0.5" fill="none" opacity="0.8"/><path d="M157,137.4 Q154.4,142.4 155.8,147.6 Q161.7,143.7 162.8,139.3Z" fill="#36241f" filter="url(#tx-hair-fine)"/><path d="M149.1,144.6 Q145.8,150.2 150.5,157.3 Q156.9,152.7 158.1,147.5Z" fill="#5e4238"/>
<path d="M186.2,126.9 Q184.1,133.1 186.5,138.7 Q194.3,133.2 194.6,128Z" fill="url(#c3c-fur)"/><path d="M188.7,127.3 Q187.5,132.9 187.2,137" stroke="#6a4e40" stroke-width="0.5" fill="none" opacity="0.8"/><path d="M184.5,127.6 Q182.9,132 184.1,136 Q191.5,132.3 191.6,128.5Z" fill="#4a3430" filter="url(#tx-hair-fine)"/><path d="M180.7,128.1 Q178.2,134.9 188.6,142.3 Q189.7,135.3 190.1,129.6Z" fill="#5e4238"/><path d="M176.8,129.4 Q173.9,136.9 177.3,144.2 Q184.8,137.7 185.7,131.3Z" fill="#5e4238"/><path d="M172.8,132.7 Q169.7,140.5 173.7,148.7 Q177.7,141.1 179.2,134.5Z" fill="#6e5040" filter="url(#tx-hair-fine)"/><path d="M167.8,135.6 Q164.1,143.7 167.2,152 Q174.5,145 176.1,138Z" fill="#6e5040" filter="url(#tx-hair-fine)"/><path d="M165.1,138.4 Q162.5,143.5 169.1,150 Q171.5,144.9 172.3,140.5Z" fill="url(#c3c-fur)"/><path d="M167.3,139 Q165.6,143.8 168.9,148.4" stroke="#6a4e40" stroke-width="0.5" fill="none" opacity="0.8"/>
<path d="M205.7,104.3 Q204.5,109.3 209.6,113.2 Q215.7,108.1 215.2,104Z" fill="#6e5040" filter="url(#tx-hair-fine)"/><path d="M208.6,104.2 Q208.2,108.7 209.8,111.9" stroke="#8a6a52" stroke-width="0.5" fill="none" opacity="0.8"/><path d="M214.6,104.8 Q213.9,110 219.9,113.9 Q221.8,108.7 221.2,104.5Z" fill="#4a3430" filter="url(#tx-hair-fine)"/><path d="M220.8,105.9 Q220.3,110.7 227.2,113.7 Q228.2,108.9 227.5,105.2Z" fill="url(#c3c-fur)"/><path d="M225.2,107.8 Q224.6,113.1 229.5,116.5 Q235.3,110.4 234.2,106.4Z" fill="url(#c3c-fur)"/><path d="M234.6,111.9 Q234.6,118.1 239.5,122 Q244.7,114.7 243.2,110Z" fill="url(#c3c-fur)"/><path d="M243.1,117.5 Q244.2,125.9 256.8,129.4 Q253.5,121.6 251.2,115.2Z" fill="url(#c3c-fur)"/><path d="M247.7,121.6 Q248.9,129.6 260.4,133 Q257.7,125.4 255.3,119.2Z" fill="url(#c3c-fur)"/><path d="M252.8,127.7 Q253.3,133.2 261.6,135 Q262.5,129.1 260.7,125.1Z" fill="#6e5040" filter="url(#tx-hair-fine)"/><path d="M255.2,126.9 Q256.3,131.7 260.8,133.7" stroke="#8a6a52" stroke-width="0.5" fill="none" opacity="0.8"/><path d="M261.1,138.8 Q262.5,145.4 269.7,148.6 Q268.7,141.9 266.6,136.9Z" fill="url(#c3c-fur)"/><path d="M261.8,143.2 Q263.5,152.3 274.3,156.5 Q272.9,147.3 270,140.4Z" fill="url(#c3c-fur)"/>
<path d="M204.4,112.2 Q203.7,119.3 203.8,125 Q212.2,117.6 211.6,111.8Z" fill="#5e4238"/><path d="M209.6,112.5 Q208.8,121 211.4,127.8 Q217.5,119.1 216.9,112.2Z" fill="#6e5040" filter="url(#tx-hair-fine)"/><path d="M214.2,113.2 Q213.3,119.5 217,124.4 Q224,117.6 223.2,112.6Z" fill="url(#c3c-fur)"/><path d="M216.9,113 Q216.9,118.7 217.4,122.6" stroke="#8a6a52" stroke-width="0.5" fill="none" opacity="0.8"/><path d="M222.6,115 Q222.7,121.3 223.1,126.4 Q229.7,119 228.6,114Z" fill="#6e5040" filter="url(#tx-hair-fine)"/><path d="M224.4,114.7 Q225,120.4 223.7,124.6" stroke="#8a6a52" stroke-width="0.5" fill="none" opacity="0.8"/><path d="M227.5,117.1 Q227.8,123.3 234.4,127.1 Q234.8,120.7 233.5,115.9Z" fill="url(#c3c-fur)"/><path d="M235.5,121.7 Q235.6,125.8 238.1,128.6 Q242.6,123.2 241.5,120.1Z" fill="url(#c3c-fur)"/><path d="M237.3,121.2 Q237.9,124.8 238.3,127.4" stroke="#8a6a52" stroke-width="0.5" fill="none" opacity="0.8"/><path d="M238.4,124.1 Q239.4,130.9 242.3,135.8 Q246.5,127.5 244.6,122.3Z" fill="#4a3430" filter="url(#tx-hair-fine)"/><path d="M240.3,123.6 Q241.7,129.6 242.3,133.9" stroke="#8a6a52" stroke-width="0.5" fill="none" opacity="0.8"/><path d="M245.1,132.5 Q245.2,137.7 251.4,140.1 Q255.6,133.5 253.9,129.7Z" fill="url(#c3c-fur)"/><path d="M247.7,131.7 Q248.7,136.2 251.2,138.7" stroke="#8a6a52" stroke-width="0.5" fill="none" opacity="0.8"/><path d="M247,133.9 Q248,141 260.1,143.2 Q256.9,136.8 254.8,131.4Z" fill="#36241f" filter="url(#tx-hair-fine)"/>
<path d="M205.4,120.2 Q204.7,127.4 204.3,133.2 Q212.8,125.8 212.2,120Z" fill="#5e4238"/><path d="M211.8,120.9 Q211.1,128.8 221.7,134.5 Q220.5,126.8 219.7,120.4Z" fill="url(#c3c-fur)"/><path d="M216.5,122.1 Q216.2,128.2 225.5,131.8 Q225.7,125.7 224.6,121Z" fill="url(#c3c-fur)"/><path d="M221.6,124.9 Q221.6,131.1 228.4,134.6 Q232.4,127.5 230.9,122.9Z" fill="url(#c3c-fur)"/><path d="M224.4,124.3 Q225.1,129.7 228.1,133" stroke="#6a4e40" stroke-width="0.5" fill="none" opacity="0.8"/><path d="M228.7,128.1 Q229.3,134.7 230.4,140 Q236.9,131.6 235.2,126.4Z" fill="#36241f" filter="url(#tx-hair-fine)"/><path d="M235.3,133 Q236.3,140.6 243,145.1 Q244.2,136.9 242.2,131.1Z" fill="#4a3430" filter="url(#tx-hair-fine)"/><path d="M237.3,132.4 Q238.9,139.2 242.3,143.2" stroke="#6a4e40" stroke-width="0.5" fill="none" opacity="0.8"/><path d="M239.6,136.5 Q240.4,142.6 246.2,146.2 Q247.9,139.3 246.1,134.5Z" fill="url(#c3c-fur)"/><path d="M242.8,139.7 Q243.5,146.1 251.3,149.3 Q251.8,142.5 250,137.5Z" fill="#5e4238"/><path d="M245,139 Q246.2,144.7 250.5,147.7" stroke="#6a4e40" stroke-width="0.5" fill="none" opacity="0.8"/>
<path d="M204.4,127.4 Q203.8,131.9 211.7,134.7 Q212.4,130.2 211.6,126.6Z" fill="#4a3430" filter="url(#tx-hair-fine)"/><path d="M209,128.1 Q208.8,134 216.4,137.9 Q215.6,132.2 214.8,127.5Z" fill="#5e4238"/><path d="M210.8,128 Q211,133.2 215.6,136.4" stroke="#6a4e40" stroke-width="0.5" fill="none" opacity="0.8"/><path d="M212.9,129.8 Q212.7,138 221.1,143.4 Q223.3,135 221.9,128.5Z" fill="url(#c3c-fur)"/><path d="M214.7,130.2 Q214.1,134.6 222.5,136.7 Q223.8,132.2 222.8,128.9Z" fill="#36241f" filter="url(#tx-hair-fine)"/><path d="M219.6,132.7 Q219.4,138.2 223.7,141.8 Q229.7,135 228.4,130.8Z" fill="url(#c3c-fur)"/><path d="M223,134 Q223.4,141.3 226,146.7 Q232.2,138 230.5,132.4Z" fill="url(#c3c-fur)"/><path d="M227.2,136.5 Q227.4,143.3 232.4,147.8 Q236.9,140 235.4,134.7Z" fill="#6e5040" filter="url(#tx-hair-fine)"/>
<path d="M185.1,99.6 Q183.7,102.4 186.3,105.4 Q189.7,103.1 190,100.7Z" fill="url(#c3c-furL)"/><path d="M182.8,99.5 Q181.2,102.6 182.9,105.7 Q188.8,103.6 189,100.9Z" fill="url(#c3c-furL)"/><path d="M173.5,100.9 Q172.6,104.3 173.7,107.2 Q178.4,104 178.3,101.2Z" fill="#36241f" filter="url(#tx-hair-fine)"/><path d="M174.9,101 Q174.5,104.1 174.1,106.3" stroke="#d8fff0" stroke-width="0.5" fill="none" opacity="0.8"/><path d="M167.4,103 Q167.1,107.1 169.8,110.1 Q173.7,105.5 173,102.3Z" fill="#5e4238"/><path d="M169.1,102.8 Q169.3,106.5 169.9,109" stroke="#d8fff0" stroke-width="0.5" fill="none" opacity="0.8"/><path d="M163.2,104.9 Q163.1,109.1 170.6,110.9 Q170.7,106.7 169.7,103.5Z" fill="url(#c3c-furL)"/><path d="M156.7,109.2 Q157.8,114.3 162,117.3 Q163.2,111.3 161.5,107.4Z" fill="#6e5040" filter="url(#tx-hair-fine)"/><path d="M158.1,108.7 Q159.5,113.2 161.6,115.9" stroke="#d8fff0" stroke-width="0.5" fill="none" opacity="0.8"/><path d="M151,113.5 Q151.6,116.8 157.2,116.8 Q158.5,112.6 157,110.5Z" fill="#6e5040" filter="url(#tx-hair-fine)"/><path d="M145.4,119.6 Q147.3,123.7 152,124.5 Q152.8,118.5 150.4,115.9Z" fill="#6e5040" filter="url(#tx-hair-fine)"/><path d="M143.1,122.8 Q145.1,126.3 149.2,127.1 Q149.5,121.6 147.1,119.3Z" fill="#6e5040" filter="url(#tx-hair-fine)"/><path d="M144.3,121.7 Q146.5,124.7 148.7,126.2" stroke="#d8fff0" stroke-width="0.5" fill="none" opacity="0.8"/><path d="M139.4,128.1 Q142.2,132 145.6,134 Q146,126.8 143.1,124.3Z" fill="url(#c3c-furL)"/><path d="M134.9,135.9 Q137.6,138.9 142.4,138.2 Q140.8,133.6 138,131.8Z" fill="url(#c3c-furL)"/><path d="M132.6,140.4 Q134.9,143 138.8,142.1 Q138.3,136.8 135.9,135.6Z" fill="url(#c3c-furL)"/><path d="M133.6,139 Q135.9,140.9 138.1,141.4" stroke="#d8fff0" stroke-width="0.5" fill="none" opacity="0.8"/><path d="M130.7,144.9 Q134.4,148.1 141,144.8 Q137.4,141.2 133.9,139.5Z" fill="url(#c3c-furL)"/><path d="M128.5,154.2 Q132.2,155.7 136.1,152.6 Q132.8,149.7 129.6,149.3Z" fill="#4a3430" filter="url(#tx-hair-fine)"/><path d="M128.1,160.2 Q131.2,161.3 134.1,156.7 Q131.2,154.3 128.6,154.3Z" fill="#5e4238"/><path d="M128.3,158.4 Q131.1,158.9 133.2,156.8" stroke="#d8fff0" stroke-width="0.5" fill="none" opacity="0.8"/><path d="M127.9,165.3 Q133.9,166.8 139,164.4 Q133.4,158.4 128.4,158.4Z" fill="#4a3430" filter="url(#tx-hair-fine)"/><path d="M128,163.3 Q133.5,164 137.4,163.9" stroke="#d8fff0" stroke-width="0.5" fill="none" opacity="0.8"/>
<path d="M207.9,100.7 Q207.4,103.6 213.4,104.7 Q215,101.6 214.3,99.5Z" fill="#4a3430" filter="url(#tx-hair-fine)"/><path d="M212.4,101 Q211.8,103.8 217.5,105 Q220.2,101.8 219.4,99.7Z" fill="url(#c3c-furL)"/><path d="M219.1,101.2 Q218.8,105.6 225.3,108.5 Q225.6,104.1 224.9,100.6Z" fill="url(#c3c-furL)"/><path d="M225.2,101.9 Q224.2,106.4 228,110.3 Q231,105.8 230.8,102.1Z" fill="url(#c3c-furL)"/><path d="M229,102.9 Q227.9,106.2 233.7,109.5 Q234.3,106.2 234.3,103.3Z" fill="#6e5040" filter="url(#tx-hair-fine)"/><path d="M236.9,105.6 Q235.4,109.6 238.9,113.8 Q240.8,109.9 241.3,106.6Z" fill="url(#c3c-furL)"/><path d="M241.8,108 Q239.6,111.8 242.7,116.6 Q246,113.2 246.9,109.8Z" fill="#6e5040" filter="url(#tx-hair-fine)"/><path d="M244,109.2 Q241.3,114.1 243.7,120 Q246.5,115.1 248,110.8Z" fill="url(#c3c-furL)"/><path d="M245.2,109.7 Q243.1,114.3 243.9,118.5" stroke="#d8fff0" stroke-width="0.5" fill="none" opacity="0.8"/><path d="M250,113.7 Q246.7,117.4 248.5,123.4 Q252.4,120 254.4,116.5Z" fill="#4a3430" filter="url(#tx-hair-fine)"/><path d="M251.3,114.5 Q248.7,118.2 249,122.1" stroke="#d8fff0" stroke-width="0.5" fill="none" opacity="0.8"/><path d="M254.2,117.8 Q250.9,120.6 251.4,125.5 Q256.5,124.1 258.5,121.2Z" fill="url(#c3c-furL)"/><path d="M256.2,120.1 Q252,123.1 251.9,128.6 Q259,128.2 261.5,124.9Z" fill="url(#c3c-furL)"/><path d="M261.4,126.6 Q256.3,129 255.6,136 Q261.3,134.5 264.8,131.7Z" fill="url(#c3c-furL)"/><path d="M263.2,130.2 Q259.7,131.3 259.9,137.2 Q264.2,137.3 266.5,135.6Z" fill="#5e4238"/><path d="M264.2,131.8 Q261.3,133.2 260.6,136.5" stroke="#d8fff0" stroke-width="0.5" fill="none" opacity="0.8"/><path d="M265.6,135.4 Q262.1,136.5 260.8,140 Q266.1,141.9 268.4,140.2Z" fill="url(#c3c-furL)"/>
<path d="M145.9,148.3 Q143,153.3 145.8,159.6 Q148.7,154.6 150.3,150.1Z" fill="url(#c3c-fur)"/><path d="M144.3,149.4 Q142.3,151.7 146,155.9 Q149.6,154.2 150.3,151.8Z" fill="#6e5040" filter="url(#tx-hair-fine)"/><path d="M138.1,160.1 Q135.6,163.4 136.6,167.4 Q143.5,166 144.5,162.8Z" fill="#5e4238"/><path d="M137,163.4 Q133.8,168.6 135.8,174.7 Q141.1,170.5 142.7,165.9Z" fill="url(#c3c-fur)"/><path d="M135.2,168.3 Q132.2,172.9 136.4,179.6 Q139.1,174.8 140.6,170.6Z" fill="url(#c3c-fur)"/>
<path d="M188,126 C192,138 208,138 212,126" stroke="#6a5040" stroke-width="0.8" fill="none"/>
<g fill="#ece2c8" stroke="#4a3a2a" stroke-width="0.3"><path d="M191,131 l-1,5 l2,-0.4Z"/><path d="M195,134 l-0.6,5.4 l2,-0.4Z"/><path d="M205,134 l0.6,5.4 l-2,-0.4Z"/><path d="M209,131 l1,5 l-2,-0.4Z"/></g>
<circle cx="200" cy="137" r="2.6" fill="url(#c3c-orb)" filter="url(#c3c-glow)"/>
<g transform="translate(200,112) scale(1.1) translate(-200,-112)">
<path d="M192,100 C192,108 190,116 187,126 L213,126 C210,116 208,108 208,100Z" fill="url(#c3c-skin)"/>
<path d="M192,106 C196,112 204,112 208,106 L209,116 C204,118 196,118 191,116Z" fill="#1a1440" opacity="0.45"/>

<path d="M194.6,66.5 Q192.5,63.2 191,60.8 Q189.5,58.3 187.7,55.9 Q185.9,53.5 184,51.4 Q182,49.3 179.9,47.2 Q177.7,45.2 175.4,43.4 Q173.2,41.5 170.8,39.9 Q168.4,38.3 166,37 Q163.5,35.6 161.1,34.2 Q158.7,32.9 156.1,31.3 Q153.4,29.7 150.8,28.1 Q148.2,26.5 146.3,25.4 Q144.4,24.3 144,25 Q143.6,25.7 145.3,26.9 Q147.1,28.2 149.6,29.9 Q152.2,31.6 154.7,33.4 Q157.3,35.1 159.6,36.7 Q161.9,38.2 164.2,39.7 Q166.5,41.2 168.7,42.9 Q170.8,44.5 172.8,46.4 Q174.9,48.3 176.8,50.3 Q178.7,52.4 180.4,54.4 Q182.1,56.5 183.5,58.8 Q185,61.1 186.3,63.6 Q187.6,66 188.5,67.7 L189.4,69.5Z" fill="url(#c3c-antler)"/><path d="M183.5,52.4 Q184,49.7 184.4,47.8 Q184.7,45.9 184.9,44 Q185,42 184.7,40.1 Q184.3,38.2 183.8,36.3 Q183.2,34.4 182.8,33.2 Q182.4,31.9 182,32 Q181.6,32.1 181.8,33.4 Q182.1,34.7 182.4,36.6 Q182.8,38.4 182.9,40.2 Q183,42 182.7,43.7 Q182.4,45.5 181.8,47.3 Q181.3,49.1 180.9,50.3 L180.5,51.6Z" fill="url(#c3c-antler)"/><path d="M171.6,40.8 Q171,37.9 170.6,35.8 Q170.1,33.7 169.5,31.7 Q168.9,29.7 168,27.9 Q167.1,26.1 166,24.5 Q164.9,22.9 164.1,21.9 Q163.3,20.8 163,21 Q162.7,21.2 163.3,22.4 Q163.9,23.6 164.8,25.2 Q165.7,26.9 166.4,28.6 Q167.1,30.3 167.4,32.2 Q167.8,34.2 168,36.2 Q168.2,38.3 168.3,39.7 L168.4,41.2Z" fill="url(#c3c-antler)"/><path d="M156.3,31.4 Q153.6,31.2 151.7,31 Q149.8,30.8 147.8,30.9 Q145.9,31 143.9,31.7 Q142,32.4 140.2,33.3 Q138.3,34.2 137.1,34.9 Q135.8,35.6 136,36 Q136.2,36.4 137.5,35.8 Q138.8,35.3 140.7,34.6 Q142.6,33.9 144.4,33.4 Q146.1,33 147.9,33.1 Q149.6,33.2 151.4,33.6 Q153.2,33.9 154.5,34.3 L155.7,34.6Z" fill="url(#c3c-antler)"/><path d="M176,43.4 Q172.7,43.7 170.4,43.9 Q168,44.1 165.8,44.6 Q163.7,45.1 162,46.1 Q160.3,47.2 158.9,48.5 Q157.5,49.8 156.6,50.8 Q155.7,51.7 156,52 Q156.3,52.3 157.3,51.5 Q158.3,50.7 159.8,49.6 Q161.2,48.5 162.8,47.7 Q164.3,46.9 166.3,46.7 Q168.3,46.5 170.5,46.5 Q172.8,46.5 174.4,46.5 L176,46.6Z" fill="url(#c3c-antler)"/><path d="M151.5,28.4 Q150.4,26.3 149.7,24.9 Q148.9,23.4 148.5,22.1 Q148,20.9 147.9,19.8 Q147.9,18.7 148,17.7 Q148.2,16.6 148.3,15.9 Q148.4,15.1 148,15 Q147.6,14.9 147.3,15.6 Q147,16.3 146.6,17.4 Q146.3,18.5 146.1,19.8 Q146,21.1 146.3,22.7 Q146.7,24.2 147.2,25.8 Q147.8,27.4 148.2,28.5 L148.5,29.6Z" fill="url(#c3c-antler)"/><path d="M192,68 Q190.1,64.6 188.7,62.2 Q187.3,59.7 185.6,57.4 Q184,55 182.2,52.9 Q180.4,50.8 178.3,48.8 Q176.3,46.7 174.1,44.9 Q172,43 169.5,41.2 Q167,39.4 164.3,37.8 Q161.7,36.2 159.9,35.1 L158,34" stroke="#fff8e8" stroke-width="0.6" fill="none" opacity="0.7" transform="translate(0.8,-0.8)"/><path d="M194,66 l-6,3 M192,63 l-6,3" stroke="#3a2a20" stroke-width="0.6"/><ellipse cx="174" cy="45" rx="3" ry="1.6" fill="#3a8a5a"/><path d="M174,45 C173,50 175,54 174,58" stroke="#2a7a4a" stroke-width="0.5" fill="none"/><use href="#c3c-leaf" transform="translate(174,58) rotate(80) scale(0.6)" fill="#4ac08a"/><ellipse cx="160" cy="35" rx="3" ry="1.6" fill="#3a8a5a"/><path d="M160,35 C159,40 161,44 160,48" stroke="#2a7a4a" stroke-width="0.5" fill="none"/><use href="#c3c-leaf" transform="translate(160,48) rotate(80) scale(0.6)" fill="#4ac08a"/><ellipse cx="183" cy="53" rx="3" ry="1.6" fill="#3a8a5a"/><path d="M183,53 C182,58 184,62 183,66" stroke="#2a7a4a" stroke-width="0.5" fill="none"/><use href="#c3c-leaf" transform="translate(183,66) rotate(80) scale(0.6)" fill="#4ac08a"/>
<path d="M210.6,69.5 Q212.4,66 213.7,63.6 Q215,61.1 216.5,58.8 Q217.9,56.5 219.6,54.4 Q221.3,52.4 223.2,50.3 Q225.1,48.3 227.2,46.4 Q229.2,44.5 231.3,42.9 Q233.5,41.2 235.8,39.7 Q238.1,38.2 240.4,36.7 Q242.7,35.1 245.3,33.4 Q247.8,31.6 250.4,29.9 Q252.9,28.2 254.7,26.9 Q256.4,25.7 256,25 Q255.6,24.3 253.7,25.4 Q251.8,26.5 249.2,28.1 Q246.6,29.7 243.9,31.3 Q241.3,32.9 238.9,34.2 Q236.5,35.6 234,37 Q231.6,38.3 229.2,39.9 Q226.8,41.5 224.6,43.4 Q222.3,45.2 220.1,47.2 Q218,49.3 216,51.4 Q214.1,53.5 212.3,55.9 Q210.5,58.3 209,60.8 Q207.5,63.2 206.4,64.9 L205.4,66.5Z" fill="url(#c3c-antler)"/><path d="M219.5,51.6 Q218.7,49.1 218.2,47.3 Q217.6,45.5 217.3,43.7 Q217,42 217.1,40.2 Q217.2,38.4 217.6,36.6 Q217.9,34.7 218.2,33.4 Q218.4,32.1 218,32 Q217.6,31.9 217.2,33.2 Q216.8,34.4 216.2,36.3 Q215.7,38.2 215.3,40.1 Q215,42 215.1,44 Q215.3,45.9 215.6,47.8 Q216,49.7 216.2,51.1 L216.5,52.4Z" fill="url(#c3c-antler)"/><path d="M231.6,41.2 Q231.8,38.3 232,36.2 Q232.2,34.2 232.6,32.2 Q232.9,30.3 233.6,28.6 Q234.3,26.9 235.2,25.2 Q236.1,23.6 236.7,22.4 Q237.3,21.2 237,21 Q236.7,20.8 235.9,21.9 Q235.1,22.9 234,24.5 Q232.9,26.1 232,27.9 Q231.1,29.7 230.5,31.7 Q229.9,33.7 229.4,35.8 Q229,37.9 228.7,39.3 L228.4,40.8Z" fill="url(#c3c-antler)"/><path d="M244.3,34.6 Q246.8,33.9 248.6,33.6 Q250.4,33.2 252.1,33.1 Q253.9,33 255.6,33.4 Q257.4,33.9 259.3,34.6 Q261.2,35.3 262.5,35.8 Q263.8,36.4 264,36 Q264.2,35.6 262.9,34.9 Q261.7,34.2 259.8,33.3 Q258,32.4 256.1,31.7 Q254.1,31 252.2,30.9 Q250.2,30.8 248.3,31 Q246.4,31.2 245.1,31.3 L243.7,31.4Z" fill="url(#c3c-antler)"/><path d="M224,46.6 Q227.2,46.5 229.5,46.5 Q231.7,46.5 233.7,46.7 Q235.7,46.9 237.2,47.7 Q238.8,48.5 240.2,49.6 Q241.7,50.7 242.7,51.5 Q243.7,52.3 244,52 Q244.3,51.7 243.4,50.8 Q242.5,49.8 241.1,48.5 Q239.7,47.2 238,46.1 Q236.3,45.1 234.2,44.6 Q232,44.1 229.6,43.9 Q227.3,43.7 225.7,43.5 L224,43.4Z" fill="url(#c3c-antler)"/><path d="M251.5,29.6 Q252.2,27.4 252.8,25.8 Q253.3,24.2 253.7,22.7 Q254,21.1 253.9,19.8 Q253.7,18.5 253.4,17.4 Q253,16.3 252.7,15.6 Q252.4,14.9 252,15 Q251.6,15.1 251.7,15.9 Q251.8,16.6 252,17.7 Q252.1,18.7 252.1,19.8 Q252,20.9 251.5,22.1 Q251.1,23.4 250.3,24.9 Q249.6,26.3 249.1,27.3 L248.5,28.4Z" fill="url(#c3c-antler)"/><path d="M208,68 Q209.9,64.6 211.3,62.2 Q212.7,59.7 214.4,57.4 Q216,55 217.8,52.9 Q219.6,50.8 221.7,48.8 Q223.7,46.7 225.9,44.9 Q228,43 230.5,41.2 Q233,39.4 235.7,37.8 Q238.3,36.2 240.1,35.1 L242,34" stroke="#fff8e8" stroke-width="0.6" fill="none" opacity="0.7" transform="translate(-0.8,-0.8)"/><path d="M206,66 l6,3 M208,63 l6,3" stroke="#3a2a20" stroke-width="0.6"/><ellipse cx="226" cy="45" rx="3" ry="1.6" fill="#3a8a5a"/><path d="M226,45 C227,50 225,54 226,58" stroke="#2a7a4a" stroke-width="0.5" fill="none"/><use href="#c3c-leaf" transform="translate(226,58) rotate(80) scale(0.6)" fill="#4ac08a"/><ellipse cx="240" cy="35" rx="3" ry="1.6" fill="#3a8a5a"/><path d="M240,35 C241,40 239,44 240,48" stroke="#2a7a4a" stroke-width="0.5" fill="none"/><use href="#c3c-leaf" transform="translate(240,48) rotate(80) scale(0.6)" fill="#4ac08a"/><ellipse cx="217" cy="53" rx="3" ry="1.6" fill="#3a8a5a"/><path d="M217,53 C218,58 216,62 217,66" stroke="#2a7a4a" stroke-width="0.5" fill="none"/><use href="#c3c-leaf" transform="translate(217,66) rotate(80) scale(0.6)" fill="#4ac08a"/>
<g filter="url(#c3c-glow)" opacity="0.6"><path d="M146,26 Q149.9,28.9 152.8,31 Q155.6,33.1 158.8,35.6 Q162,38 165.9,41.1 Q169.7,44.2 173.9,47.7 Q178.1,51.1 181,53.6 L184,56" stroke="#8affd8" stroke-width="0.5" fill="none"/><path d="M254,26 Q250.1,28.9 247.2,31 Q244.4,33.1 241.2,35.6 Q238,38 234.1,41.1 Q230.3,44.2 226.1,47.7 Q221.9,51.1 219,53.6 L216,56" stroke="#8affd8" stroke-width="0.5" fill="none"/></g>
<path d="M187,82 C178,78 168,72 158,62 C164,74 172,86 187,92Z" fill="url(#c3c-skin)"/>
<path d="M185,84 C178,80 171,75 164,68 C170,77 176,84 185,89Z" fill="#2a2266" opacity="0.6"/>
<path d="M213,82 C222,78 232,72 242,62 C236,74 228,86 213,92Z" fill="url(#c3c-skin)"/>
<path d="M215,84 C222,80 229,75 236,68 C230,77 224,84 215,89Z" fill="#2a2266" opacity="0.5"/>
<path d="M242,62 C232,72 222,78 213,82" stroke="#d8fff0" stroke-width="0.6" fill="none"/>
<path d="M186,78 C186,68 192,62 200,62 C208,62 214,68 214,78 C214,88 212.4,96 209.4,103 C206.6,108.4 203.4,111 200,111 C196.6,111 193.4,108.4 190.6,103 C187.6,96 186,88 186,78Z" fill="url(#c3c-skin)"/>
<path d="M186,78 C186,88 187.6,96 190.6,103 C193.4,108.4 196.6,111 200,111 C196,107 193,100 192,92 C191,84 191,74 194,66 C189,68 186,72 186,78Z" fill="#1a1440" opacity="0.45"/>
<path d="M208,88 C210,86 212,84 213.4,82" stroke="#e8e4ff" stroke-width="0.8" fill="none" opacity="0.5"/>
<path d="M189,77.4 C192,75.4 196,75.6 199.6,79 L199,80.2 C196,78.4 192.6,78.4 189.4,79.2Z" fill="#12302a"/>
<path d="M211,77.4 C208,75.4 204,75.6 200.4,79 L201,80.2 C204,78.4 207.4,78.4 210.6,79.2Z" fill="#12302a"/>
<path d="M197.6,74.6 C198.6,76 199.4,77 200,78 C200.6,77 201.4,76 202.4,74.6" stroke="#2a2266" stroke-width="0.5" fill="none" opacity="0.8"/>
<path d="M191,82 C193,80.4 196.4,80.4 198.2,82.2 C196.4,83.6 193,83.6 191,82Z" fill="#c8ffe0"/>
<path d="M209,82 C207,80.4 203.6,80.4 201.8,82.2 C203.6,83.6 207,83.6 209,82Z" fill="#c8ffe0"/>
<g filter="url(#c3c-glow)"><path d="M191,82 C193,80.4 196.4,80.4 198.2,82.2 C196.4,83.6 193,83.6 191,82Z" fill="#6affb8" opacity="0.85"/><path d="M209,82 C207,80.4 203.6,80.4 201.8,82.2 C203.6,83.6 207,83.6 209,82Z" fill="#6affb8" opacity="0.85"/></g>
<circle cx="194.6" cy="82" r="0.9" fill="#0a3a2a"/><circle cx="205.4" cy="82" r="0.9" fill="#0a3a2a"/>
<circle cx="195" cy="81.5" r="0.4" fill="#ffffff"/><circle cx="205.8" cy="81.5" r="0.4" fill="#ffffff"/>
<path d="M190.6,82.2 C192.6,80 196.8,79.8 198.6,82.2 M209.4,82.2 C207.4,80 203.2,79.8 201.4,82.2" stroke="#0a0820" stroke-width="0.7" fill="none"/>
<path d="M200,82 C199.6,86 198.4,89 197,91.6 C198,93 199,93.4 200,93 C201,93.4 202,93 203,91.6 C201.6,89 200.4,86 200,82Z" fill="#6a60aa" opacity="0.6"/>
<path d="M197,91.6 C198,93 199,93.4 200,93 C201,93.4 202,93 203,91.6" stroke="#1a1440" stroke-width="0.6" fill="none"/>
<path d="M196.4,86 C197.4,86.6 198,87.4 198.4,88.4 M203.6,86 C202.6,86.6 202,87.4 201.6,88.4" stroke="#2a2266" stroke-width="0.45" fill="none" opacity="0.7"/>
<path d="M200.6,84 C201,86 201.6,88 202.4,90" stroke="#e8e4ff" stroke-width="0.45" fill="none" opacity="0.6"/>
<path d="M193.4,97 C196,95.4 204,95.4 206.6,97 C206.4,102 203.8,105.6 200,105.6 C196.2,105.6 193.6,102 193.4,97Z" fill="#1a0818"/>
<path d="M194.4,97.8 C198,99 202,99 205.6,97.8 C205.4,103 202.6,104.8 200,104.8 C197.4,104.8 194.6,103 194.4,97.8Z" fill="#6a1e3a" opacity="0.8"/>
<path d="M194,97.2 C197,98.4 203,98.4 206,97.2 L205.6,98.4 C202,99.4 198,99.4 194.4,98.4Z" fill="#f4eee0"/>
<path d="M195.4,97.8 L196.2,101.4 L197.2,98.2Z M204.6,97.8 L203.8,101.4 L202.8,98.2Z" fill="#fffaf0"/>
<path d="M196.6,104.6 L197.2,102.6 L198,104.8Z M203.4,104.6 L202.8,102.6 L202,104.8Z" fill="#f4eee0"/>
<path d="M193.4,97 C196,95.4 204,95.4 206.6,97" stroke="#2a1e5a" stroke-width="0.6" fill="none"/>
<path d="M192.4,96 C191.4,98 191.6,100 192.6,101.6 M207.6,96 C208.6,98 208.4,100 207.4,101.6" stroke="#2a2266" stroke-width="0.5" fill="none" opacity="0.7"/>

<g stroke="#4af0b0" stroke-width="0.6" fill="none" opacity="0.9" stroke-linecap="round"><path d="M188.6,86 L192,92"/><path d="M187.8,89 L190.6,94"/><path d="M211.4,86 L208,92"/><path d="M212.2,89 L209.4,94"/></g>
<path d="M186.3,83.2 Q184.3,84.4 184.2,87.3 Q186.2,86.1 187.7,84.8Z" fill="#3e2a26" filter="url(#tx-hair-fine)"/><path d="M186.6,88.3 Q183.9,90 182.2,92 Q186.5,92.2 188.4,90.4Z" fill="#3e2a26" filter="url(#tx-hair-fine)"/><path d="M187,90.9 Q184.1,93 184.7,97.9 Q187,95.2 189,93.1Z" fill="#3e2a26" filter="url(#tx-hair-fine)"/><path d="M188.3,95.1 Q186.1,96.7 186.8,100.5 Q188.9,98.8 190.4,97.1Z" fill="#3e2a26" filter="url(#tx-hair-fine)"/><path d="M189.7,98.4 Q188,99.7 188.8,102.7 Q190.6,101.5 191.6,100.1Z" fill="#3e2a26" filter="url(#tx-hair-fine)"/><path d="M190.5,100.4 Q188.9,101.7 189,104 Q192.1,103.8 193.1,102.4Z" fill="#3e2a26" filter="url(#tx-hair-fine)"/><path d="M192.8,103.5 Q190.7,105.6 189.9,107.9 Q193.2,106.8 194.5,104.8Z" fill="#3e2a26" filter="url(#tx-hair-fine)"/>
<path d="M212,86.9 Q214.2,89.1 218.2,88 Q215.7,86.2 213.7,84.7Z" fill="#3e2a26" filter="url(#tx-hair-fine)"/><path d="M211.6,90.4 Q214.3,93.1 216.4,95.4 Q215.8,90.2 213.3,88.3Z" fill="#3e2a26" filter="url(#tx-hair-fine)"/><path d="M211.4,92.1 Q213.3,94.2 216,94.5 Q214.8,91.7 213,90.3Z" fill="#3e2a26" filter="url(#tx-hair-fine)"/><path d="M209.7,97.1 Q211.8,100 213.7,102.2 Q213.8,97.1 211.7,95.1Z" fill="#3e2a26" filter="url(#tx-hair-fine)"/><path d="M208.7,99.5 Q209.7,101.2 211.6,101.6 Q211.9,98.6 210.7,97.6Z" fill="#3e2a26" filter="url(#tx-hair-fine)"/><path d="M206.3,103.6 Q207.1,105.2 209.8,104.9 Q209.2,103.1 208.3,102.1Z" fill="#3e2a26" filter="url(#tx-hair-fine)"/><path d="M204.9,105.5 Q206.8,108.5 211.9,108.3 Q208.8,106.2 206.9,103.9Z" fill="#3e2a26" filter="url(#tx-hair-fine)"/>
<path d="M185,80 C182,64 190,54 200,54 C210,54 218,64 215,80 C213,72 209,66 204,64 C202,66 198,66 196,64 C191,66 187,72 185,80Z" fill="url(#c3c-hair)"/>
<path d="M185.1,67.1 Q184.5,69.6 184,71.4 Q183.6,73.2 183,75.3 Q182.5,77.4 182.1,79.5 Q181.7,81.5 181.5,83.6 Q181.2,85.6 181.1,87.6 Q181,89.7 180.9,91.7 Q180.7,93.7 180.5,95.7 Q180.3,97.7 180,99.7 Q179.7,101.7 179.3,103.8 Q178.9,105.8 178.5,107.8 Q178,109.8 177.5,111.7 Q177,113.7 176.3,115.6 Q175.7,117.6 174.9,119.7 Q174.1,121.7 173.4,123.5 Q172.6,125.3 172.1,126.6 Q171.6,127.8 172,128 Q172.4,128.2 173,127 Q173.6,125.8 174.5,124 Q175.4,122.3 176.4,120.3 Q177.3,118.3 178.2,116.3 Q179,114.3 179.7,112.4 Q180.4,110.5 181,108.5 Q181.6,106.5 182.1,104.4 Q182.7,102.4 183.2,100.3 Q183.7,98.3 184.1,96.2 Q184.4,94.2 184.7,92.1 Q185,90.1 185.3,88.1 Q185.6,86.1 185.9,84.3 Q186.3,82.5 186.8,80.6 Q187.4,78.7 188,76.7 Q188.7,74.8 189.3,73 Q189.9,71.3 190.4,70.1 L190.9,68.9Z" fill="url(#c3c-hair)"/>
<path d="M209.1,68.9 Q210.1,71.3 210.7,73 Q211.3,74.8 212,76.7 Q212.6,78.7 213.2,80.6 Q213.7,82.5 214.1,84.3 Q214.4,86.1 214.7,88.1 Q215,90.1 215.3,92.1 Q215.6,94.2 215.9,96.2 Q216.3,98.3 216.8,100.3 Q217.3,102.4 217.9,104.4 Q218.4,106.5 219,108.5 Q219.6,110.5 220.3,112.4 Q221,114.3 221.8,116.3 Q222.7,118.3 223.6,120.3 Q224.6,122.3 225.5,124 Q226.4,125.8 227,127 Q227.6,128.2 228,128 Q228.4,127.8 227.9,126.6 Q227.4,125.3 226.6,123.5 Q225.9,121.7 225.1,119.7 Q224.3,117.6 223.7,115.6 Q223,113.7 222.5,111.7 Q222,109.8 221.5,107.8 Q221.1,105.8 220.7,103.8 Q220.3,101.7 220,99.7 Q219.7,97.7 219.5,95.7 Q219.3,93.7 219.1,91.7 Q219,89.7 218.9,87.6 Q218.8,85.6 218.5,83.6 Q218.3,81.5 217.9,79.5 Q217.5,77.4 217,75.3 Q216.4,73.2 216,71.4 Q215.5,69.6 215.2,68.4 L214.9,67.1Z" fill="url(#c3c-hair)"/>
<path d="M204,56 Q205.8,57.4 207,58.4 Q208.2,59.5 209.3,60.7 Q210.4,62 211.1,63.4 Q211.9,64.9 212.5,66.6 Q213.1,68.2 213.6,70.1 Q214.1,72 214.6,74.4 Q215,76.9 215.3,79.6 Q215.7,82.2 215.9,84.1 L216.2,86" stroke="#6ad8b0" stroke-width="0.4" fill="none" opacity="0.7"/>
<path d="M194.7,56 Q193.6,57.4 192.8,58.4 Q192.1,59.5 191.3,60.7 Q190.5,62 189.8,63.4 Q189,64.9 188.3,66.6 Q187.5,68.2 186.8,70.1 Q186.1,72 185.4,74.4 Q184.8,76.9 184.2,79.6 Q183.6,82.2 183.1,84.1 L182.7,86" stroke="#061a16" stroke-width="0.4" fill="none" opacity="0.7"/>
<path d="M204.4,56 Q206.5,57.4 208,58.4 Q209.4,59.5 210.6,60.7 Q211.7,62 212.2,63.4 Q212.7,64.9 212.9,66.6 Q213.1,68.2 213.3,70.1 Q213.6,72 214,74.4 Q214.5,76.9 214.9,79.6 Q215.4,82.2 215.7,84.1 L216.1,86" stroke="#061a16" stroke-width="0.4" fill="none" opacity="0.7"/>
<path d="M196.8,56 Q195.1,57.4 193.9,58.4 Q192.7,59.5 191.7,60.7 Q190.6,62 189.9,63.4 Q189.2,64.9 188.6,66.6 Q188,68.2 187.4,70.1 Q186.8,72 186.2,74.4 Q185.6,76.9 184.9,79.6 Q184.3,82.2 183.9,84.1 L183.5,86" stroke="#6ad8b0" stroke-width="0.4" fill="none" opacity="0.7"/>
<path d="M203.2,56 Q205.3,57.4 206.7,58.4 Q208.2,59.5 209.5,60.7 Q210.7,62 211.6,63.4 Q212.4,64.9 213.1,66.6 Q213.7,68.2 214.3,70.1 Q214.9,72 215.5,74.4 Q216.1,76.9 216.7,79.6 Q217.2,82.2 217.6,84.1 L218,86" stroke="#061a16" stroke-width="0.4" fill="none" opacity="0.7"/>
<path d="M194.9,56 Q193.6,57.4 192.7,58.4 Q191.7,59.5 190.9,60.7 Q190,62 189.3,63.4 Q188.7,64.9 188.1,66.6 Q187.5,68.2 186.8,70.1 Q186.2,72 185.5,74.4 Q184.8,76.9 184.1,79.6 Q183.3,82.2 182.8,84.1 L182.3,86" stroke="#061a16" stroke-width="0.4" fill="none" opacity="0.7"/>
<path d="M202.9,56 Q205.4,57.4 207.1,58.4 Q208.8,59.5 210.1,60.7 Q211.5,62 212,63.4 Q212.6,64.9 212.8,66.6 Q213,68.2 213.2,70.1 Q213.5,72 214,74.4 Q214.5,76.9 215,79.6 Q215.6,82.2 216,84.1 L216.3,86" stroke="#6ad8b0" stroke-width="0.4" fill="none" opacity="0.7"/>
<path d="M195.8,56 Q193.6,57.4 192.1,58.4 Q190.6,59.5 189.3,60.7 Q188.1,62 187.5,63.4 Q186.9,64.9 186.6,66.6 Q186.2,68.2 185.9,70.1 Q185.5,72 185,74.4 Q184.4,76.9 183.9,79.6 Q183.3,82.2 182.9,84.1 L182.5,86" stroke="#061a16" stroke-width="0.4" fill="none" opacity="0.7"/>
<path d="M203.4,56 Q205.2,57.4 206.5,58.4 Q207.7,59.5 208.9,60.7 Q210,62 211,63.4 Q211.9,64.9 212.7,66.6 Q213.4,68.2 214.1,70.1 Q214.7,72 215.2,74.4 Q215.7,76.9 216,79.6 Q216.3,82.2 216.5,84.1 L216.8,86" stroke="#061a16" stroke-width="0.4" fill="none" opacity="0.7"/>
<path d="M195.1,56 Q194,57.4 193.1,58.4 Q192.3,59.5 191.5,60.7 Q190.7,62 190,63.4 Q189.4,64.9 188.7,66.6 Q188.1,68.2 187.5,70.1 Q186.9,72 186.3,74.4 Q185.7,76.9 185.1,79.6 Q184.5,82.2 184.1,84.1 L183.7,86" stroke="#6ad8b0" stroke-width="0.4" fill="none" opacity="0.7"/>
<path d="M185,80 C182,64 190,54 200,54 C210,54 218,64 215,80" stroke="#aaf8e0" stroke-width="0.8" fill="none" opacity="0.6"/>
</g>
<g filter="url(#c3c-glow)" fill="none" stroke-linecap="round">
 <path d="M100,230 C140,268 270,270 310,230 C336,204 330,176 312,160" stroke="#6affc8" stroke-width="2" opacity="0.75"/>
 <path d="M120,244 C170,274 250,272 290,244" stroke="#c8fff0" stroke-width="0.8" opacity="0.7"/>
 <path d="M96,160 C88,120 130,84 170,96" stroke="#6affc8" stroke-width="1.2" opacity="0.55"/>
 <path d="M330,150 C340,120 320,90 296,106" stroke="#b8fff0" stroke-width="0.8" opacity="0.5"/>
</g>
<g><use href="#c3c-leaf" transform="translate(91.7,224.8) rotate(144.8) scale(1)" fill="#6ae8a8" stroke="#d8fff0" stroke-width="0.2"/><use href="#c3c-leaf" transform="translate(127.2,244.7) rotate(297.7) scale(0.9)" fill="#8affc8" stroke="#d8fff0" stroke-width="0.2"/><use href="#c3c-leaf" transform="translate(152.1,259.9) rotate(78.4) scale(1.3)" fill="#8affc8" stroke="#d8fff0" stroke-width="0.2"/><use href="#c3c-leaf" transform="translate(174.9,261.1) rotate(288.3) scale(1.2)" fill="#3ac08a" stroke="#d8fff0" stroke-width="0.2"/><use href="#c3c-leaf" transform="translate(209,270.3) rotate(200.6) scale(1.4)" fill="#8affc8" stroke="#d8fff0" stroke-width="0.2"/><use href="#c3c-leaf" transform="translate(229.8,268.9) rotate(62.4) scale(0.8)" fill="#8affc8" stroke="#d8fff0" stroke-width="0.2"/><use href="#c3c-leaf" transform="translate(263.4,261.8) rotate(326.6) scale(1.2)" fill="#6ae8a8" stroke="#d8fff0" stroke-width="0.2"/><use href="#c3c-leaf" transform="translate(287.8,251.8) rotate(153.7) scale(1.1)" fill="#8affc8" stroke="#d8fff0" stroke-width="0.2"/><use href="#c3c-leaf" transform="translate(301.4,230.6) rotate(228.1) scale(1.3)" fill="#8affc8" stroke="#d8fff0" stroke-width="0.2"/><use href="#c3c-leaf" transform="translate(323.6,218.6) rotate(217.8) scale(1.1)" fill="#6ae8a8" stroke="#d8fff0" stroke-width="0.2"/><use href="#c3c-leaf" transform="translate(335.7,198.8) rotate(162.1) scale(1.1)" fill="#2a8a6a" stroke="#d8fff0" stroke-width="0.2"/><use href="#c3c-leaf" transform="translate(331,171.1) rotate(160) scale(0.9)" fill="#2a8a6a" stroke="#d8fff0" stroke-width="0.2"/><use href="#c3c-leaf" transform="translate(314.5,154.9) rotate(78.6) scale(1.1)" fill="#2a8a6a" stroke="#d8fff0" stroke-width="0.2"/><use href="#c3c-leaf" transform="translate(214.2,135.7) rotate(147.3) scale(0.6)" fill="#2a8a6a"/><use href="#c3c-leaf" transform="translate(313.2,65.5) rotate(328.6) scale(1)" fill="#3ac08a"/><use href="#c3c-leaf" transform="translate(313.3,120.7) rotate(75.8) scale(0.8)" fill="#2a8a6a"/><use href="#c3c-leaf" transform="translate(293.1,143.8) rotate(83.5) scale(0.9)" fill="#2a8a6a"/><use href="#c3c-leaf" transform="translate(222.6,187.9) rotate(143.3) scale(0.8)" fill="#5ad89a"/><use href="#c3c-leaf" transform="translate(308.8,82.9) rotate(312) scale(0.7)" fill="#3ac08a"/><use href="#c3c-leaf" transform="translate(93.8,135.9) rotate(223.6) scale(1.1)" fill="#3ac08a"/><use href="#c3c-leaf" transform="translate(331.8,107.8) rotate(346) scale(1)" fill="#5ad89a"/><use href="#c3c-leaf" transform="translate(265.4,144.6) rotate(18.7) scale(0.9)" fill="#2a8a6a"/><use href="#c3c-leaf" transform="translate(80.5,65.7) rotate(348.7) scale(0.9)" fill="#2a8a6a"/><use href="#c3c-leaf" transform="translate(293.7,115.1) rotate(356.6) scale(0.8)" fill="#2a8a6a"/><use href="#c3c-leaf" transform="translate(82.9,181.6) rotate(44.3) scale(0.9)" fill="#3ac08a"/></g>
<g><circle cx="171.6" cy="161.2" r="2.7" fill="#b8ff9a" opacity="0.15"/><circle cx="171.6" cy="161.2" r="1" fill="#b8ff9a" opacity="0.9"/><circle cx="368.1" cy="188.2" r="3.4" fill="#6ae8f0" opacity="0.15"/><circle cx="368.1" cy="188.2" r="1.2" fill="#6ae8f0" opacity="0.7"/><circle cx="318.9" cy="39.5" r="3" fill="#b8ff9a" opacity="0.15"/><circle cx="318.9" cy="39.5" r="1.1" fill="#b8ff9a" opacity="0.6"/><circle cx="330.3" cy="180.4" r="2.9" fill="#d8fff0" opacity="0.15"/><circle cx="330.3" cy="180.4" r="1" fill="#d8fff0" opacity="0.9"/><circle cx="77.4" cy="173.7" r="3.2" fill="#6ae8f0" opacity="0.15"/><circle cx="77.4" cy="173.7" r="1.1" fill="#6ae8f0" opacity="0.9"/><circle cx="300.8" cy="198.3" r="3" fill="#d8fff0" opacity="0.15"/><circle cx="300.8" cy="198.3" r="1.1" fill="#d8fff0" opacity="0.9"/><circle cx="44.6" cy="110.6" r="1.2" fill="#d8fff0" opacity="0.15"/><circle cx="44.6" cy="110.6" r="0.4" fill="#d8fff0" opacity="0.9"/><circle cx="99.1" cy="64.9" r="1.8" fill="#d8fff0" opacity="0.15"/><circle cx="99.1" cy="64.9" r="0.6" fill="#d8fff0" opacity="0.8"/><circle cx="22.4" cy="183.3" r="1.9" fill="#b8ff9a" opacity="0.15"/><circle cx="22.4" cy="183.3" r="0.7" fill="#b8ff9a" opacity="0.9"/><circle cx="298.8" cy="44.8" r="3.4" fill="#8affd8" opacity="0.15"/><circle cx="298.8" cy="44.8" r="1.2" fill="#8affd8" opacity="0.7"/><circle cx="70" cy="170.4" r="2" fill="#8affd8" opacity="0.15"/><circle cx="70" cy="170.4" r="0.7" fill="#8affd8" opacity="0.6"/><circle cx="308.2" cy="247.3" r="2.5" fill="#d8fff0" opacity="0.15"/><circle cx="308.2" cy="247.3" r="0.9" fill="#d8fff0" opacity="0.7"/><circle cx="135.2" cy="54.8" r="2.1" fill="#6ae8f0" opacity="0.15"/><circle cx="135.2" cy="54.8" r="0.8" fill="#6ae8f0" opacity="0.9"/><circle cx="86.5" cy="99.4" r="1.2" fill="#d8fff0" opacity="0.15"/><circle cx="86.5" cy="99.4" r="0.4" fill="#d8fff0" opacity="0.9"/><circle cx="236.3" cy="265.7" r="3" fill="#8affd8" opacity="0.15"/><circle cx="236.3" cy="265.7" r="1.1" fill="#8affd8" opacity="1"/><circle cx="363" cy="241.3" r="2.5" fill="#8affd8" opacity="0.15"/><circle cx="363" cy="241.3" r="0.9" fill="#8affd8" opacity="0.6"/><circle cx="208.9" cy="122.2" r="3.3" fill="#d8fff0" opacity="0.15"/><circle cx="208.9" cy="122.2" r="1.2" fill="#d8fff0" opacity="0.9"/><circle cx="247.4" cy="111.1" r="2.3" fill="#b8ff9a" opacity="0.15"/><circle cx="247.4" cy="111.1" r="0.8" fill="#b8ff9a" opacity="0.7"/><circle cx="93.8" cy="180.3" r="3.8" fill="#6ae8f0" opacity="0.15"/><circle cx="93.8" cy="180.3" r="1.3" fill="#6ae8f0" opacity="0.9"/><circle cx="84.5" cy="133.1" r="3.3" fill="#b8ff9a" opacity="0.15"/><circle cx="84.5" cy="133.1" r="1.2" fill="#b8ff9a" opacity="0.7"/><circle cx="232.2" cy="212.1" r="3.5" fill="#8affd8" opacity="0.15"/><circle cx="232.2" cy="212.1" r="1.2" fill="#8affd8" opacity="0.9"/><circle cx="251" cy="119.7" r="1.6" fill="#d8fff0" opacity="0.15"/><circle cx="251" cy="119.7" r="0.6" fill="#d8fff0" opacity="0.9"/><circle cx="186.3" cy="37.2" r="3.4" fill="#d8fff0" opacity="0.15"/><circle cx="186.3" cy="37.2" r="1.2" fill="#d8fff0" opacity="0.8"/><circle cx="279.5" cy="193.2" r="3.8" fill="#6ae8f0" opacity="0.15"/><circle cx="279.5" cy="193.2" r="1.4" fill="#6ae8f0" opacity="0.7"/><circle cx="358.7" cy="29.4" r="2.1" fill="#6ae8f0" opacity="0.15"/><circle cx="358.7" cy="29.4" r="0.8" fill="#6ae8f0" opacity="0.8"/><circle cx="218.1" cy="168" r="3.1" fill="#d8fff0" opacity="0.15"/><circle cx="218.1" cy="168" r="1.1" fill="#d8fff0" opacity="0.7"/><circle cx="269.6" cy="221.6" r="2.7" fill="#d8fff0" opacity="0.15"/><circle cx="269.6" cy="221.6" r="1" fill="#d8fff0" opacity="0.7"/><circle cx="142.6" cy="54.9" r="2.9" fill="#6ae8f0" opacity="0.15"/><circle cx="142.6" cy="54.9" r="1" fill="#6ae8f0" opacity="0.9"/><circle cx="177.3" cy="136.3" r="3.3" fill="#6ae8f0" opacity="0.15"/><circle cx="177.3" cy="136.3" r="1.2" fill="#6ae8f0" opacity="0.9"/><circle cx="111.5" cy="26.8" r="3.8" fill="#8affd8" opacity="0.15"/><circle cx="111.5" cy="26.8" r="1.4" fill="#8affd8" opacity="0.9"/><circle cx="105.6" cy="233.3" r="3" fill="#6ae8f0" opacity="0.15"/><circle cx="105.6" cy="233.3" r="1.1" fill="#6ae8f0" opacity="1"/><circle cx="313.7" cy="72.8" r="2.5" fill="#8affd8" opacity="0.15"/><circle cx="313.7" cy="72.8" r="0.9" fill="#8affd8" opacity="0.8"/><circle cx="59.3" cy="95.1" r="3.4" fill="#8affd8" opacity="0.15"/><circle cx="59.3" cy="95.1" r="1.2" fill="#8affd8" opacity="0.6"/><circle cx="173.9" cy="216.9" r="1.2" fill="#d8fff0" opacity="0.15"/><circle cx="173.9" cy="216.9" r="0.4" fill="#d8fff0" opacity="0.6"/><circle cx="311.5" cy="230.2" r="1.6" fill="#b8ff9a" opacity="0.15"/><circle cx="311.5" cy="230.2" r="0.6" fill="#b8ff9a" opacity="0.9"/></g>
<path d="M0,272 C80,262 150,276 220,268 C290,260 350,274 400,266 L400,300 L0,300Z" fill="#6ac8b0" opacity="0.18" filter="url(#c3c-blur3)"/>
<rect width="400" height="300" fill="url(#c3c-vig)"/>
</svg>