<svg xmlns="http://www.w3.org/2000/svg" viewBox="0 0 400 300" width="400" height="300">
<defs>
<linearGradient id="c6c-sky" x1="0" y1="0" x2="0" y2="1">
<stop offset="0" stop-color="#02040e"/><stop offset=".35" stop-color="#081a38"/><stop offset=".7" stop-color="#1a4a78"/><stop offset="1" stop-color="#6aa6cc"/></linearGradient>
<linearGradient id="c6c-aur1" x1="0" y1="0" x2="0" y2="1">
<stop offset="0" stop-color="#7a4aff" stop-opacity="0"/><stop offset=".3" stop-color="#7a6aff" stop-opacity=".45"/><stop offset=".6" stop-color="#3affc0" stop-opacity=".7"/><stop offset="1" stop-color="#2affa0" stop-opacity="0"/></linearGradient>
<linearGradient id="c6c-aur2" x1="0" y1="0" x2="0" y2="1">
<stop offset="0" stop-color="#ff5ae0" stop-opacity="0"/><stop offset=".4" stop-color="#b06aff" stop-opacity=".35"/><stop offset=".75" stop-color="#40e8ff" stop-opacity=".55"/><stop offset="1" stop-color="#40e8ff" stop-opacity="0"/></linearGradient>
<radialGradient id="c6c-moon" cx="344" cy="40" r="60" gradientUnits="userSpaceOnUse">
<stop offset="0" stop-color="#ffffff"/><stop offset=".12" stop-color="#e8f6ff"/><stop offset=".22" stop-color="#b0dcff" stop-opacity=".5"/><stop offset="1" stop-color="#6ab0ff" stop-opacity="0"/></radialGradient>
<linearGradient id="c6c-far" x1="0" y1="0" x2="0" y2="1">
<stop offset="0" stop-color="#cfe8ff"/><stop offset=".4" stop-color="#7aaad0"/><stop offset="1" stop-color="#3a6a98"/></linearGradient>
<linearGradient id="c6c-glacier" x1="0" y1="0" x2="0" y2="1">
<stop offset="0" stop-color="#eaf8ff"/><stop offset=".12" stop-color="#a8d8f4"/><stop offset=".5" stop-color="#3a86c0"/><stop offset="1" stop-color="#0c2a52"/></linearGradient>
<linearGradient id="c6c-gface" x1="0" y1="0" x2="1" y2="0">
<stop offset="0" stop-color="#1a4a80"/><stop offset=".5" stop-color="#5aaee0"/><stop offset="1" stop-color="#0e2e5a"/></linearGradient>
<linearGradient id="c6c-body" x1="0" y1="50" x2="0" y2="215" gradientUnits="userSpaceOnUse">
<stop offset="0" stop-color="#f4fcff"/><stop offset=".3" stop-color="#a8dcf8"/><stop offset=".65" stop-color="#5a9ad0"/><stop offset="1" stop-color="#1e4a80"/></linearGradient>
<linearGradient id="c6c-belly" x1="0" y1="0" x2="0" y2="1">
<stop offset="0" stop-color="#ffffff"/><stop offset=".5" stop-color="#cdeeff"/><stop offset="1" stop-color="#7ab4dc"/></linearGradient>
<linearGradient id="c6c-memb" x1="0" y1="0" x2=".3" y2="1">
<stop offset="0" stop-color="#bff0ff" stop-opacity=".9"/><stop offset=".3" stop-color="#4aa0d8" stop-opacity=".8"/><stop offset=".7" stop-color="#1a4a8a" stop-opacity=".88"/><stop offset="1" stop-color="#0a2254"/></linearGradient>
<linearGradient id="c6c-membfar" x1="0" y1="0" x2="0" y2="1">
<stop offset="0" stop-color="#6aa8d8"/><stop offset=".6" stop-color="#244e88"/><stop offset="1" stop-color="#0e2450"/></linearGradient>
<linearGradient id="c6c-bone" x1="0" y1="0" x2="0" y2="1">
<stop offset="0" stop-color="#ffffff"/><stop offset=".5" stop-color="#9ad4f4"/><stop offset="1" stop-color="#3a74b0"/></linearGradient>
<linearGradient id="c6c-arm" x1="0" y1="0" x2="1" y2="1">
<stop offset="0" stop-color="#e8f8ff"/><stop offset=".5" stop-color="#6aaee0"/><stop offset="1" stop-color="#1a4280"/></linearGradient>
<linearGradient id="c6c-crys" x1="0" y1="0" x2="1" y2="1">
<stop offset="0" stop-color="#ffffff"/><stop offset=".4" stop-color="#b8f0ff"/><stop offset="1" stop-color="#3ab0e8"/></linearGradient>
<linearGradient id="c6c-side" x1="0" y1="0" x2="260" y2="0" gradientUnits="userSpaceOnUse">
<stop offset="0" stop-color="#040e28" stop-opacity=".7"/><stop offset=".55" stop-color="#040e28" stop-opacity=".35"/><stop offset=".8" stop-color="#040e28" stop-opacity="0"/></linearGradient>
<linearGradient id="c6c-deep" x1="0" y1="0" x2="0" y2="1">
<stop offset="0" stop-color="#041a40" stop-opacity="0"/><stop offset="1" stop-color="#041a40" stop-opacity=".7"/></linearGradient>
<linearGradient id="c6c-crysd" x1="0" y1="0" x2="1" y2="1">
<stop offset="0" stop-color="#6ad0f8"/><stop offset="1" stop-color="#1a5a9a"/></linearGradient>
<linearGradient id="c6c-head" x1="0" y1="0" x2="0" y2="1">
<stop offset="0" stop-color="#f0faff"/><stop offset=".45" stop-color="#8ac8ee"/><stop offset="1" stop-color="#2a5e9a"/></linearGradient>
<radialGradient id="c6c-eye" cx=".5" cy=".5" r=".6">
<stop offset="0" stop-color="#ffffff"/><stop offset=".35" stop-color="#b8fbff"/><stop offset=".8" stop-color="#30c8ff"/><stop offset="1" stop-color="#0a5ab0"/></radialGradient>
<radialGradient id="c6c-mouth" cx=".2" cy=".5" r=".8">
<stop offset="0" stop-color="#ffffff"/><stop offset=".4" stop-color="#bff4ff"/><stop offset=".8" stop-color="#4ab0e8"/><stop offset="1" stop-color="#1a3a70"/></radialGradient>
<radialGradient id="c6c-vig" cx="200" cy="130" r="250" gradientUnits="userSpaceOnUse">
<stop offset=".55" stop-color="#000" stop-opacity="0"/><stop offset="1" stop-color="#010412" stop-opacity=".8"/></radialGradient>
<filter id="c6c-soft" x="-30%" y="-40%" width="160%" height="180%"><feGaussianBlur stdDeviation="3"/></filter>
<filter id="c6c-blur6" x="-50%" y="-50%" width="200%" height="200%"><feGaussianBlur stdDeviation="6"/></filter>
<filter id="c6c-glow" x="-50%" y="-50%" width="200%" height="200%"><feGaussianBlur stdDeviation="1.4" result="b"/><feMerge><feMergeNode in="b"/><feMergeNode in="SourceGraphic"/></feMerge></filter>
<filter id="c6c-blur1" x="-20%" y="-20%" width="140%" height="140%"><feGaussianBlur stdDeviation="1"/></filter>
<filter id="c6c-grain" x="0" y="0" width="100%" height="100%"><feTurbulence type="fractalNoise" baseFrequency=".85" numOctaves="2" seed="5"/><feColorMatrix values="1 0 0 0 0  1 0 0 0 0  1 0 0 0 0  0 0 0 0 1"/></filter>

<pattern id="c6c-sc" width="5.2" height="5.9" patternUnits="userSpaceOnUse"><path d="M-5.2 -5.9c.5 4.8 4.7 4.8 5.2 0M0 -5.9c.5 4.8 4.7 4.8 5.2 0M5.2 -5.9c.5 4.8 4.7 4.8 5.2 0M-7.8 -3c.5 4.8 4.7 4.8 5.2 0M-2.6 -3c.5 4.8 4.7 4.8 5.2 0M2.6 -3c.5 4.8 4.7 4.8 5.2 0M-5.2 0c.5 4.8 4.7 4.8 5.2 0M0 0c.5 4.8 4.7 4.8 5.2 0M5.2 0c.5 4.8 4.7 4.8 5.2 0M-7.8 3c.5 4.8 4.7 4.8 5.2 0M-2.6 3c.5 4.8 4.7 4.8 5.2 0M2.6 3c.5 4.8 4.7 4.8 5.2 0M-5.2 5.9c.5 4.8 4.7 4.8 5.2 0M0 5.9c.5 4.8 4.7 4.8 5.2 0M5.2 5.9c.5 4.8 4.7 4.8 5.2 0" fill="none" stroke="#1a3e70" stroke-width="0.45" opacity="0.38"/><path d="M-3.9 -3.9q1.3 1.7 2.6 0M1.3 -3.9q1.3 1.7 2.6 0M6.5 -3.9q1.3 1.7 2.6 0M-6.5 -.9q1.3 1.7 2.6 0M-1.3 -.9q1.3 1.7 2.6 0M3.9 -.9q1.3 1.7 2.6 0M-3.9 2q1.3 1.7 2.6 0M1.3 2q1.3 1.7 2.6 0M6.5 2q1.3 1.7 2.6 0M-6.5 5q1.3 1.7 2.6 0M-1.3 5q1.3 1.7 2.6 0M3.9 5q1.3 1.7 2.6 0M-3.9 8q1.3 1.7 2.6 0M1.3 8q1.3 1.7 2.6 0M6.5 8q1.3 1.7 2.6 0" fill="none" stroke="#ffffff" stroke-width="0.4" opacity="0.4"/></pattern>
<pattern id="c6c-scs" width="4" height="4.6" patternUnits="userSpaceOnUse"><path d="M-4 -4.6c.4 3.8 3.6 3.8 4 0M0 -4.6c.4 3.8 3.6 3.8 4 0M4 -4.6c.4 3.8 3.6 3.8 4 0M-6 -2.3c.4 3.8 3.6 3.8 4 0M-2 -2.3c.4 3.8 3.6 3.8 4 0M2 -2.3c.4 3.8 3.6 3.8 4 0M-4 0c.4 3.8 3.6 3.8 4 0M0 0c.4 3.8 3.6 3.8 4 0M4 0c.4 3.8 3.6 3.8 4 0M-6 2.3c.4 3.8 3.6 3.8 4 0M-2 2.3c.4 3.8 3.6 3.8 4 0M2 2.3c.4 3.8 3.6 3.8 4 0M-4 4.6c.4 3.8 3.6 3.8 4 0M0 4.6c.4 3.8 3.6 3.8 4 0M4 4.6c.4 3.8 3.6 3.8 4 0" fill="none" stroke="#1a3e70" stroke-width="0.4" opacity="0.35"/><path d="M-3 -3q1 1.3 2 0M1 -3q1 1.3 2 0M5 -3q1 1.3 2 0M-5 -.7q1 1.3 2 0M-1 -.7q1 1.3 2 0M3 -.7q1 1.3 2 0M-3 1.6q1 1.3 2 0M1 1.6q1 1.3 2 0M5 1.6q1 1.3 2 0M-5 3.9q1 1.3 2 0M-1 3.9q1 1.3 2 0M3 3.9q1 1.3 2 0M-3 6.2q1 1.3 2 0M1 6.2q1 1.3 2 0M5 6.2q1 1.3 2 0" fill="none" stroke="#ffffff" stroke-width="0.3" opacity="0.4"/></pattern>
<clipPath id="c6c-bclip"><path d="M226 58 C200 56 186 72 184 90 C182 104 176 110 166 116 L204 158 C212 140 212 122 220 110 C228 102 236 100 242 96 ZM172 110 C150 122 118 144 100 164 C90 180 102 200 122 204 C150 208 188 190 206 168 C216 154 214 134 200 120 C192 112 182 108 172 110 ZM104 164 C80 174 50 184 30 198 C16 208 12 222 22 232 C20 218 30 212 44 208 C70 202 100 206 122 204 Z"/></clipPath>
<clipPath id="c6c-nwclip"><path d="M128 40Q105.1 20.7 76 14C85.3 27.2 68.5 41.6 34 50Q80.3 38 128 40ZM128 40Q80.3 38 34 50C61.6 55.1 60 76.7 30 104Q75.2 66.1 128 40ZM128 40Q75.2 66.1 30 104C64.5 91.4 78.1 109 64 148Q90 90.4 128 40ZM128 40Q90 90.4 64 148Q105.6 119.8 128 160L176 124Q150 76 150 76L128 40Z"/></clipPath>
<clipPath id="c6c-fwclip"><path d="M206 30Q216.1 13.4 234 6C230.1 14.4 242.1 17.6 264 14Q233.4 16.2 206 30ZM206 30Q233.4 16.2 264 14C248.7 22.1 254.3 30.9 278 36Q242.5 27 206 30ZM206 30Q242.5 27 278 36C252.8 36.9 243.2 44.1 254 54Q232.7 36.6 206 30ZM206 30Q232.7 36.6 254 54Q222.8 67.1 206 112L194 116Q206 72 206 72L206 30Z"/></clipPath>
</defs>
<rect width="400" height="300" fill="url(#c6c-sky)"/>
<g fill="#ffffff"><circle cx="97.3" cy="83.5" r=".5" opacity=".7"/><circle cx="249.3" cy="13.6" r=".3" opacity=".9"/><circle cx="105.7" cy="38.2" r=".9" opacity=".6"/><circle cx="331.9" cy="73.5" r=".7" opacity=".4"/><circle cx="252.9" cy="130.7" r=".6" opacity=".8"/><circle cx="267.2" cy="13.3" r=".7" opacity=".7"/><circle cx="122.1" cy="8.5" r=".8" opacity=".6"/><circle cx="285.8" cy="132.3" r=".7" opacity=".9"/><circle cx="158.8" cy="120.9" r=".5" opacity="1"/><circle cx="348.5" cy="18.2" r=".3" opacity=".5"/><circle cx="382.5" cy="67.7" r=".7" opacity=".5"/><circle cx="202.8" cy="60.3" r=".5" opacity=".7"/><circle cx="233" cy="136" r=".7" opacity="1"/><circle cx="339.7" cy="148.7" r=".7" opacity=".4"/><circle cx="341.4" cy="144.8" r=".8" opacity=".7"/><circle cx="283.8" cy="34.8" r=".8" opacity=".7"/><circle cx="115.7" cy="13.3" r=".8" opacity="1"/><circle cx="38.7" cy="120.9" r=".5" opacity=".4"/><circle cx="119.2" cy="116.2" r=".8" opacity=".3"/><circle cx="244.9" cy="10.6" r=".7" opacity=".5"/><circle cx="349.3" cy="147.2" r=".6" opacity="1"/><circle cx="125.4" cy="15.2" r=".6" opacity=".3"/><circle cx="81.4" cy="63.6" r=".6" opacity=".4"/><circle cx="20.6" cy="130.7" r=".5" opacity="1"/><circle cx="355.5" cy="59.2" r=".5" opacity=".7"/><circle cx="256.4" cy="91" r=".6" opacity=".7"/><circle cx="372.7" cy="78" r=".5" opacity=".8"/><circle cx="97.2" cy="48" r=".9" opacity=".7"/><circle cx="219" cy="5.7" r=".5" opacity=".7"/><circle cx="11.9" cy="93.9" r=".7" opacity=".3"/><circle cx="249.9" cy="72.1" r=".7" opacity=".5"/><circle cx="281.1" cy="111.8" r=".3" opacity=".3"/><circle cx="269" cy="144.6" r=".4" opacity=".6"/><circle cx="236.3" cy="50.7" r=".5" opacity=".5"/><circle cx="148.7" cy="91" r=".4" opacity=".6"/><circle cx="306.7" cy="7.9" r=".6" opacity=".8"/><circle cx="125.5" cy="36.5" r=".8" opacity=".5"/><circle cx="77.5" cy="67.5" r=".7" opacity=".4"/><circle cx="130.2" cy="52.7" r=".8" opacity=".6"/><circle cx="339.4" cy="28.7" r=".5" opacity=".8"/><circle cx="350.9" cy="69.9" r=".4" opacity=".4"/><circle cx="211.6" cy="31.9" r=".8" opacity=".9"/><circle cx="76" cy="44.7" r=".8" opacity=".7"/><circle cx="320.1" cy="54.4" r=".3" opacity=".5"/><circle cx="315.2" cy="43.6" r=".5" opacity=".6"/><circle cx="168.6" cy="63.8" r=".8" opacity=".4"/><circle cx="5.8" cy="141.7" r=".8" opacity="1"/><circle cx="174.3" cy="142.7" r=".9" opacity=".5"/><circle cx="296.2" cy="126.2" r=".7" opacity=".7"/><circle cx="117.3" cy="53.8" r=".4" opacity=".3"/><circle cx="234.8" cy="45.9" r=".8" opacity=".3"/><circle cx="358.2" cy="105.3" r=".9" opacity=".9"/><circle cx="356.7" cy="88.2" r=".3" opacity=".8"/><circle cx="71.4" cy="47.8" r=".7" opacity=".7"/><circle cx="166.2" cy="141.1" r=".6" opacity=".5"/><circle cx="103" cy="129.8" r=".6" opacity=".8"/><circle cx="141.9" cy="32.8" r=".6" opacity=".9"/><circle cx="71.2" cy="119.6" r=".8" opacity=".9"/><circle cx="326.8" cy="5.1" r=".7" opacity=".9"/><circle cx="23.6" cy="43.6" r=".4" opacity=".7"/><circle cx="169.8" cy="73" r=".8" opacity=".3"/><circle cx="25.5" cy="22.5" r=".3" opacity=".3"/><circle cx="386.1" cy="128.7" r=".3" opacity=".7"/><circle cx="127.8" cy="49.9" r=".5" opacity=".8"/><circle cx="234" cy="56.7" r=".4" opacity=".5"/><circle cx="52.5" cy="85.1" r=".7" opacity=".6"/><circle cx="35.3" cy="30.1" r=".5" opacity=".7"/><circle cx="310.8" cy="59.5" r=".8" opacity=".7"/><circle cx="173.2" cy="58.4" r=".6" opacity=".8"/><circle cx="168.8" cy="105.3" r=".5" opacity=".5"/><circle cx="214" cy="105.5" r=".3" opacity=".6"/><circle cx="170.9" cy="132.4" r=".9" opacity=".6"/><circle cx="356" cy="119.5" r=".4" opacity=".6"/><circle cx="52.3" cy="122.7" r=".7" opacity=".9"/><circle cx="314.6" cy="101.5" r=".7" opacity=".7"/><circle cx="44.4" cy="89.8" r=".3" opacity=".4"/><circle cx="307.5" cy="10.5" r=".3" opacity=".4"/><circle cx="349.1" cy="30.2" r=".3" opacity=".9"/><circle cx="51.5" cy="127.2" r=".7" opacity=".9"/><circle cx="377.3" cy="88.5" r=".8" opacity=".3"/><circle cx="304.8" cy="78.7" r=".7" opacity=".4"/><circle cx="297.6" cy="140.4" r=".3" opacity=".5"/><circle cx="225.1" cy="124.9" r=".4" opacity=".4"/><circle cx="102" cy="93.9" r=".7" opacity=".6"/><circle cx="148" cy="61.9" r=".5" opacity=".6"/><circle cx="36.6" cy="77" r=".9" opacity=".6"/><circle cx="297" cy="27.5" r=".7" opacity=".8"/><circle cx="268.2" cy="79.5" r=".6" opacity=".8"/><circle cx="355.8" cy="25.8" r=".3" opacity=".8"/><circle cx="363.3" cy="79.5" r=".5" opacity=".8"/></g>
<path d="M-10 40C1.7 36.7 36.7 19.3 60 20C83.3 20.7 106.7 43.3 130 44C153.3 44.7 176.7 23 200 24C223.3 25 246.7 49.3 270 50C293.3 50.7 316.7 28.7 340 28C363.3 27.3 398.3 43 410 46L410 116C398.3 113 363.3 97.3 340 98C316.7 98.7 293.3 120.7 270 120C246.7 119.3 223.3 95 200 94C176.7 93 153.3 114.7 130 114C106.7 113.3 83.3 90.7 60 90C36.7 89.3 1.7 106.7 -10 110Z" fill="url(#c6c-aur1)" opacity="0.95" filter="url(#c6c-soft)"/><path d="M46.4 30.9l1.1 63.6M97.1 39.7l-.2 48.8M263.7 54.6l-1.6 61.1M1.9 43.6l-.3 63.1M310.2 44.4l-.2 28.1M293 49.8l1.8 37.6M368.6 42.4l-1.9 29.3M217.4 37.5l-.5 67.4M81 34.2l-1.9 45.7M83.1 34.9l0 46.4M87.9 36.6l-1.1 37.7M183 35.8l-1.9 40.2M341.8 35.5l.6 51.4M68.1 29.8l1.4 69.7M40.8 32.5l.9 42M288.7 51.1l-.3 67.3M338.6 35.4l-.8 56.2M236.8 44.7l1.4 65.1M202.2 31.8l-1.9 52.7M92 38l-.3 61.5M62.7 27.9l.8 51M273.3 56l-.2 43.7M203.5 32.3l.1 60.7M155.2 43.8l-1.9 48.6M8.3 41.8l1.9 57.5M239.1 45.5l-1.3 44.5M200.9 31.3l1.1 69.2M216.6 37.2l-1.1 64.1M205.8 33.1l.3 68M182.8 35.9l.2 39.3M392 48.4l1.1 28.2M334.6 36.7l1 65.2M329.8 38.2l.2 49.8M169 39.9l1.5 30.4M229.4 41.9l0 36.4M193.7 32.8l-.6 43M216.2 37l.4 54.2M182.4 36l-1.1 29.2M64.4 28.5l1.4 52.5M325.3 39.6l1.3 61.5M97.2 39.8l.7 63.4M25 37l-1.9 28.7M307.3 45.3l-1.6 38.5M252.4 50.5l-1.7 42.5M57 27.8l-1.3 50.1M104.6 42.3l-.2 57.9M125.2 49.4l-1.9 47.9M152.4 44.6l-1.2 45.7M35.7 33.9l0 65.8M77.8 33.1l1.3 53.4M-1.3 44.5l-1.4 28.8M291.9 50.1l.8 34.7M274.8 55.5l-1.1 50.9M399.7 50.4l.1 61.5M83.7 35.1l-.4 55.2M231.9 42.8l.5 41.5M14.7 39.9l1.9 40.5M357.7 39.6l1.4 40.9M120.4 47.7l1 67.5M164.8 41.1l-2 38.6M359.1 39.9l1.3 29.6M394.1 48.9l-1.3 52M354.5 38.7l.8 68.9M203.7 32.4l-.6 43.9M76.4 32.6l-.3 56.3M71.5 31l.7 32.4M114.4 45.6l-.7 49M356.1 39.1l-1.9 65.8M74.4 31.9l1.9 41.8M318.7 41.7l-1.1 42.2" stroke="#b8ffe8" stroke-width="1.0" opacity="0.43" filter="url(#c6c-blur1)"/>
<path d="M-10 80C5 77.3 53.3 62.7 80 64C106.7 65.3 125 87 150 88C175 89 203.3 69.3 230 70C256.7 70.7 280 91.7 310 92C340 92.3 393.3 75.3 410 72L410 122C393.3 125.3 340 142.3 310 142C280 141.7 256.7 120.7 230 120C203.3 119.3 175 139 150 138C125 137 106.7 115.3 80 114C53.3 112.7 5 127.3 -10 130Z" fill="url(#c6c-aur2)" opacity="0.8" filter="url(#c6c-soft)"/><path d="M388 81.4l-1.8 48.4M28.2 78.2l.9 45.1M257.9 82.7l.4 29.2M232.7 75.7l-1.4 37.4M162.3 90.2l.9 31.8M407.4 77.5l.2 48.5M167.9 89l-1.9 28M2.4 82.8l-.7 33.9M143 90.6l.1 46.8M214.2 78.6l-1.9 27.1M123.8 84l0 24.1M409.3 77.1l-1.3 40.2M356.8 87.6l.9 43.9M363.3 86.3l1.2 42.9M133.8 87.5l1.8 49.4M62.5 72.1l.9 42.6M174.6 87.5l0 35.9M372.4 84.5l1.3 35M133.9 87.5l1.6 46.5M174.4 87.5l1.7 37M279.5 88.6l-1.1 34.6M123.6 84l-1.3 41M364 86.2l1.6 28M118.3 82.1l.8 48.7M191.7 83.6l.6 35.5M225.2 76.1l-1.2 29.4M194.8 82.9l.5 48M23.9 79l.9 44.6M363.8 86.2l1 25.7M16.4 80.3l-.9 39.6M89.3 72.2l-1.6 46.3M198.9 82l-1 45.6M83.7 70.3l-.3 46.4M276.8 87.9l-.6 21M67.3 71.2l-1.7 40.2M387.3 81.5l.9 20.8M-.5 83.3l1.3 27.7M60.7 72.4l.8 25.5M144.9 91.3l2 21.3M58.1 72.9l-.6 21.1M236.1 76.7l-1.5 42.3M128 85.5l-.2 20.9M296.4 93.3l1.6 42.2M292.3 92.1l.8 45.9M179.1 86.4l.6 26.8M120.7 83l-.2 23.1M347.4 89.5l.3 23.8M147.5 92.2l-1.4 35.4M389.9 81l.4 27.8M157.9 91.2l.2 20.5M53.3 73.8l-1.9 21.7M62.5 72.1l.5 22.9M193.3 83.3l1.7 49.5M407.3 77.5l-.2 27M97.8 75.1l.5 37.7M310.1 97l-1 41.3M159.2 90.9l-2 35.8M6 82.2l-1.6 32.3M279.5 88.6l-1.6 27.2M71.8 70.5l-1.1 26.9M198.3 82.1l-.8 33.9M246.7 79.6l1.6 26.4M391.6 80.7l-.3 41.9M194.6 83l-1.8 37.4M157.2 91.4l-1.3 35.8M32.2 77.5l-.5 44.1M197.7 82.3l.4 47.6M111.4 79.7l-.5 49.5M-1.4 83.5l-1.6 40.6M117.1 81.7l.7 45.2" stroke="#b8ffe8" stroke-width="0.6" opacity="0.36" filter="url(#c6c-blur1)"/>
<circle cx="344" cy="40" r="60" fill="url(#c6c-moon)"/>
<circle cx="344" cy="40" r="10" fill="#f4fbff"/><circle cx="340" cy="37" r="2.6" fill="#d8e8f4"/><circle cx="348" cy="44" r="1.8" fill="#d8e8f4"/><circle cx="347" cy="35" r="1.2" fill="#dde9f4"/>
<path d="M-5 190 L20 164 L34 172 L56 140 L74 158 L92 146 L120 178 L150 160 L172 138 L190 150 L214 124 L236 146 L260 132 L286 158 L310 140 L334 120 L356 142 L380 130 L405 150 L405 230 L-5 230 Z" fill="url(#c6c-far)" opacity=".75"/>
<path d="M56 140 L62 152 L58 150 L52 158 Z M172 138 L178 150 L172 148 L166 156 Z M214 124 L222 138 L216 136 L208 146 Z M334 120 L342 134 L336 132 L328 142 Z" fill="#ffffff" opacity=".8"/>
<path d="M56 140 L74 158 L66 190 L50 190 Z M214 124 L236 146 L226 190 L206 190 Z M334 120 L356 142 L350 190 L330 190 Z M172 138 L190 150 L182 190 L168 190 Z" fill="#2a5a8a" opacity=".4"/>
<rect x="-5" y="170" width="410" height="40" fill="#bfe0f4" opacity=".35" filter="url(#c6c-blur6)"/>
<path d="M250 300 L252 206 L266 196 L282 200 L300 188 L322 194 L340 184 L362 190 L384 180 L405 186 L405 300 Z" fill="url(#c6c-gface)" opacity=".85"/>
<path d="M252 206 L266 196 L282 200 L300 188 L322 194 L340 184 L362 190 L384 180 L405 186" fill="none" stroke="#ffffff" stroke-width="1.4" opacity=".8"/>
<path d="M261.6 199.7l-2.2 27.9l-3 27.1M280 196.8l.3 23.9l-2.8 23.9M292 200.5l1.4 16.5l-1.6 16.9M304.1 205.2l.5 26.4l-.7 33.4M314 198.9l1 25.6l-.5 16.3M329.7 198.1l-1.3 27l-1.8 37M349.8 196.5l-.7 21.9l-2.9 25M364.1 197.1l.6 15.9l.5 37.3M371 196.1l-2.5 22.6l-2.9 16.2M388 205.2l-.5 20.4l.8 16.4" fill="none" stroke="#0e2a58" stroke-width="1" opacity=".3"/>
<path d="M261.6 199.7l-2.2 27.9l-3 27.1M280 196.8l.3 23.9l-2.8 23.9M292 200.5l1.4 16.5l-1.6 16.9M304.1 205.2l.5 26.4l-.7 33.4M314 198.9l1 25.6l-.5 16.3M329.7 198.1l-1.3 27l-1.8 37M349.8 196.5l-.7 21.9l-2.9 25M364.1 197.1l.6 15.9l.5 37.3M371 196.1l-2.5 22.6l-2.9 16.2M388 205.2l-.5 20.4l.8 16.4" fill="none" stroke="#d8f4ff" stroke-width=".4" opacity=".5" transform="translate(1.2 0)"/>
<rect x="240" y="240" width="170" height="70" fill="#9ccbe8" opacity=".35" filter="url(#c6c-blur6)"/>
<path d="M-5 300 L-5 214 C30 208 70 214 110 210 C150 206 196 212 232 208 L252 212 C258 222 254 236 260 250 C256 262 262 280 256 300 Z" fill="url(#c6c-glacier)"/>
<path d="M252 212 C258 222 254 236 260 250 C256 262 262 280 256 300 L226 300 C232 280 226 258 232 236 Z" fill="#0e2a58" opacity=".45"/>
<path d="M-5 222.1L7.6 223L8.7 300L-3.9 300ZM7.6 222.8L30.3 223.9L30.4 300L7.7 300ZM54.1 221.7L78.1 221.7L74.4 300L50.4 300ZM89.9 223.6L101.9 224.9L101.6 300L89.6 300ZM101.9 219.1L119.7 222.3L116 300L98.2 300ZM142.2 221.5L164.4 220.2L166.2 300L144 300ZM164.4 219.2L187.6 222.5L191 300L167.8 300ZM187.6 220.7L203.5 224.7L202.5 300L186.7 300ZM203.5 218.6L213.9 222.5L215.6 300L205.2 300ZM231.8 221.7L250.7 220.8L248.1 300L229.2 300Z" fill="#bfe6ff" opacity=".22"/>
<path d="M30.3 220.2L40.4 218.6L41.1 300L31 300ZM40.4 219.4L54.1 223.4L50.4 300L36.7 300ZM78.1 223.7L89.9 222.6L88.9 300L77 300ZM119.7 219.3L142.2 222.6L145.9 300L123.4 300ZM213.9 221.3L231.8 220.6L233.7 300L215.9 300Z" fill="#06204a" opacity=".22"/>
<path d="M21 223l.7 19.6l-3.6 18.9M59.3 222.9l-1.4 19.9l4 11.9M98.5 227.7l-1.6 16.1l-3.7 15.9M136.1 225.5l1.6 10.9l-1.2 23.8M173 224.7l-.6 19.9l.6 10.3M213.6 224l-.4 12.1l-.4 15.2" fill="none" stroke="#0a2450" stroke-width="1.2" opacity=".6"/>
<path d="M21 223l.7 19.6l-3.6 18.9M59.3 222.9l-1.4 19.9l4 11.9M98.5 227.7l-1.6 16.1l-3.7 15.9M136.1 225.5l1.6 10.9l-1.2 23.8M173 224.7l-.6 19.9l.6 10.3M213.6 224l-.4 12.1l-.4 15.2" fill="none" stroke="#e8f8ff" stroke-width=".5" opacity=".6" transform="translate(1.3 0)"/>
<path d="M-5 226 L256 226 L260 300 L-5 300 Z" fill="url(#c6c-deep)"/>
<path d="M-5 214 C30 208 70 214 110 210 C150 206 196 212 232 208 L252 212 C240 218 226 214 212 218 C190 222 160 216 130 220 C100 222 60 218 30 222 C14 224 2 220 -5 222 Z" fill="#ffffff" opacity=".95"/>
<path d="M233.2 212l1.2 12.3l1.2 -12.3ZM235.8 213.2l1.2 13.8l1.2 -13.8ZM238.3 214.4l1.2 13.8l1.2 -13.8ZM242.4 215.6l1.2 11l1.2 -11ZM244.8 216.8l1.2 8.5l1.2 -8.5ZM247.5 218l1.2 10.3l1.2 -10.3ZM249.1 219.2l1.2 15.6l1.2 -15.6ZM252 220.4l1.2 9.7l1.2 -9.7ZM255.5 221.6l1.2 9.7l1.2 -9.7Z" fill="url(#c6c-crys)" opacity=".9"/>
<path d="M206 30Q216.1 13.4 234 6C230.1 14.4 242.1 17.6 264 14Q233.4 16.2 206 30Z" fill="url(#c6c-membfar)"/><path d="M206 30Q233.4 16.2 264 14C248.7 22.1 254.3 30.9 278 36Q242.5 27 206 30Z" fill="url(#c6c-membfar)"/><path d="M206 30Q233.4 16.2 264 14C248.7 22.1 254.3 30.9 278 36Q242.5 27 206 30Z" fill="#1a0206" opacity=".16"/><path d="M206 30Q242.5 27 278 36C252.8 36.9 243.2 44.1 254 54Q232.7 36.6 206 30Z" fill="url(#c6c-membfar)"/><path d="M206 30Q232.7 36.6 254 54Q222.8 67.1 206 112L194 116Q206 72 206 72L206 30Z" fill="url(#c6c-membfar)"/><path d="M206 30Q232.7 36.6 254 54Q222.8 67.1 206 112L194 116Q206 72 206 72L206 30Z" fill="#1a0206" opacity=".16"/><g clip-path="url(#c6c-fwclip)"><path d="M211 25.7Q209.8 27.2 206.1 35.5M209.8 27.2l.5 5.8M216.6 20.9Q207.8 27.4 206.4 35M207.8 27.4l-6 4.5M222.2 16.1Q217.8 22.8 219.3 34M217.8 22.8l1.8 8.7M227.8 11.3Q231.7 14 227.9 24M231.7 14l5 5.4M216.4 27.1Q210.6 34.4 207.9 36.5M210.6 34.4l-4.5 6.9M228 23.9Q229.1 26.7 229.4 36.4M229.1 26.7l-6.2 5M239.6 20.7Q239.2 28 241.8 33.9M239.2 28l-.7 5.5M251.2 17.5Q251.4 26.3 255.7 33.9M251.4 26.3l.4 8.4M219 31.1Q224.4 33.8 222.1 42.5M224.4 33.8l-1.1 7.8M233.4 32.3Q225.5 40.6 225 46.1M225.5 40.6l3.7 6.9M247.8 33.5Q252.4 40.1 253.8 45.2M252.4 40.1l1.1 6.3M262.2 34.7Q264.6 45.7 267.5 54M264.6 45.7l-6.2 7.5M214.6 34.3Q218 42.6 216.1 54.2M218 42.6l-1.6 7.3M224.2 39.1Q216.1 42.8 213.3 52.7M216.1 42.8l-6.2 7.8M233.8 43.9Q228.5 52.4 225 54.9M228.5 52.4l-5.9 6.2M243.4 48.7Q245.8 60.9 243 67.3M245.8 60.9l-3.1 6.1" fill="none" stroke="#0e2450" stroke-width=".7" opacity=".55"/><path d="M211 25.7Q209.8 27.2 206.1 35.5M209.8 27.2l.5 5.8M216.6 20.9Q207.8 27.4 206.4 35M207.8 27.4l-6 4.5M222.2 16.1Q217.8 22.8 219.3 34M217.8 22.8l1.8 8.7M227.8 11.3Q231.7 14 227.9 24M231.7 14l5 5.4M216.4 27.1Q210.6 34.4 207.9 36.5M210.6 34.4l-4.5 6.9M228 23.9Q229.1 26.7 229.4 36.4M229.1 26.7l-6.2 5M239.6 20.7Q239.2 28 241.8 33.9M239.2 28l-.7 5.5M251.2 17.5Q251.4 26.3 255.7 33.9M251.4 26.3l.4 8.4M219 31.1Q224.4 33.8 222.1 42.5M224.4 33.8l-1.1 7.8M233.4 32.3Q225.5 40.6 225 46.1M225.5 40.6l3.7 6.9M247.8 33.5Q252.4 40.1 253.8 45.2M252.4 40.1l1.1 6.3M262.2 34.7Q264.6 45.7 267.5 54M264.6 45.7l-6.2 7.5M214.6 34.3Q218 42.6 216.1 54.2M218 42.6l-1.6 7.3M224.2 39.1Q216.1 42.8 213.3 52.7M216.1 42.8l-6.2 7.8M233.8 43.9Q228.5 52.4 225 54.9M228.5 52.4l-5.9 6.2M243.4 48.7Q245.8 60.9 243 67.3M245.8 60.9l-3.1 6.1" fill="none" stroke="#8ac8f0" stroke-width=".3" opacity=".45" transform="translate(.5 -.5)"/><path d="M206 30Q216.1 13.4 234 6C230.1 14.4 242.1 17.6 264 14Q233.4 16.2 206 30ZM206 30Q233.4 16.2 264 14C248.7 22.1 254.3 30.9 278 36Q242.5 27 206 30ZM206 30Q242.5 27 278 36C252.8 36.9 243.2 44.1 254 54Q232.7 36.6 206 30ZM206 30Q232.7 36.6 254 54Q222.8 67.1 206 112L194 116Q206 72 206 72L206 30Z" fill="none" stroke="#1a0206" stroke-width="4" opacity=".5"/><path d="M206 30Q216.1 13.4 234 6" fill="none" stroke="#1a0206" stroke-width="6" opacity=".22"/><path d="M206 30Q233.4 16.2 264 14" fill="none" stroke="#1a0206" stroke-width="6" opacity=".22"/><path d="M206 30Q242.5 27 278 36" fill="none" stroke="#1a0206" stroke-width="6" opacity=".22"/><path d="M206 30Q232.7 36.6 254 54" fill="none" stroke="#1a0206" stroke-width="6" opacity=".22"/></g><path d="M234 6C230.1 14.4 242.1 17.6 264 14C248.7 22.1 254.3 30.9 278 36C252.8 36.9 243.2 44.1 254 54Q222.8 67.1 206 112" fill="none" stroke="#a8dcff" stroke-width=".8" opacity=".75"/><path d="M206 30Q216.1 13.4 234 6" fill="none" stroke="#1a0404" stroke-width="3.4" stroke-linecap="round"/><path d="M206 30Q216.1 13.4 234 6" fill="none" stroke="#6aa0d0" stroke-width="2" stroke-linecap="round"/><path d="M206 30Q216.1 13.4 234 6" fill="none" stroke="#cfeeff" stroke-width=".5" opacity=".8" transform="translate(0 -.7)"/><circle cx="214.3" cy="19.3" r="1.7" fill="#6aa0d0" stroke="#1a0404" stroke-width=".4"/><circle cx="224" cy="11.3" r="1.7" fill="#6aa0d0" stroke="#1a0404" stroke-width=".4"/><path d="M234.6 7.4Q240.1 5.1 240.9 4.6L233.4 4.6Z" fill="url(#c6c-crys)"/><path d="M206 30Q233.4 16.2 264 14" fill="none" stroke="#1a0404" stroke-width="3.4" stroke-linecap="round"/><path d="M206 30Q233.4 16.2 264 14" fill="none" stroke="#6aa0d0" stroke-width="2" stroke-linecap="round"/><path d="M206 30Q233.4 16.2 264 14" fill="none" stroke="#cfeeff" stroke-width=".5" opacity=".8" transform="translate(0 -.7)"/><circle cx="226.1" cy="21.6" r="1.7" fill="#6aa0d0" stroke="#1a0404" stroke-width=".4"/><circle cx="245.9" cy="16.4" r="1.7" fill="#6aa0d0" stroke="#1a0404" stroke-width=".4"/><path d="M264.1 15.5Q270.1 15.1 271.5 15L263.9 12.5Z" fill="url(#c6c-crys)"/><path d="M206 30Q242.5 27 278 36" fill="none" stroke="#1a0404" stroke-width="3.4" stroke-linecap="round"/><path d="M206 30Q242.5 27 278 36" fill="none" stroke="#6aa0d0" stroke-width="2" stroke-linecap="round"/><path d="M206 30Q242.5 27 278 36" fill="none" stroke="#cfeeff" stroke-width=".5" opacity=".8" transform="translate(0 -.7)"/><circle cx="232.1" cy="29.4" r="1.7" fill="#6aa0d0" stroke="#1a0404" stroke-width=".4"/><circle cx="256.6" cy="31.7" r="1.7" fill="#6aa0d0" stroke="#1a0404" stroke-width=".4"/><path d="M277.6 37.5Q283.4 38.9 285.3 39.3L278.4 34.5Z" fill="url(#c6c-crys)"/><path d="M206 30Q232.7 36.6 254 54" fill="none" stroke="#1a0404" stroke-width="3.4" stroke-linecap="round"/><path d="M206 30Q232.7 36.6 254 54" fill="none" stroke="#6aa0d0" stroke-width="2" stroke-linecap="round"/><path d="M206 30Q232.7 36.6 254 54" fill="none" stroke="#cfeeff" stroke-width=".5" opacity=".8" transform="translate(0 -.7)"/><circle cx="224.5" cy="36.2" r="1.7" fill="#6aa0d0" stroke="#1a0404" stroke-width=".4"/><circle cx="240.7" cy="44.5" r="1.7" fill="#6aa0d0" stroke="#1a0404" stroke-width=".4"/><path d="M253.1 55.2Q257.7 59 259.8 60.2L254.9 52.8Z" fill="url(#c6c-crys)"/><path d="M198.5 116.6Q209.6 72.5 208 30.3L204 29.7Q202.4 71.5 189.5 115.4Z" fill="#2a5a90" stroke="#1a0206" stroke-width=".8"/><path d="M190.4 115.5Q203.1 71.6 204.8 29.8" fill="none" stroke="#cfeeff" stroke-width="1.2" opacity=".9"/><path d="M206 72l-9.5 2.7l1.1 -7.9Z" fill="url(#c6c-crys)"/><path d="M204 30l-11.5 -4.6l4 1Z" fill="url(#c6c-crys)" stroke="#3a1608" stroke-width=".4"/><circle cx="206" cy="30" r="3.4" fill="#6aa0d0" stroke="#1a0404" stroke-width=".6"/>
<path d="M186 176 C192 188 190 198 184 206 L178 212 L194 214 L196 208 C200 198 202 186 198 172 Z" fill="#1e4476" stroke="#0a1a3a" stroke-width=".6"/>
<path d="M178 212 l-3 4 l5 -1 Z M183 213 l-1 5 l3 -4 Z M189 213 l1 5 l2 -5 Z" fill="url(#c6c-crys)"/>
<path d="M104 164 C80 174 50 184 30 198 C16 208 12 222 22 232 C20 218 30 212 44 208 C70 202 100 206 122 204 Z" fill="url(#c6c-body)" stroke="#0a1a3a" stroke-width=".8"/>
<path d="M172 110 C150 122 118 144 100 164 C90 180 102 200 122 204 C150 208 188 190 206 168 C216 154 214 134 200 120 C192 112 182 108 172 110 Z" fill="url(#c6c-body)" stroke="#0a1a3a" stroke-width=".8"/>
<path d="M226 58 C200 56 186 72 184 90 C182 104 176 110 166 116 L204 158 C212 140 212 122 220 110 C228 102 236 100 242 96 Z" fill="url(#c6c-body)"/>
<g clip-path="url(#c6c-bclip)">
<rect x="0" y="50" width="260" height="190" fill="url(#c6c-sc)"/>
<g fill="url(#c6c-belly)" stroke="#4a86b8" stroke-width=".5" opacity=".92"><path d="M234.6 91.7L239.5 100.4Q238.2 104.9 233.9 104.2L229 95.4Z"/><path d="M227.1 96.9L233.5 104.6Q232.6 109.5 227.9 109.9L221.5 102.2Z"/><path d="M219.9 103.8L227.4 110.4Q227 115.9 222.1 117.3L214.6 110.7Z"/><path d="M213.3 112.5L221.6 118.1Q221.5 123.9 216.5 126.5L208.3 120.9Z"/><path d="M207.2 122.8L216.1 127.4Q216.5 133.7 211.5 137.3L202.6 132.7Z"/><path d="M201.8 134.8L211.1 138.4Q211.9 145.3 207.2 149.9L197.8 146.3Z"/><path d="M197.2 148.5L206.8 151.2Q208.8 155.6 205 158.3L195.3 155.5Z"/><path d="M193.9 159.7L202.4 165Q202.1 170.3 196.8 172.5L188.3 167.2Z"/><path d="M188.5 166.8L196 173.5Q194.7 178.9 188.9 180.4L181.4 173.7Z"/><path d="M181.6 173.5L188 181.2Q185.7 186.6 179.6 187.3L173.2 179.7Z"/><path d="M173.2 179.6L178.5 188.1Q175.3 193.2 168.9 193.3L163.6 184.9Z"/><path d="M163.4 184.9L167.7 193.9Q163.7 198.8 157.1 198.2L152.9 189.2Z"/><path d="M152.6 189.2L155.8 198.7Q151 203.1 144.3 201.9L141.1 192.4Z"/><path d="M140.7 192.5L142.9 202.2Q137.4 206.2 130.7 204.3L128.5 194.5Z"/><path d="M128.1 194.5L129.2 204.4Q125.9 207.7 122.1 205L121 195.1Z"/><path d="M115.7 198.4L116.1 205.4Q110.9 208.6 105.5 205.9L105.1 198.9Z"/><path d="M103.9 199L104.3 206Q99.2 209.2 93.9 206.5L93.5 199.5Z"/><path d="M92.4 199.6L92.8 206.6Q87.9 209.9 82.6 207.2L82.3 200.2Z"/><path d="M81 200.3L81.6 207.3Q76.9 210.7 71.8 208.1L71.2 201.2Z"/><path d="M70 201.3L70.7 208.3Q66.3 211.8 61.3 209.4L60.6 202.4Z"/><path d="M59.3 202.6L60.3 209.5Q56.2 213.3 51.2 211.1L50.2 204.1Z"/><path d="M48.9 204.4L50.3 211.3Q46.6 215.2 41.7 213.3L40.3 206.5Z"/><path d="M38.9 206.8L40.8 213.6Q39.4 217.1 36.3 215L34.4 208.2Z"/></g>
<g fill="#ffffff" opacity=".6"><circle cx="114" cy="144" r=".8"/><circle cx="71.8" cy="64.5" r=".4"/><circle cx="56" cy="139.6" r=".9"/><circle cx="107" cy="122.8" r=".7"/><circle cx="36.9" cy="190.4" r=".7"/><circle cx="36.1" cy="74.7" r=".9"/><circle cx="163.8" cy="210.3" r=".3"/><circle cx="129.8" cy="202.1" r=".4"/><circle cx="77" cy="67.6" r=".7"/><circle cx="120.4" cy="65.9" r=".7"/><circle cx="170.3" cy="110.9" r=".8"/><circle cx="155.7" cy="143.8" r=".4"/><circle cx="202.6" cy="166" r=".5"/><circle cx="213.1" cy="66.8" r=".4"/><circle cx="23.4" cy="176.8" r=".7"/><circle cx="248.8" cy="115.3" r=".4"/><circle cx="98.2" cy="189.9" r=".7"/><circle cx="119.6" cy="67.4" r=".7"/><circle cx="61.3" cy="159.6" r=".8"/><circle cx="87.6" cy="160" r=".5"/><circle cx="83" cy="166.7" r=".7"/><circle cx="213.3" cy="188.8" r=".5"/><circle cx="80.4" cy="70.1" r=".6"/><circle cx="157.9" cy="144.7" r=".6"/><circle cx="89" cy="122.5" r=".6"/><circle cx="36.7" cy="99.1" r=".9"/><circle cx="37.1" cy="128.5" r=".7"/><circle cx="39.4" cy="199.9" r=".8"/><circle cx="142.7" cy="187.9" r=".4"/><circle cx="148.8" cy="71.3" r=".5"/><circle cx="52.1" cy="206.3" r=".5"/><circle cx="157.4" cy="141.8" r=".5"/><circle cx="134.2" cy="200.9" r=".3"/><circle cx="235.7" cy="165.9" r=".8"/><circle cx="241.4" cy="175.1" r=".7"/><circle cx="70.8" cy="167.2" r=".7"/><circle cx="91.6" cy="143" r=".4"/><circle cx="63.2" cy="62.4" r=".4"/><circle cx="135.3" cy="158.9" r=".5"/><circle cx="231.6" cy="157.9" r=".7"/><circle cx="94" cy="152" r=".5"/><circle cx="208.1" cy="62.5" r=".8"/><circle cx="23.7" cy="71.7" r=".6"/><circle cx="232.8" cy="84.4" r=".6"/><circle cx="224.1" cy="188.1" r=".4"/><circle cx="54.3" cy="100.8" r=".5"/><circle cx="171.8" cy="86.7" r=".4"/><circle cx="224.8" cy="133.2" r=".8"/><circle cx="221.9" cy="136.9" r=".5"/><circle cx="204.5" cy="103.2" r=".4"/><circle cx="130.5" cy="159.4" r=".4"/><circle cx="71.8" cy="126.6" r=".3"/><circle cx="236.9" cy="127.7" r=".3"/><circle cx="89.4" cy="86.8" r=".7"/><circle cx="94.6" cy="170.1" r=".8"/><circle cx="134.3" cy="60.8" r=".7"/><circle cx="170.1" cy="177.5" r=".5"/><circle cx="236.8" cy="86.2" r=".8"/><circle cx="237" cy="71.3" r=".5"/><circle cx="79.6" cy="198" r=".6"/></g>
<path d="M0 150 C60 190 140 200 210 170 L260 240 L0 240 Z" fill="#06142e" opacity=".35"/>
<rect x="0" y="50" width="260" height="190" fill="url(#c6c-side)"/>
<ellipse cx="236" cy="120" rx="20" ry="40" fill="#e8fbff" opacity=".35" filter="url(#c6c-blur6)"/>
</g>
<path d="M226 58 C200 56 186 72 184 90 C182 104 176 110 166 116 C150 122 118 144 100 164 C80 174 50 184 30 198" fill="none" stroke="#6affd0" stroke-width="1.1" opacity=".7"/>
<path d="M242 96 C230 102 212 122 204 158 C198 172 190 184 176 192" fill="none" stroke="#ffffff" stroke-width="1.8" opacity=".95"/>
<path d="M222.4 56.9L217.1 51.5L213.1 46.9L213.5 60.6ZM223.3 60.1L222.6 55.7L222.2 52.2L218.6 59.4ZM206.9 57.7L199 54.9L192.8 52.3L200.2 65.4ZM193.8 65L184.6 65.7L177.2 65.8L190.9 75.3ZM197.1 69.5L192.6 66.7L189 64.2L193.6 72.8ZM184.8 77.2L175.8 81.7L168.4 84.9L186.2 88.2ZM181.8 92.4L171.6 96.6L163.2 99.5L182.6 104.1ZM186.3 97.1L180.1 95.5L175.1 94L184.1 101.4ZM176.4 104.7L164.4 103L154.9 101L171 115.8ZM166.2 111.7L152.5 107L141.7 102.6L158.2 122.8ZM167.4 117.4L162.9 110.3L159.3 104.4L163 119.2ZM152.4 119.9L139.4 116.1L129.1 112.5L145.2 130.9ZM137.4 129.8L125.1 127L115.2 124.2L131.1 140.7ZM139.4 135.1L134.7 129.4L131 124.6L135.1 137.4ZM122.6 140.8L110.9 139.2L101.6 137.4L117.3 151.7ZM109.2 152.5L98.3 152.4L89.5 151.8L105.3 163.5ZM112.1 157.5L107.1 153.6L103.1 150.3L108.4 160.5ZM99.8 162.7L91.9 159.7L85.8 156.8L92.9 170.3ZM101.7 166.8L99 162.7L97 159.2L97 168.2ZM87.6 168L80.4 165.2L74.8 162.6L80.9 175.1ZM74.8 173.4L68.2 171L63.1 168.8L68.5 180.2ZM76.9 177.2L74.5 173.8L72.8 171L72.3 178.4ZM61.9 179L55.8 177.2L51.2 175.4L56 185.6ZM49.2 184.9L43.8 183.8L39.6 182.6L44 191.5ZM51.9 188.4L49.5 186.1L47.8 184.1L47.3 190ZM37.4 191.2L32.6 190.9L28.8 190.3L33 197.9Z" fill="url(#c6c-crys)" stroke="#1a5a9a" stroke-width=".4" filter="url(#c6c-glow)"/>
<path d="M222.4 56.9L217.1 51.5L213.1 46.9ZM223.3 60.1L222.6 55.7L222.2 52.2ZM206.9 57.7L199 54.9L192.8 52.3ZM193.8 65L184.6 65.7L177.2 65.8ZM197.1 69.5L192.6 66.7L189 64.2ZM184.8 77.2L175.8 81.7L168.4 84.9ZM181.8 92.4L171.6 96.6L163.2 99.5ZM186.3 97.1L180.1 95.5L175.1 94ZM176.4 104.7L164.4 103L154.9 101ZM166.2 111.7L152.5 107L141.7 102.6ZM167.4 117.4L162.9 110.3L159.3 104.4ZM152.4 119.9L139.4 116.1L129.1 112.5ZM137.4 129.8L125.1 127L115.2 124.2ZM139.4 135.1L134.7 129.4L131 124.6ZM122.6 140.8L110.9 139.2L101.6 137.4ZM109.2 152.5L98.3 152.4L89.5 151.8ZM112.1 157.5L107.1 153.6L103.1 150.3ZM99.8 162.7L91.9 159.7L85.8 156.8ZM101.7 166.8L99 162.7L97 159.2ZM87.6 168L80.4 165.2L74.8 162.6ZM74.8 173.4L68.2 171L63.1 168.8ZM76.9 177.2L74.5 173.8L72.8 171ZM61.9 179L55.8 177.2L51.2 175.4ZM49.2 184.9L43.8 183.8L39.6 182.6ZM51.9 188.4L49.5 186.1L47.8 184.1ZM37.4 191.2L32.6 190.9L28.8 190.3Z" fill="url(#c6c-crysd)" opacity=".85"/>
<path d="M22 232 L8 214 L20 222 L16 204 L26 220 L30 208 L30 226 Z" fill="url(#c6c-crys)" stroke="#1a5a9a" stroke-width=".5"/>
<path d="M108 170 C130 156 162 166 160 190 C159 200 154 206 150 210 L166 212 L166 217 L130 217 C134 208 130 202 118 198 C102 192 96 180 108 170 Z" fill="url(#c6c-body)" stroke="#0a1a3a" stroke-width=".7"/>
<path d="M108 170 C130 156 162 166 160 190 C159 200 154 206 150 210 L166 212 L166 217 L130 217 C134 208 130 202 118 198 C102 192 96 180 108 170 Z" fill="url(#c6c-scs)"/>
<path d="M110 170 C130 158 154 166 158 182" fill="none" stroke="#ffffff" stroke-width="1" opacity=".8"/>
<path d="M166 214 l6 2 l-6 1.5 Z M160 215 l4 4 l-5 -2 Z M153 215 l2 5 l-4 -4 Z" fill="url(#c6c-crys)"/>
<path d="M204 146 C220 152 226 168 220 182 C216 192 214 200 218 208 L228 212 L228 217 L203 217 C203 208 200 200 197 192 C191 178 190 160 204 146 Z" fill="url(#c6c-body)" stroke="#0a1a3a" stroke-width=".7"/>
<path d="M204 146 C220 152 226 168 220 182 C216 192 214 200 218 208 L228 212 L228 217 L203 217 C203 208 200 200 197 192 C191 178 190 160 204 146 Z" fill="url(#c6c-scs)"/>
<path d="M208 152 C220 160 222 172 218 182" fill="none" stroke="#ffffff" stroke-width="1" opacity=".8"/>
<path d="M226 214 l6 2 l-6 2 Z M220 215 l4 5 l-5 -2 Z M213 215 l2 5 l-4 -4 Z M206 215 l0 5 l-3 -4 Z" fill="url(#c6c-crys)"/>
<path d="M214 170 L226 166 L216 176 Z" fill="url(#c6c-crys)"/>
<path d="M128 40Q105.1 20.7 76 14C85.3 27.2 68.5 41.6 34 50Q80.3 38 128 40Z" fill="url(#c6c-memb)"/><path d="M128 40Q80.3 38 34 50C61.6 55.1 60 76.7 30 104Q75.2 66.1 128 40Z" fill="url(#c6c-memb)"/><path d="M128 40Q80.3 38 34 50C61.6 55.1 60 76.7 30 104Q75.2 66.1 128 40Z" fill="#1a0206" opacity=".16"/><path d="M128 40Q75.2 66.1 30 104C64.5 91.4 78.1 109 64 148Q90 90.4 128 40Z" fill="url(#c6c-memb)"/><path d="M128 40Q90 90.4 64 148Q105.6 119.8 128 160L176 124Q150 76 150 76L128 40Z" fill="url(#c6c-memb)"/><path d="M128 40Q90 90.4 64 148Q105.6 119.8 128 160L176 124Q150 76 150 76L128 40Z" fill="#1a0206" opacity=".16"/><g clip-path="url(#c6c-nwclip)"><path d="M118.6 35.3Q124.3 42.3 130.3 53.2M124.3 42.3l-7 7.3M108.2 30.1Q109.8 40.8 113.4 47.2M109.8 40.8l-3.2 8M97.8 24.9Q103.3 32.9 108.2 37.9M103.3 32.9l-4.3 6.8M87.4 19.7Q95.8 26.8 99.3 30.9M95.8 26.8l4.8 5.7M111.1 41.8Q112.3 50.2 108.7 59.4M112.3 50.2l-5.7 5M92.3 43.8Q100.1 50.3 100.7 55.3M100.1 50.3l-4.2 7.3M73.5 45.8Q78.2 55.5 76.4 65M78.2 55.5l2 7.5M54.7 47.8Q56.8 56.5 66.6 67.5M56.8 56.5l1.4 5.5M110.4 51.5Q117.2 56.3 117.9 60.6M117.2 56.3l-5.4 7.3M90.8 64.3Q91.6 66.6 92.8 74.7M91.6 66.6l-4.1 8.3M71.2 77.1Q78.2 77.3 80.9 85.3M78.2 77.3l-2.3 8.5M51.6 89.9Q54.7 94.9 59.7 101.6M54.7 94.9l-5.2 9M116.5 59.4Q116.9 65.2 113.3 72.5M116.9 65.2l6.7 5.2M103.7 81Q112.7 93.5 119 99.7M112.7 93.5l-.7 8.2M90.9 102.6Q96.5 111.4 102.6 116.8M96.5 111.4l-1.3 4.4M78.1 124.2Q83.3 132.1 88.8 135.4M83.3 132.1l-4.6 4.1" fill="none" stroke="#1a4a88" stroke-width=".7" opacity=".55"/><path d="M118.6 35.3Q124.3 42.3 130.3 53.2M124.3 42.3l-7 7.3M108.2 30.1Q109.8 40.8 113.4 47.2M109.8 40.8l-3.2 8M97.8 24.9Q103.3 32.9 108.2 37.9M103.3 32.9l-4.3 6.8M87.4 19.7Q95.8 26.8 99.3 30.9M95.8 26.8l4.8 5.7M111.1 41.8Q112.3 50.2 108.7 59.4M112.3 50.2l-5.7 5M92.3 43.8Q100.1 50.3 100.7 55.3M100.1 50.3l-4.2 7.3M73.5 45.8Q78.2 55.5 76.4 65M78.2 55.5l2 7.5M54.7 47.8Q56.8 56.5 66.6 67.5M56.8 56.5l1.4 5.5M110.4 51.5Q117.2 56.3 117.9 60.6M117.2 56.3l-5.4 7.3M90.8 64.3Q91.6 66.6 92.8 74.7M91.6 66.6l-4.1 8.3M71.2 77.1Q78.2 77.3 80.9 85.3M78.2 77.3l-2.3 8.5M51.6 89.9Q54.7 94.9 59.7 101.6M54.7 94.9l-5.2 9M116.5 59.4Q116.9 65.2 113.3 72.5M116.9 65.2l6.7 5.2M103.7 81Q112.7 93.5 119 99.7M112.7 93.5l-.7 8.2M90.9 102.6Q96.5 111.4 102.6 116.8M96.5 111.4l-1.3 4.4M78.1 124.2Q83.3 132.1 88.8 135.4M83.3 132.1l-4.6 4.1" fill="none" stroke="#ffffff" stroke-width=".3" opacity=".45" transform="translate(.5 -.5)"/><path d="M128 40Q105.1 20.7 76 14C85.3 27.2 68.5 41.6 34 50Q80.3 38 128 40ZM128 40Q80.3 38 34 50C61.6 55.1 60 76.7 30 104Q75.2 66.1 128 40ZM128 40Q75.2 66.1 30 104C64.5 91.4 78.1 109 64 148Q90 90.4 128 40ZM128 40Q90 90.4 64 148Q105.6 119.8 128 160L176 124Q150 76 150 76L128 40Z" fill="none" stroke="#1a0206" stroke-width="4" opacity=".5"/><path d="M128 40Q105.1 20.7 76 14" fill="none" stroke="#1a0206" stroke-width="6" opacity=".22"/><path d="M128 40Q80.3 38 34 50" fill="none" stroke="#1a0206" stroke-width="6" opacity=".22"/><path d="M128 40Q75.2 66.1 30 104" fill="none" stroke="#1a0206" stroke-width="6" opacity=".22"/><path d="M128 40Q90 90.4 64 148" fill="none" stroke="#1a0206" stroke-width="6" opacity=".22"/></g><path d="M76 14C85.3 27.2 68.5 41.6 34 50C61.6 55.1 60 76.7 30 104C64.5 91.4 78.1 109 64 148Q105.6 119.8 128 160" fill="none" stroke="#ffffff" stroke-width=".8" opacity=".75"/><path d="M128 40Q105.1 20.7 76 14" fill="none" stroke="#1a0404" stroke-width="3.4" stroke-linecap="round"/><path d="M128 40Q105.1 20.7 76 14" fill="none" stroke="url(#c6c-bone)" stroke-width="2" stroke-linecap="round"/><path d="M128 40Q105.1 20.7 76 14" fill="none" stroke="#ffffff" stroke-width=".5" opacity=".8" transform="translate(0 -.7)"/><circle cx="110.7" cy="27.8" r="1.7" fill="url(#c6c-bone)" stroke="#1a0404" stroke-width=".4"/><circle cx="92.9" cy="19.2" r="1.7" fill="url(#c6c-bone)" stroke="#1a0404" stroke-width=".4"/><path d="M76.3 12.5Q70.5 11.2 68.7 13.8L75.7 15.5Z" fill="url(#c6c-crys)"/><path d="M128 40Q80.3 38 34 50" fill="none" stroke="#1a0404" stroke-width="3.4" stroke-linecap="round"/><path d="M128 40Q80.3 38 34 50" fill="none" stroke="url(#c6c-bone)" stroke-width="2" stroke-linecap="round"/><path d="M128 40Q80.3 38 34 50" fill="none" stroke="#ffffff" stroke-width=".5" opacity=".8" transform="translate(0 -.7)"/><circle cx="93.8" cy="40.4" r="1.7" fill="url(#c6c-bone)" stroke="#1a0404" stroke-width=".4"/><circle cx="61.9" cy="44.1" r="1.7" fill="url(#c6c-bone)" stroke="#1a0404" stroke-width=".4"/><path d="M33.6 48.5Q27.8 50 26.7 53.4L34.4 51.5Z" fill="url(#c6c-crys)"/><path d="M128 40Q75.2 66.1 30 104" fill="none" stroke="#1a0404" stroke-width="3.4" stroke-linecap="round"/><path d="M128 40Q75.2 66.1 30 104" fill="none" stroke="url(#c6c-bone)" stroke-width="2" stroke-linecap="round"/><path d="M128 40Q75.2 66.1 30 104" fill="none" stroke="#ffffff" stroke-width=".5" opacity=".8" transform="translate(0 -.7)"/><circle cx="91" cy="60.3" r="1.7" fill="url(#c6c-bone)" stroke="#1a0404" stroke-width=".4"/><circle cx="57.8" cy="82.3" r="1.7" fill="url(#c6c-bone)" stroke="#1a0404" stroke-width=".4"/><path d="M29 102.9Q24.4 106.7 24.3 110.3L31 105.1Z" fill="url(#c6c-crys)"/><path d="M128 40Q90 90.4 64 148" fill="none" stroke="#1a0404" stroke-width="3.4" stroke-linecap="round"/><path d="M128 40Q90 90.4 64 148" fill="none" stroke="url(#c6c-bone)" stroke-width="2" stroke-linecap="round"/><path d="M128 40Q90 90.4 64 148" fill="none" stroke="#ffffff" stroke-width=".5" opacity=".8" transform="translate(0 -.7)"/><circle cx="102.2" cy="77.2" r="1.7" fill="url(#c6c-bone)" stroke="#1a0404" stroke-width=".4"/><circle cx="80.7" cy="114.1" r="1.7" fill="url(#c6c-bone)" stroke="#1a0404" stroke-width=".4"/><path d="M62.6 147.4Q60.2 152.9 60.9 156.3L65.4 148.6Z" fill="url(#c6c-crys)"/><path d="M181.2 121Q154.2 73.6 130.3 38.7L125.7 41.3Q145.8 78.4 170.8 127Z" fill="url(#c6c-arm)" stroke="#1a0206" stroke-width=".8"/><path d="M180.2 121.6Q153.4 74.1 129.4 39.2" fill="none" stroke="#ffffff" stroke-width="1.2" opacity=".9"/><path d="M150 76l9.8 -1l-4 -6.9Z" fill="url(#c6c-crys)"/><path d="M126 40l8.9 -8.6l4 1Z" fill="url(#c6c-crys)" stroke="#3a1608" stroke-width=".4"/><circle cx="128" cy="40" r="3.4" fill="url(#c6c-bone)" stroke="#1a0404" stroke-width=".6"/>
<g clip-path="url(#c6c-nwclip)"><path d="M60 60L66.9 64M63.5 62L66.7 60.3M66.7 60.3L69.1 59.6M63.5 62L63.6 65.6M63.6 65.6L64.1 68.1M66.9 64L71.4 67.4M69.2 65.7L71.5 64.8M69.2 65.7L69 68.2M71.4 67.4L75.1 68.7M60 60L52.3 62.3M56.2 61.2L55.2 64.6M55.2 64.6L54.9 67.1M56.2 61.2L53.4 58.8M53.4 58.8L51.3 57.4M52.3 62.3L46.7 62.5M49.5 62.4L48.2 64.6M49.5 62.4L48.1 60.3M46.7 62.5L43 63.6M60 60L62.8 52.5M61.4 56.3L59.3 53.4M59.3 53.4L57.4 51.7M61.4 56.3L64.9 55.5M64.9 55.5L67.4 55.1M62.8 52.5L63.9 47M63.4 49.8L61.5 48M63.4 49.8L65.7 48.8M63.9 47L64.9 43.2M70 110L78 110.7M74 110.3L76.2 107.5M76.2 107.5L78.2 105.9M74 110.3L75.7 113.5M75.7 113.5L76.2 116M78 110.7L83.4 112.1M80.7 111.4L82.5 109.7M80.7 111.4L81.4 113.8M83.4 112.1L87.3 112.1M70 110L65.6 116.7M67.8 113.3L69.3 116.6M69.3 116.6L69.9 119.1M67.8 113.3L64.2 113.3M64.2 113.3L61.8 112.6M65.6 116.7L61.8 120.8M63.7 118.7L64.3 121.2M63.7 118.7L61.2 118.3M61.8 120.8L59.1 123.6M70 110L70.1 102M70.1 106L67.1 104M67.1 104L64.8 102.8M70.1 106L73.1 104.1M73.1 104.1L75.5 103.2M70.1 102L70.5 96.4M70.3 99.2L68.3 97.7M70.3 99.2L72.6 98M70.5 96.4L70 92.5M104 130L108.9 136.3M106.4 133.2L110 132.9M110 132.9L112.5 132.4M106.4 133.2L105.2 136.6M105.2 136.6L103.8 138.7M108.9 136.3L112.8 140.3M110.9 138.3L113.3 137.8M110.9 138.3L110.3 140.8M112.8 140.3L115.9 142.8M104 130L98.3 135.6M101.1 132.8L101.8 136.3M101.8 136.3L102.1 138.8M101.1 132.8L97.6 132M97.6 132L95.1 131.7M98.3 135.6L93.3 138.1M95.8 136.8L95.5 139.4M95.8 136.8L93.6 135.6M93.3 138.1L89.7 139.8M104 130L103.1 122M103.6 126L100.3 124.4M100.3 124.4L98.3 123M103.6 126L106.4 123.8M106.4 123.8L108.4 122.3M103.1 122L101.5 116.7M102.3 119.4L99.9 118.7M102.3 119.4L104 117.5M101.5 116.7L99.5 113.3M50 84L55.3 90M52.7 87L56.2 86.4M56.2 86.4L58.7 86.1M52.7 87L51.7 90.5M51.7 90.5L50.4 92.6M55.3 90L60 93M57.7 91.5L60 90.4M57.7 91.5L57.7 94M60 93L62.9 95.6M50 84L42.6 87M46.3 85.5L45.6 89M45.6 89L45.3 91.5M46.3 85.5L43.4 83.4M43.4 83.4L41 82.5M42.6 87L37.8 89.9M40.2 88.4L40.1 91M40.2 88.4L37.9 87.3M37.8 89.9L34.9 92.5M50 84L51.7 76.2M50.8 80.1L48.3 77.5M48.3 77.5L46.5 75.8M50.8 80.1L54.2 78.8M54.2 78.8L56.6 77.9M51.7 76.2L52.9 70.7M52.3 73.4L50.5 71.7M52.3 73.4L54.7 72.6M52.9 70.7L54.3 67.1M100 70L107.6 72.5M103.8 71.3L106.6 69M106.6 69L108.2 67.1M103.8 71.3L104.7 74.7M104.7 74.7L106 76.9M107.6 72.5L112.8 74.5M110.2 73.5L112.2 72M110.2 73.5L110.7 76M112.8 74.5L116.6 75.5M100 70L92 70.9M96 70.4L94.4 73.7M94.4 73.7L93.2 75.9M96 70.4L93.8 67.7M93.8 67.7L92 65.8M92 70.9L86.5 70.7M89.3 70.8L87.8 72.8M89.3 70.8L88 68.6M86.5 70.7L82.6 70.3M100 70L100.1 62M100 66L97 64M97 64L94.7 63M100 66L103.1 64.1M103.1 64.1L105.4 63M100.1 62L100 56.4M100 59.2L97.9 57.9M100 59.2L102.1 57.8M100 56.4L100 52.5" fill="none" stroke="#e8fbff" stroke-width=".45" opacity=".55"/></g>
<path d="M128 40 C140 58 150 76 162 100 M128 40 C110 30 92 20 76 14" fill="none" stroke="#6affd0" stroke-width=".8" opacity=".6"/>
<g fill="#ffffff" filter="url(#c6c-glow)" opacity=".8"><circle cx="76" cy="14" r="2.2"/><circle cx="34" cy="50" r="2.2"/><circle cx="30" cy="104" r="2.2"/><circle cx="64" cy="148" r="2.2"/></g>
<g transform="translate(232 80) scale(-1.15 1.15) rotate(-16)"><path d="M6.8 -11.6L32.3 -27.5L53.3 -40L1.2 -24.4ZM1.8 -18L14.6 -34.9L25.3 -48.4L-5.8 -26ZM10.5 -3L28.8 -8L43.8 -11.6L9.5 -13ZM-6.3 -22.4L-3.2 -35.4L-.2 -45.9L-13.7 -25.6ZM-15.1 -23.4L-15.2 -31.3L-15.1 -37.7L-20.9 -24.6Z" fill="url(#c6c-crys)" stroke="#1a5a9a" stroke-width=".5"/><path d="M6.8 -11.6L32.3 -27.5L53.3 -40ZM1.8 -18L14.6 -34.9L25.3 -48.4ZM10.5 -3L28.8 -8L43.8 -11.6ZM-6.3 -22.4L-3.2 -35.4L-.2 -45.9ZM-15.1 -23.4L-15.2 -31.3L-15.1 -37.7Z" fill="url(#c6c-crysd)" opacity=".85"/><path d="M4 2 C0 10 -12 18 -24 22 C-34 25 -44 26 -50 24 C-48 20 -40 18 -30 15 C-18 11 -8 6 -2 0 Z" fill="url(#c6c-head)" stroke="#0a1a3a" stroke-width=".7"/><path d="M-58 -2 C-40 0 -20 1 -2 0 C-10 8 -24 13 -36 16 C-44 18 -50 20 -52 20 C-54 12 -58 6 -58 -2 Z" fill="url(#c6c-mouth)"/><path d="M-6 4 C-18 8 -30 12 -40 13 C-34 10 -22 6 -8 2 Z" fill="#3a6aa8" opacity=".7"/><path d="M-48 21l1.3 -2.4l1.3 2.4ZM-41.8 18.6l1.3 -3.4l1.3 3.4ZM-35.6 16.2l1.3 -2.4l1.3 2.4ZM-29.4 13.8l1.3 -2.4l1.3 2.4ZM-23.2 11.4l1.3 -2.4l1.3 2.4ZM-17 9l1.3 -2.4l1.3 2.4ZM-10.8 6.6l1.3 -2.4l1.3 2.4Z" fill="#ffffff"/><path d="M-60 -6 C-60 -10 -56 -14 -50 -15 C-40 -17 -30 -20 -20 -24 C-12 -27 -2 -28 6 -24 C12 -20 14 -12 12 -4 C10 2 6 4 0 2 L-6 1 C-20 1 -40 0 -58 -1 C-60 -2 -60 -4 -60 -6 Z" fill="url(#c6c-head)" stroke="#0a1a3a" stroke-width=".8"/><path d="M-60 -6 C-60 -10 -56 -14 -50 -15 C-40 -17 -30 -20 -20 -24 C-12 -27 -2 -28 6 -24 C12 -20 14 -12 12 -4 C10 2 6 4 0 2 L-6 1 C-20 1 -40 0 -58 -1 C-60 -2 -60 -4 -60 -6 Z" fill="url(#c6c-scs)"/><path d="M-57 -1l1.3 2.6l1.3 -2.6ZM-51 -.9l1.3 4l1.3 -4ZM-45 -.8l1.3 2.6l1.3 -2.6ZM-39 -.7l1.3 2.6l1.3 -2.6ZM-33 -.6l1.3 2.6l1.3 -2.6ZM-27 -.5l1.3 2.6l1.3 -2.6ZM-21 -.4l1.3 4l1.3 -4ZM-15 -.3l1.3 2.6l1.3 -2.6ZM-9 -.2l1.3 2.6l1.3 -2.6Z" fill="#ffffff" stroke="#6a9ac8" stroke-width=".2"/><path d="M-30 -20 C-24 -26 -14 -28 -6 -26 C-12 -22 -18 -20 -26 -17 Z" fill="#2a5a90" stroke="#0a1a3a" stroke-width=".5"/><path d="M-28 -16 C-24 -20 -16 -21 -12 -18 C-16 -15 -22 -14 -28 -16 Z" fill="url(#c6c-eye)" filter="url(#c6c-glow)"/><path d="M-19.5 -20.5 C-18.8 -19 -18.8 -16.8 -19.5 -15 C-20.2 -16.8 -20.2 -19 -19.5 -20.5 Z" fill="#021030"/><path d="M-46.1 -15.6L-48.8 -19.9L-50.9 -23.5L-49.9 -14.4ZM-38.5 -18.7L-41 -21.8L-42.9 -24.4L-41.5 -17.3ZM-10.1 -27.1L-14.6 -32.1L-18.1 -36.4L-13.9 -24.9ZM-.6 -27.5L-5.5 -30.3L-9.4 -32.8L-3.4 -24.5Z" fill="url(#c6c-crys)" stroke="#1a5a9a" stroke-width=".35"/><path d="M-46.1 -15.6L-48.8 -19.9L-50.9 -23.5ZM-38.5 -18.7L-41 -21.8L-42.9 -24.4ZM-10.1 -27.1L-14.6 -32.1L-18.1 -36.4ZM-.6 -27.5L-5.5 -30.3L-9.4 -32.8Z" fill="url(#c6c-crysd)" opacity=".85"/><path d="M-57 -8 C-55 -10 -52 -10 -51 -8 C-53 -7 -55 -7 -57 -8 Z" fill="#0a1a3a"/><path d="M9.2 2.3L17.9 3.9L25 5.5L10.8 -2.3ZM4.3 9.4L10.1 14.6L14.7 19L7.7 6.6ZM-9.8 18.3L-7.8 23.5L-6.3 27.9L-6.2 17.7Z" fill="url(#c6c-crys)" stroke="#1a5a9a" stroke-width=".35"/><path d="M9.2 2.3L17.9 3.9L25 5.5ZM4.3 9.4L10.1 14.6L14.7 19ZM-9.8 18.3L-7.8 23.5L-6.3 27.9Z" fill="url(#c6c-crysd)" opacity=".85"/><path d="M-58 -9 C-50 -14 -36 -18 -20 -24 C-10 -28 0 -28 6 -24" fill="none" stroke="#ffffff" stroke-width="1" opacity=".9"/></g>
<g fill="#e8f8ff" opacity=".5" filter="url(#c6c-blur6)"><ellipse cx="150" cy="216" rx="70" ry="7"/><ellipse cx="40" cy="222" rx="40" ry="6"/></g>
<path d="M294.5 108.6C294.7 110.6 296.9 111 298.1 112.3C299.2 113.6 300.1 115.4 301.4 116.6C302.6 117.7 304.2 117.9 305.4 119.2C306.6 120.4 307.3 122.8 308.5 124.2C309.7 125.5 311.2 126.3 312.6 127.3C314 128.3 315.5 129 316.9 130.1C318.3 131.3 320 132 320.9 134.1C321.7 136.3 321.2 141 322.2 143.1C323.1 145.1 326.1 143.8 326.7 146.4C327.4 148.9 325.4 155.9 326.1 158.4C326.8 161 329.5 160.3 331 161.5C332.6 162.7 334.1 164 335.4 165.8C336.7 167.6 336.9 171 338.5 172.3C340.2 173.7 343.1 173.2 345.2 173.9C347.3 174.7 349.4 175.6 351.3 176.9C353.1 178.2 355.2 179.2 356.1 182C356.9 184.7 355.8 190.1 356.4 193.3C357 196.4 359.2 197.4 359.5 201.1C359.7 204.7 356.8 212.3 357.7 215.2C358.6 218 351.9 232.2 364.9 218.2C377.8 204.3 424.4 147.2 435.3 131.4C446.3 115.6 433.3 124.7 430.6 123.4C428 122.2 421.8 125.5 419.4 124C417 122.5 418.2 116.4 416.2 114.5C414.2 112.6 409.6 114.2 407.4 112.7C405.2 111.1 405.3 106.4 403 105C400.8 103.7 396.6 105 393.7 104.7C390.8 104.3 388.8 102.7 385.7 102.9C382.5 103.1 378.1 105.3 374.9 105.7C371.7 106.2 369.3 105.5 366.5 105.6C363.7 105.6 360.7 106.1 358.2 105.9C355.7 105.6 354 104.2 351.7 103.8C349.3 103.5 346.1 104.9 344.2 103.8C342.3 102.8 342.1 98.8 340.4 97.6C338.7 96.4 336.2 96.6 333.9 96.7C331.6 96.7 328.8 98 326.6 98C324.4 98.1 322.9 96.8 320.8 96.9C318.7 97.1 316 98.5 314 98.8C311.9 99 310.3 98.4 308.3 98.6C306.4 98.8 304.2 99.8 302.4 100.1C300.5 100.5 298.4 99.3 297 100.8C295.7 102.2 294.3 106.7 294.5 108.6Z" fill="#8ad8ff" opacity=".35" filter="url(#c6c-blur6)"/>
<path d="M295.3 106.3C295.6 107.6 297.4 108.7 298.5 109.9C299.5 111 300.6 112.1 301.7 113.3C302.8 114.4 303.8 115.7 305 116.9C306.1 118 307.2 119.2 308.4 120.1C309.6 121 311 121.5 312.3 122.4C313.6 123.4 314.8 124.5 316 125.5C317.3 126.6 318.4 128 319.8 128.8C321.2 129.7 323 129.9 324.4 130.7C325.8 131.6 327.5 132.2 328.5 134C329.4 135.8 329.4 139.3 330.1 141.6C330.8 143.8 331.9 145.5 332.7 147.6C333.5 149.7 333.9 152.5 335.1 154.1C336.2 155.7 338.2 156.1 339.8 157.1C341.3 158.2 342.8 159.4 344.5 160.4C346.1 161.5 347.8 162.5 349.5 163.6C351.2 164.7 353 165.6 354.5 167.1C355.9 168.7 356.8 170.9 358.1 172.8C359.3 174.7 361 176.1 361.9 178.5C362.8 180.9 362.6 184.8 363.4 187.3C364.2 189.8 366.6 190.4 367 193.6C367.3 196.8 364.8 203.6 365.4 206.5C366.1 209.4 358.8 223.9 370.8 211C382.7 198.1 427.9 142.6 437.1 129.2C446.3 115.8 428.6 131.4 426 130.5C423.4 129.5 424.1 124.5 421.5 123.7C418.9 122.9 413.7 125.6 410.4 125.8C407.1 126.1 404.5 125.5 401.6 125.2C398.8 125 396.2 124.6 393.3 124.5C390.5 124.4 386.3 126.3 384.6 124.7C382.9 123.1 384.8 116.6 383.2 114.9C381.6 113.3 377.4 115.4 375.2 114.8C372.9 114.2 371.3 112.8 369.5 111.5C367.8 110.2 366.7 108 364.9 106.9C363.1 105.9 361.1 105 358.6 105.2C356.1 105.5 352.4 107.6 349.7 108.3C347 109.1 344.3 109.8 342.2 109.8C340 109.8 338.3 109 336.6 108.3C334.8 107.7 333.2 106.8 331.7 105.9C330.1 104.9 329 103.2 327.3 102.6C325.7 102 323.5 102.4 321.8 102.2C320 102 318.2 101.7 316.6 101.4C314.9 101.1 313.5 100.3 311.8 100.2C310.1 100.1 308.1 100.8 306.4 100.9C304.7 101.1 303.2 100.8 301.6 101C300 101.1 297.8 100.8 296.7 101.7C295.7 102.6 295 104.9 295.3 106.3Z" fill="#bfeaff" opacity=".55" filter="url(#c6c-soft)"/>
<g fill="#e4f8ff" opacity=".45" filter="url(#c6c-soft)"><circle cx="296.4" cy="103" r="1.7"/><circle cx="299.7" cy="103.7" r="2.7"/><circle cx="302.1" cy="105.9" r="2.9"/><circle cx="303.5" cy="109.9" r="5.3"/><circle cx="308.4" cy="106.6" r="5.8"/><circle cx="310.9" cy="108.4" r="5.9"/><circle cx="314.2" cy="108.8" r="5.4"/><circle cx="313.1" cy="117" r="6.1"/><circle cx="315.6" cy="118.8" r="9.1"/><circle cx="323.2" cy="112.7" r="9.7"/><circle cx="322.5" cy="119.9" r="8.2"/><circle cx="322.8" cy="125.5" r="10.9"/><circle cx="333.6" cy="115.4" r="12.3"/><circle cx="330.2" cy="126.8" r="11.6"/><circle cx="338.3" cy="121.2" r="11.6"/><circle cx="342.4" cy="121.6" r="12.1"/><circle cx="335.8" cy="137.8" r="15.6"/><circle cx="346.6" cy="128.8" r="13.8"/><circle cx="346.2" cy="136.2" r="16.9"/><circle cx="345.1" cy="144.8" r="17.5"/><circle cx="355" cy="137.2" r="15.3"/><circle cx="358.2" cy="139.7" r="16.6"/><circle cx="363" cy="140" r="13.7"/><circle cx="372.1" cy="133.8" r="19.7"/><circle cx="366.3" cy="150.5" r="13.6"/><circle cx="371" cy="151.3" r="16.2"/><circle cx="377.7" cy="149" r="18.5"/><circle cx="385.3" cy="145.4" r="24.2"/><circle cx="387.8" cy="150" r="19.1"/><circle cx="391.1" cy="153.5" r="21.9"/><circle cx="387.2" cy="169.3" r="19.6"/><circle cx="394.4" cy="166.7" r="19.7"/><circle cx="408" cy="152.7" r="26.7"/><circle cx="407.8" cy="163.3" r="17.8"/></g>
<path d="M295.5 105.5C296.1 106.3 298.2 107 299.7 107.7C301.1 108.3 302.7 108.7 304.1 109.4C305.6 110 307.1 110.7 308.6 111.6C310 112.6 311.3 113.9 312.7 115C314 116.1 315.5 117.2 316.8 118.4C318.2 119.6 319.6 120.9 321 122.2C322.4 123.4 323.7 124.8 325.2 125.9C326.8 127 328.5 127.8 330.2 128.8C331.9 129.7 333.7 130.6 335.4 131.6C337.1 132.6 338.8 133.7 340.5 134.9C342.2 136 344.3 136.6 345.7 138.3C347.1 140.1 347.6 143.2 348.9 145.3C350.1 147.4 351.6 149.1 353.1 150.9C354.6 152.6 356.1 154.4 358 155.6C360 156.8 362.6 157.2 364.8 158.1C367 159.1 369.4 159.9 371.3 161.4C373.2 162.9 374.3 165.5 376.2 167.2C378.1 168.9 381.2 168.9 382.5 171.4C383.8 173.9 382.9 179.3 384 182.1C385.1 184.9 384 192.5 389.3 188.2C394.5 183.8 411.8 162.5 415.4 156C418.9 149.4 412.4 150.7 410.4 148.8C408.4 147 405.8 145.8 403.2 144.8C400.6 143.7 397.4 143.6 395 142.5C392.5 141.4 390.9 139.2 388.5 138.1C386.2 137 383.1 137 380.8 135.9C378.5 134.8 376.9 132.9 375 131.4C373.1 129.8 371.5 127.9 369.6 126.6C367.7 125.2 365.6 124.1 363.4 123.3C361.2 122.4 358.6 122.2 356.4 121.5C354.2 120.7 352.5 119.3 350.3 118.8C348.1 118.3 345.1 119.1 343.1 118.5C341 117.9 339.6 116.2 337.8 115.2C336.1 114.1 334.4 113 332.6 112.2C330.8 111.4 328.8 111.1 327 110.3C325.2 109.6 323.7 108.4 321.9 107.8C320.2 107.2 318.3 106.9 316.4 106.6C314.6 106.3 312.6 106.4 310.9 106.1C309.1 105.8 307.6 105.1 305.9 104.8C304.3 104.5 302.5 104.4 300.9 104.1C299.4 103.7 297.3 102.5 296.4 102.7C295.5 102.9 295 104.6 295.5 105.5Z" fill="#ffffff" opacity=".8" filter="url(#c6c-glow)"/>
<path d="M335.4 111.8l3.3 .9l-.8 1.1ZM352.6 175l-.5 2l-.7 -.4ZM391 174l-1.2 4.3l-1.5 -1ZM322.3 140.7l3 .2l-.5 1.1ZM336.1 116.8l2.3 -.3l-.2 .9ZM310 103.6l2.4 3.3l-1.5 .5ZM419.5 141.5l.5 -3.5l1.3 .7ZM322.8 114.7l-1.9 1l-.1 -.8ZM357.1 112.9l.1 2.8l-1.1 -.3ZM319 103l-4.4 -1.9l1.3 -1.4ZM350.2 157.9l-4.2 .2l.5 -1.6ZM372.9 190.7l-1.7 -2.5l1.2 -.3ZM342.3 140.9l-.5 4l-1.5 -.7ZM380.7 201.4l3.8 1.1l-.9 1.3ZM376.5 121.3l-1.7 -1.9l.9 -.4ZM327.3 103.4l4.8 .4l-.8 1.7ZM360.8 175.3l2.6 -2.5l.6 1.3ZM377.9 179.7l-3.4 -.6l.6 -1.2ZM332.9 146.4l2.5 2.9l-1.4 .6ZM302 111.8l3.9 2.3l-1.4 1.2Z" fill="#e8fbff" stroke="#6ac0f0" stroke-width=".3"/>
<path d="M368.5 156.2L368.9 157.8L370.5 158.1L368.9 158.5L368.5 160.1L368.1 158.5L366.6 158.1L368.1 157.8ZM351 164.2L351.6 166.9L354.4 167.6L351.6 168.3L351 171L350.3 168.3L347.5 167.6L350.3 166.9ZM387.7 184.9L388.2 186.8L390.1 187.2L388.2 187.7L387.7 189.6L387.3 187.7L385.4 187.2L387.3 186.8ZM318.1 111.5L318.5 112.9L319.9 113.3L318.5 113.7L318.1 115.1L317.8 113.7L316.3 113.3L317.8 112.9ZM309.1 100.4L309.7 102.8L312.2 103.4L309.7 104L309.1 106.5L308.5 104L306 103.4L308.5 102.8ZM344.2 115.1L344.5 116.4L345.8 116.7L344.5 117L344.2 118.3L343.8 117L342.6 116.7L343.8 116.4ZM306.3 106.2L306.7 107.8L308.3 108.2L306.7 108.6L306.3 110.2L305.9 108.6L304.3 108.2L305.9 107.8ZM323.6 141.6L324.1 143.6L326.1 144.1L324.1 144.6L323.6 146.6L323.1 144.6L321.2 144.1L323.1 143.6ZM315.1 124.7L315.7 127.3L318.3 127.9L315.7 128.5L315.1 131.1L314.5 128.5L311.9 127.9L314.5 127.3ZM322.7 105.6L323.4 108.2L325.9 108.8L323.4 109.5L322.7 112.1L322.1 109.5L319.5 108.8L322.1 108.2ZM406.7 158.7L407.3 161.4L410 162L407.3 162.7L406.7 165.3L406 162.7L403.4 162L406 161.4ZM312.8 101.8L313.5 104.4L316.1 105.1L313.5 105.7L312.8 108.3L312.2 105.7L309.6 105.1L312.2 104.4ZM371.6 159.6L372.2 162.1L374.7 162.7L372.2 163.3L371.6 165.8L371 163.3L368.5 162.7L371 162.1ZM374.6 193.8L374.9 195.1L376.2 195.5L374.9 195.8L374.6 197.1L374.2 195.8L372.9 195.5L374.2 195.1ZM404.8 133.2L405.5 136L408.2 136.7L405.5 137.3L404.8 140.1L404.1 137.3L401.4 136.7L404.1 136ZM343.4 144.9L344 147.6L346.7 148.3L344 149L343.4 151.6L342.7 149L340 148.3L342.7 147.6ZM402.1 131.6L402.7 134.1L405.2 134.7L402.7 135.3L402.1 137.8L401.5 135.3L399 134.7L401.5 134.1ZM315.5 117.1L316 118.8L317.7 119.3L316 119.7L315.5 121.4L315.1 119.7L313.4 119.3L315.1 118.8ZM308.5 98.5L309 100.7L311.2 101.2L309 101.7L308.5 103.9L308 101.7L305.8 101.2L308 100.7ZM325.4 130.1L325.9 132.1L327.9 132.6L325.9 133.2L325.4 135.2L324.9 133.2L322.8 132.6L324.9 132.1Z" fill="#ffffff"/>
<ellipse cx="270" cy="100" rx="30" ry="18" fill="#bff0ff" opacity=".3" filter="url(#c6c-blur6)"/>
<g fill="#ffffff"><circle cx="126" cy="176" r=".4" opacity=".9"/><circle cx="335.3" cy="289.7" r=".7" opacity=".5"/><circle cx="13" cy="48.1" r=".4" opacity=".8"/><circle cx="143.6" cy="234.7" r="1.2" opacity=".6"/><circle cx="60.1" cy="94.3" r=".4" opacity=".7"/><circle cx="69.7" cy="34.6" r="1.3" opacity=".6"/><circle cx="387.3" cy="284.1" r="1.1" opacity=".5"/><circle cx="52" cy="64" r="1.1" opacity=".7"/><circle cx="115.1" cy="-4.8" r=".8" opacity=".6"/><circle cx="19.1" cy="64.8" r=".7" opacity=".6"/><circle cx="197.4" cy="159.7" r="1.2" opacity=".5"/><circle cx="29.9" cy="80.9" r=".6" opacity=".7"/><circle cx="190" cy="86.3" r=".5" opacity=".8"/><circle cx="252.1" cy="177" r="1.1" opacity=".9"/><circle cx="4.7" cy="46.6" r=".9" opacity=".8"/><circle cx="201.8" cy="141.5" r=".7" opacity=".5"/><circle cx="357.1" cy="284.8" r=".9" opacity=".6"/><circle cx="43.9" cy="170.4" r=".6" opacity=".7"/><circle cx="107" cy="130.2" r="1.3" opacity=".5"/><circle cx="214.7" cy="85.6" r=".9" opacity=".9"/><circle cx="196.8" cy="279.4" r=".8" opacity=".6"/><circle cx="260.9" cy="140.3" r="1.1" opacity=".5"/><circle cx="-4.3" cy="116.8" r=".5" opacity=".5"/><circle cx="241.1" cy="197.1" r="1.3" opacity=".8"/><circle cx="223.2" cy="93.3" r=".9" opacity=".5"/><circle cx="33.1" cy="150.4" r="1" opacity=".5"/><circle cx="300.7" cy="149" r=".7" opacity=".9"/><circle cx="-.7" cy="70.6" r=".7" opacity=".8"/><circle cx="96.1" cy="284.7" r=".5" opacity=".6"/><circle cx="187.3" cy="213.3" r=".7" opacity=".4"/><circle cx="302.5" cy="226.2" r="1" opacity=".9"/><circle cx="155.9" cy="124.8" r=".9" opacity=".4"/><circle cx="337.7" cy="8.5" r=".5" opacity=".9"/><circle cx="179.8" cy="33.8" r="1.3" opacity=".5"/><circle cx="180.4" cy="-5.7" r=".5" opacity=".6"/><circle cx="284.4" cy="28.8" r="1.2" opacity=".7"/><circle cx="272.5" cy="279.6" r=".9" opacity=".4"/><circle cx="13.6" cy="251.3" r=".5" opacity=".5"/><circle cx="264.3" cy="211.1" r="1.2" opacity=".7"/><circle cx="127.3" cy="260.4" r=".4" opacity=".5"/><circle cx="404.6" cy="46.4" r="1.2" opacity=".7"/><circle cx="255.5" cy="179.9" r=".8" opacity=".9"/><circle cx="15" cy="75.7" r="1.2" opacity=".8"/><circle cx="259.5" cy="196.9" r=".7" opacity=".7"/><circle cx="229.4" cy="234.3" r=".6" opacity=".5"/><circle cx="124.7" cy="51.9" r="1.1" opacity=".6"/><circle cx="18.4" cy="257.8" r=".9" opacity=".8"/><circle cx="302.6" cy="109.4" r=".7" opacity=".7"/><circle cx="385" cy="230.5" r="1.4" opacity=".7"/><circle cx="218.9" cy="80.1" r=".9" opacity=".7"/><circle cx="310.1" cy="241.3" r="1.3" opacity=".5"/><circle cx="261.7" cy="9.9" r=".7" opacity=".7"/><circle cx="-9.5" cy="249" r=".9" opacity=".5"/><circle cx="167.1" cy="215.8" r=".5" opacity=".9"/><circle cx="266.2" cy="148.7" r=".6" opacity=".7"/><circle cx="83.2" cy="10.9" r="1.3" opacity=".6"/><circle cx="313.7" cy="135.2" r="1" opacity=".6"/><circle cx="334.2" cy="224" r=".8" opacity=".7"/><circle cx="105.5" cy="263.1" r=".9" opacity=".7"/><circle cx="231.3" cy="19.4" r=".7" opacity=".8"/><circle cx="237.4" cy="63.5" r=".6" opacity=".9"/><circle cx="331.1" cy="255.4" r=".6" opacity=".7"/><circle cx="174" cy="117.7" r=".8" opacity=".7"/><circle cx="230.6" cy="12" r=".4" opacity=".5"/><circle cx="330.3" cy="248.3" r="1.1" opacity=".6"/><circle cx="213.3" cy="182.2" r=".6" opacity=".9"/><circle cx="375.3" cy=".6" r=".7" opacity=".5"/><circle cx="351.2" cy="262.7" r="1.3" opacity=".6"/><circle cx="218.5" cy="49.2" r=".4" opacity=".7"/><circle cx="219.9" cy="253.1" r="1.3" opacity=".7"/><circle cx="13.4" cy="161.1" r="1.3" opacity=".6"/><circle cx="260.9" cy="144.2" r=".8" opacity=".6"/><circle cx="87.6" cy="124.2" r="1.2" opacity=".8"/><circle cx="3.2" cy="55" r=".5" opacity=".4"/><circle cx="-6.2" cy="208" r=".6" opacity=".7"/><circle cx="339" cy="36.5" r=".6" opacity=".4"/><circle cx="45.5" cy="284.5" r="1.3" opacity=".9"/><circle cx="67.4" cy="117.6" r="1" opacity=".4"/><circle cx="261.7" cy="252.1" r="1.3" opacity=".9"/><circle cx="117.6" cy="230.3" r=".6" opacity=".6"/><circle cx="20.8" cy="18.7" r=".5" opacity=".6"/><circle cx="302.4" cy="157.7" r=".6" opacity=".5"/><circle cx="142.4" cy="24.8" r=".6" opacity=".9"/><circle cx="318.1" cy="194.6" r=".5" opacity=".7"/><circle cx="321.2" cy="236.2" r=".6" opacity=".6"/><circle cx="246.3" cy="35.3" r="1" opacity=".4"/><circle cx="332.8" cy="57" r=".8" opacity=".8"/><circle cx="241.4" cy="286.6" r="1.1" opacity=".5"/><circle cx="48.8" cy="223.5" r="1.1" opacity=".5"/><circle cx="333.9" cy="103.4" r=".6" opacity=".4"/><circle cx="176.2" cy="226.1" r=".9" opacity=".5"/><circle cx="260" cy="-4.2" r="1.1" opacity=".8"/><circle cx="182.2" cy="10.1" r=".8" opacity=".9"/><circle cx="381.3" cy="217.3" r="1.1" opacity=".9"/><circle cx="103.8" cy="253.8" r="1.3" opacity=".9"/><circle cx="87.7" cy="184.2" r=".4" opacity=".5"/><circle cx="341.8" cy="33.3" r="1" opacity=".5"/><circle cx="397.6" cy="269.9" r="1.4" opacity=".7"/><circle cx="409.3" cy="36" r="1" opacity=".4"/><circle cx="241.3" cy="286.5" r="1.1" opacity=".8"/><circle cx="370.1" cy="250.7" r="1" opacity=".8"/><circle cx="55.2" cy="65" r="1.1" opacity=".8"/><circle cx="158.2" cy="130.6" r=".7" opacity=".8"/><circle cx="178.3" cy="88.8" r=".6" opacity=".6"/><circle cx="361.5" cy="63.1" r=".4" opacity=".6"/><circle cx="139.2" cy="259.6" r=".9" opacity=".7"/><circle cx="116.8" cy="111.5" r=".9" opacity=".6"/><circle cx="188.1" cy="279.1" r="1" opacity=".6"/><circle cx="297.4" cy="34" r=".5" opacity=".6"/><circle cx="213.1" cy="177.3" r=".5" opacity=".7"/><circle cx="382.2" cy="64" r=".8" opacity=".7"/><circle cx="322" cy="245" r="1" opacity=".7"/><circle cx="69" cy="146.7" r=".5" opacity=".4"/><circle cx="45.4" cy="246" r=".7" opacity=".4"/><circle cx="310.7" cy="120.8" r=".5" opacity=".7"/><circle cx="397" cy="-3.7" r="1.4" opacity=".7"/><circle cx="301.5" cy="172" r=".8" opacity=".6"/><circle cx="303.3" cy="122.7" r="1.1" opacity=".7"/><circle cx="336.9" cy="119.8" r=".7" opacity=".6"/><circle cx="223.1" cy="203.8" r="1" opacity=".4"/><circle cx="406.3" cy="120.8" r=".5" opacity=".8"/><circle cx="50.1" cy="-8.5" r="1.3" opacity=".7"/><circle cx="246.9" cy="106.4" r=".5" opacity=".9"/><circle cx=".7" cy="101.7" r="1.2" opacity=".8"/><circle cx="52.7" cy="105.5" r=".6" opacity=".5"/><circle cx="74.8" cy="19.5" r="1.3" opacity=".9"/><circle cx="155.1" cy="57.9" r="1.2" opacity=".7"/><circle cx="357.1" cy="149" r=".8" opacity=".7"/><circle cx="315.2" cy="282.6" r="1" opacity=".7"/><circle cx="200.9" cy="55.7" r=".6" opacity=".8"/><circle cx="181.5" cy="96.2" r=".9" opacity=".5"/><circle cx="17.9" cy="74" r=".9" opacity=".6"/><circle cx="321.8" cy="87.9" r="1.1" opacity=".5"/><circle cx="404.6" cy="196.1" r=".9" opacity=".6"/><circle cx="225.8" cy="39.4" r="1.1" opacity=".9"/><circle cx="321.1" cy="36.9" r="1.1" opacity=".5"/><circle cx="331.9" cy="106" r=".9" opacity=".6"/><circle cx="296" cy="244.8" r=".6" opacity=".9"/><circle cx="85" cy="1.1" r="1.2" opacity=".9"/><circle cx="59.8" cy="-7.3" r=".7" opacity=".4"/><circle cx="372.4" cy="84.9" r=".4" opacity=".7"/><circle cx="138.6" cy="20.1" r=".4" opacity=".6"/><circle cx="217.5" cy="276.3" r="1" opacity=".9"/><circle cx="156.7" cy="249.3" r=".6" opacity=".8"/><circle cx="167.9" cy="152.4" r="1.2" opacity=".4"/><circle cx="242.1" cy="146.4" r=".9" opacity=".5"/><circle cx="376" cy="94.8" r="1" opacity=".5"/><circle cx="45.4" cy="93.2" r=".4" opacity=".9"/><circle cx="52.8" cy="56.4" r=".9" opacity=".6"/><circle cx="106.1" cy="-5" r=".6" opacity=".8"/><circle cx="120.5" cy="222.5" r="1.1" opacity=".9"/><circle cx="62.1" cy="163.4" r=".5" opacity=".6"/><circle cx="319.1" cy="129.5" r="1.4" opacity=".8"/><circle cx="21.2" cy="155.7" r=".7" opacity=".4"/><circle cx="281.6" cy="222.3" r=".6" opacity=".9"/><circle cx="330.8" cy="170.7" r=".9" opacity=".7"/><circle cx="351.2" cy="235.8" r=".7" opacity=".8"/><circle cx="63.7" cy="269" r="1.2" opacity=".8"/><circle cx="359.3" cy="42.9" r="1.1" opacity=".8"/><circle cx="266.5" cy="201.3" r="1.2" opacity=".7"/></g>
<path d="M20.8 168.3l10.7 4.5M218.5 102.3l8.9 3.7M241.5 282.8l8.7 3.6M149.6 180.1l8.6 3.6M329.8 124.1l9.2 3.8M123.4 -4.7l6.6 2.8M135.7 56.2l9.7 4.1M136.9 139.2l4.9 2.1M370.3 161.4l4.7 2M81 6.5l6.6 2.8M347.1 34l4 1.7M7.4 188.9l7.1 3M382.9 60.3l9.3 3.9M389.2 13.8l6.9 2.9M13.5 81.3l5.8 2.4M406.9 47.3l9.5 4M357.3 34l4.3 1.8M-4.4 182.6l5.1 2.1M123.4 177.3l8.5 3.5M41.1 238.8l5.3 2.2M330 221.5l7.4 3.1M54.7 253.8l7.9 3.3M395.8 200.1l5.8 2.4M62.5 73.2l9.8 4.1M60.1 146.5l6.5 2.7M339.3 95.9l4.2 1.7M227.1 99.3l3.9 1.6M248.1 87.9l3.8 1.6M236.1 9l4.4 1.8M3.2 173.6l8.7 3.6M123.8 96.4l3.7 1.5M212 47l4.4 1.8M151.5 199.9l4.1 1.7M89.2 36.2l8.1 3.4M404.5 193.3l8.9 3.7M358.9 246l7.6 3.2M269.6 288.3l5.4 2.2M36.8 237.5l7.5 3.1M235.7 147.9l8.4 3.5M112.8 250.8l4.5 1.9M168.2 20.5l5.6 2.3M46.8 178l10.5 4.4M222.1 168.1l7.1 3M284 142.8l9 3.7M21.1 33.3l6.4 2.7M280.7 131.5l8.5 3.5M389.8 150.6l5.5 2.3M129.9 214.9l5.3 2.2M259 264.9l10.4 4.3M203 212.9l9 3.7M301.4 105.3l6.8 2.9M47.8 270.7l7.5 3.1M284.7 73.5l4.3 1.8M95.8 43.9l7.2 3M379.4 137.3l10.3 4.3M267.7 161.9l4.7 2M52.9 234.1l10.6 4.4M355 225.5l7.1 3M287.9 182.8l7.1 2.9M312.1 23.8l8.2 3.4" stroke="#ffffff" stroke-width=".8" stroke-linecap="round" opacity=".55"/>
<g fill="#ffffff" opacity=".5" filter="url(#c6c-blur1)"><circle cx="111.9" cy="130.6" r="3.1"/><circle cx="234.7" cy="126.7" r="3"/><circle cx="44.2" cy="66.3" r="3.6"/><circle cx="140.9" cy="109.8" r="3.1"/><circle cx="342.2" cy="243.7" r="3.1"/><circle cx="350" cy="222.5" r="2.9"/><circle cx="353.8" cy="247.2" r="2.5"/><circle cx="321.1" cy="70.4" r="2.5"/><circle cx="304.9" cy="61.6" r="2.3"/><circle cx="33.7" cy="203.9" r="2.2"/><circle cx="52.8" cy="37.1" r="2.9"/><circle cx="194.8" cy="184.2" r="2.5"/><circle cx="81.2" cy="106.6" r="3.6"/><circle cx="23.6" cy="186.9" r="2.2"/></g>
<g fill="#e8f6ff" opacity=".25" filter="url(#c6c-blur6)"><path d="M-10 250 C80 230 160 250 260 236 C320 228 370 240 410 232 L410 262 L-10 262 Z"/><path d="M-10 140 C60 130 120 150 200 140 L200 150 C120 160 60 144 -10 152 Z"/></g>
<rect width="400" height="300" filter="url(#c6c-grain)" opacity=".18" style="mix-blend-mode:overlay"/>
<rect width="400" height="300" fill="url(#c6c-vig)"/>
</svg>