<svg xmlns="http://www.w3.org/2000/svg" viewBox="0 0 400 300" width="400" height="300">
<defs>
<linearGradient id="t-storm-sky" x1="0" y1="0" x2="0" y2="1"><stop offset="0" stop-color="#0a0e1a"/><stop offset="0.4" stop-color="#1e2a40"/><stop offset="0.75" stop-color="#3a5070"/><stop offset="1" stop-color="#5a7090"/></linearGradient>
<radialGradient id="t-storm-flash" cx="0.3" cy="0.3" r="0.5"><stop offset="0" stop-color="#e0f0ff" stop-opacity="0.8"/><stop offset="0.3" stop-color="#8ab0ff" stop-opacity="0.35"/><stop offset="1" stop-color="#3a5070" stop-opacity="0"/></radialGradient>
<linearGradient id="t-storm-cl" x1="0" y1="0" x2="0" y2="1"><stop offset="0" stop-color="#1a2232"/><stop offset="0.6" stop-color="#2a3a52"/><stop offset="1" stop-color="#4a6080"/></linearGradient>
<linearGradient id="t-storm-cl2" x1="0" y1="0" x2="0" y2="1"><stop offset="0" stop-color="#2a3448"/><stop offset="1" stop-color="#6a80a0"/></linearGradient>
<linearGradient id="t-storm-sea" x1="0" y1="0" x2="0" y2="1"><stop offset="0" stop-color="#3a5a78"/><stop offset="0.4" stop-color="#1a3048"/><stop offset="1" stop-color="#0a1624"/></linearGradient>
<linearGradient id="t-storm-cliff" x1="0" y1="0" x2="1" y2="0.4"><stop offset="0" stop-color="#3a3c44"/><stop offset="0.5" stop-color="#22242c"/><stop offset="1" stop-color="#0c0e12"/></linearGradient>
<linearGradient id="t-storm-cliffR" x1="0" y1="0" x2="1" y2="0"><stop offset="0" stop-color="#4a5260"/><stop offset="1" stop-color="#2a3038"/></linearGradient>
<linearGradient id="t-storm-tor" x1="0" y1="0" x2="1" y2="0"><stop offset="0" stop-color="#8aa0c0" stop-opacity="0.1"/><stop offset="0.3" stop-color="#a0c0e0" stop-opacity="0.6"/><stop offset="0.5" stop-color="#d0e8ff" stop-opacity="0.75"/><stop offset="0.7" stop-color="#a0c0e0" stop-opacity="0.6"/><stop offset="1" stop-color="#8aa0c0" stop-opacity="0.1"/></linearGradient>
<filter id="t-storm-g2" x="-100%" y="-100%" width="300%" height="300%"><feGaussianBlur stdDeviation="2.5" result="b"/><feMerge><feMergeNode in="b"/><feMergeNode in="SourceGraphic"/></feMerge></filter>
<filter id="t-storm-b6" x="-50%" y="-50%" width="200%" height="200%"><feGaussianBlur stdDeviation="6"/></filter>
<filter id="t-storm-b1" x="-50%" y="-50%" width="200%" height="200%"><feGaussianBlur stdDeviation="1"/></filter>
<radialGradient id="t-storm-vig" cx="0.5" cy="0.5" r="0.75"><stop offset="0" stop-color="#02040a" stop-opacity="0"/><stop offset="0.45" stop-color="#02040a" stop-opacity="0"/><stop offset="1" stop-color="#02040a" stop-opacity="0.85"/></radialGradient>
</defs>
<rect width="400" height="300" fill="url(#t-storm-sky)"/>
<rect width="400" height="300" fill="url(#t-storm-flash)"/>
<g filter="url(#t-storm-b1)">
<ellipse cx="-28.3" cy="14.8" rx="34.1" ry="21" fill="url(#t-storm-cl)"/>
<ellipse cx="5.2" cy="27.2" rx="36.6" ry="22.5" fill="url(#t-storm-cl)"/>
<ellipse cx="48.8" cy="19.4" rx="36.3" ry="22.3" fill="url(#t-storm-cl)"/>
<ellipse cx="70.9" cy="21.7" rx="29.2" ry="18" fill="url(#t-storm-cl)"/>
<ellipse cx="107.8" cy="27.4" rx="26.8" ry="16.5" fill="url(#t-storm-cl)"/>
<ellipse cx="145.1" cy="24.3" rx="24.8" ry="15.2" fill="url(#t-storm-cl)"/>
<ellipse cx="181.9" cy="19.2" rx="31.9" ry="19.6" fill="url(#t-storm-cl)"/>
<ellipse cx="200" cy="20.9" rx="38.4" ry="23.6" fill="url(#t-storm-cl)"/>
<ellipse cx="233" cy="23.7" rx="35.6" ry="21.9" fill="url(#t-storm-cl)"/>
<ellipse cx="275.4" cy="23.1" rx="30.1" ry="18.5" fill="url(#t-storm-cl)"/>
<ellipse cx="296.8" cy="18.1" rx="29.2" ry="18" fill="url(#t-storm-cl)"/>
<ellipse cx="339.7" cy="25.3" rx="26.7" ry="16.5" fill="url(#t-storm-cl)"/>
<ellipse cx="359.3" cy="12.7" rx="37.9" ry="23.3" fill="url(#t-storm-cl)"/>
<ellipse cx="387.2" cy="18.3" rx="26.3" ry="16.2" fill="url(#t-storm-cl)"/>
<ellipse cx="-26.1" cy="57.1" rx="26.3" ry="16.2" fill="url(#t-storm-cl)"/>
<ellipse cx="14.7" cy="55.3" rx="27.7" ry="17" fill="url(#t-storm-cl)"/>
<ellipse cx="50.4" cy="54.3" rx="28.9" ry="17.8" fill="url(#t-storm-cl)"/>
<ellipse cx="77.3" cy="56.2" rx="30" ry="18.5" fill="url(#t-storm-cl)"/>
<ellipse cx="104.8" cy="56.4" rx="32.3" ry="19.9" fill="url(#t-storm-cl)"/>
<ellipse cx="149" cy="52.7" rx="26.4" ry="16.3" fill="url(#t-storm-cl)"/>
<ellipse cx="169.1" cy="52" rx="22.3" ry="13.7" fill="url(#t-storm-cl)"/>
<ellipse cx="208.6" cy="53.3" rx="33.2" ry="20.4" fill="url(#t-storm-cl)"/>
<ellipse cx="230.4" cy="51.3" rx="28.1" ry="17.3" fill="url(#t-storm-cl)"/>
<ellipse cx="270" cy="48.5" rx="19.6" ry="12.1" fill="url(#t-storm-cl)"/>
<ellipse cx="308.5" cy="56.5" rx="22" ry="13.5" fill="url(#t-storm-cl)"/>
<ellipse cx="340.3" cy="51.5" rx="19.6" ry="12.1" fill="url(#t-storm-cl)"/>
<ellipse cx="366.7" cy="46.8" rx="25.3" ry="15.6" fill="url(#t-storm-cl)"/>
<ellipse cx="388.1" cy="55.3" rx="29.6" ry="18.2" fill="url(#t-storm-cl)"/>
<ellipse cx="-25.4" cy="81.1" rx="22.2" ry="13.7" fill="url(#t-storm-cl2)"/>
<ellipse cx="21.7" cy="75.3" rx="26.3" ry="16.2" fill="url(#t-storm-cl2)"/>
<ellipse cx="50" cy="86.2" rx="19.8" ry="12.2" fill="url(#t-storm-cl2)"/>
<ellipse cx="83.3" cy="74.9" rx="17.9" ry="11" fill="url(#t-storm-cl2)"/>
<ellipse cx="110.3" cy="86.4" rx="22" ry="13.6" fill="url(#t-storm-cl2)"/>
<ellipse cx="133.5" cy="73.6" rx="22" ry="13.6" fill="url(#t-storm-cl2)"/>
<ellipse cx="179.4" cy="82.1" rx="23.1" ry="14.2" fill="url(#t-storm-cl2)"/>
<ellipse cx="204.5" cy="75.3" rx="19.2" ry="11.8" fill="url(#t-storm-cl2)"/>
<ellipse cx="231.3" cy="83.7" rx="25.8" ry="15.9" fill="url(#t-storm-cl2)"/>
<ellipse cx="259" cy="81" rx="30.6" ry="18.8" fill="url(#t-storm-cl2)"/>
<ellipse cx="291.5" cy="74.6" rx="30.7" ry="18.9" fill="url(#t-storm-cl2)"/>
<ellipse cx="332.4" cy="86.4" rx="28.6" ry="17.6" fill="url(#t-storm-cl2)"/>
<ellipse cx="363.4" cy="87.8" rx="19.7" ry="12.1" fill="url(#t-storm-cl2)"/>
<ellipse cx="392.2" cy="75.6" rx="27.4" ry="16.8" fill="url(#t-storm-cl2)"/>
</g>
<path d="M74.5 62.2q12 -6 24 0" stroke="#c8dcff" stroke-width="1" fill="none" opacity="0.5" filter="url(#t-storm-b1)"/>
<path d="M168.3 75.8q12 -6 24 0" stroke="#c8dcff" stroke-width="1" fill="none" opacity="0.5" filter="url(#t-storm-b1)"/>
<path d="M104 47.8q12 -6 24 0" stroke="#c8dcff" stroke-width="1" fill="none" opacity="0.5" filter="url(#t-storm-b1)"/>
<path d="M175.2 82.3q12 -6 24 0" stroke="#c8dcff" stroke-width="1" fill="none" opacity="0.5" filter="url(#t-storm-b1)"/>
<path d="M149.6 69.8q12 -6 24 0" stroke="#c8dcff" stroke-width="1" fill="none" opacity="0.5" filter="url(#t-storm-b1)"/>
<path d="M74.5 57q12 -6 24 0" stroke="#c8dcff" stroke-width="1" fill="none" opacity="0.5" filter="url(#t-storm-b1)"/>
<path d="M99.2 65.1q12 -6 24 0" stroke="#c8dcff" stroke-width="1" fill="none" opacity="0.5" filter="url(#t-storm-b1)"/>
<path d="M99.2 70.5q12 -6 24 0" stroke="#c8dcff" stroke-width="1" fill="none" opacity="0.5" filter="url(#t-storm-b1)"/>
<rect y="170" width="400" height="130" fill="url(#t-storm-sea)"/>
<rect y="166" width="400" height="10" fill="#8aa0c0" opacity="0.4" filter="url(#t-storm-b6)"/>
<path d="M290 175L296 150L310 140L318 120L336 112L350 118L366 108L384 114L410 110L410 300L300 300C300 260 296 220 290 175Z" fill="url(#t-storm-cliffR)"/>
<path d="M296 150L310 140L318 120L336 112L350 118L366 108L384 114L410 110" stroke="#9ab0d0" stroke-width="0.8" fill="none" opacity="0.6"/>
<path d="M324.4 178.7l30.4 -2.8" stroke="#1a2028" stroke-width="0.7" opacity="0.7"/>
<path d="M308.8 141.2l47.4 0.3" stroke="#1a2028" stroke-width="0.7" opacity="0.7"/>
<path d="M319.8 191.1l48.1 -1.8" stroke="#1a2028" stroke-width="0.7" opacity="0.7"/>
<path d="M322.5 146.5l49.1 -0.6" stroke="#1a2028" stroke-width="0.7" opacity="0.7"/>
<path d="M319 205.8l23.3 -0.3" stroke="#1a2028" stroke-width="0.7" opacity="0.7"/>
<path d="M321.6 213.8l47.3 -1" stroke="#1a2028" stroke-width="0.7" opacity="0.7"/>
<path d="M316.1 224.8l59.8 2.7" stroke="#1a2028" stroke-width="0.7" opacity="0.7"/>
<path d="M308.9 228.2l57.9 -1.4" stroke="#1a2028" stroke-width="0.7" opacity="0.7"/>
<g filter="url(#t-storm-b1)">
<ellipse cx="226" cy="62" rx="90" ry="16" fill="none" stroke="#3a4c68" stroke-width="5" opacity="0.7" stroke-dasharray="30 8" transform="rotate(-4 226 70)"/>
<ellipse cx="226" cy="64" rx="77" ry="14" fill="none" stroke="#4a5e80" stroke-width="4.5" opacity="0.7" stroke-dasharray="27 9" transform="rotate(-4 226 70)"/>
<ellipse cx="226" cy="66" rx="64" ry="12" fill="none" stroke="#5a7090" stroke-width="4" opacity="0.7" stroke-dasharray="24 10" transform="rotate(-4 226 70)"/>
<ellipse cx="226" cy="68" rx="51" ry="10" fill="none" stroke="#6a82a8" stroke-width="3.5" opacity="0.7" stroke-dasharray="21 11" transform="rotate(-4 226 70)"/>
<ellipse cx="226" cy="70" rx="38" ry="8" fill="none" stroke="#8aa0c0" stroke-width="3" opacity="0.7" stroke-dasharray="18 12" transform="rotate(-4 226 70)"/>
<ellipse cx="226" cy="72" rx="25" ry="6" fill="none" stroke="#a8c0e0" stroke-width="2.5" opacity="0.7" stroke-dasharray="15 13" transform="rotate(-4 226 70)"/>
</g>
<path d="M199.5 66C191.1 66.7 201.2 69.7 201.8 71C202.4 72.4 203.5 74.7 204.2 76.1C204.8 77.4 205.9 79.8 206.5 81.1C207.2 82.4 208.3 84.8 209 86.1C209.6 87.5 210.7 89.8 211.4 91.2C212 92.5 213.1 94.9 213.8 96.2C214.4 97.5 215.4 99.9 216 101.2C216.6 102.6 217.6 104.9 218.1 106.3C218.6 107.6 219.5 110 219.9 111.3C220.4 112.7 221.1 115 221.5 116.3C221.8 117.7 222.4 120 222.7 121.4C222.9 122.7 223.3 125.1 223.5 126.4C223.6 127.8 223.8 130.1 223.9 131.4C224 132.8 224 135.1 224 136.5C224 137.8 223.9 140.2 223.8 141.5C223.7 142.9 223.5 145.2 223.4 146.6C223.3 147.9 223 150.2 222.8 151.6C222.7 152.9 222.4 155.3 222.2 156.6C222 158 221.8 160.3 221.6 161.7C221.5 163 221.3 165.3 221.2 166.7C221.1 168 221 170.4 220.9 171.7C220.9 173.1 220.9 175.4 220.9 176.8C220.9 178.1 221 180.5 221.1 181.8C221.2 183.1 221.4 185.5 221.6 186.8C221.7 188.2 222 190.5 222.3 191.9C222.5 193.2 222.9 195.6 223.1 196.9C223.3 198.2 223.8 200.6 224.1 201.9C224.3 203.3 224.8 205.6 225 207C225.2 208.3 225 211.3 225.8 212C226.6 212.7 230.2 212.7 230.8 212C231.5 211.3 230.7 208.3 230.7 207C230.7 205.6 230.8 203.3 230.8 201.9C230.9 200.6 231.1 198.2 231.2 196.9C231.4 195.6 231.6 193.2 231.8 191.9C232 190.5 232.4 188.2 232.6 186.8C232.9 185.5 233.4 183.1 233.6 181.8C233.9 180.5 234.5 178.1 234.8 176.8C235.2 175.4 235.8 173.1 236.2 171.7C236.6 170.4 237.3 168 237.7 166.7C238.1 165.3 238.9 163 239.4 161.7C239.8 160.3 240.7 158 241.2 156.6C241.7 155.3 242.6 152.9 243.2 151.6C243.7 150.2 244.7 147.9 245.3 146.6C245.9 145.2 246.9 142.9 247.6 141.5C248.2 140.2 249.3 137.8 250 136.5C250.6 135.1 251.8 132.8 252.4 131.4C253.1 130.1 254.3 127.8 254.9 126.4C255.6 125.1 256.8 122.7 257.4 121.4C258.1 120 259.2 117.7 259.8 116.3C260.4 115 261.5 112.7 262 111.3C262.6 110 263.5 107.6 263.9 106.3C264.4 104.9 265.2 102.6 265.5 101.2C265.9 99.9 266.4 97.5 266.7 96.2C266.9 94.9 267.3 92.5 267.4 91.2C267.5 89.8 267.6 87.5 267.6 86.1C267.6 84.8 267.5 82.4 267.4 81.1C267.2 79.8 266.9 77.4 266.7 76.1C266.5 74.7 266 72.4 265.7 71C265.4 69.7 273.3 66.7 264.5 66C255.7 65.3 207.9 65.3 199.5 66Z" fill="#a0b8d8" opacity="0.35" filter="url(#t-storm-b6)"/>
<path d="M199.5 66C191.1 66.7 201.2 69.7 201.8 71C202.4 72.4 203.5 74.7 204.2 76.1C204.8 77.4 205.9 79.8 206.5 81.1C207.2 82.4 208.3 84.8 209 86.1C209.6 87.5 210.7 89.8 211.4 91.2C212 92.5 213.1 94.9 213.8 96.2C214.4 97.5 215.4 99.9 216 101.2C216.6 102.6 217.6 104.9 218.1 106.3C218.6 107.6 219.5 110 219.9 111.3C220.4 112.7 221.1 115 221.5 116.3C221.8 117.7 222.4 120 222.7 121.4C222.9 122.7 223.3 125.1 223.5 126.4C223.6 127.8 223.8 130.1 223.9 131.4C224 132.8 224 135.1 224 136.5C224 137.8 223.9 140.2 223.8 141.5C223.7 142.9 223.5 145.2 223.4 146.6C223.3 147.9 223 150.2 222.8 151.6C222.7 152.9 222.4 155.3 222.2 156.6C222 158 221.8 160.3 221.6 161.7C221.5 163 221.3 165.3 221.2 166.7C221.1 168 221 170.4 220.9 171.7C220.9 173.1 220.9 175.4 220.9 176.8C220.9 178.1 221 180.5 221.1 181.8C221.2 183.1 221.4 185.5 221.6 186.8C221.7 188.2 222 190.5 222.3 191.9C222.5 193.2 222.9 195.6 223.1 196.9C223.3 198.2 223.8 200.6 224.1 201.9C224.3 203.3 224.8 205.6 225 207C225.2 208.3 225 211.3 225.8 212C226.6 212.7 230.2 212.7 230.8 212C231.5 211.3 230.7 208.3 230.7 207C230.7 205.6 230.8 203.3 230.8 201.9C230.9 200.6 231.1 198.2 231.2 196.9C231.4 195.6 231.6 193.2 231.8 191.9C232 190.5 232.4 188.2 232.6 186.8C232.9 185.5 233.4 183.1 233.6 181.8C233.9 180.5 234.5 178.1 234.8 176.8C235.2 175.4 235.8 173.1 236.2 171.7C236.6 170.4 237.3 168 237.7 166.7C238.1 165.3 238.9 163 239.4 161.7C239.8 160.3 240.7 158 241.2 156.6C241.7 155.3 242.6 152.9 243.2 151.6C243.7 150.2 244.7 147.9 245.3 146.6C245.9 145.2 246.9 142.9 247.6 141.5C248.2 140.2 249.3 137.8 250 136.5C250.6 135.1 251.8 132.8 252.4 131.4C253.1 130.1 254.3 127.8 254.9 126.4C255.6 125.1 256.8 122.7 257.4 121.4C258.1 120 259.2 117.7 259.8 116.3C260.4 115 261.5 112.7 262 111.3C262.6 110 263.5 107.6 263.9 106.3C264.4 104.9 265.2 102.6 265.5 101.2C265.9 99.9 266.4 97.5 266.7 96.2C266.9 94.9 267.3 92.5 267.4 91.2C267.5 89.8 267.6 87.5 267.6 86.1C267.6 84.8 267.5 82.4 267.4 81.1C267.2 79.8 266.9 77.4 266.7 76.1C266.5 74.7 266 72.4 265.7 71C265.4 69.7 273.3 66.7 264.5 66C255.7 65.3 207.9 65.3 199.5 66Z" fill="url(#t-storm-tor)" filter="url(#t-storm-b1)"/>
<g stroke="#e8f4ff" fill="none" stroke-linecap="round" filter="url(#t-storm-b1)">
<path d="M201.8 70C221 76.2 246.5 73 265.7 68" stroke-width="1.3" opacity="0.38"/>
<path d="M204.2 75.1C222.9 81.2 247.9 78.1 266.7 73.1" stroke-width="1.2" opacity="0.51"/>
<path d="M206.5 80.1C224.8 86.1 249.1 83.1 267.4 78.1" stroke-width="1.2" opacity="0.57"/>
<path d="M209 85.1C226.6 91.1 250 88.1 267.6 83.1" stroke-width="1.2" opacity="0.41"/>
<path d="M211.4 90.2C228.2 96 250.6 93.2 267.4 88.2" stroke-width="1.1" opacity="0.69"/>
<path d="M213.8 95.2C229.6 100.9 250.8 98.2 266.7 93.2" stroke-width="1.1" opacity="0.33"/>
<path d="M216 100.2C230.9 105.7 250.7 103.2 265.5 98.2" stroke-width="1.1" opacity="0.63"/>
<path d="M218.1 105.3C231.9 110.6 250.2 108.3 263.9 103.3" stroke-width="1.0" opacity="0.59"/>
<path d="M219.9 110.3C232.6 115.4 249.4 113.3 262 108.3" stroke-width="1.0" opacity="0.61"/>
<path d="M221.5 115.3C233 120.3 248.3 118.3 259.8 113.3" stroke-width="1.0" opacity="0.48"/>
<path d="M222.7 120.4C233.1 125.1 247 123.4 257.4 118.4" stroke-width="0.9" opacity="0.66"/>
<path d="M223.5 125.4C232.9 130 245.5 128.4 254.9 123.4" stroke-width="0.9" opacity="0.43"/>
<path d="M223.9 130.4C232.5 134.9 243.9 133.4 252.4 128.4" stroke-width="0.9" opacity="0.49"/>
<path d="M224 135.5C231.8 139.8 242.2 138.5 250 133.5" stroke-width="0.9" opacity="0.63"/>
<path d="M223.8 140.5C230.9 144.7 240.4 143.5 247.6 138.5" stroke-width="0.8" opacity="0.65"/>
<path d="M223.4 145.6C230 149.6 238.7 148.6 245.3 143.6" stroke-width="0.8" opacity="0.32"/>
<path d="M222.8 150.6C228.9 154.6 237.1 153.6 243.2 148.6" stroke-width="0.8" opacity="0.54"/>
<path d="M222.2 155.6C227.9 159.6 235.5 158.6 241.2 153.6" stroke-width="0.7" opacity="0.66"/>
<path d="M221.6 160.7C226.9 164.5 234 163.7 239.4 158.7" stroke-width="0.7" opacity="0.43"/>
<path d="M221.2 165.7C226.1 169.5 232.7 168.7 237.7 163.7" stroke-width="0.7" opacity="0.36"/>
<path d="M220.9 170.7C225.5 174.5 231.6 173.7 236.2 168.7" stroke-width="0.6" opacity="0.54"/>
<path d="M220.9 175.8C225.1 179.5 230.6 178.8 234.8 173.8" stroke-width="0.6" opacity="0.63"/>
<path d="M221.1 180.8C224.9 184.4 229.9 183.8 233.6 178.8" stroke-width="0.6" opacity="0.39"/>
<path d="M221.6 185.8C224.9 189.4 229.3 188.8 232.6 183.8" stroke-width="0.5" opacity="0.61"/>
<path d="M222.3 190.9C225.1 194.3 229 193.9 231.8 188.9" stroke-width="0.5" opacity="0.36"/>
<path d="M223.1 195.9C225.5 199.3 228.8 198.9 231.2 193.9" stroke-width="0.5" opacity="0.69"/>
<path d="M224.1 200.9C226.1 204.3 228.8 203.9 230.8 198.9" stroke-width="0.4" opacity="0.34"/>
</g>
<rect x="254" y="78.5" width="1.1" height="0.8" fill="#12161e" transform="rotate(158 254 78.5)"/>
<rect x="223.5" y="184.5" width="2.4" height="0.7" fill="#12161e" transform="rotate(128.7 223.5 184.5)"/>
<rect x="249.4" y="134.7" width="2.8" height="0.7" fill="#12161e" transform="rotate(109.6 249.4 134.7)"/>
<rect x="217.4" y="110.3" width="2.9" height="1.1" fill="#12161e" transform="rotate(118 217.4 110.3)"/>
<rect x="241.5" y="128.5" width="1.2" height="1.5" fill="#12161e" transform="rotate(49.7 241.5 128.5)"/>
<rect x="238.5" y="154.4" width="2.8" height="1.4" fill="#12161e" transform="rotate(164 238.5 154.4)"/>
<rect x="217.7" y="152.4" width="1.7" height="1.2" fill="#12161e" transform="rotate(73.6 217.7 152.4)"/>
<rect x="217.4" y="78.6" width="2.2" height="1.3" fill="#12161e" transform="rotate(174.7 217.4 78.6)"/>
<rect x="199.8" y="80.1" width="1.1" height="1.1" fill="#12161e" transform="rotate(46.6 199.8 80.1)"/>
<rect x="236.4" y="143.6" width="1.5" height="1" fill="#12161e" transform="rotate(39.6 236.4 143.6)"/>
<rect x="219.7" y="183.7" width="2.8" height="1.1" fill="#12161e" transform="rotate(98.5 219.7 183.7)"/>
<rect x="218.9" y="199.9" width="1.7" height="1.1" fill="#12161e" transform="rotate(51.2 218.9 199.9)"/>
<rect x="227.2" y="174.7" width="1.4" height="1.4" fill="#12161e" transform="rotate(68.6 227.2 174.7)"/>
<rect x="218.2" y="186.4" width="2.4" height="1.4" fill="#12161e" transform="rotate(81 218.2 186.4)"/>
<rect x="222.4" y="194.3" width="2.7" height="1.2" fill="#12161e" transform="rotate(167.4 222.4 194.3)"/>
<rect x="273.4" y="90.1" width="1.8" height="1" fill="#12161e" transform="rotate(94.1 273.4 90.1)"/>
<rect x="195.3" y="76.7" width="2.5" height="1.2" fill="#12161e" transform="rotate(27.3 195.3 76.7)"/>
<rect x="227.7" y="184.8" width="1.9" height="0.8" fill="#12161e" transform="rotate(100 227.7 184.8)"/>
<rect x="256.4" y="68.6" width="2.1" height="1.2" fill="#12161e" transform="rotate(141.5 256.4 68.6)"/>
<rect x="192.2" y="65.3" width="2.7" height="1.1" fill="#12161e" transform="rotate(176.1 192.2 65.3)"/>
<rect x="237.9" y="113.4" width="1.8" height="1.5" fill="#12161e" transform="rotate(146.4 237.9 113.4)"/>
<rect x="224.3" y="189.1" width="2.9" height="1.3" fill="#12161e" transform="rotate(134.2 224.3 189.1)"/>
<rect x="264.6" y="122.5" width="2.9" height="1" fill="#12161e" transform="rotate(84.6 264.6 122.5)"/>
<rect x="246.5" y="143.5" width="2.4" height="0.9" fill="#12161e" transform="rotate(6.2 246.5 143.5)"/>
<rect x="242.3" y="159.1" width="2.9" height="0.7" fill="#12161e" transform="rotate(109.1 242.3 159.1)"/>
<rect x="237.2" y="169.7" width="2.2" height="1.2" fill="#12161e" transform="rotate(4.5 237.2 169.7)"/>
<rect x="266.9" y="121.8" width="1.8" height="0.6" fill="#12161e" transform="rotate(8.6 266.9 121.8)"/>
<rect x="263.5" y="103.3" width="1.9" height="0.7" fill="#12161e" transform="rotate(12.5 263.5 103.3)"/>
<rect x="227.2" y="88.4" width="1.8" height="0.9" fill="#12161e" transform="rotate(12.3 227.2 88.4)"/>
<rect x="237.8" y="103.3" width="3" height="0.7" fill="#12161e" transform="rotate(173.1 237.8 103.3)"/>
<rect x="269.4" y="97.2" width="2" height="0.8" fill="#12161e" transform="rotate(16.5 269.4 97.2)"/>
<rect x="213.5" y="162.1" width="2.2" height="0.7" fill="#12161e" transform="rotate(13.8 213.5 162.1)"/>
<rect x="241.8" y="108.3" width="2.8" height="1.4" fill="#12161e" transform="rotate(98.1 241.8 108.3)"/>
<rect x="224" y="159.4" width="2.8" height="1.5" fill="#12161e" transform="rotate(119.6 224 159.4)"/>
<rect x="256.3" y="128" width="2.3" height="1.4" fill="#12161e" transform="rotate(174.3 256.3 128)"/>
<rect x="211.7" y="100.1" width="1.5" height="1" fill="#12161e" transform="rotate(66.4 211.7 100.1)"/>
<rect x="224.7" y="154" width="2.8" height="0.9" fill="#12161e" transform="rotate(55.2 224.7 154)"/>
<rect x="230.1" y="184.6" width="1.1" height="1.2" fill="#12161e" transform="rotate(123.1 230.1 184.6)"/>
<rect x="265.6" y="110.8" width="2.6" height="0.8" fill="#12161e" transform="rotate(123.8 265.6 110.8)"/>
<rect x="211.6" y="105.2" width="2.4" height="1.2" fill="#12161e" transform="rotate(113.8 211.6 105.2)"/>
<ellipse cx="232" cy="210" rx="34" ry="7" fill="#c0d8f0" opacity="0.5" filter="url(#t-storm-b6)"/>
<ellipse cx="160" cy="125.6" rx="18.2" ry="9.8" fill="#60c0ff" opacity="0.3" filter="url(#t-storm-b6)"/>
<path d="M146 120L151.6 116.9L158.6 115.8L167 117.2L174 120.7L171.2 124.9L165.6 127.7L163.5 133.3L159.3 138.9L155.8 131.2L150.2 126.3Z" fill="#252a34"/>
<path d="M162.8 120L171.2 124.9L159.3 138.9Z" fill="#1a1e26"/>
<path d="M146 120L151.6 116.9L158.6 115.8L167 117.2L174 120.7L167 122.1L153 122.1Z" fill="#5a6478"/>
<path d="M146 120L151.6 116.9L158.6 115.8L167 117.2L174 120.7" stroke="#b0c8f0" stroke-width="0.6" fill="none"/>
<path d="M153 124.9L157.9 128.4L159.3 135.4" stroke="#80e0ff" stroke-width="0.7" fill="none" filter="url(#t-storm-g2)"/>
<path d="M151.6 117.2l-1.5 -2.5" stroke="#2a3a2a" stroke-width="0.6"/>
<path d="M156.5 117.2l-1.5 -2.5" stroke="#2a3a2a" stroke-width="0.6"/>
<path d="M161.4 117.2l-1.5 -2.5" stroke="#2a3a2a" stroke-width="0.6"/>
<path d="M166.3 117.2l-1.5 -2.5" stroke="#2a3a2a" stroke-width="0.6"/>
<circle cx="155.9" cy="141" r="1.2" fill="#2a303c"/>
<circle cx="163.9" cy="149.4" r="1.2" fill="#2a303c"/>
<circle cx="163" cy="157.8" r="1.2" fill="#2a303c"/>
<ellipse cx="300" cy="84" rx="13" ry="7" fill="#60c0ff" opacity="0.3" filter="url(#t-storm-b6)"/>
<path d="M290 80L294 77.8L299 77L305 78L310 80.5L308 83.5L304 85.5L302.5 89.5L299.5 93.5L297 88L293 84.5Z" fill="#252a34"/>
<path d="M302 80L308 83.5L299.5 93.5Z" fill="#1a1e26"/>
<path d="M290 80L294 77.8L299 77L305 78L310 80.5L305 81.5L295 81.5Z" fill="#5a6478"/>
<path d="M290 80L294 77.8L299 77L305 78L310 80.5" stroke="#b0c8f0" stroke-width="0.6" fill="none"/>
<path d="M295 83.5L298.5 86L299.5 91" stroke="#80e0ff" stroke-width="0.7" fill="none" filter="url(#t-storm-g2)"/>
<path d="M294 78l-1.5 -2.5" stroke="#2a3a2a" stroke-width="0.6"/>
<path d="M297.5 78l-1.5 -2.5" stroke="#2a3a2a" stroke-width="0.6"/>
<path d="M301 78l-1.5 -2.5" stroke="#2a3a2a" stroke-width="0.6"/>
<path d="M304.5 78l-1.5 -2.5" stroke="#2a3a2a" stroke-width="0.6"/>
<circle cx="303.6" cy="95" r="1" fill="#2a303c"/>
<circle cx="303.6" cy="101" r="1" fill="#2a303c"/>
<circle cx="296.5" cy="107" r="1" fill="#2a303c"/>
<ellipse cx="120" cy="72.8" rx="9.1" ry="4.9" fill="#60c0ff" opacity="0.3" filter="url(#t-storm-b6)"/>
<path d="M113 70L115.8 68.5L119.3 67.9L123.5 68.6L127 70.3L125.6 72.5L122.8 73.8L121.8 76.7L119.7 79.5L117.9 75.6L115.1 73.2Z" fill="#252a34"/>
<path d="M121.4 70L125.6 72.5L119.7 79.5Z" fill="#1a1e26"/>
<path d="M113 70L115.8 68.5L119.3 67.9L123.5 68.6L127 70.3L123.5 71L116.5 71Z" fill="#5a6478"/>
<path d="M113 70L115.8 68.5L119.3 67.9L123.5 68.6L127 70.3" stroke="#b0c8f0" stroke-width="0.6" fill="none"/>
<path d="M116.5 72.5L119 74.2L119.7 77.7" stroke="#80e0ff" stroke-width="0.7" fill="none" filter="url(#t-storm-g2)"/>
<path d="M115.8 68.6l-1.5 -2.5" stroke="#2a3a2a" stroke-width="0.6"/>
<path d="M118.2 68.6l-1.5 -2.5" stroke="#2a3a2a" stroke-width="0.6"/>
<path d="M120.7 68.6l-1.5 -2.5" stroke="#2a3a2a" stroke-width="0.6"/>
<path d="M123.1 68.6l-1.5 -2.5" stroke="#2a3a2a" stroke-width="0.6"/>
<circle cx="118.5" cy="80.5" r="0.8" fill="#2a303c"/>
<circle cx="120.2" cy="84.7" r="0.8" fill="#2a303c"/>
<circle cx="119.3" cy="88.9" r="0.8" fill="#2a303c"/>
<ellipse cx="350" cy="153.2" rx="10.4" ry="5.6" fill="#60c0ff" opacity="0.3" filter="url(#t-storm-b6)"/>
<path d="M342 150L345.2 148.2L349.2 147.6L354 148.4L358 150.4L356.4 152.8L353.2 154.4L352 157.6L349.6 160.8L347.6 156.4L344.4 153.6Z" fill="#252a34"/>
<path d="M351.6 150L356.4 152.8L349.6 160.8Z" fill="#1a1e26"/>
<path d="M342 150L345.2 148.2L349.2 147.6L354 148.4L358 150.4L354 151.2L346 151.2Z" fill="#5a6478"/>
<path d="M342 150L345.2 148.2L349.2 147.6L354 148.4L358 150.4" stroke="#b0c8f0" stroke-width="0.6" fill="none"/>
<path d="M346 152.8L348.8 154.8L349.6 158.8" stroke="#80e0ff" stroke-width="0.7" fill="none" filter="url(#t-storm-g2)"/>
<path d="M345.2 148.4l-1.5 -2.5" stroke="#2a3a2a" stroke-width="0.6"/>
<path d="M348 148.4l-1.5 -2.5" stroke="#2a3a2a" stroke-width="0.6"/>
<path d="M350.8 148.4l-1.5 -2.5" stroke="#2a3a2a" stroke-width="0.6"/>
<path d="M353.6 148.4l-1.5 -2.5" stroke="#2a3a2a" stroke-width="0.6"/>
<circle cx="348.3" cy="162" r="0.9" fill="#2a303c"/>
<circle cx="347.5" cy="166.8" r="0.9" fill="#2a303c"/>
<circle cx="349.3" cy="171.6" r="0.9" fill="#2a303c"/>
<ellipse cx="205" cy="152" rx="6.5" ry="3.5" fill="#60c0ff" opacity="0.3" filter="url(#t-storm-b6)"/>
<path d="M200 150L202 148.9L204.5 148.5L207.5 149L210 150.2L209 151.8L207 152.8L206.2 154.8L204.8 156.8L203.5 154L201.5 152.2Z" fill="#252a34"/>
<path d="M206 150L209 151.8L204.8 156.8Z" fill="#1a1e26"/>
<path d="M200 150L202 148.9L204.5 148.5L207.5 149L210 150.2L207.5 150.8L202.5 150.8Z" fill="#5a6478"/>
<path d="M200 150L202 148.9L204.5 148.5L207.5 149L210 150.2" stroke="#b0c8f0" stroke-width="0.6" fill="none"/>
<path d="M202.5 151.8L204.2 153L204.8 155.5" stroke="#80e0ff" stroke-width="0.7" fill="none" filter="url(#t-storm-g2)"/>
<path d="M202 149l-1.5 -2.5" stroke="#2a3a2a" stroke-width="0.6"/>
<path d="M203.8 149l-1.5 -2.5" stroke="#2a3a2a" stroke-width="0.6"/>
<path d="M205.5 149l-1.5 -2.5" stroke="#2a3a2a" stroke-width="0.6"/>
<path d="M207.2 149l-1.5 -2.5" stroke="#2a3a2a" stroke-width="0.6"/>
<circle cx="205.5" cy="157.5" r="0.7" fill="#2a303c"/>
<circle cx="206" cy="160.5" r="0.7" fill="#2a303c"/>
<circle cx="206.2" cy="163.5" r="0.7" fill="#2a303c"/>
<path d="M110 50L105.3 61.3L102.9 72.9L105.2 81.3L96.4 94.3L92.1 103.7L101 114.5L107.1 125.4L109.6 134.3L112 147.5L112.4 160L115.5 168.3" stroke="#a0c8ff" stroke-width="5.4" fill="none" opacity="0.6" filter="url(#t-storm-b6)"/>
<path d="M110 50L105.3 61.3L102.9 72.9L105.2 81.3L96.4 94.3L92.1 103.7L101 114.5L107.1 125.4L109.6 134.3L112 147.5L112.4 160L115.5 168.3" stroke="#ffffff" stroke-width="1.8" fill="none" stroke-linejoin="bevel" filter="url(#t-storm-g2)"/>
<path d="M102.9 72.9 L111.2 84.4 L93.4 89.2" stroke="#e0f0ff" stroke-width="0.9" fill="none" filter="url(#t-storm-g2)"/>
<path d="M92.1 103.7 L103.8 114.5 L102.6 128.5" stroke="#e0f0ff" stroke-width="0.9" fill="none" filter="url(#t-storm-g2)"/>
<path d="M109.6 134.3 L116.4 147.8 L104.6 158.3" stroke="#e0f0ff" stroke-width="0.9" fill="none" filter="url(#t-storm-g2)"/>
<path d="M330 40L329.3 50.2L322.8 63.4L313.9 74.5L321.1 82.9L322.1 94.6L313.8 104.9L317.5 115.6" stroke="#a0c8ff" stroke-width="3.6" fill="none" opacity="0.6" filter="url(#t-storm-b6)"/>
<path d="M330 40L329.3 50.2L322.8 63.4L313.9 74.5L321.1 82.9L322.1 94.6L313.8 104.9L317.5 115.6" stroke="#ffffff" stroke-width="1.2" fill="none" stroke-linejoin="bevel" filter="url(#t-storm-g2)"/>
<path d="M322.8 63.4 L330 72.4 L310.3 80.5" stroke="#e0f0ff" stroke-width="0.6" fill="none" filter="url(#t-storm-g2)"/>
<path d="M322.1 94.6 L322.3 108.2 L326.4 118.4" stroke="#e0f0ff" stroke-width="0.6" fill="none" filter="url(#t-storm-g2)"/>
<path d="M-10 180Q2.1 175.9 14.1 180Q29.5 177.6 44.8 180Q57.3 176.8 69.8 180Q83.8 177.4 97.9 180Q108.7 177 119.5 180Q130.6 177.9 141.8 180Q154.8 178 167.7 180Q181.6 177.5 195.5 180Q206.6 176.6 217.8 180Q227.1 175.8 236.4 180Q250.5 176.8 264.6 180Q280.7 176.2 296.8 180Q309.6 176.2 322.4 180Q331.6 176.2 340.9 180Q357.6 177.2 374.4 180Q387.8 176.8 401.2 180Q414.5 177.9 427.9 180L410 300L-10 300Z" fill="#2a4460"/>
<path d="M-10 178.5c9.5 -1.5 18.9 -1.2 37.9 0.4c-11.8 -0.6 -23.7 -0.3 -37.9 -0.4z" fill="#d8e8f8" opacity="0.20"/>
<path d="M57.8 178.5c4.6 -1.5 9.1 -1.2 18.3 0.4c-5.7 -0.6 -11.4 -0.3 -18.3 -0.4z" fill="#d8e8f8" opacity="0.20"/>
<path d="M80.9 178.5c9.8 -1.5 19.7 -1.2 39.4 0.4c-12.3 -0.6 -24.6 -0.3 -39.4 -0.4z" fill="#d8e8f8" opacity="0.20"/>
<path d="M113.2 178.5c4.9 -1.5 9.9 -1.2 19.7 0.4c-6.2 -0.6 -12.3 -0.3 -19.7 -0.4z" fill="#d8e8f8" opacity="0.20"/>
<path d="M133.7 178.5c7 -1.5 13.9 -1.2 27.8 0.4c-8.7 -0.6 -17.4 -0.3 -27.8 -0.4z" fill="#d8e8f8" opacity="0.20"/>
<path d="M164.3 178.5c5.3 -1.5 10.5 -1.2 21.1 0.4c-6.6 -0.6 -13.2 -0.3 -21.1 -0.4z" fill="#d8e8f8" opacity="0.20"/>
<path d="M227.4 178.5c10.8 -1.5 21.5 -1.2 43.1 0.4c-13.5 -0.6 -26.9 -0.3 -43.1 -0.4z" fill="#d8e8f8" opacity="0.20"/>
<path d="M260.8 178.5c10.7 -1.5 21.3 -1.2 42.7 0.4c-13.3 -0.6 -26.7 -0.3 -42.7 -0.4z" fill="#d8e8f8" opacity="0.20"/>
<path d="M295.1 178.5c9.1 -1.5 18.2 -1.2 36.4 0.4c-11.4 -0.6 -22.8 -0.3 -36.4 -0.4z" fill="#d8e8f8" opacity="0.20"/>
<path d="M336.1 178.5c10.4 -1.5 20.9 -1.2 41.8 0.4c-13 -0.6 -26.1 -0.3 -41.8 -0.4z" fill="#d8e8f8" opacity="0.20"/>
<path d="M407.7 178.5c9.2 -1.5 18.4 -1.2 36.9 0.4c-11.5 -0.6 -23 -0.3 -36.9 -0.4z" fill="#d8e8f8" opacity="0.20"/>
<path d="M-10 194Q1.3 189.9 12.6 194Q29.8 189 47.1 194Q63.2 189.1 79.3 194Q91.4 187.9 103.4 194Q119.9 188.1 136.3 194Q148 189.8 159.8 194Q170.7 190.7 181.7 194Q197.7 187.4 213.7 194Q227.3 188.3 240.9 194Q258.6 186.8 276.3 194Q295.8 188.4 315.3 194Q329.4 187.7 343.6 194Q357.7 189.6 371.7 194Q391.8 188.8 411.9 194L410 300L-10 300Z" fill="#223a54"/>
<path d="M39.5 191.4c5.2 -2.6 10.4 -2.1 20.8 0.8c-6.5 -1 -13 -0.5 -20.8 -0.8z" fill="#d8e8f8" opacity="0.27"/>
<path d="M63.5 191.4c10.4 -2.6 20.8 -2.1 41.6 0.8c-13 -1 -26 -0.5 -41.6 -0.8z" fill="#d8e8f8" opacity="0.27"/>
<path d="M134.8 191.4c11.4 -2.6 22.9 -2.1 45.8 0.8c-14.3 -1 -28.6 -0.5 -45.8 -0.8z" fill="#d8e8f8" opacity="0.27"/>
<path d="M227.6 191.4c8.1 -2.6 16.3 -2.1 32.6 0.8c-10.2 -1 -20.4 -0.5 -32.6 -0.8z" fill="#d8e8f8" opacity="0.27"/>
<path d="M301.5 191.4c11.1 -2.6 22.2 -2.1 44.5 0.8c-13.9 -1 -27.8 -0.5 -44.5 -0.8z" fill="#d8e8f8" opacity="0.27"/>
<path d="M375.3 191.4c5.9 -2.6 11.7 -2.1 23.5 0.8c-7.3 -1 -14.7 -0.5 -23.5 -0.8z" fill="#d8e8f8" opacity="0.27"/>
<path d="M399.6 191.4c10.1 -2.6 20.1 -2.1 40.3 0.8c-12.6 -1 -25.2 -0.5 -40.3 -0.8z" fill="#d8e8f8" opacity="0.27"/>
<path d="M-10 208Q7.3 198 24.5 208Q41.2 203.2 57.9 208Q77.2 199.5 96.5 208Q111.5 199.7 126.6 208Q145 198.9 163.5 208Q183.5 203 203.6 208Q218.1 200.5 232.5 208Q251.9 199.6 271.2 208Q294.4 199.5 317.6 208Q339 202.8 360.4 208Q382.8 203.3 405.2 208Q421.6 197.9 437.9 208L410 300L-10 300Z" fill="#1a3048"/>
<path d="M223.6 204.3c10.7 -3.7 21.4 -3 42.7 1.1c-13.4 -1.5 -26.7 -0.7 -42.7 -1.1z" fill="#d8e8f8" opacity="0.34"/>
<path d="M258 204.3c4.3 -3.7 8.7 -3 17.3 1.1c-5.4 -1.5 -10.8 -0.7 -17.3 -1.1z" fill="#d8e8f8" opacity="0.34"/>
<path d="M281.4 204.3c7.1 -3.7 14.3 -3 28.5 1.1c-8.9 -1.5 -17.8 -0.7 -28.5 -1.1z" fill="#d8e8f8" opacity="0.34"/>
<path d="M318.7 204.3c8 -3.7 16 -3 32 1.1c-10 -1.5 -20 -0.7 -32 -1.1z" fill="#d8e8f8" opacity="0.34"/>
<path d="M371.4 204.3c10.4 -3.7 20.8 -3 41.5 1.1c-13 -1.5 -26 -0.7 -41.5 -1.1z" fill="#d8e8f8" opacity="0.34"/>
<path d="M-10 222Q14.4 215.5 38.8 222Q58 209.1 77.3 222Q94.2 211.7 111.1 222Q136.3 209.8 161.4 222Q176.7 212.1 192 222Q214.7 213 237.3 222Q255.5 209.4 273.7 222Q289.1 209.1 304.5 222Q326.9 212.3 349.3 222Q365.8 211.2 382.2 222Q408.1 215.9 434 222L410 300L-10 300Z" fill="#14263c"/>
<path d="M-10 217.2c4.1 -4.8 8.1 -3.8 16.3 1.4c-5.1 -1.9 -10.2 -1 -16.3 -1.4z" fill="#d8e8f8" opacity="0.41"/>
<path d="M15.7 217.2c5.7 -4.8 11.4 -3.8 22.8 1.4c-7.1 -1.9 -14.3 -1 -22.8 -1.4z" fill="#d8e8f8" opacity="0.41"/>
<path d="M47.9 217.2c6 -4.8 12 -3.8 24.1 1.4c-7.5 -1.9 -15 -1 -24.1 -1.4z" fill="#d8e8f8" opacity="0.41"/>
<path d="M156.8 217.2c7.2 -4.8 14.5 -3.8 29 1.4c-9 -1.9 -18.1 -1 -29 -1.4z" fill="#d8e8f8" opacity="0.41"/>
<path d="M186.8 217.2c10.4 -4.8 20.7 -3.8 41.5 1.4c-13 -1.9 -25.9 -1 -41.5 -1.4z" fill="#d8e8f8" opacity="0.41"/>
<path d="M400.9 217.2c11.5 -4.8 23 -3.8 45.9 1.4c-14.4 -1.9 -28.7 -1 -45.9 -1.4z" fill="#d8e8f8" opacity="0.41"/>
<path d="M-10 236Q18.9 222.8 47.9 236Q76.3 221.8 104.8 236Q132.4 221.9 160 236Q184.1 224.1 208.2 236Q233.4 227.6 258.6 236Q278 226.6 297.5 236Q326.7 220.1 355.8 236Q374.2 222.2 392.6 236Q415 221.7 437.4 236L410 300L-10 300Z" fill="#0e1e30"/>
<path d="M-10 230.1c9 -5.9 17.9 -4.7 35.9 1.8c-11.2 -2.4 -22.4 -1.2 -35.9 -1.8z" fill="#d8e8f8" opacity="0.48"/>
<path d="M32.3 230.1c4.8 -5.9 9.7 -4.7 19.4 1.8c-6.1 -2.4 -12.1 -1.2 -19.4 -1.8z" fill="#d8e8f8" opacity="0.48"/>
<path d="M49.9 230.1c9.6 -5.9 19.2 -4.7 38.5 1.8c-12 -2.4 -24 -1.2 -38.5 -1.8z" fill="#d8e8f8" opacity="0.48"/>
<path d="M120.2 230.1c9.3 -5.9 18.5 -4.7 37.1 1.8c-11.6 -2.4 -23.2 -1.2 -37.1 -1.8z" fill="#d8e8f8" opacity="0.48"/>
<path d="M156.9 230.1c8.2 -5.9 16.4 -4.7 32.7 1.8c-10.2 -2.4 -20.4 -1.2 -32.7 -1.8z" fill="#d8e8f8" opacity="0.48"/>
<path d="M248.6 230.1c9.3 -5.9 18.6 -4.7 37.2 1.8c-11.6 -2.4 -23.2 -1.2 -37.2 -1.8z" fill="#d8e8f8" opacity="0.48"/>
<path d="M288.2 230.1c8.3 -5.9 16.5 -4.7 33.1 1.8c-10.3 -2.4 -20.7 -1.2 -33.1 -1.8z" fill="#d8e8f8" opacity="0.48"/>
<path d="M326.6 230.1c9.5 -5.9 19 -4.7 38.1 1.8c-11.9 -2.4 -23.8 -1.2 -38.1 -1.8z" fill="#d8e8f8" opacity="0.48"/>
<path d="M362.4 230.1c11.7 -5.9 23.3 -4.7 46.6 1.8c-14.6 -2.4 -29.2 -1.2 -46.6 -1.8z" fill="#d8e8f8" opacity="0.48"/>
<path d="M-10 250Q10.3 237 30.7 250Q63.5 239.9 96.3 250Q117.7 237.4 139 250Q161 237.7 182.9 250Q205.7 234.9 228.5 250Q256.5 232.1 284.6 250Q317.8 236.9 351 250Q381.6 238.3 412.1 250L410 300L-10 300Z" fill="#0a1624"/>
<path d="M46.8 243c7.9 -7 15.8 -5.6 31.6 2.1c-9.9 -2.8 -19.7 -1.4 -31.6 -2.1z" fill="#d8e8f8" opacity="0.55"/>
<path d="M154.4 243c6.9 -7 13.9 -5.6 27.8 2.1c-8.7 -2.8 -17.4 -1.4 -27.8 -2.1z" fill="#d8e8f8" opacity="0.55"/>
<path d="M191.3 243c9.7 -7 19.4 -5.6 38.7 2.1c-12.1 -2.8 -24.2 -1.4 -38.7 -2.1z" fill="#d8e8f8" opacity="0.55"/>
<path d="M302.1 243c11.7 -7 23.5 -5.6 46.9 2.1c-14.7 -2.8 -29.3 -1.4 -46.9 -2.1z" fill="#d8e8f8" opacity="0.55"/>
<path d="M383.8 243c6.8 -7 13.7 -5.6 27.4 2.1c-8.5 -2.8 -17.1 -1.4 -27.4 -2.1z" fill="#d8e8f8" opacity="0.55"/>
<g filter="url(#t-storm-b1)" fill="none" stroke-linecap="round">
<path d="M90 240Q87.7 207.8 90.2 217.8" stroke="#e0f0ff" stroke-width="4.5" opacity="0.61"/>
<path d="M93 240Q93.8 191 103.8 201" stroke="#e0f0ff" stroke-width="2.7" opacity="0.53"/>
<path d="M96 240Q102.6 201.1 126 211.1" stroke="#e0f0ff" stroke-width="2.8" opacity="0.56"/>
<path d="M99 240Q94.1 204.3 90.6 214.3" stroke="#e0f0ff" stroke-width="3.5" opacity="0.69"/>
<path d="M102 240Q104.1 185 117.1 195" stroke="#e0f0ff" stroke-width="2.3" opacity="0.44"/>
<path d="M105 240Q106.6 187.2 118.3 197.2" stroke="#e0f0ff" stroke-width="3.4" opacity="0.53"/>
<path d="M108 240Q102.6 193.9 97.9 203.9" stroke="#e0f0ff" stroke-width="2.4" opacity="0.65"/>
<path d="M111 240Q118.4 200.8 143.8 210.8" stroke="#e0f0ff" stroke-width="2.9" opacity="0.69"/>
<path d="M114 240Q121 213.2 145.3 223.2" stroke="#e0f0ff" stroke-width="4" opacity="0.38"/>
<path d="M117 240Q121.1 210.2 138.8 220.2" stroke="#e0f0ff" stroke-width="2.6" opacity="0.59"/>
<path d="M120 240Q115.4 192.4 112.6 202.4" stroke="#e0f0ff" stroke-width="2.9" opacity="0.45"/>
<path d="M123 240Q121.8 198 127 208" stroke="#e0f0ff" stroke-width="3.7" opacity="0.54"/>
<path d="M126 240Q135.6 195.1 166.1 205.1" stroke="#e0f0ff" stroke-width="4.6" opacity="0.55"/>
<path d="M129 240Q130 183.8 140.5 193.8" stroke="#e0f0ff" stroke-width="2.7" opacity="0.55"/>
</g>
<ellipse cx="110" cy="236" rx="40" ry="10" fill="#e0f0ff" opacity="0.55" filter="url(#t-storm-b6)"/>
<circle cx="81.5" cy="190.2" r="1.29" fill="#e8f4ff" opacity="0.76"/>
<circle cx="94.1" cy="222.3" r="1.40" fill="#e8f4ff" opacity="0.42"/>
<circle cx="164.4" cy="184.7" r="1.54" fill="#e8f4ff" opacity="0.59"/>
<circle cx="124.1" cy="206.4" r="0.92" fill="#e8f4ff" opacity="0.44"/>
<circle cx="87.7" cy="236.3" r="1.73" fill="#e8f4ff" opacity="0.60"/>
<circle cx="78" cy="231.6" r="0.93" fill="#e8f4ff" opacity="0.60"/>
<circle cx="110.2" cy="217.6" r="0.85" fill="#e8f4ff" opacity="0.65"/>
<circle cx="75.1" cy="200.3" r="1.44" fill="#e8f4ff" opacity="0.76"/>
<circle cx="85.4" cy="221" r="1.24" fill="#e8f4ff" opacity="0.80"/>
<circle cx="90" cy="206.3" r="0.76" fill="#e8f4ff" opacity="0.58"/>
<circle cx="126.4" cy="190.1" r="1.16" fill="#e8f4ff" opacity="0.55"/>
<circle cx="110.4" cy="235.3" r="1.78" fill="#e8f4ff" opacity="0.61"/>
<circle cx="166.4" cy="218.6" r="0.58" fill="#e8f4ff" opacity="0.81"/>
<circle cx="135.1" cy="222.9" r="1.76" fill="#e8f4ff" opacity="0.68"/>
<circle cx="125.8" cy="219.2" r="1.48" fill="#e8f4ff" opacity="0.57"/>
<circle cx="132.3" cy="203.1" r="1.18" fill="#e8f4ff" opacity="0.66"/>
<circle cx="75.2" cy="186" r="0.99" fill="#e8f4ff" opacity="0.60"/>
<circle cx="89.4" cy="204.3" r="1.68" fill="#e8f4ff" opacity="0.50"/>
<circle cx="123.8" cy="227.7" r="0.98" fill="#e8f4ff" opacity="0.87"/>
<circle cx="114" cy="232" r="1.06" fill="#e8f4ff" opacity="0.67"/>
<circle cx="152.7" cy="217.1" r="1.35" fill="#e8f4ff" opacity="0.69"/>
<circle cx="120.6" cy="238.4" r="1.18" fill="#e8f4ff" opacity="0.68"/>
<circle cx="101" cy="211.4" r="0.66" fill="#e8f4ff" opacity="0.60"/>
<circle cx="94.9" cy="237.7" r="1.77" fill="#e8f4ff" opacity="0.73"/>
<circle cx="168.1" cy="182.8" r="1.02" fill="#e8f4ff" opacity="0.64"/>
<circle cx="159.4" cy="218" r="1.07" fill="#e8f4ff" opacity="0.79"/>
<circle cx="84.2" cy="195.4" r="1.52" fill="#e8f4ff" opacity="0.43"/>
<circle cx="107.3" cy="187.8" r="0.56" fill="#e8f4ff" opacity="0.57"/>
<circle cx="113.2" cy="217.9" r="1.60" fill="#e8f4ff" opacity="0.82"/>
<circle cx="105" cy="183.7" r="1.12" fill="#e8f4ff" opacity="0.64"/>
<circle cx="121.1" cy="234.7" r="1.41" fill="#e8f4ff" opacity="0.71"/>
<circle cx="83.8" cy="181.7" r="0.57" fill="#e8f4ff" opacity="0.61"/>
<circle cx="148.1" cy="213.1" r="0.90" fill="#e8f4ff" opacity="0.46"/>
<circle cx="142.5" cy="184.7" r="0.59" fill="#e8f4ff" opacity="0.67"/>
<circle cx="88.6" cy="219" r="1.13" fill="#e8f4ff" opacity="0.73"/>
<circle cx="77.6" cy="202.1" r="0.51" fill="#e8f4ff" opacity="0.55"/>
<circle cx="124" cy="194.2" r="0.81" fill="#e8f4ff" opacity="0.67"/>
<circle cx="116.4" cy="197" r="0.70" fill="#e8f4ff" opacity="0.89"/>
<circle cx="167.3" cy="224.4" r="0.56" fill="#e8f4ff" opacity="0.82"/>
<circle cx="139.2" cy="215.4" r="0.84" fill="#e8f4ff" opacity="0.49"/>
<circle cx="146.4" cy="224.7" r="0.70" fill="#e8f4ff" opacity="0.40"/>
<circle cx="154.7" cy="239.7" r="1.11" fill="#e8f4ff" opacity="0.55"/>
<circle cx="84.4" cy="180.2" r="0.54" fill="#e8f4ff" opacity="0.58"/>
<circle cx="125.3" cy="201.9" r="1.29" fill="#e8f4ff" opacity="0.78"/>
<circle cx="98.7" cy="195.2" r="0.79" fill="#e8f4ff" opacity="0.54"/>
<circle cx="124.3" cy="223.9" r="1.77" fill="#e8f4ff" opacity="0.57"/>
<circle cx="128.4" cy="193.4" r="1.14" fill="#e8f4ff" opacity="0.41"/>
<circle cx="144.9" cy="214.8" r="0.79" fill="#e8f4ff" opacity="0.79"/>
<circle cx="126.5" cy="221" r="1.71" fill="#e8f4ff" opacity="0.52"/>
<circle cx="127.7" cy="202" r="0.95" fill="#e8f4ff" opacity="0.66"/>
<path d="M-10 60C10 70 30 90 42 110C54 128 60 150 72 170C80 186 76 206 88 230C94 246 88 262 96 300L-10 300Z" fill="url(#t-storm-cliff)"/>
<path d="M-10 60C10 70 30 90 42 110C54 128 60 150 72 170C80 186 76 206 88 230" stroke="#8aa0c8" stroke-width="1.2" fill="none" opacity="0.7"/>
<path d="M-10 186.2C10 189.2 30 184.2 67.8 185.8" stroke="#0a0c10" stroke-width="1.3" fill="none" opacity="0.7"/>
<path d="M-10 165.3C10 168.3 30 163.3 63.2 166.2" stroke="#0a0c10" stroke-width="1.2" fill="none" opacity="0.7"/>
<path d="M-10 145.6C10 148.6 30 143.6 58.8 144.1" stroke="#0a0c10" stroke-width="0.5" fill="none" opacity="0.7"/>
<path d="M-10 153.6C10 156.6 30 151.6 60.6 153.1" stroke="#0a0c10" stroke-width="0.7" fill="none" opacity="0.7"/>
<path d="M-10 160.1C10 163.1 30 158.1 62 162.4" stroke="#0a0c10" stroke-width="0.9" fill="none" opacity="0.7"/>
<path d="M-10 158.1C10 161.1 30 156.1 61.6 155.9" stroke="#0a0c10" stroke-width="1.1" fill="none" opacity="0.7"/>
<path d="M-10 262.5C10 265.5 30 260.5 84.6 262.4" stroke="#0a0c10" stroke-width="1.3" fill="none" opacity="0.7"/>
<path d="M-10 103.4C10 106.4 30 101.4 49.5 105.6" stroke="#0a0c10" stroke-width="1.4" fill="none" opacity="0.7"/>
<path d="M-10 233.2C10 236.2 30 231.2 78.1 231.7" stroke="#0a0c10" stroke-width="0.8" fill="none" opacity="0.7"/>
<path d="M-10 259.3C10 262.3 30 257.3 83.8 255.5" stroke="#0a0c10" stroke-width="1.2" fill="none" opacity="0.7"/>
<path d="M-10 259.8C10 262.8 30 257.8 84 262.5" stroke="#0a0c10" stroke-width="1.1" fill="none" opacity="0.7"/>
<path d="M-10 124.2C10 127.2 30 122.2 54.1 122.2" stroke="#0a0c10" stroke-width="1.0" fill="none" opacity="0.7"/>
<path d="M42 110L20 170L58 150Z" fill="#6a7a98" opacity="0.18"/>
<path d="M72 170L40 230L80 205Z" fill="#6a7a98" opacity="0.18"/>
<path d="M20 80L4 130L34 100Z" fill="#6a7a98" opacity="0.18"/>
<path d="M33.5 96.9Q39.4 91.2 41 82.7L39 81.6Q36.9 89.8 30.5 95.1Z" fill="#0a0c10"/>
<path d="M41.2 82.2Q42.3 76.3 41.6 69.6L40.1 69.5Q40.3 76.2 38.8 82.1Z" fill="#0a0c10"/>
<path d="M41.6 69.4Q40.7 64.2 39.3 60.3L38.3 60.6Q39.4 64.5 40.1 69.7Z" fill="#0a0c10"/>
<path d="M39.3 60.2Q38.3 57.9 35.3 54.2L34.7 54.6Q37.6 58.3 38.4 60.7Z" fill="#0a0c10"/>
<path d="M39.3 60.5Q39.2 56.6 39.9 53.9L39.3 53.8Q38.4 56.5 38.3 60.4Z" fill="#0a0c10"/>
<path d="M41.6 69.7Q41.9 65.1 43.2 60.9L42.2 60.7Q40.7 64.8 40.1 69.4Z" fill="#0a0c10"/>
<path d="M43.2 60.8Q42.3 56.9 42.4 54.2L41.8 54.3Q41.5 56.9 42.2 60.8Z" fill="#0a0c10"/>
<path d="M43.2 60.9Q43.6 58.6 43.9 55.1L43.3 55Q42.8 58.4 42.2 60.7Z" fill="#0a0c10"/>
<path d="M43.1 61.1Q45.4 58.9 46.3 56.1L45.7 55.7Q44.7 58.5 42.3 60.5Z" fill="#0a0c10"/>
<path d="M40.7 83.1Q46.7 79.8 50.7 75L49.7 73.8Q45.5 78.2 39.3 81.2Z" fill="#0a0c10"/>
<path d="M50.7 74.9Q53.2 71.6 57.8 67.3L57.1 66.6Q52.3 70.7 49.7 73.8Z" fill="#0a0c10"/>
<path d="M57.9 67.1Q59.5 64.3 61 60.2L60.4 60Q58.7 64 57 66.7Z" fill="#0a0c10"/>
<path d="M57.8 67.3Q60.3 64.9 63.4 61.3L63 60.8Q59.7 64.3 57.1 66.6Z" fill="#0a0c10"/>
<path d="M57.6 67.4Q61.3 66.7 64.6 64.7L64.3 64.1Q61 65.9 57.3 66.4Z" fill="#0a0c10"/>
<path d="M50.4 75.1Q54 73.5 59.2 72.5L59 71.5Q53.7 72.3 50 73.6Z" fill="#0a0c10"/>
<path d="M59.4 72.4Q61.7 70.6 65 67.6L64.6 67.1Q61.2 70 58.8 71.6Z" fill="#0a0c10"/>
<path d="M59.1 72.5Q63.3 72.4 66.6 72.3L66.5 71.6Q63.3 71.6 59.1 71.5Z" fill="#0a0c10"/>
<g stroke="#b0c8e8" stroke-linecap="round">
<path d="M194.1 177.7l-2.5 7" stroke-width="0.64" opacity="0.45"/>
<path d="M184.6 284.9l-4 11.4" stroke-width="0.60" opacity="0.20"/>
<path d="M290.5 119.4l-4.7 13.5" stroke-width="0.68" opacity="0.37"/>
<path d="M163.8 60.1l-4.6 13.2" stroke-width="0.50" opacity="0.54"/>
<path d="M392.7 245.5l-2.4 6.8" stroke-width="0.36" opacity="0.36"/>
<path d="M10.2 104.5l-4.4 12.7" stroke-width="0.53" opacity="0.43"/>
<path d="M281.7 32l-2.9 8.4" stroke-width="0.55" opacity="0.48"/>
<path d="M87.5 16.6l-3 8.5" stroke-width="0.33" opacity="0.32"/>
<path d="M291.9 207.8l-3.1 8.8" stroke-width="0.35" opacity="0.30"/>
<path d="M119.2 224l-2.9 8.3" stroke-width="0.49" opacity="0.22"/>
<path d="M159.1 21.4l-2.6 7.3" stroke-width="0.31" opacity="0.29"/>
<path d="M314.6 16l-4.9 13.9" stroke-width="0.32" opacity="0.37"/>
<path d="M345.5 223.3l-3.5 9.9" stroke-width="0.69" opacity="0.49"/>
<path d="M263.5 155.3l-3.4 9.6" stroke-width="0.36" opacity="0.42"/>
<path d="M279.6 255.7l-2.8 7.9" stroke-width="0.64" opacity="0.41"/>
<path d="M306.5 25.8l-2.3 6.6" stroke-width="0.39" opacity="0.55"/>
<path d="M92.3 266.2l-3.7 10.6" stroke-width="0.63" opacity="0.27"/>
<path d="M249.3 55.7l-2.2 6.2" stroke-width="0.30" opacity="0.28"/>
<path d="M340.2 229.4l-3.3 9.5" stroke-width="0.60" opacity="0.38"/>
<path d="M359.4 202.7l-3.1 8.8" stroke-width="0.48" opacity="0.52"/>
<path d="M-5.5 229.9l-2.5 7" stroke-width="0.50" opacity="0.24"/>
<path d="M346.1 242.5l-2.4 7" stroke-width="0.64" opacity="0.55"/>
<path d="M265.9 262.2l-2.4 6.7" stroke-width="0.32" opacity="0.37"/>
<path d="M395.5 67.9l-3.1 8.8" stroke-width="0.36" opacity="0.31"/>
<path d="M40.4 298.7l-4.5 12.8" stroke-width="0.53" opacity="0.53"/>
<path d="M321.9 259.8l-2.9 8.4" stroke-width="0.67" opacity="0.44"/>
<path d="M262.6 163.5l-3 8.5" stroke-width="0.55" opacity="0.29"/>
<path d="M273.6 116.5l-3.9 11" stroke-width="0.62" opacity="0.24"/>
<path d="M217 70.3l-2.5 7" stroke-width="0.35" opacity="0.44"/>
<path d="M327.1 187.3l-3.5 10.1" stroke-width="0.58" opacity="0.49"/>
<path d="M28.7 147.5l-3.1 8.8" stroke-width="0.36" opacity="0.27"/>
<path d="M316.3 123.5l-3.9 11" stroke-width="0.68" opacity="0.44"/>
<path d="M143.3 203.1l-3 8.5" stroke-width="0.62" opacity="0.26"/>
<path d="M280.7 53.3l-3.5 9.9" stroke-width="0.41" opacity="0.51"/>
<path d="M83.4 205.4l-2.7 7.6" stroke-width="0.56" opacity="0.33"/>
<path d="M245.7 65.6l-4.5 12.8" stroke-width="0.62" opacity="0.32"/>
<path d="M246.4 294.2l-2.8 8.1" stroke-width="0.39" opacity="0.48"/>
<path d="M112.8 227.1l-3.4 9.7" stroke-width="0.36" opacity="0.42"/>
<path d="M9.1 264.1l-3.1 8.8" stroke-width="0.56" opacity="0.26"/>
<path d="M187.2 266.4l-3.6 10.3" stroke-width="0.52" opacity="0.37"/>
<path d="M194.3 40.2l-2.2 6.4" stroke-width="0.45" opacity="0.21"/>
<path d="M308.6 259.9l-2.7 7.8" stroke-width="0.30" opacity="0.30"/>
<path d="M360.4 239.7l-3 8.4" stroke-width="0.55" opacity="0.28"/>
<path d="M86.3 32.3l-2.7 7.7" stroke-width="0.54" opacity="0.23"/>
<path d="M168 92l-3.9 11.2" stroke-width="0.38" opacity="0.37"/>
<path d="M410.7 294.1l-2.2 6.3" stroke-width="0.66" opacity="0.21"/>
<path d="M247.9 205.8l-4.5 12.7" stroke-width="0.45" opacity="0.47"/>
<path d="M92 233.2l-3.5 9.9" stroke-width="0.32" opacity="0.43"/>
<path d="M235.7 200.9l-4 11.3" stroke-width="0.36" opacity="0.37"/>
<path d="M199.2 96.3l-3.4 9.7" stroke-width="0.40" opacity="0.21"/>
<path d="M386 188.5l-3.7 10.6" stroke-width="0.53" opacity="0.52"/>
<path d="M200.5 194.4l-2.5 7.2" stroke-width="0.49" opacity="0.54"/>
<path d="M149.5 22.1l-3.5 10" stroke-width="0.44" opacity="0.25"/>
<path d="M410.8 2.7l-3 8.6" stroke-width="0.50" opacity="0.26"/>
<path d="M128.7 66.7l-4.5 12.8" stroke-width="0.53" opacity="0.49"/>
<path d="M-6.4 166l-2.4 6.8" stroke-width="0.34" opacity="0.40"/>
<path d="M23.7 4.1l-4.7 13.5" stroke-width="0.36" opacity="0.34"/>
<path d="M107.7 105.6l-4.1 11.8" stroke-width="0.40" opacity="0.48"/>
<path d="M285.5 128l-3.2 9.1" stroke-width="0.49" opacity="0.44"/>
<path d="M224.2 32.1l-3.7 10.5" stroke-width="0.55" opacity="0.36"/>
<path d="M124.4 132.8l-4.2 11.9" stroke-width="0.63" opacity="0.36"/>
<path d="M113.6 199.1l-3.3 9.4" stroke-width="0.40" opacity="0.32"/>
<path d="M194.9 286.2l-2.3 6.7" stroke-width="0.68" opacity="0.42"/>
<path d="M336.5 2.4l-3.2 9.1" stroke-width="0.49" opacity="0.27"/>
<path d="M128.7 215.9l-4.9 13.9" stroke-width="0.36" opacity="0.32"/>
<path d="M191.5 116.4l-3.4 9.8" stroke-width="0.54" opacity="0.52"/>
<path d="M301.6 212.5l-4.1 11.8" stroke-width="0.51" opacity="0.43"/>
<path d="M80.1 162.4l-3.6 10.4" stroke-width="0.49" opacity="0.44"/>
<path d="M343.9 -7.8l-2.6 7.3" stroke-width="0.62" opacity="0.52"/>
<path d="M380.9 256.4l-3.8 10.8" stroke-width="0.68" opacity="0.41"/>
<path d="M328.4 137l-2.1 6.1" stroke-width="0.38" opacity="0.48"/>
<path d="M381.1 40.3l-3.1 8.9" stroke-width="0.31" opacity="0.47"/>
<path d="M27.9 150l-2.1 6.1" stroke-width="0.52" opacity="0.53"/>
<path d="M97.1 -4.7l-3.6 10.4" stroke-width="0.55" opacity="0.21"/>
<path d="M349.4 71.5l-3.7 10.7" stroke-width="0.48" opacity="0.21"/>
<path d="M290.7 11.8l-2.8 8.1" stroke-width="0.48" opacity="0.45"/>
<path d="M393.7 81.2l-3.6 10.2" stroke-width="0.41" opacity="0.50"/>
<path d="M316.7 146l-3.7 10.7" stroke-width="0.32" opacity="0.47"/>
<path d="M407.7 145l-2.5 7.1" stroke-width="0.33" opacity="0.21"/>
<path d="M89 224.8l-3.5 10.1" stroke-width="0.53" opacity="0.39"/>
<path d="M219.1 164.1l-3.8 10.9" stroke-width="0.40" opacity="0.51"/>
<path d="M55.5 294.6l-3.3 9.6" stroke-width="0.67" opacity="0.41"/>
<path d="M238.7 188.4l-3.5 10" stroke-width="0.34" opacity="0.20"/>
<path d="M-15.1 91.7l-2.7 7.9" stroke-width="0.34" opacity="0.21"/>
<path d="M319.1 205.8l-4.8 13.8" stroke-width="0.33" opacity="0.23"/>
<path d="M151.7 260.6l-3 8.5" stroke-width="0.68" opacity="0.53"/>
<path d="M76.9 161.1l-2.8 8.1" stroke-width="0.64" opacity="0.25"/>
<path d="M15.2 262.5l-2.9 8.4" stroke-width="0.38" opacity="0.38"/>
<path d="M-11 89.8l-2.5 7.1" stroke-width="0.54" opacity="0.43"/>
<path d="M229.9 182.8l-2.9 8.3" stroke-width="0.62" opacity="0.48"/>
<path d="M266.9 80.5l-3.6 10.4" stroke-width="0.66" opacity="0.35"/>
<path d="M130.8 229.6l-2.5 7.2" stroke-width="0.36" opacity="0.23"/>
<path d="M103.3 258.8l-2.5 7.3" stroke-width="0.38" opacity="0.25"/>
<path d="M297.3 173.8l-3.6 10.4" stroke-width="0.53" opacity="0.45"/>
<path d="M277.8 52.6l-4.4 12.6" stroke-width="0.38" opacity="0.50"/>
<path d="M359.9 222.8l-2.8 8.1" stroke-width="0.61" opacity="0.31"/>
<path d="M266.2 70.7l-2.9 8.2" stroke-width="0.70" opacity="0.53"/>
<path d="M168.6 -4.9l-4.1 11.7" stroke-width="0.32" opacity="0.20"/>
<path d="M227.8 123l-2.8 7.9" stroke-width="0.45" opacity="0.42"/>
<path d="M43.7 187l-3.4 9.6" stroke-width="0.32" opacity="0.37"/>
<path d="M169.1 89.1l-3.1 8.9" stroke-width="0.65" opacity="0.40"/>
<path d="M356.9 63.9l-4.1 11.8" stroke-width="0.37" opacity="0.28"/>
<path d="M210.4 57.7l-4.4 12.5" stroke-width="0.58" opacity="0.39"/>
<path d="M136.6 268l-3.9 11" stroke-width="0.68" opacity="0.49"/>
<path d="M347.6 277.5l-2.4 6.9" stroke-width="0.41" opacity="0.48"/>
<path d="M307.8 77l-4.6 13.2" stroke-width="0.54" opacity="0.33"/>
<path d="M215.6 86.6l-2.7 7.6" stroke-width="0.46" opacity="0.33"/>
<path d="M113.7 292.6l-2.6 7.5" stroke-width="0.30" opacity="0.26"/>
<path d="M341.1 80.1l-2.3 6.5" stroke-width="0.53" opacity="0.23"/>
<path d="M127.9 47l-3 8.6" stroke-width="0.43" opacity="0.29"/>
<path d="M250.1 59.2l-4.3 12.2" stroke-width="0.40" opacity="0.28"/>
<path d="M253.4 297.1l-3.2 9.3" stroke-width="0.53" opacity="0.51"/>
<path d="M210.9 239.9l-2.1 6.1" stroke-width="0.62" opacity="0.32"/>
<path d="M225.3 50l-2.1 6.1" stroke-width="0.43" opacity="0.43"/>
<path d="M157.6 183.9l-3.6 10.2" stroke-width="0.52" opacity="0.28"/>
<path d="M346 -2.2l-3.6 10.3" stroke-width="0.68" opacity="0.51"/>
<path d="M210.2 254.4l-3 8.7" stroke-width="0.63" opacity="0.49"/>
<path d="M306 117.7l-4.4 12.7" stroke-width="0.43" opacity="0.36"/>
<path d="M343.1 239l-2.8 7.9" stroke-width="0.41" opacity="0.36"/>
<path d="M246.3 72.4l-3.6 10.3" stroke-width="0.49" opacity="0.28"/>
<path d="M-10.7 194.8l-3.8 11" stroke-width="0.53" opacity="0.47"/>
<path d="M368.5 289.2l-4.2 11.9" stroke-width="0.49" opacity="0.37"/>
<path d="M177.9 6.4l-3.8 10.8" stroke-width="0.40" opacity="0.41"/>
<path d="M249.2 46.8l-3.4 9.7" stroke-width="0.67" opacity="0.20"/>
<path d="M287.8 179.1l-3.3 9.5" stroke-width="0.69" opacity="0.49"/>
<path d="M239.4 154.8l-4.1 11.8" stroke-width="0.69" opacity="0.40"/>
<path d="M149 70.3l-4.7 13.5" stroke-width="0.30" opacity="0.29"/>
<path d="M247.3 40.2l-4.8 13.8" stroke-width="0.31" opacity="0.48"/>
<path d="M32.8 291.6l-2.7 7.6" stroke-width="0.50" opacity="0.51"/>
<path d="M19.2 270.6l-4 11.5" stroke-width="0.41" opacity="0.41"/>
<path d="M414 259.5l-3.6 10.2" stroke-width="0.48" opacity="0.43"/>
<path d="M345.6 130.2l-3.7 10.7" stroke-width="0.53" opacity="0.27"/>
<path d="M280.4 193.9l-2.3 6.6" stroke-width="0.54" opacity="0.29"/>
<path d="M176.7 208.2l-2.9 8.3" stroke-width="0.69" opacity="0.44"/>
<path d="M416.7 177.8l-2.3 6.7" stroke-width="0.36" opacity="0.42"/>
<path d="M256.7 109.7l-4.1 11.6" stroke-width="0.68" opacity="0.21"/>
<path d="M73.5 260.5l-3.4 9.7" stroke-width="0.65" opacity="0.31"/>
<path d="M33.3 46.6l-3.8 10.9" stroke-width="0.39" opacity="0.46"/>
<path d="M241.9 108.8l-2.8 7.9" stroke-width="0.55" opacity="0.45"/>
<path d="M383.4 137.7l-2.1 6.1" stroke-width="0.38" opacity="0.33"/>
<path d="M62.9 31.8l-2.8 8.1" stroke-width="0.37" opacity="0.33"/>
<path d="M100.4 -4l-4.5 12.9" stroke-width="0.40" opacity="0.23"/>
<path d="M239.3 141.3l-3.9 11.3" stroke-width="0.58" opacity="0.35"/>
<path d="M56.6 206l-4.5 12.8" stroke-width="0.53" opacity="0.40"/>
<path d="M240.7 264l-3.8 11" stroke-width="0.48" opacity="0.22"/>
<path d="M221.4 186.5l-4.1 11.7" stroke-width="0.38" opacity="0.51"/>
<path d="M375.1 75.4l-4.9 13.9" stroke-width="0.66" opacity="0.52"/>
<path d="M13.8 6.7l-4.2 11.9" stroke-width="0.60" opacity="0.35"/>
<path d="M392.9 121.7l-4 11.3" stroke-width="0.66" opacity="0.23"/>
<path d="M-8.7 65.8l-4.6 13.2" stroke-width="0.32" opacity="0.22"/>
<path d="M146 129.9l-3.5 10" stroke-width="0.57" opacity="0.33"/>
<path d="M255.1 156.3l-3.2 9" stroke-width="0.33" opacity="0.32"/>
<path d="M333.5 268.8l-4 11.3" stroke-width="0.69" opacity="0.53"/>
<path d="M49.7 129.7l-2.9 8.2" stroke-width="0.44" opacity="0.52"/>
<path d="M81.7 53.1l-2.3 6.5" stroke-width="0.51" opacity="0.34"/>
<path d="M258.5 239.6l-4.1 11.6" stroke-width="0.31" opacity="0.32"/>
<path d="M374.7 12.8l-4.5 12.8" stroke-width="0.47" opacity="0.36"/>
<path d="M165.2 128.2l-3.7 10.6" stroke-width="0.66" opacity="0.22"/>
<path d="M406.3 167l-3.1 8.9" stroke-width="0.39" opacity="0.27"/>
<path d="M271.6 119.2l-4.7 13.4" stroke-width="0.33" opacity="0.28"/>
<path d="M106.4 41.7l-4.1 11.9" stroke-width="0.51" opacity="0.47"/>
<path d="M6.3 48.8l-2.2 6.3" stroke-width="0.51" opacity="0.45"/>
<path d="M24.4 129.7l-4.8 13.7" stroke-width="0.46" opacity="0.27"/>
<path d="M58.6 99.9l-3.5 9.9" stroke-width="0.32" opacity="0.22"/>
<path d="M327.7 128l-4.1 11.7" stroke-width="0.46" opacity="0.26"/>
<path d="M164.3 269.8l-3.4 9.8" stroke-width="0.56" opacity="0.42"/>
<path d="M240.4 130.1l-3.6 10.2" stroke-width="0.38" opacity="0.44"/>
<path d="M328 191.8l-4.1 11.9" stroke-width="0.50" opacity="0.27"/>
<path d="M162.6 255.7l-2.2 6.4" stroke-width="0.58" opacity="0.22"/>
<path d="M97 6.5l-2.4 7" stroke-width="0.68" opacity="0.38"/>
<path d="M37.2 264.8l-4.4 12.6" stroke-width="0.35" opacity="0.51"/>
<path d="M-17.7 30.4l-3 8.6" stroke-width="0.44" opacity="0.44"/>
<path d="M-3.6 -5.6l-2.3 6.5" stroke-width="0.42" opacity="0.22"/>
<path d="M207.9 129.4l-3 8.7" stroke-width="0.57" opacity="0.25"/>
<path d="M224.5 182.7l-4.2 12.1" stroke-width="0.38" opacity="0.34"/>
<path d="M78 168.5l-4.7 13.4" stroke-width="0.50" opacity="0.46"/>
<path d="M124.2 44.6l-3.7 10.6" stroke-width="0.30" opacity="0.49"/>
<path d="M0 156.5l-3.5 9.9" stroke-width="0.39" opacity="0.44"/>
<path d="M25.5 56.8l-2.4 7" stroke-width="0.64" opacity="0.29"/>
<path d="M254.5 156.8l-4.5 12.9" stroke-width="0.59" opacity="0.48"/>
<path d="M-7.6 190.7l-3.6 10.4" stroke-width="0.32" opacity="0.52"/>
<path d="M73.8 18.7l-4.6 13.2" stroke-width="0.66" opacity="0.40"/>
<path d="M199.3 154.4l-2.9 8.4" stroke-width="0.33" opacity="0.36"/>
<path d="M150.8 298.6l-3.7 10.5" stroke-width="0.54" opacity="0.20"/>
<path d="M280.7 121.6l-4.8 13.8" stroke-width="0.59" opacity="0.53"/>
<path d="M129.5 290.1l-3.7 10.6" stroke-width="0.52" opacity="0.54"/>
<path d="M21.5 281l-3.5 10" stroke-width="0.69" opacity="0.34"/>
<path d="M285.1 265.6l-4.8 13.8" stroke-width="0.31" opacity="0.21"/>
<path d="M68.2 208.1l-4.1 11.8" stroke-width="0.51" opacity="0.21"/>
<path d="M81.7 34.2l-2.7 7.6" stroke-width="0.37" opacity="0.47"/>
<path d="M201.3 298.6l-3.3 9.4" stroke-width="0.45" opacity="0.24"/>
<path d="M406.8 192.1l-2.5 7.1" stroke-width="0.40" opacity="0.44"/>
<path d="M198.1 162.3l-4.3 12.3" stroke-width="0.34" opacity="0.24"/>
<path d="M151.2 25.9l-4.1 11.6" stroke-width="0.66" opacity="0.45"/>
<path d="M214.3 177.5l-3.9 11.2" stroke-width="0.51" opacity="0.23"/>
<path d="M14.5 97l-3.2 9.1" stroke-width="0.46" opacity="0.21"/>
<path d="M238.3 161.1l-4.7 13.4" stroke-width="0.34" opacity="0.50"/>
<path d="M40 228.4l-3 8.6" stroke-width="0.46" opacity="0.53"/>
<path d="M258.9 146.7l-4.9 13.9" stroke-width="0.47" opacity="0.41"/>
<path d="M353.5 32.8l-3.4 9.6" stroke-width="0.35" opacity="0.24"/>
<path d="M89.3 229.6l-2.7 7.6" stroke-width="0.41" opacity="0.34"/>
<path d="M418.4 225.1l-4.4 12.7" stroke-width="0.63" opacity="0.41"/>
<path d="M174.7 136.5l-2.5 7.3" stroke-width="0.61" opacity="0.43"/>
<path d="M244.6 13.7l-4.2 12.1" stroke-width="0.44" opacity="0.43"/>
<path d="M64.6 65.8l-3.1 9" stroke-width="0.62" opacity="0.30"/>
<path d="M205.2 198.6l-3.3 9.5" stroke-width="0.42" opacity="0.32"/>
<path d="M248.8 142.2l-4.7 13.4" stroke-width="0.66" opacity="0.29"/>
<path d="M174.9 128.8l-4 11.5" stroke-width="0.54" opacity="0.21"/>
<path d="M102.9 8.5l-4.5 12.9" stroke-width="0.46" opacity="0.29"/>
<path d="M31.7 53.4l-4.9 14" stroke-width="0.63" opacity="0.33"/>
<path d="M193.8 0.2l-2.3 6.6" stroke-width="0.44" opacity="0.34"/>
<path d="M163.7 179.1l-3 8.6" stroke-width="0.61" opacity="0.51"/>
<path d="M-2.6 53.8l-2.2 6.3" stroke-width="0.68" opacity="0.43"/>
<path d="M143.1 221.6l-4.7 13.5" stroke-width="0.66" opacity="0.52"/>
<path d="M176.7 91.2l-3.2 9.3" stroke-width="0.42" opacity="0.32"/>
<path d="M3.7 198.3l-2.5 7.2" stroke-width="0.59" opacity="0.41"/>
<path d="M73.1 33l-3.4 9.8" stroke-width="0.62" opacity="0.36"/>
<path d="M215 138.8l-3.3 9.3" stroke-width="0.53" opacity="0.25"/>
<path d="M27.8 148.3l-3.1 8.8" stroke-width="0.45" opacity="0.28"/>
<path d="M271.3 144l-4.1 11.8" stroke-width="0.68" opacity="0.26"/>
</g>
<rect width="400" height="300" fill="url(#t-storm-vig)"/>
</svg>
